<svg width="81" height="24" viewBox="0 0 81 24" fill="none" xmlns="http://www.w3.org/2000/svg">
<path d="M10.2201 0.364877H0.955078V23.6882H10.1581C16.6344 23.6882 21.5303 19.3852 21.5303 12.0265C21.5303 4.66784 16.6963 0.364877 10.2201 0.364877ZM10.2201 3.54533C14.7442 3.54533 17.8428 6.44515 17.8428 12.0265C17.8428 17.6079 14.6822 20.5077 10.1891 20.5077H4.61151V3.54533H10.2201Z" fill="white"/>
<path d="M31.6359 7.41176C26.8949 7.41176 23.3315 10.6234 23.3315 15.7059C23.3315 20.7572 26.8949 24 31.6359 24C36.3459 24 39.9094 20.7572 39.9094 15.7059C39.9094 10.6234 36.3459 7.41176 31.6359 7.41176ZM31.6359 10.4051C34.3627 10.4051 36.4079 12.3695 36.4079 15.7059C36.4079 19.0111 34.3627 20.9755 31.6359 20.9755C28.8781 20.9755 26.864 19.0111 26.864 15.7059C26.864 12.3695 28.8781 10.4051 31.6359 10.4051Z" fill="white"/>
<path d="M45.9771 0.134796H42.5066V23.6882H45.9771V0.134796Z" fill="white"/>
<path d="M52.8037 0.134796H49.3331V23.6882H52.8037V0.134796Z" fill="white"/>
<path d="M62.4866 7.41176C58.5203 7.41176 56.1653 10.2492 56.1653 13.0555L59.6668 13.1802C59.6668 11.7459 60.5344 10.4675 62.5176 10.4675C64.4698 10.4675 65.3374 11.7459 65.3374 13.8038V14.2716L61.557 14.4898C58.3034 14.6769 55.7315 15.893 55.7315 19.3229C55.7315 22.3162 57.8696 24 61.0302 24C62.7965 24 64.2219 23.314 65.3374 22.2539V23.6882H68.8389V13.7415C68.8389 9.65678 66.5769 7.41176 62.4866 7.41176ZM65.3684 16.9843V17.5456C65.3684 19.9777 63.819 21.069 61.619 21.069C60.2246 21.069 59.233 20.6013 59.233 19.2605C59.233 17.8262 60.4105 17.2961 62.0528 17.2026L65.3684 16.9843Z" fill="white"/>
<path d="M80.2361 7.5053C77.6952 7.5053 76.3008 8.69018 75.7121 9.93741V7.69239H72.3345V23.6882H75.805V14.9887C75.805 12.6502 77.5093 10.904 80.2361 10.904V7.5053Z" fill="white"/>
</svg>
