<svg width="107" height="24" viewBox="0 0 107 24" fill="none" xmlns="http://www.w3.org/2000/svg">
<path d="M73.6726 10.1332C73.9248 10.1333 74.1744 10.1838 74.4067 10.2817C74.6398 10.38 74.8508 10.5239 75.0273 10.705C75.3891 11.072 75.5918 11.5667 75.5915 12.0821V23.3645H70.8359V20.9318C69.6814 22.6427 66.9767 23.6473 64.8408 23.6056C63.3327 23.6233 61.8378 23.3235 60.4532 22.7257C59.0686 22.1279 57.8253 21.2455 56.804 20.1358C54.685 17.879 53.5055 14.8996 53.5055 11.8039C53.5055 8.70817 54.685 5.72877 56.804 3.47191C57.8236 2.36284 59.065 1.48063 60.4477 0.882596C61.8304 0.284561 63.3235 -0.0159264 64.8299 0.000650345C67.0534 -0.0238103 69.225 0.672405 71.0198 1.98511C71.4523 2.30089 71.8624 2.64638 72.2469 3.01907C72.8393 3.59472 73.3697 4.23083 73.8296 4.91699C74.5029 5.93895 74.9847 7.07486 75.2514 8.26924H70.3459L70.1079 7.84577C69.6486 7.0253 69.0124 6.31733 68.2456 5.77321C67.2497 5.07749 66.06 4.71303 64.8454 4.73152C63.9623 4.7102 63.085 4.87996 62.2736 5.22918C61.46 5.5821 60.7308 6.10421 60.1346 6.7608C58.9132 8.16673 58.2394 9.9657 58.2366 11.828C58.2337 13.6904 58.9021 15.4914 60.1191 16.901C60.715 17.5584 61.4449 18.0801 62.2597 18.4311C63.071 18.781 63.9483 18.9512 64.8315 18.9303C66.2912 18.9349 67.7011 18.4005 68.7911 17.4296C69.7524 16.5641 70.3892 15.8841 70.6628 14.4931L64.0077 14.5225L63.9582 10.1332H73.6726Z" fill="#0074F0"/>
<path d="M22.1199 8.7939C22.2997 9.52688 22.4128 10.2746 22.4581 11.0279C22.6137 13.4202 22.0646 15.8057 20.8786 17.8891C19.063 21.0171 15.7142 23.2326 12.1154 23.5645C11.1998 23.6468 10.2775 23.6089 9.37182 23.4518C7.93174 23.2045 6.55517 22.6734 5.32213 21.8894C4.71045 21.4996 4.14125 21.0468 3.62382 20.5385C3.44627 20.364 3.26872 20.188 3.0958 20.0089C2.86531 19.7733 2.6483 19.5248 2.44582 19.2647C2.34701 19.1335 2.25128 19.0007 2.15865 18.8649C2.06291 18.739 1.97475 18.6075 1.89464 18.4712L14.6042 5.5949L14.4405 5.493C14.3849 5.45904 14.3293 5.42816 14.2722 5.39728C12.4905 4.4416 10.2086 4.46167 8.42077 5.38802C7.54397 5.85624 6.77902 6.50885 6.17854 7.30096C5.57807 8.09307 5.15632 9.00586 4.94233 9.97654C4.70206 11.0523 4.6654 12.1635 4.83426 13.2527C4.83779 13.2704 4.84101 13.2881 4.84419 13.3056C4.84796 13.3264 4.85169 13.3469 4.85587 13.367L1.20296 17.0909C1.17982 17.0431 1.15663 16.9951 1.13503 16.9473C0.441102 15.4437 0.0570894 13.8158 0.00589509 12.1606C-0.0452992 10.5054 0.237375 8.85687 0.837055 7.31328C0.938953 7.05699 1.05166 6.80379 1.17054 6.55367C2.41339 3.98305 4.65053 1.74283 7.3354 0.726937C9.59953 -0.141427 12.0877 -0.234521 14.4104 0.462231C16.7331 1.15898 18.7592 2.60625 20.1715 4.57746V4.58673C20.1968 4.6218 20.2221 4.65651 20.2473 4.69119C20.3254 4.79846 20.4033 4.90544 20.4803 5.02211L20.5791 5.1765L7.93598 18.062C9.39035 18.9745 11.3172 19.1829 12.9537 18.7105C13.1792 18.6453 13.4008 18.5674 13.6176 18.4773L13.7457 18.4233C15.9304 17.4676 17.3956 15.3494 17.7321 13.0103C17.8113 12.4628 17.8289 11.9082 17.7846 11.3568C17.7723 11.2055 17.6688 10.3193 17.6688 10.3193L21.3511 6.56603C21.4571 6.79247 21.5574 7.02148 21.6521 7.25307C21.647 7.25822 21.7815 7.65234 21.8469 7.84381C21.8598 7.88177 21.8701 7.91193 21.876 7.9293C21.9676 8.21441 22.0489 8.50261 22.1199 8.7939Z" fill="#0074F0"/>
<path fill-rule="evenodd" clip-rule="evenodd" d="M43.1291 7.99805C43.1489 9.43728 42.7451 10.8506 41.9678 12.062C41.1878 13.279 40.0697 14.242 38.7504 14.8328L44.0595 23.4057H38.6434L33.8554 15.5724H30.145V23.4057H25.2685V1.27959C25.2683 1.13848 25.2959 0.998711 25.3497 0.868266C25.4035 0.737821 25.4825 0.619254 25.5822 0.519332C25.6818 0.419409 25.8001 0.34009 25.9304 0.285902C26.0607 0.231715 26.2004 0.203719 26.3415 0.203516H35.2788C36.3097 0.17763 37.3351 0.361195 38.293 0.743101C39.7391 1.32023 40.9758 2.32293 41.8394 3.61846C42.703 4.91399 43.1527 6.44125 43.1291 7.99805ZM37.4511 10.2153C37.763 9.9176 38.0091 9.55792 38.1736 9.1594C38.3352 8.76159 38.4108 8.3341 38.3954 7.90502C38.4085 7.49004 38.3396 7.07656 38.1924 6.68832C38.0453 6.30009 37.8228 5.94477 37.5379 5.64279C37.2488 5.34429 36.8991 5.11122 36.5124 4.9593C36.1256 4.80738 35.7108 4.74013 35.2958 4.76209H30.1543V11.1115H35.0788C35.5158 11.1281 35.9517 11.0575 36.3611 10.9037C36.7705 10.7486 37.1455 10.5147 37.465 10.2153H37.4511Z" fill="#0074F0"/>
<path d="M45.9158 0.201114H50.721V23.4057H45.9158V0.201114Z" fill="#0074F0"/>
<path d="M78.6855 0.201114H83.4907V23.4057H78.6855V0.201114Z" fill="#0074F0"/>
<path d="M102.066 0.205767H102.364L102.376 0.207316H106.897V20.7704C106.9 21.4616 106.637 22.1276 106.163 22.6306C105.936 22.8731 105.662 23.0668 105.357 23.2001C105.052 23.3333 104.724 23.4033 104.391 23.4057H101.979C101.504 23.4036 101.04 23.2619 100.645 22.998C100.239 22.7307 99.9167 22.3547 99.7146 21.9129L91.4025 6.56614V23.4026H86.5846V2.83642C86.5813 2.14525 86.8438 1.47927 87.3178 0.976204C87.7616 0.502822 88.3746 0.22419 89.023 0.201116H91.6103C92.0845 0.200444 92.5484 0.340141 92.9434 0.602611C93.3468 0.869927 93.6661 1.2462 93.8642 1.68773L102.066 16.7244V0.205767Z" fill="#0074F0"/>
</svg>
