<svg width="208" height="17" viewBox="0 0 208 17" fill="none" xmlns="http://www.w3.org/2000/svg">
<path d="M48.2917 16.4977H45.445L43.6382 12.9226H33.0674L31.2577 16.4977H28.414L36.7173 0.510826H39.9907L48.2917 16.4977ZM42.3758 10.5354L38.3775 2.78903L34.3291 10.5354H42.3758ZM80.2326 16.4977H76.9964L65.0137 3.38681V16.4977H62.4137V0.510826H65.6422L77.6326 13.6271V0.5116H80.2326V16.4977ZM112.001 2.89343V0.5116H94.3994V2.89343H101.901V5.29381H96.9994V7.67873H101.901V16.4977H104.502V7.67873H109.4V5.29381H104.502V2.89343H112.001ZM142.599 2.89575H128.768V7.30522H137.959V9.69246H128.768V14.1182H142.612V16.5H126.167V0.510826H142.599V2.89575ZM208 16.4977H205.151L203.344 12.9226H192.77L190.964 16.4977H188.117L196.421 0.510826H199.694L208 16.4977ZM202.085 10.5354L198.084 2.78903L194.035 10.5354H202.085ZM12.8019 0.5H0V16.4969H2.6V10.3915H12.8026C15.4839 10.3915 17.6572 8.1667 17.6572 5.43456C17.6572 2.70396 15.4839 0.5 12.8019 0.5ZM12.8019 8.00121H2.6V2.88956H12.8026C13.131 2.88905 13.4562 2.95452 13.7596 3.08221C14.0631 3.20989 14.3388 3.3973 14.5711 3.6337C14.8034 3.87009 14.9876 4.15084 15.1132 4.45985C15.2388 4.76887 15.3034 5.10009 15.3032 5.43456C15.3055 6.84355 14.185 8.00121 12.8019 8.00121ZM174.585 16.4969L170.429 10.3026C172.707 9.89507 174.446 7.87284 174.446 5.43456C174.446 2.70319 172.273 0.5 169.591 0.5H156.789V16.4969H159.389V10.3915H167.316L171.56 16.4969H174.585ZM159.386 2.89033H169.588C169.917 2.88993 170.242 2.95544 170.545 3.08311C170.848 3.21079 171.124 3.39813 171.356 3.63442C171.589 3.87072 171.773 4.15133 171.898 4.46021C172.024 4.76909 172.089 5.10019 172.089 5.43456C172.089 6.84355 170.968 8.00121 169.588 8.00121H159.386V2.89033Z" fill="black"/>
</svg>
