<svg width="211" height="30" viewBox="0 0 211 30" fill="none" xmlns="http://www.w3.org/2000/svg">
<path d="M185.357 3.92857C185.357 1.85714 186 1.14286 187.071 1.14286C188.143 1.14286 189 1.57143 190 3.92857L196.071 17.7143V26.4286C196.071 28.5 195.214 29.0714 192.857 29.3571V29.9286H204.071V29.3571C201.643 29.0714 200.857 28.4286 200.857 26.4286V17.7143L206.714 4.42857C207.857 1.85714 209 1.28571 210.714 1V0.428571H202.5V1C205.286 1.28571 206.286 2.07143 205.5 3.92857L200.357 15.7143L195.071 3.64286C194.357 2 194.786 1.5 197.857 1.07143V0.5H180.214V1.07143C183 1.5 183.857 2 183.857 4V20.1429L170.929 0.5H164.571V1.07143C166.643 1.35714 167.286 2 167.286 4V26.5C167.286 28.5714 166.714 29.2857 166 29.2857C165.357 29.2857 165 29 164.071 26.5L154.5 0.357143H153.929L144.714 25.3571C143.714 28.1429 142.143 29.0714 140.571 29.4286V30H149V29.4286C146.071 29.1429 145.143 28 145.786 26.1429L147.857 20.4286H156.571L158.571 25.7857C159.429 28.2143 158.929 28.9286 156.429 29.3571V29.9286H172.429V29.3571C169.643 28.9286 168.786 28.4286 168.786 26.4286V6.28571L184.429 30H185.357V3.92857ZM72.5714 15.1429C72.5714 6 76.9286 1.21429 82 1.21429C85 1.21429 86.9286 1.85714 88.0714 3.07143C88.9286 3.92857 89.5714 5.14286 90.2857 7.07143H90.8571V0.928572C87.9286 0.357143 85.2857 0 82.6429 0C75 0 67.0714 4.92857 67.0714 15.1429C67.0714 25.3571 75 30.2857 82.1429 30.2857C85.2857 30.2857 88.0714 29.7857 90.7143 29L91.5714 23.2143L91.0714 23.0714C90.4286 24.2857 89.6429 25.3571 88.7857 26.2857C86.9286 28.1429 84.4286 29.1429 81.9286 29.1429C77.0714 29.0714 72.5714 24.4286 72.5714 15.1429ZM135.929 16C135.286 16 134.429 15.9286 133.571 15.7857V1.5H135.929C139.857 1.5 141.571 3.57143 141.571 8.71429C141.571 13.9286 139.786 16 135.929 16ZM44.1429 0.428571V7.5H44.7143C45.5714 3 47.3571 1.57143 50.3571 1.57143H51.7857V26.4286C51.7857 28.5 50.9286 29.0714 48.5714 29.3571V29.9286H59.7857V29.3571C57.3571 29.0714 56.5714 28.4286 56.5714 26.4286V1.5H58C61 1.5 62.7857 2.92857 63.6429 7.42857H64.2143V0.357143H44.1429V0.428571ZM35.2143 30.2857C40.0714 30.2857 45.2143 27.5 45.2143 21.7857C45.2143 18.4286 43.4286 15.6429 40.2857 13.9286L34.7143 10.8571C31.7857 9.21429 30.9286 7.71429 30.9286 5.57143C30.9286 3.14286 32.7143 1.21429 36.0714 1.21429C37.7143 1.21429 38.9286 1.64286 39.9286 2.57143C40.7857 3.42857 41.6429 4.85714 42.4286 7.42857H42.9286V0.928572C40.9286 0.357143 38.8571 0 36.4286 0C31.6429 0 28.0714 3 28.0714 8.07143C28.0714 11.2857 29.8571 14.2143 32.7857 15.9286L37.9286 18.7857C40.8571 20.4286 41.7857 22 41.7857 24.3571C41.7857 27.1429 38.9286 29.1429 35.7857 29.1429C33.7143 29.1429 32 28.4286 30.7857 27.2143C30 26.4286 29.1429 25.2143 28.5714 23.6429H31.9286V23.0714C31 22.8571 30.4286 22.7143 29.6429 20.8571L23.0714 5.21429H22.5L16.0714 20.5C15.2143 22.5714 14.6429 22.9286 13.6429 23.0714V23.6429H19.3571V23.0714C17.2857 22.8571 16.7143 21.8571 17.2143 20.5714L18.2143 18.1429H24L25.2857 21.1429C25.8571 22.5 25 22.8571 22.9286 23V23.5714H27.5V29.2143C29.7857 29.8571 32.7143 30.2857 35.2143 30.2857ZM107.786 30L116.286 6.35714L116.929 26.5C117 28.5 116.214 29.0714 113.786 29.3571V29.9286H137.214V29.3571C134.429 28.9286 133.571 28.4286 133.571 26.4286V16.9286C134.5 17.0714 135.429 17.1429 136.143 17.1429C141.786 17.1429 146.643 15.0714 146.643 8.78572C146.643 2.5 141.786 0.428571 136.143 0.428571H126.071V1C128.143 1.28571 128.786 1.92857 128.786 3.92857V26.4286C128.786 28.5 127.929 29.3571 125.571 29.3571H125.5C123 29.3571 121.929 28.4286 121.857 26.5L121 4C120.929 1.92857 121.643 1.28571 123.857 1V0.428571H116.929L109.357 21.6429L101.786 0.428571H94.3571V1C96.5714 1.28571 97.2857 2 97.2143 4L96.4286 25.5714C96.3571 27.7143 95.2143 29 93.1428 29.3571V29.9286H101V29.3571C99 29.0714 97.8571 27.7857 97.9286 25.5714L98.5714 5.92857L107.214 29.9286L107.786 30ZM85 23.7857C88.7857 23.7857 93.6429 20.4286 93.6429 15.1429C93.6429 9.92857 88.8571 6.5 85 6.5C81.2143 6.5 76.3571 9.85714 76.3571 15.1429C76.3571 20.3571 81.1429 23.7857 85 23.7857ZM85 7.71429C87.4286 7.71429 89.0714 9.71429 89.0714 15.1429C89.0714 20.6429 87.3571 22.5714 85 22.5714C82.5714 22.5714 80.9286 20.5714 80.9286 15.1429C80.9286 9.64286 82.5714 7.71429 85 7.71429ZM156.214 19.2143H148.286L152.214 8.35714L156.214 19.2143ZM23.6429 17H18.7857L21.2143 11.0714L23.6429 17ZM14.3571 18.5H14.9286V9.64286H14.3571C13.4286 12.7857 12.5 13.5 10.7857 13.5H7.5V1.5H12.7143C15.7143 1.5 17.5 2.92857 18.3571 7.42857H18.9286V0.357143H0V0.928572C2.07143 1.21429 2.71429 1.85714 2.71429 3.85714V26.3571C2.71429 28.4286 2.07143 29 0 29.2857V29.8571H11.1429V29.2857C8.35714 28.8571 7.5 28.3571 7.5 26.3571V14.5714H10.7857C12.4286 14.6429 13.4286 15.3571 14.3571 18.5Z" fill="black"/>
</svg>
