<svg width="137" height="44" viewBox="0 0 137 44" fill="none" xmlns="http://www.w3.org/2000/svg">
<path d="M42.9309 43.4989C37.9931 43.0491 34.7212 40.7085 34.0551 37.1519C33.9158 36.4063 33.9427 34.6292 34.104 33.957C34.1468 33.7785 34.17 33.6331 34.1553 33.6331C34.1407 33.6331 33.3878 34.1806 32.4809 34.8504C28.9731 37.4415 26.0862 39.2626 23.1615 40.7293C19.7881 42.4209 17.824 42.922 14.5533 42.9293C12.3338 42.933 10.9722 42.6775 9.52513 41.9882C7.28846 40.9212 6.24346 39.3066 6.24346 36.9221C6.24346 35.7573 6.34979 35.2684 6.79591 34.3921L7.18091 33.5414C7.18091 33.4901 6.87046 32.8839 6.49035 32.1933C5.13735 29.733 3.47513 26.0394 2.17591 22.6062C-0.806316 14.7204 2.70757 7.84665 11.5687 4.22398C12.1798 3.97465 13.6929 3.27431 14.9359 2.66687C17.4928 1.41654 17.7287 1.31265 18.8715 0.943537C21.1228 0.216315 23.181 0.447314 24.8518 1.61576C25.8519 2.39365 26.5621 3.48467 26.8685 4.71409C26.9222 4.99031 26.9931 5.31787 27.0249 5.44376L27.0824 5.67109L27.7643 5.46331C30.4972 4.63465 33.6383 3.9282 36.0315 3.60554C37.7328 3.37576 41.4887 3.32443 42.8674 3.51143L43.6496 3.61776L44.268 3.21198C47.5558 1.05231 53.0729 0.987537 61.0797 3.01643C63.6219 3.66054 65.0275 4.09198 66.4086 4.65054C69.0241 5.7102 69.1366 5.70531 71.3464 4.41343C73.495 3.15698 77.18 1.75387 80.1305 1.06698C82.1007 0.608648 83.3522 0.470537 85.5938 0.468092C88.1091 0.464426 89.0771 0.593981 90.7846 1.16231C92.4627 1.72087 92.899 1.77343 94.2923 1.58643C95.803 1.38476 100.298 1.3102 102.894 1.44587C109.162 1.7722 113.536 2.42365 124.756 4.69698L135.282 6.70631L135.751 6.77965L135.743 7.09498C135.738 7.26854 135.661 7.50565 135.572 7.6242C134.833 8.60443 131.499 12.7673 130.693 13.7182C129.338 15.3132 127.548 17.116 126.312 18.1182L125.298 18.9493L125.355 19.8635C125.421 20.9 125.299 22.1613 125.064 22.8665L124.91 23.3285L125.625 24.2574C126.4 25.2658 127.058 26.3169 127.336 27.0099L127.52 27.4499L127.349 28.2223C126.195 33.4106 123.594 36.8268 119.309 38.7823C116.015 40.2856 106.937 42.361 100.666 43.0479C97.244 43.4231 92.5825 43.5062 90.3531 43.2312C86.7329 42.7863 84.1687 41.9638 82.1887 40.6095L81.4822 40.1268L80.7819 40.5056C78.6161 41.6741 75.5019 42.5834 72.0271 43.0601C70.3527 43.2923 66.3108 43.3864 64.6021 43.2349C60.5688 42.878 57.0928 41.8318 54.7962 40.2832C54.5151 40.095 54.2658 39.941 54.2401 39.941C54.2145 39.941 53.9382 40.1854 53.629 40.4812C52.0939 41.9503 49.7509 42.9599 46.9618 43.3534C45.8215 43.5148 43.9014 43.5795 42.9187 43.4903L42.9309 43.4989ZM46.5145 38.6466C48.25 38.4462 49.5175 37.9891 50.0748 37.3633C50.5026 36.8842 50.7715 36.3794 51.3288 35.035C51.5977 34.3823 52.243 32.9817 52.7588 31.9183L53.6999 29.9872L53.7561 30.5763C54.0739 33.9191 55.9439 35.9785 59.8624 37.2985C64.0424 38.7065 67.6039 38.9608 71.955 38.1639C75.6657 37.4831 79.8432 35.882 83.6957 33.6661L84.6796 33.1161C84.6942 33.1161 84.6893 33.5964 84.6698 34.1843C84.5867 36.7045 85.309 37.3572 88.9842 38.0832C92.4223 38.764 96.4251 38.8361 100.636 38.2946C104.381 37.8131 113.019 35.871 115.977 34.8455C119.744 33.5402 121.514 31.8181 122.296 28.7026L122.504 27.8813L122.32 27.731C122.039 27.4865 121.167 27.258 120.365 27.1908C118.754 27.0685 116.649 27.4169 112.567 28.5279C108.573 29.6156 106.703 29.9579 104.214 30.0581C101.554 30.1656 98.4577 29.6059 98.1032 28.9557C97.9028 28.5743 98.0825 28.0145 98.5066 27.6968C99.9121 26.6456 102.11 26.2998 108.29 26.1519C114.636 26.0003 116.809 25.5554 118.684 24.0252C120.045 22.913 120.838 21.3436 120.658 20.1214C120.428 18.5692 118.297 17.6098 115.371 17.743C113.962 17.8078 112.961 17.996 110.038 18.7452C108.749 19.0752 107.272 19.4101 106.757 19.4883C105.391 19.6936 102.723 19.6716 102.375 19.4516C102.299 19.4028 102.314 19.3123 102.441 19.0923C102.534 18.9298 102.75 18.4506 102.922 18.0265C103.252 17.2076 103.534 16.709 103.766 16.5134C103.961 16.3484 106.914 16.434 109.742 16.687C112.248 16.9119 115.614 16.9559 116.817 16.7823C120.565 16.2396 123.336 14.7498 125.861 11.9301C126.18 11.5698 126.509 11.2172 126.845 10.8729C127.058 10.6626 127.185 10.4598 127.185 10.3278C127.185 10.1004 127.116 10.065 126.503 9.97576C125.619 9.8462 122.667 9.29131 119.597 8.67776C112.286 7.21109 108.937 6.66476 104.643 6.23331C102.511 6.01943 96.3836 6.01331 94.7873 6.22109C93.2718 6.42031 93.1129 6.50709 91.1818 8.22798C90.9202 8.47243 90.6843 8.62887 90.6562 8.60198C90.6281 8.57509 90.7235 8.17054 90.864 7.70243C90.985 7.31606 91.0906 6.92505 91.1806 6.53031C91.2502 6.14409 91.2478 6.14165 89.7836 5.76276C84.9925 4.5222 79.8885 5.46942 73.2787 8.82076C67.2568 11.8763 62.9717 14.7669 59.0887 18.3969L58.3065 19.1265L58.92 18.0938C60.3818 15.6322 61.538 13.9932 63.716 11.2921C65.2621 9.3732 65.3562 9.24242 65.2096 9.18987C64.299 8.86231 57.9251 7.31743 55.4232 6.81876C53.1218 6.35798 51.3129 6.18687 49.9232 6.29565C48.2366 6.43009 47.2906 6.81387 46.237 7.79898C45.1407 8.82565 44.9011 8.88309 43.4015 8.49565C41.0389 7.8882 37.9137 7.98965 33.7765 8.80854C27.8939 9.97332 25.8002 11.0794 25.6181 13.1169C25.5876 13.4652 25.6524 13.9969 25.8479 14.9869C26.3172 17.3604 26.1632 17.8713 23.8948 21.4708C22.8852 23.0743 22.3426 23.7783 21.7315 24.2855C21.1998 24.7255 20.6584 25.0189 20.5606 24.9186C20.3589 24.7133 20.2086 22.6575 20.2526 20.6946C20.3112 18.0669 20.8099 14.9355 21.8904 10.3999C22.2851 8.74131 22.3792 7.13898 22.147 6.07565L22.0004 5.40343L21.2633 5.45232C20.1511 5.5232 19.5791 5.74931 17.2447 7.03265C16.3005 7.52477 15.3334 7.97179 14.3468 8.3722C10.4821 9.93665 8.66591 11.0366 7.46568 12.5461C6.30824 14.0005 5.84013 15.5528 5.93057 17.6464C5.98679 18.9664 6.14568 19.5372 7.24202 22.3398C9.00935 26.862 10.1509 29.1451 12.2654 32.3986C12.7995 33.2212 13.237 33.9313 13.237 33.9753C13.237 34.0193 12.7848 34.5168 12.2299 35.0753C11.4477 35.8673 11.2008 36.1716 11.1214 36.4491C10.9625 37.0015 10.9942 37.1409 11.3352 37.4269C11.8975 37.8962 12.5208 38.0563 13.9789 38.1052C17.0956 38.2091 19.5816 37.3768 24.2065 34.6805C29.264 31.7325 32.0849 29.1622 38.13 21.9939L40.6356 18.9664C41.5926 17.7601 41.9152 17.4118 42.3589 17.0989L42.7133 16.8483L42.8148 17.3005C42.8698 17.5499 42.9346 18.3186 42.9578 19.008C43.0311 21.1799 42.7329 22.3984 41.2907 25.8158C39.2007 30.7658 38.3182 34.5009 38.7925 36.3684C39.1078 37.6126 40.572 38.3386 43.4528 38.6784C44.4749 38.7417 45.5002 38.7303 46.5206 38.6442L46.5145 38.6466ZM69.5265 30.5189C67.7616 30.1204 66.8107 29.1341 66.8156 27.7041C66.818 26.9365 66.9341 26.5112 67.4071 25.5444C68.3214 23.6744 69.6365 22.0366 72.4855 19.2378C73.5305 18.2111 74.7099 17.0011 75.1059 16.5489C75.5019 16.0966 75.8392 15.7422 75.8588 15.7605C75.9162 15.818 75.3944 17.6953 74.6525 20.0958C74.0108 22.1735 73.4058 24.3002 73.4058 24.4811C73.4058 24.662 76.1863 24.486 80.3517 24.0252L84.2542 23.6268C85.0242 23.573 85.1012 23.551 85.2442 23.3432C85.4496 23.0499 85.7942 22.2126 85.9776 21.5612C86.057 21.2752 86.1511 21.0112 86.1853 20.9745C86.2709 20.8804 86.6498 21.6174 86.8869 22.3398C87.1313 23.122 87.1741 24.9015 86.9395 25.432C86.8001 25.7461 86.783 25.7559 86.3552 25.7559C84.6588 25.7559 82.4368 26.4098 79.6697 27.7236C74.6366 30.1119 73.4889 30.4944 71.1471 30.5592C70.4443 30.5788 69.7147 30.5604 69.5277 30.5177L69.5265 30.5189ZM88.6176 14.4466C88.6518 14.3611 88.8681 13.75 89.0991 13.0826L89.6577 11.4999L89.7958 11.1283L90.0598 11.3825C90.4668 11.7761 91.0987 12.0548 92.5323 12.4764C93.7423 12.8309 94.7983 13.2305 94.7983 13.332C94.7983 13.4029 93.9428 13.5605 92.1583 13.8258C90.4753 14.0739 89.3106 14.3098 88.8009 14.5078C88.5809 14.5933 88.5638 14.586 88.6176 14.4491V14.4466Z" fill="black"/>
</svg>
