<svg width="233" height="55" viewBox="0 0 233 55" fill="none" xmlns="http://www.w3.org/2000/svg">
<g clip-path="url(#clip0_1318_238)">
<path d="M33.7359 39.8943L24.0528 44.1162V43.6901C22.1937 44.1549 20.1021 44.426 18.1655 44.5422C9.02465 44.4648 1.82042 39.6619 1.70423 34.007V31.9155C4.68662 36.2535 10.8063 39.1972 18.1655 39.081C20.6444 39.1972 23.2007 38.8098 25.331 38.2289L26.1831 36.1373C23.6655 36.9119 20.8768 37.4155 18.1655 37.4155C9.02465 37.4155 1.82042 32.6514 1.70423 26.8803V25.176C4.68662 29.2042 10.8063 32.1091 18.1655 31.9155C21.4965 32.1091 24.7113 31.4119 27.4613 30.2112L27.8873 28.1197C25.2148 29.5141 21.7676 30.3274 18.2042 30.2112C9.06338 30.3274 1.85915 25.5633 1.74296 19.676V17.9718C4.72535 22.0774 10.8451 25.0211 18.2042 25.1373C22.3873 25.0211 26.338 23.8979 29.5915 22.1936L30.0176 19.676C27.0739 21.845 22.7746 23.2781 18.2042 23.4718C9.06338 23.2781 1.85915 18.4753 1.74296 12.5105C1.82042 6.81687 9.06338 2.05279 18.2042 1.97533C23.6268 2.05279 28.7007 3.95068 31.6831 7.04927L31.993 7.55279H34.1232L33.8134 7.04927C30.831 2.98237 24.8275 0.309833 18.2042 0.309833C8.05634 0.271101 0 5.80984 0 12.4718V12.8979V34.3943C0.348592 40.9014 8.21127 46.2077 18.1268 46.2077C24.6725 46.2464 30.5986 43.6514 33.7359 39.8943Z" fill="#263238"/>
<path d="M29.7854 54.7288L33.1938 40.2429L23.3945 44.5035L29.3593 19.4049H17.8945L20.8769 7.04926H57.479L54.4966 19.4049H42.5671L40.0107 26.2218L53.2185 20.6831L29.7854 54.7288ZM35.7502 37.2992L34.0459 45.8204L48.1058 24.5563L36.6023 29.669L41.715 17.7394H53.2185L55.3488 8.79221H22.1164L19.9861 17.7394H31.4896L25.9509 41.5598L35.7502 37.2992Z" fill="#FABF2C"/>
<path d="M81.7643 15.338V15.3768C81.803 16.7324 81.377 17.7782 80.5249 18.5528C79.6727 19.3275 78.5108 19.7148 77.0002 19.7148C75.4897 19.7148 74.2502 19.2113 73.3206 18.2429C72.3911 17.2746 71.9263 15.9965 71.9263 14.4472V11.9296C71.9263 10.3803 72.3911 9.1021 73.2819 8.13379C74.2115 7.16548 75.4122 6.66196 76.884 6.66196C78.4333 6.66196 79.634 7.04929 80.5249 7.7852C81.4157 8.55985 81.8418 9.60562 81.803 10.9613V11H79.3242C79.3242 10.1866 79.1305 9.56689 78.7432 9.17957C78.3558 8.79225 77.7361 8.59858 76.9228 8.59858C76.1481 8.59858 75.5671 8.90844 75.1411 9.52816C74.715 10.1479 74.4826 10.9225 74.4826 11.8908V14.4472C74.4826 15.4155 74.715 16.2289 75.1411 16.8486C75.6058 17.4683 76.2256 17.7782 77.0389 17.7782C77.8136 17.7782 78.3558 17.5845 78.7432 17.1972C79.1305 16.8098 79.3242 16.1901 79.3242 15.3768H81.7643V15.338ZM95.7854 14.331C95.7854 15.8803 95.2819 17.1972 94.3136 18.2042C93.3453 19.2113 92.0671 19.7148 90.4791 19.7148C88.8911 19.7148 87.6516 19.2113 86.6446 18.2042C85.6763 17.1972 85.1727 15.8803 85.1727 14.331V12.0458C85.1727 10.4965 85.6763 9.2183 86.6446 8.17253C87.6129 7.16548 88.8911 6.62323 90.4404 6.62323C92.0284 6.62323 93.3066 7.12675 94.2749 8.17253C95.2819 9.17957 95.7467 10.4965 95.7467 12.0458V14.331H95.7854ZM93.2291 12.007C93.2291 11 92.9967 10.2253 92.4932 9.56689C91.9896 8.94718 91.3312 8.59858 90.4404 8.59858C89.5882 8.59858 88.8911 8.90844 88.4263 9.56689C87.9615 10.1866 87.6904 11 87.6904 12.007V14.2922C87.6904 15.2993 87.9228 16.1127 88.4263 16.7711C88.8911 17.3908 89.5882 17.7394 90.4404 17.7394C91.3312 17.7394 91.9896 17.4296 92.4932 16.7711C92.9967 16.1514 93.2291 15.2993 93.2291 14.2922V12.007ZM102.37 19.5211H99.8136V6.81689H102.37V19.5211ZM117.05 19.5211H114.493L109.38 10.9613H109.342V19.5211H106.785V6.81689H109.342L114.454 15.3768H114.493V6.81689H117.05V19.5211ZM129.87 8.79225H126.229V19.5211H123.673V8.79225H120.109V6.81689H129.87V8.79225ZM140.405 13.9437H135.68V17.5845H141.296V19.5211H133.162V6.81689H141.296V8.79225H135.719V11.9683H140.444V13.9437H140.405ZM147.493 17.5845H153.187V19.5211H144.937V6.81689H147.493V17.5845ZM164.032 13.9437H159.307V17.5845H164.923V19.5211H156.789V6.81689H164.923V8.79225H159.345V11.9683H164.071V13.9437H164.032ZM178.324 17.8169C177.937 18.3204 177.356 18.7852 176.542 19.1725C175.768 19.5598 174.761 19.7535 173.521 19.7535C171.972 19.7535 170.733 19.2887 169.764 18.3204C168.796 17.3521 168.292 16.1127 168.292 14.5634V11.8908C168.292 10.3415 168.757 9.1021 169.726 8.13379C170.655 7.16548 171.895 6.66196 173.366 6.66196C174.916 6.66196 176.116 7.04929 176.93 7.7852C177.743 8.52112 178.169 9.48943 178.131 10.7289V10.7676H175.729C175.729 10.1091 175.535 9.56689 175.148 9.17957C174.761 8.79225 174.18 8.59858 173.444 8.59858C172.669 8.59858 172.05 8.90844 171.546 9.48942C171.081 10.1091 170.849 10.8838 170.849 11.8134V14.4859C170.849 15.4542 171.081 16.2289 171.585 16.8486C172.088 17.4683 172.747 17.7394 173.56 17.7394C174.18 17.7394 174.645 17.662 174.993 17.5458C175.342 17.4296 175.613 17.2746 175.807 17.081V14.6021H173.366V12.8204H178.363V17.8169H178.324ZM184.909 14.4472V19.5211H182.352V6.81689H186.768C188.201 6.81689 189.363 7.16549 190.176 7.82394C190.99 8.48239 191.416 9.41196 191.416 10.5739C191.416 11.2324 191.261 11.7746 190.912 12.2782C190.564 12.743 190.06 13.1303 189.402 13.4401C190.138 13.6725 190.68 14.0211 191.028 14.5634C191.338 15.0669 191.532 15.7253 191.532 16.5V17.4296C191.532 17.7782 191.571 18.1655 191.687 18.5528C191.764 18.9401 191.958 19.2113 192.19 19.4049V19.5986H189.557C189.324 19.4049 189.169 19.0951 189.092 18.669C189.014 18.243 188.976 17.8169 188.976 17.4296V16.5387C188.976 15.919 188.821 15.4155 188.472 15.0669C188.123 14.7183 187.62 14.5246 187 14.5246H184.909V14.4472ZM184.909 12.5105H186.729C187.426 12.5105 187.969 12.3556 188.317 12.0458C188.666 11.7359 188.859 11.3098 188.859 10.6901C188.859 10.1091 188.666 9.64435 188.317 9.29576C187.969 8.94717 187.465 8.79225 186.768 8.79225H184.909V12.5105ZM202.222 16.8098H198.116L197.264 19.5598H194.592L198.891 6.85563H201.486L205.747 19.5598H203.074L202.222 16.8098ZM198.736 14.7958H201.602L200.208 10.3028H200.169L198.736 14.7958ZM211.402 14.912V19.5211H208.845V6.81689H213.726C215.197 6.81689 216.321 7.20421 217.173 7.94013C218.025 8.67604 218.412 9.68309 218.412 10.8838C218.412 12.0845 217.986 13.0915 217.173 13.8275C216.321 14.5634 215.197 14.9507 213.726 14.9507H211.402V14.912ZM211.402 12.9753H213.726C214.423 12.9753 214.965 12.7817 215.352 12.3944C215.701 12.007 215.895 11.5035 215.895 10.9225C215.895 10.3028 215.701 9.79928 215.352 9.41196C215.004 9.02463 214.461 8.83097 213.726 8.83097H211.402V12.9753ZM232.395 19.5211H229.838V14.2535H224.648V19.5211H222.092V6.81689H224.648V12.2782H229.838V6.81689H232.395V19.5211Z" fill="#263238"/>
<path d="M76.5739 40.2817H74.9858V31.9155H72.1196V30.5598H79.4401V31.9155H76.5739V40.2817ZM87.2253 40.2817H85.6372V35.75C85.6372 35.169 85.521 34.743 85.2886 34.4718C85.0562 34.2007 84.7077 34.0458 84.2041 34.0458C83.5457 34.0458 83.0809 34.2394 82.771 34.6268C82.4612 35.0141 82.3062 35.6725 82.3062 36.6021V40.2429H80.757V29.9014H82.3062V32.5352C82.3062 32.9613 82.2675 33.3873 82.2288 33.8908H82.345C82.5386 33.5422 82.8485 33.2711 83.2358 33.0775C83.6232 32.8838 84.0492 32.7676 84.5527 32.7676C86.3344 32.7676 87.2253 33.6584 87.2253 35.4789V40.2817ZM92.6091 40.3979C91.4471 40.3979 90.5562 40.0493 89.9365 39.3908C89.2781 38.7324 88.9682 37.8028 88.9682 36.6408C88.9682 35.4401 89.2781 34.5106 89.8591 33.8134C90.4401 33.1162 91.2922 32.7676 92.3379 32.7676C93.3062 32.7676 94.0809 33.0775 94.6232 33.6584C95.2041 34.2394 95.4753 35.0528 95.4753 36.0986V36.9507H90.5562C90.595 37.6479 90.7886 38.2289 91.1372 38.5775C91.4858 38.9648 92.0281 39.1584 92.6865 39.1584C93.1126 39.1584 93.5386 39.1197 93.8872 39.0422C94.2746 38.9648 94.6619 38.8099 95.0879 38.6162V39.8944C94.7006 40.088 94.3133 40.2042 93.926 40.2817C93.5774 40.3591 93.1126 40.3979 92.6091 40.3979ZM92.3379 33.9683C91.8344 33.9683 91.4471 34.1232 91.1372 34.4331C90.8274 34.7429 90.6724 35.2077 90.595 35.8275H93.926C93.926 35.2077 93.771 34.7429 93.4999 34.4331C93.2288 34.1232 92.8415 33.9683 92.3379 33.9683ZM104.461 34.0845H102.679V40.2817H101.091V34.0845H99.8908V33.3486L101.091 32.8838V32.419C101.091 31.5669 101.285 30.9084 101.711 30.4824C102.137 30.0563 102.757 29.8627 103.57 29.8627C104.113 29.8627 104.655 29.9401 105.197 30.1338L104.771 31.3345C104.384 31.2183 104.035 31.1408 103.648 31.1408C103.299 31.1408 103.028 31.257 102.873 31.4507C102.718 31.6831 102.641 31.993 102.641 32.419V32.8838H104.422V34.0845H104.461ZM110.929 40.2817L110.697 39.3134H110.62C110.387 39.662 110.077 39.9331 109.69 40.1268C109.303 40.3204 108.838 40.4366 108.334 40.4366C107.444 40.4366 106.785 40.2042 106.32 39.7782C105.856 39.3521 105.662 38.6549 105.662 37.7641V32.9225H107.25V37.4542C107.25 38.0352 107.366 38.4225 107.599 38.7324C107.831 39.0035 108.179 39.1584 108.683 39.1584C109.341 39.1584 109.806 38.9648 110.116 38.5775C110.426 38.1901 110.581 37.5317 110.581 36.6021V32.9225H112.169V40.2817H110.929ZM117.127 39.1197C117.514 39.1197 117.901 39.0422 118.289 38.926V40.088C118.134 40.1655 117.901 40.243 117.63 40.2817C117.359 40.3204 117.088 40.3592 116.778 40.3592C115.306 40.3592 114.57 39.5845 114.57 38.0352V34.0845H113.563V33.3873L114.648 32.8063L115.19 31.257H116.158V32.8838H118.25V34.0845H116.158V38.0352C116.158 38.4225 116.236 38.6937 116.429 38.8873C116.546 39.0422 116.817 39.1197 117.127 39.1197ZM124.912 40.2817L124.679 39.3134H124.602C124.37 39.662 124.06 39.9331 123.672 40.1268C123.285 40.3204 122.82 40.4366 122.317 40.4366C121.426 40.4366 120.768 40.2042 120.303 39.7782C119.877 39.3521 119.644 38.6549 119.644 37.7641V32.9225H121.232V37.4542C121.232 38.0352 121.349 38.4225 121.581 38.7324C121.813 39.0035 122.162 39.1584 122.665 39.1584C123.324 39.1584 123.789 38.9648 124.099 38.5775C124.408 38.1901 124.563 37.5317 124.563 36.6021V32.9225H126.151V40.2817H124.912ZM132.116 32.7676C132.426 32.7676 132.697 32.8063 132.891 32.8451L132.736 34.3169C132.503 34.2782 132.271 34.2394 132.039 34.2394C131.419 34.2394 130.915 34.4331 130.528 34.8591C130.141 35.2852 129.947 35.7887 129.947 36.4472V40.2817H128.398V32.9225H129.637L129.831 34.2007H129.908C130.141 33.7746 130.489 33.4261 130.877 33.1549C131.225 32.9225 131.651 32.7676 132.116 32.7676ZM137.19 40.3979C136.028 40.3979 135.137 40.0493 134.518 39.3908C133.859 38.7324 133.549 37.8028 133.549 36.6408C133.549 35.4401 133.859 34.5106 134.44 33.8134C135.021 33.1162 135.873 32.7676 136.919 32.7676C137.887 32.7676 138.662 33.0775 139.204 33.6584C139.785 34.2394 140.056 35.0528 140.056 36.0986V36.9507H135.137C135.176 37.6479 135.37 38.2289 135.718 38.5775C136.067 38.9648 136.609 39.1584 137.268 39.1584C137.694 39.1584 138.12 39.1197 138.468 39.0422C138.856 38.9648 139.243 38.8099 139.669 38.6162V39.8944C139.282 40.088 138.894 40.2042 138.507 40.2817C138.12 40.3591 137.694 40.3979 137.19 40.3979ZM136.919 33.9683C136.415 33.9683 136.028 34.1232 135.718 34.4331C135.408 34.7429 135.253 35.2077 135.176 35.8275H138.507C138.507 35.2077 138.352 34.7429 138.081 34.4331C137.771 34.1232 137.384 33.9683 136.919 33.9683ZM151.87 36.5634C151.87 37.7641 151.56 38.6937 150.94 39.3908C150.32 40.0493 149.468 40.3979 148.384 40.3979C147.687 40.3979 147.106 40.243 146.563 39.9331C146.021 39.6232 145.634 39.1584 145.363 38.5775C145.091 37.9965 144.937 37.338 144.937 36.5634C144.937 35.3627 145.246 34.4331 145.866 33.7746C146.486 33.1162 147.338 32.7676 148.461 32.7676C149.507 32.7676 150.359 33.1162 150.979 33.8134C151.599 34.5106 151.87 35.4014 151.87 36.5634ZM146.525 36.5634C146.525 38.2676 147.144 39.1197 148.422 39.1197C149.662 39.1197 150.282 38.2676 150.282 36.5634C150.282 34.8979 149.662 34.0458 148.422 34.0458C147.764 34.0458 147.299 34.2782 146.989 34.7042C146.679 35.1303 146.525 35.75 146.525 36.5634ZM157.37 34.0845H155.588V40.2817H154V34.0845H152.799V33.3486L154 32.8838V32.419C154 31.5669 154.194 30.9084 154.62 30.4824C155.046 30.0563 155.665 29.8627 156.479 29.8627C157.021 29.8627 157.563 29.9401 158.106 30.1338L157.679 31.3345C157.292 31.2183 156.944 31.1408 156.556 31.1408C156.208 31.1408 155.937 31.257 155.782 31.4507C155.627 31.6444 155.549 31.993 155.549 32.419V32.8838H157.331V34.0845H157.37ZM168.37 40.2817H166.782V35.75C166.782 35.169 166.665 34.7817 166.472 34.4718C166.278 34.2007 165.929 34.0458 165.465 34.0458C164.845 34.0458 164.419 34.2394 164.148 34.6268C163.877 35.0141 163.722 35.6725 163.722 36.6021V40.2817H162.172V32.9225H163.412L163.644 33.8908H163.722C163.915 33.5422 164.225 33.2711 164.613 33.0775C165 32.8838 165.426 32.8063 165.891 32.8063C167.014 32.8063 167.789 33.1937 168.137 33.9683H168.253C168.486 33.6197 168.796 33.3099 169.183 33.1162C169.57 32.9225 170.035 32.8063 170.539 32.8063C171.429 32.8063 172.049 33.0387 172.475 33.4648C172.863 33.8908 173.095 34.588 173.095 35.4789V40.2817H171.546V35.75C171.546 35.169 171.429 34.7817 171.236 34.4718C171.003 34.2007 170.694 34.0458 170.229 34.0458C169.609 34.0458 169.183 34.2394 168.912 34.6268C168.641 35.0141 168.486 35.5951 168.486 36.3697V40.2817H168.37ZM181.694 36.5634C181.694 37.7641 181.384 38.6937 180.764 39.3908C180.144 40.0493 179.292 40.3979 178.208 40.3979C177.51 40.3979 176.929 40.243 176.387 39.9331C175.845 39.6232 175.458 39.1584 175.187 38.5775C174.915 37.9965 174.76 37.338 174.76 36.5634C174.76 35.3627 175.07 34.4331 175.69 33.7746C176.31 33.1162 177.162 32.7676 178.285 32.7676C179.331 32.7676 180.183 33.1162 180.803 33.8134C181.384 34.5106 181.694 35.4014 181.694 36.5634ZM176.348 36.5634C176.348 38.2676 176.968 39.1197 178.246 39.1197C179.486 39.1197 180.106 38.2676 180.106 36.5634C180.106 34.8979 179.486 34.0458 178.246 34.0458C177.588 34.0458 177.123 34.2782 176.813 34.7042C176.503 35.1303 176.348 35.75 176.348 36.5634ZM189.982 40.2817H188.394V35.75C188.394 35.169 188.278 34.743 188.046 34.4718C187.813 34.2007 187.465 34.0458 186.961 34.0458C186.303 34.0458 185.799 34.2394 185.528 34.6268C185.257 35.0141 185.063 35.6725 185.063 36.6021V40.2817H183.514V32.9225H184.753L184.986 33.8908H185.063C185.296 33.5422 185.606 33.2711 185.993 33.0775C186.38 32.8838 186.845 32.8063 187.349 32.8063C189.13 32.8063 189.982 33.6972 189.982 35.5176V40.2817ZM195.366 40.3979C194.204 40.3979 193.313 40.0493 192.694 39.3908C192.035 38.7324 191.725 37.8028 191.725 36.6408C191.725 35.4401 192.035 34.5106 192.616 33.8134C193.197 33.1162 194.049 32.7676 195.095 32.7676C196.063 32.7676 196.838 33.0775 197.38 33.6584C197.961 34.2394 198.232 35.0528 198.232 36.0986V36.9507H193.313C193.352 37.6479 193.546 38.2289 193.894 38.5775C194.243 38.9648 194.785 39.1584 195.444 39.1584C195.87 39.1584 196.296 39.1197 196.644 39.0422C196.993 38.9648 197.419 38.8099 197.845 38.6162V39.8944C197.458 40.088 197.07 40.2042 196.683 40.2817C196.296 40.3591 195.87 40.3979 195.366 40.3979ZM195.056 33.9683C194.553 33.9683 194.165 34.1232 193.856 34.4331C193.546 34.7429 193.391 35.2077 193.313 35.8275H196.644C196.644 35.2077 196.489 34.7429 196.218 34.4331C195.947 34.1232 195.56 33.9683 195.056 33.9683ZM198.62 32.9225H200.324L201.834 37.1056C202.067 37.6866 202.222 38.2676 202.299 38.7711H202.338C202.377 38.5387 202.454 38.2289 202.57 37.8803C202.687 37.5317 203.229 35.8662 204.275 32.9225H205.979L202.841 41.25C202.26 42.7606 201.331 43.5352 199.975 43.5352C199.627 43.5352 199.278 43.4965 198.968 43.419V42.1796C199.201 42.2183 199.472 42.257 199.782 42.257C200.518 42.257 201.06 41.831 201.37 40.9401L201.641 40.2429L198.62 32.9225Z" fill="#263238"/>
</g>
<defs>
<clipPath id="clip0_1318_238">
<rect width="232.394" height="55" fill="white"/>
</clipPath>
</defs>
</svg>
