<svg width="134" height="46" viewBox="0 0 134 46" fill="none" xmlns="http://www.w3.org/2000/svg">
<g clip-path="url(#clip0_1318_227)">
<path d="M0 10.5921H5.87105V35.3474H0V45.1526H31.4132V35.3474H25.4816V10.5921H31.4132V0H0V10.5921Z" fill="black"/>
<path d="M79.7737 35.3474V22.3342C79.7737 14.0421 73.7211 11.0158 66.2158 11.0158C60.8895 11.0158 56.8342 12.4684 53.3237 16.5237C53.0816 16.8263 52.7789 17.1895 52.4158 17.4921V10.6526H33.0474V20.5184H37.4658V35.3474H33.0474V45.2132H57.621V35.3474H52.9605V26.8132C52.9605 23.1816 55.6842 20.5184 59.3158 20.5184C62.1605 20.5184 64.4 21.9105 64.4 24.9974V35.2869H59.8605V45.1526H83.8895V35.4684C83.8895 35.4079 83.8289 35.3474 83.8289 35.2869H79.7737V35.3474Z" fill="black"/>
<path d="M122.99 32.4421H110.219H109.795C109.795 36.0737 107.132 37.7684 104.166 37.7684C98.4764 37.7684 97.9922 32.9868 97.9922 28.4474V28.3263C97.9922 23.7868 98.4159 19.0053 104.166 19.0053C108.645 19.0053 109.432 22.8789 109.553 26.5711L122.808 25.1184C121.416 11.6211 108.1 10.7737 104.771 10.7737C104.287 10.7737 104.045 10.7737 104.045 10.7737C93.0896 10.7737 82.3159 16.1605 82.3159 28.3868C82.3159 30.9895 82.8001 33.2895 83.708 35.2868H83.7685V35.4684C87.037 42.7316 95.5107 46 104.045 46C111.005 46 120.75 44.3053 122.929 33.5921L122.99 32.4421Z" fill="black"/>
<path d="M127.529 45.3342C130.604 45.3342 133.097 42.8412 133.097 39.7658C133.097 36.6905 130.604 34.1974 127.529 34.1974C124.454 34.1974 121.96 36.6905 121.96 39.7658C121.96 42.8412 124.454 45.3342 127.529 45.3342Z" fill="black"/>
</g>
<defs>
<clipPath id="clip0_1318_227">
<rect width="133.158" height="46" fill="white"/>
</clipPath>
</defs>
</svg>
