<svg width="204" height="40" viewBox="0 0 204 40" fill="none" xmlns="http://www.w3.org/2000/svg">
<g clip-path="url(#clip0_1318_203)">
<path d="M18 20C18 21.0848 18.8475 21.9322 19.9322 21.9322C21.017 21.9322 21.8644 21.0848 21.8644 20C21.8644 18.9153 21.017 18.0678 19.9322 18.0678C18.8475 18.1017 18 18.9492 18 20ZM34.2034 18.1017C33.1186 18.1017 32.2712 18.9492 32.2712 20.0339C32.2712 21.1187 33.1186 21.9661 34.2034 21.9661C35.2881 21.9661 36.1356 21.1187 36.1356 20.0339C36.1356 18.9492 35.2881 18.1017 34.2034 18.1017ZM34.2034 32.6102C33.1186 32.6102 32.2712 33.4576 32.2712 34.5424C32.2712 35.6271 33.1186 36.4746 34.2034 36.4746C35.2881 36.4746 36.1356 35.6271 36.1356 34.5424C36.1356 33.4576 35.2881 32.6102 34.2034 32.6102Z" fill="#F3BB2D"/>
<path d="M38.305 2.13559C36.3728 -0.271187 32.9151 -0.372878 30.8812 1.52543L30.6439 1.76272L30.1694 2.13559C28.2372 3.69491 25.3558 3.55933 23.5592 1.76272V1.62712C22.949 1.01695 22.1355 0.542374 21.288 0.305086C21.1524 0.305086 20.9151 0.169495 20.8134 0.169495H18.8812C18.7456 0.169495 18.6439 0.169493 18.5083 0.305086H18.2711C18.1355 0.305086 18.0338 0.440677 17.8982 0.440677C17.8982 0.440677 17.7626 0.440685 17.7626 0.576278C17.627 0.576278 17.5253 0.71187 17.3897 0.71187C17.3897 0.71187 17.2541 0.711868 17.2541 0.847461C17.1185 0.983054 17.0168 0.983058 16.8812 1.08475C16.8812 1.08475 16.7456 1.08475 16.7456 1.22034C16.61 1.35594 16.5083 1.35593 16.3728 1.45763L16.2372 1.59323L15.9999 1.83051L15.5253 2.20339C13.5931 3.76272 10.7117 3.62712 9.05072 1.83051C9.05072 1.83051 8.91512 1.83051 8.91512 1.69492L8.67783 1.45763C7.96597 0.847457 7.11851 0.37288 6.16936 0.271185H3.99987C3.99987 0.406779 3.86428 0.406783 3.76258 0.508478H3.72868C3.11851 0.745766 2.54224 0.98305 2.03377 1.45763L1.89817 1.59323L1.52529 1.9661C1.05072 2.44068 0.813428 3.05085 0.576139 3.52542C0.576139 3.66102 0.440546 3.76272 0.440546 3.89831C0.440546 4.0339 0.304952 4.13559 0.304952 4.37288C0.169359 5.22034 0.169359 6.0678 0.440546 6.88136C0.440546 7.01695 0.576139 7.11865 0.576139 7.25424V7.38983C0.576139 7.52542 0.711732 7.62712 0.711732 7.76271C0.847326 7.89831 0.847325 8 0.94902 8.23729C1.18631 8.37288 1.4236 8.61018 1.55919 8.71187L1.79648 8.94915L2.03377 9.18645C3.83038 10.9831 3.83038 14.1017 1.89817 16.0339C1.66089 16.2712 1.288 16.6441 1.18631 16.8814C1.05072 17.0169 1.05072 17.1187 0.94902 17.3559V17.4915C0.813427 17.6271 0.813427 17.7288 0.711732 17.8644V18C0.711732 18.1356 0.576139 18.2373 0.576139 18.3729V18.5085C0.576139 18.6441 0.576139 18.7458 0.440546 18.8814V20.678C0.440546 20.8136 0.440546 20.9153 0.576139 21.0509V21.1864C0.813428 22.0339 1.288 22.8814 1.99987 23.5932C3.93207 25.5254 3.93207 28.6441 1.99987 30.5424L1.86427 30.678L1.62699 30.9153V31.0509C1.49139 31.1864 1.3897 31.2881 1.3897 31.4237C1.3897 31.4237 1.3897 31.5593 1.25411 31.5593C1.11851 31.6949 1.11851 31.7966 1.01682 31.9322L0.881224 32.0678C0.881224 32.2034 0.745631 32.2034 0.745631 32.3051C0.745631 32.4068 0.610037 32.4407 0.610037 32.5424C0.610037 32.678 0.610037 32.678 0.474444 32.7797C0.237156 33.2542 0.101562 33.8644 0.101562 34.339V35.2881C0.237156 35.661 0.237156 36 0.474444 36.2373C0.474444 36.3729 0.610037 36.4746 0.610037 36.4746C0.610037 36.4746 0.610038 36.6102 0.745631 36.6102C0.745631 36.7458 0.881224 36.8475 0.881224 36.9831C0.881224 36.9831 0.881224 37.1186 1.01682 37.1186C1.15241 37.3559 1.25411 37.4915 1.3897 37.5932C1.3897 37.5932 1.3897 37.7288 1.52529 37.7288C1.52529 37.7288 1.52529 37.8644 1.66088 37.8644C1.66088 38 1.79648 38 1.79648 38L1.93207 38.1356C2.06766 38.2712 2.16936 38.2712 2.16936 38.3729L2.30495 38.5085C2.30495 38.5085 2.44055 38.5085 2.44055 38.6441C2.57614 38.7797 2.67783 38.8814 2.81343 38.8814C2.81343 38.8814 2.94902 38.8814 2.94902 39.017C3.08461 39.1525 3.18631 39.1525 3.3219 39.2542H3.3897C3.52529 39.3898 3.62699 39.3898 3.86427 39.3898C3.99987 39.3898 4.23716 39.5254 4.33885 39.5254H4.47444C4.61004 39.5254 4.71173 39.5254 4.84733 39.661H5.93207C6.30495 39.661 6.54224 39.5254 6.88122 39.5254H7.01682C7.15241 39.5254 7.25411 39.3898 7.3897 39.3898H7.4575C7.59309 39.3898 7.69478 39.2542 7.83038 39.2542H7.96597C8.20326 39.1186 8.57614 38.8814 8.81343 38.7797L9.18631 38.4068L9.3219 38.2712C11.2541 36.2373 14.3728 36.2373 16.2711 38.2712C18.4405 40.5424 22.0338 40.4407 24.0677 37.8983C25.4914 36.1017 25.4914 33.4576 24.0677 31.5254C22.1355 29.1186 18.6778 29.017 16.6439 30.9153L16.4067 31.1525L15.9321 31.5254C13.9999 33.0848 11.1185 32.9492 9.3219 31.1525L9.08461 30.9153L8.71173 30.4407C7.15241 28.5085 7.288 25.6271 9.08461 23.8305C10.1694 22.8814 10.6439 21.5593 10.6439 20.2373V19.8644C10.6439 18.678 10.1694 17.4576 9.22021 16.6102C9.22021 16.4746 9.08461 16.4746 9.08461 16.3729L8.71173 15.8983C7.15241 13.9661 7.288 11.0847 9.08461 9.28814L9.22021 9.15255L9.3558 9.01695C11.288 6.98306 14.4066 6.98306 16.305 9.01695L16.4405 9.15255L16.5761 9.28814L16.8134 9.52543C16.949 9.52543 16.949 9.66102 17.0507 9.66102C17.1524 9.66102 17.1863 9.79661 17.288 9.79661C17.3897 9.79661 17.4236 9.9322 17.5253 9.9322C17.627 9.9322 17.6609 10.0678 17.7626 10.0678C17.8643 10.0678 17.8982 10.2034 17.9999 10.2034C18.1016 10.2034 18.1355 10.339 18.2372 10.339C18.3389 10.339 18.3728 10.339 18.4744 10.4746C18.61 10.4746 18.61 10.4746 18.7117 10.6102H20.7456C20.8812 10.6102 20.9829 10.6102 21.1185 10.4746H21.3558C21.4914 10.4746 21.5931 10.339 21.7287 10.339H21.8643C21.9999 10.339 22.1016 10.2034 22.3389 10.1017C22.8134 9.86441 23.288 9.49153 23.6609 9.15255L23.7965 9.01695C25.7287 6.98306 28.8473 6.98306 30.7456 9.01695C32.7795 11.4237 36.5083 11.2881 38.4405 8.77966C39.7287 6.57627 39.7287 3.9322 38.305 2.13559Z" fill="#F3BB2D"/>
<path d="M65.6612 17.0169C64.9494 16.3051 64.3392 15.8305 63.4917 15.4576C62.7799 15.0847 61.9324 14.8474 60.8477 14.8474C59.8985 14.8474 58.9155 15.0847 58.2036 15.4576C57.4917 15.8305 56.8816 16.3051 56.407 17.0169C55.9324 17.6271 55.5595 18.339 55.3222 19.1864C55.085 20.0339 54.9494 20.8813 54.9494 21.6949C54.9494 22.5085 55.085 23.3898 55.4239 24.2034C55.6612 25.0508 56.1358 25.6271 56.6104 26.2373C57.085 26.8474 57.7968 27.322 58.5426 27.661C59.2545 28.0339 60.1019 28.1356 61.0511 28.1356C62.1358 28.1356 62.9833 27.8983 63.6951 27.5254C64.407 27.1525 65.1189 26.678 65.729 25.9661L68.2375 28.6102C67.2884 29.6949 66.2036 30.4068 64.9833 30.8813C63.7968 31.3559 62.4748 31.5932 61.0172 31.5932C59.5934 31.5932 58.1358 31.3559 56.9494 30.8813C55.7629 30.4068 54.6782 29.6949 53.8307 28.8475C52.9833 28 52.2714 26.9152 51.7968 25.7288C51.3223 24.5424 51.085 23.0847 51.085 21.661C51.085 20.2373 51.3223 18.7797 51.7968 17.5932C52.2714 16.4068 52.9833 15.322 53.8307 14.339C54.6782 13.4915 55.7629 12.7796 56.9494 12.3051C58.1358 11.8305 59.5934 11.5932 61.0172 11.5932C62.4409 11.5932 63.7629 11.8305 64.9833 12.3051C66.3053 12.7796 67.39 13.6271 68.3392 14.5763L65.6612 17.0169ZM73.7968 21.4576C73.7968 22.4068 73.9324 23.3898 74.2714 24.1017C74.5087 24.9491 74.9833 25.661 75.4578 26.2712C75.9324 26.8813 76.6443 27.3559 77.39 27.5932C78.1019 27.9661 79.085 28.0678 80.0341 28.0678C80.9833 28.0678 81.8307 27.9322 82.6782 27.5932C83.39 27.2203 84.1019 26.7458 84.6104 26.2712C85.085 25.661 85.5595 24.9491 85.7968 24.1017C86.0341 23.2542 86.2714 22.4068 86.2714 21.4576C86.2714 20.5085 86.1358 19.5254 85.7968 18.8136C85.5595 17.9661 85.085 17.2542 84.6104 16.6441C84.1358 16.0339 83.4239 15.5593 82.6782 15.322C81.9663 14.9491 80.9833 14.8474 80.0341 14.8474C79.085 14.8474 78.2375 14.983 77.39 15.322C76.6782 15.6949 75.9663 16.1695 75.4578 16.6441C74.9833 17.2542 74.5087 17.9661 74.2714 18.8136C74.0341 19.661 73.7968 20.5085 73.7968 21.4576ZM69.9663 21.4576C69.9663 20.0339 70.2036 18.7119 70.6782 17.4915C71.1528 16.3051 71.8646 15.2203 72.8477 14.2373C73.7968 13.2881 74.7799 12.5424 76.1019 12.0678C77.2884 11.5932 78.6104 11.2203 80.068 11.2203C81.5256 11.2203 82.8138 11.4576 84.0341 12.0678C85.2206 12.5424 86.3053 13.2542 87.2884 14.2373C88.2375 15.1864 88.8477 16.2712 89.4578 17.4915C89.9324 18.678 90.1697 20 90.1697 21.4576C90.1697 22.8813 89.9324 24.2034 89.4578 25.4237C88.9833 26.6102 88.2714 27.6949 87.2884 28.678C86.3392 29.6271 85.3561 30.2373 84.0341 30.8475C82.8477 31.322 81.5256 31.6949 80.068 31.6949C78.6443 31.6949 77.3223 31.4576 76.1019 30.8475C74.9155 30.3729 73.8307 29.661 72.8477 28.678C71.8985 27.7288 71.2884 26.7458 70.6782 25.4237C70.3392 24.2034 69.9663 22.8813 69.9663 21.4576ZM93.8646 31.1864H97.4578V12H93.8646V31.1864ZM93.0172 5.01694C93.0172 4.30507 93.2545 3.69491 93.729 3.08474C94.2036 2.61017 94.8138 2.23728 95.5256 2.23728C96.2375 2.23728 96.8477 2.47457 97.3223 3.08474C97.7968 3.55932 98.0341 4.27118 98.0341 5.01694C98.0341 5.7627 97.7968 6.33898 97.3223 6.94915C96.8477 7.42372 96.2375 7.7966 95.5256 7.7966C94.8138 7.7966 94.2036 7.55932 93.729 6.94915C93.2545 6.44067 93.0172 5.7288 93.0172 5.01694ZM102.475 11.9661H106.102V14.9491H106.238C106.712 13.8644 107.424 13.0169 108.644 12.4407C109.729 11.8305 111.051 11.4915 112.61 11.4915C113.56 11.4915 114.407 11.6271 115.254 11.9661C116.102 12.2034 116.814 12.678 117.424 13.2881C118.034 13.8983 118.509 14.6102 118.983 15.5593C119.356 16.5085 119.593 17.5932 119.593 18.9152V31.2881H115.932V19.8983C115.932 19.0508 115.797 18.2034 115.56 17.6271C115.322 17.0169 114.949 16.4407 114.61 16.0678C114.238 15.6949 113.763 15.3559 113.187 15.2203C112.712 15.0847 112.102 14.983 111.492 14.983C110.78 14.983 110.068 15.1186 109.458 15.3559C108.848 15.5932 108.271 15.9661 107.763 16.5424C107.288 17.0169 106.915 17.7288 106.678 18.5763C106.441 19.4237 106.305 20.3729 106.305 21.4576V31.4237H102.712V12M132.848 28.1695C133.797 28.1695 134.644 28.0339 135.492 27.6949C136.339 27.322 136.915 26.8475 137.526 26.2712C138 25.661 138.475 24.9491 138.712 24.1017C138.949 23.2542 139.187 22.4068 139.187 21.3559C139.187 20.4068 139.051 19.4237 138.712 18.6102C138.475 17.7627 138 17.0508 137.526 16.4407C136.915 15.8305 136.339 15.3559 135.492 15.0169C134.644 14.6441 133.797 14.5424 132.848 14.5424C131.899 14.5424 131.051 14.678 130.204 15.0169C129.356 15.3898 128.78 15.8644 128.17 16.4407C127.695 17.0508 127.221 17.7627 126.983 18.6102C126.746 19.4576 126.509 20.3051 126.509 21.3559C126.509 22.3051 126.644 23.2881 126.983 24.1017C127.221 24.9491 127.695 25.661 128.17 26.2712C128.644 26.8813 129.356 27.3559 130.204 27.6949C130.915 27.9322 131.899 28.1695 132.848 28.1695ZM142.814 31.0508H139.221V28.3051H139.085C138.373 29.3898 137.39 30.1017 136.204 30.7119C135.017 31.322 133.695 31.5593 132.373 31.5593C130.949 31.5593 129.492 31.322 128.305 30.8475C127.119 30.3729 126.034 29.661 125.187 28.678C124.339 27.7288 123.627 26.6441 123.254 25.4237C122.78 24.2373 122.543 22.9152 122.543 21.4576C122.543 20 122.78 18.7119 123.254 17.3898C123.729 16.2034 124.339 15.1186 125.187 14.1356C126.034 13.1864 127.119 12.4407 128.305 11.9661C129.492 11.4915 130.814 11.2542 132.373 11.2542C133.695 11.2542 135.017 11.4915 136.204 12.1017C137.39 12.7119 138.373 13.5254 138.949 14.5085H139.085V0.101685H142.678V31.0508H142.814ZM161.153 19.8983C161.153 19.0508 161.017 18.339 160.78 17.6271C160.543 16.9152 160.17 16.3051 159.695 15.8305C159.221 15.3559 158.61 14.983 158 14.6441C157.288 14.4068 156.576 14.1695 155.593 14.1695C154.746 14.1695 153.899 14.3051 153.187 14.6441C152.475 15.0169 151.865 15.3559 151.254 15.9661C150.78 16.4407 150.305 17.0508 150.068 17.7627C149.831 18.4746 149.593 19.0847 149.593 19.6949H161.119L161.153 19.8983ZM149.661 22.8813C149.661 23.7288 149.899 24.4407 150.271 25.1525C150.644 25.8644 151.119 26.4746 151.695 26.9491C152.305 27.4237 153.017 27.7966 153.729 28.0339C154.576 28.2712 155.288 28.4068 156.136 28.4068C157.221 28.4068 158.305 28.1695 159.119 27.5593C159.966 27.0847 160.678 26.3729 161.39 25.5254L164.136 27.6949C162.102 30.339 159.221 31.661 155.627 31.661C154.068 31.661 152.746 31.4237 151.56 30.9491C150.373 30.4746 149.288 29.7627 148.441 28.7797C147.593 27.8305 146.882 26.8474 146.509 25.5254C146.034 24.339 145.797 23.0169 145.797 21.5593C145.797 20.1356 146.034 18.8135 146.509 17.5932C146.983 16.4068 147.695 15.322 148.543 14.339C149.39 13.3898 150.475 12.7797 151.661 12.1695C152.848 11.6949 154.17 11.4576 155.627 11.4576C157.322 11.4576 158.746 11.6949 159.932 12.3051C161.119 12.9152 162.102 13.6271 162.814 14.5763C163.526 15.5254 164.136 16.6102 164.509 17.8305C164.882 19.0169 164.983 20.2373 164.983 21.5593V22.8813H149.661ZM179.153 16.7797C178.678 16.3051 178.204 15.8305 177.593 15.4576C176.983 15.0847 176.17 14.8474 175.322 14.8474C174.475 14.8474 173.763 15.0847 173.051 15.4576C172.441 15.8305 172.102 16.3051 172.102 17.0169C172.102 17.6271 172.339 18.1017 172.712 18.339C173.085 18.7119 173.56 18.9491 174.034 19.1864C174.509 19.4237 175.119 19.5593 175.593 19.661C176.204 19.7966 176.678 19.8983 177.017 19.8983C177.729 20.1356 178.576 20.2712 179.187 20.6102C179.899 20.8474 180.509 21.2203 180.983 21.6949C181.458 22.1695 181.831 22.6441 182.17 23.2542C182.407 23.8644 182.644 24.5763 182.644 25.5254C182.644 26.6102 182.407 27.5593 181.932 28.2712C181.458 28.983 180.848 29.6949 180.136 30.2034C179.424 30.7119 178.576 31.0508 177.627 31.2881C176.678 31.5254 175.695 31.661 174.882 31.661C173.322 31.661 171.899 31.4237 170.678 30.9491C169.492 30.4746 168.407 29.6271 167.424 28.3051L170.17 26.0339C170.78 26.6441 171.356 27.1186 172.102 27.5932C172.848 28.0678 173.661 28.3051 174.746 28.3051C175.221 28.3051 175.695 28.3051 176.17 28.1695C176.644 28.0339 177.017 27.9322 177.356 27.6949C177.729 27.4576 177.966 27.2203 178.204 26.983C178.441 26.6102 178.576 26.2712 178.576 25.8983C178.576 25.4237 178.441 24.9491 178.102 24.5763C177.729 24.2034 177.39 23.9661 176.915 23.7288C176.441 23.4915 175.966 23.3559 175.492 23.2542L174.068 22.8813C173.356 22.6441 172.509 22.5085 171.899 22.2712C171.187 22.0339 170.576 21.661 170.102 21.322C169.627 20.9491 169.153 20.3729 168.78 19.7627C168.407 19.1525 168.305 18.339 168.305 17.4915C168.305 16.5424 168.543 15.5593 168.915 14.8474C169.288 14.1356 169.865 13.5254 170.61 13.0508C171.322 12.5763 172.034 12.2034 172.882 11.9661C173.729 11.7288 174.678 11.5932 175.526 11.5932C176.848 11.5932 178.034 11.8305 179.254 12.3051C180.441 12.7796 181.424 13.6271 182.136 14.7119L179.153 16.7797ZM186.136 0.576269H189.729V20L197.899 11.8305H202.814L194.068 20.4746L203.661 30.7796H198.509L189.763 20.9491V30.7796H186.17V0.576269" fill="#101820"/>
</g>
<defs>
<clipPath id="clip0_1318_203">
<rect width="203.729" height="40" fill="white"/>
</clipPath>
</defs>
</svg>
