<svg width="84" height="17" viewBox="0 0 84 17" fill="none" xmlns="http://www.w3.org/2000/svg">
<path fill-rule="evenodd" clip-rule="evenodd" d="M5.00849 0L0 3.14609L5.00849 6.29218L0 9.43831L5.00849 12.5844L10.0178 9.43831L15.0263 12.5844L20.0348 9.43831L15.0263 6.29218L20.0348 3.14609L15.0263 0L10.0178 3.14609L5.00849 0ZM10.0178 3.14609L15.0263 6.29218L10.0178 9.43831L5.00849 6.29218L10.0178 3.14609Z" fill="black"/>
<path d="M10.0178 16.7791L5.00848 13.6331L10.0178 10.487L15.0263 13.6331L10.0178 16.7791Z" fill="black"/>
<path fill-rule="evenodd" clip-rule="evenodd" d="M27.6102 3.13801H23.6944V13.398H27.6691C30.2298 13.398 32.1594 11.9007 32.1594 8.59198V7.88752C32.1594 4.59108 30.1144 3.13801 27.6102 3.13801ZM25.8819 11.5153V4.99855H27.4924C28.9482 4.99855 29.9401 5.93372 29.9401 7.99063V8.52328C29.9401 10.5802 28.9752 11.5153 27.566 11.5153H25.8819Z" fill="black"/>
<path d="M35.0638 5.09671H33.3231V13.4004H35.4811V9.60081C35.4811 7.8458 35.9132 7.22726 37.698 7.22726H38.589V5.02553H38.0565C36.5171 5.02553 35.6677 5.70297 35.3362 7.026L35.0638 5.09671Z" fill="black"/>
<path fill-rule="evenodd" clip-rule="evenodd" d="M39.0509 9.19581V9.42652C39.0509 12.1609 40.5778 13.614 43.2536 13.614C45.7577 13.614 47.4422 12.1609 47.4422 9.42652V9.19581C47.4422 6.43198 45.7285 4.90772 43.2536 4.90772C40.8356 4.90772 39.0509 6.405 39.0509 9.19581ZM45.2547 9.19581V9.39707C45.2547 10.9091 44.4789 11.7289 43.239 11.7289C42.0018 11.7289 41.2383 10.8943 41.2383 9.39707V9.19581C41.2383 7.58563 42.046 6.73634 43.2536 6.73634C44.4763 6.73634 45.2547 7.64206 45.2547 9.19581Z" fill="black"/>
<path fill-rule="evenodd" clip-rule="evenodd" d="M50.3931 5.09671H48.5788V16.2502H50.6952V12.0627C51.1416 13.0273 52.0207 13.6165 53.3441 13.6165C55.3032 13.6165 56.8425 12.1928 56.8425 9.45845V9.22769C56.8425 6.43445 55.46 4.91015 53.3441 4.91015C51.9766 4.91015 51.0559 5.61461 50.6091 6.67991L50.3931 5.09671ZM54.6524 9.22526V9.41182C54.6524 10.9385 53.862 11.7583 52.6221 11.7583C51.429 11.7583 50.6506 10.8379 50.6506 9.37009V9.21051C50.6506 7.67151 51.4586 6.75109 52.6663 6.75109C53.8033 6.75109 54.6524 7.57088 54.6524 9.22526Z" fill="black"/>
<path fill-rule="evenodd" clip-rule="evenodd" d="M59.85 13.4004L60.0217 11.8884C60.4686 12.9537 61.3596 13.614 62.7271 13.614C64.8435 13.614 66.2256 12.0603 66.2256 9.29644V9.05098C66.2256 6.28962 64.7574 4.92243 62.7859 4.90772C61.4775 4.90772 60.5569 5.4968 60.0955 6.57681V2.31817H57.9791V13.4004H59.85ZM64.0527 9.09518V9.29644C64.0527 10.9385 63.2892 11.7436 62.0374 11.7436C60.8417 11.7436 60.0513 10.8501 60.0513 9.29644V9.12463C60.0513 7.70096 60.8713 6.73634 62.0666 6.73634C63.2181 6.73634 64.0527 7.57088 64.0527 9.09518Z" fill="black"/>
<path fill-rule="evenodd" clip-rule="evenodd" d="M67.1904 9.19581V9.42652C67.1904 12.1609 68.7001 13.614 71.3785 13.614C73.8826 13.614 75.5817 12.1609 75.5817 9.42652V9.19581C75.5817 6.43198 73.8535 4.90772 71.3785 4.90772C68.9606 4.90772 67.1904 6.405 67.1904 9.19581ZM73.3916 9.19581V9.39707C73.3916 10.9091 72.6308 11.7289 71.3763 11.7289C70.1391 11.7289 69.3752 10.8943 69.3752 9.39707V9.19581C69.3752 7.58563 70.1833 6.73634 71.3909 6.73634C72.6136 6.73634 73.3916 7.64206 73.3916 9.19581Z" fill="black"/>
<path d="M75.4956 5.09428L78.4024 9.09518L75.2479 13.398H77.7816L79.6374 10.6489L81.5525 13.398H84L80.8919 9.08043L83.8428 5.09428H81.3683L79.6692 7.58316L77.9851 5.09428H75.4956Z" fill="black"/>
</svg>
