<svg width="89" height="50" viewBox="0 0 89 50" fill="none" xmlns="http://www.w3.org/2000/svg">
<g clip-path="url(#clip0_1318_209)">
<path d="M15.1889 1.52775V2.47775L16.0708 2.68053C17.4264 3.01942 17.6306 3.8333 18.1722 6.40969L19.5833 13.6527L15.65 34.8097L10.2931 8.22636C9.68194 5.30969 9.47917 3.14025 11.65 2.66525L12.6667 2.46247V1.52775H0V2.47775L1.28889 2.81803C2.57778 3.15691 3.11944 3.76664 4.00139 7.76803L12.6125 48.5222H14.8347L20.5986 17.7361L26.9875 48.5222H28.7514L37.025 9.02775C37.975 4.48608 38.3819 3.19442 40.0111 2.77775L41.2986 2.43747V1.52775H31.9931V2.47775L33.4167 2.74858C35.4514 3.15553 35.925 4.44303 34.975 9.66525L29.9028 34.8097L24.7639 8.22636C24.2083 5.58192 23.8819 3.14025 26.1208 2.73331L27.6125 2.46247V1.51247L15.1889 1.52775ZM75.5278 1.65553V2.60553L77.2222 3.01247C78.7125 3.35136 79.3236 3.89441 79.3236 5.79303V38.6819C79.3236 42.343 79.3236 47.1583 75.525 47.1583C73.3556 47.1583 71.6639 45.2597 71.7972 43.9708C71.9319 41.8694 75.5945 42.0041 75.7972 38.6139C76.0014 36.2527 74.5083 35.1416 73.0167 34.9514C70.9153 34.6805 68.3389 36.443 68.2694 39.9694C68.2028 44.5111 71.1861 48.6472 76.2694 48.6472C81.8944 48.6472 85.575 44.8527 85.575 37.5958L85.5764 5.85969C85.5764 3.96108 86.0514 3.34997 87.4069 3.01247L88.8889 2.59025V1.64025L75.5278 1.65553ZM52.6806 1.36664C46.9167 1.36664 43.6625 6.18191 43.6625 12.4875C43.6625 24.2194 58.7847 28.7625 58.7847 39.3416C58.7847 44.3597 56.6819 47.1389 53.6458 47.1389C49.1042 47.1389 45.8472 41.6486 45.0347 32.9H44.0181V48.3611H44.8319C45.5097 46.1389 46.3917 45.9208 47.1375 45.9208C48.4264 45.9208 49.7806 48.6291 53.7139 48.6291C59.7486 48.6291 63.6806 43.4097 63.6833 36.218C63.6833 22.1139 48.5611 18.6555 48.5611 8.55136C48.5611 6.2458 49.2389 2.85691 52.6306 2.85691C57.5139 2.85691 59.6167 9.29858 60.4292 17.0972H61.4458V1.63886H60.6319C60.2931 3.13053 59.6833 3.80831 58.8014 3.80831C57.2417 3.80831 56.4403 1.36803 52.6986 1.36803L52.6806 1.36664ZM63.5972 14.6652V14.8319L63.6292 14.8125L63.6125 14.6736L63.5972 14.6652Z" fill="black"/>
</g>
<defs>
<clipPath id="clip0_1318_209">
<rect width="88.8889" height="50" fill="white"/>
</clipPath>
</defs>
</svg>
