<svg width="76" height="15" viewBox="0 0 76 15" fill="none" xmlns="http://www.w3.org/2000/svg">
<path d="M15.3388 4.39177C12.5779 4.39177 10.4207 6.48764 10.4207 9.29336C10.4207 12.0991 12.5234 14.177 15.3388 14.177C18.1542 14.177 20.2935 12.0632 20.2935 9.27544C20.2935 6.50556 18.1908 4.39177 15.3388 4.39177ZM15.3574 12.155C13.7852 12.155 12.6331 10.9339 12.6331 9.29406C12.6331 7.63558 13.7666 6.41519 15.3388 6.41519C16.9297 6.41519 18.0811 7.65421 18.0811 9.29406C18.0811 10.9339 16.9297 12.155 15.3574 12.155ZM20.8965 6.52418H22.2679V13.9956H24.4617V4.57391H20.8965V6.52418ZM4.89953 6.41449C6.05164 6.41449 6.96572 7.12508 7.31274 8.18196H9.63488C9.21406 5.92261 7.34931 4.39177 4.91816 4.39177C2.15725 4.39177 0 6.48764 0 9.29406C0 12.1005 2.10276 14.1777 4.91816 14.1777C7.29479 14.1777 9.19611 12.6469 9.61693 10.3689H7.31274C6.98366 11.4258 6.06956 12.155 4.91748 12.155C3.32661 12.155 2.21175 10.9339 2.21175 9.29406C2.21245 7.63558 3.30936 6.41449 4.89953 6.41449ZM62.5804 8.38272L60.9716 8.14609C60.2039 8.0371 59.6554 7.78185 59.6554 7.18027C59.6554 6.52419 60.3688 6.19649 61.3373 6.19649C62.3978 6.19649 63.0744 6.65182 63.2206 7.39896H65.3414C65.1034 5.50385 63.6408 4.39245 61.3925 4.39245C59.0703 4.39245 57.5347 5.57699 57.5347 7.25339C57.5347 8.85668 58.5404 9.78664 60.5694 10.0778L62.1782 10.3144C62.9648 10.4234 63.4034 10.7338 63.4034 11.3168C63.4034 12.0639 62.6358 12.3737 61.5753 12.3737C60.2769 12.3737 59.5457 11.8452 59.436 11.0436H57.2787C57.4802 12.8842 58.9242 14.1777 61.5567 14.1777C63.952 14.1777 65.5421 13.0843 65.5421 11.2071C65.5421 9.53069 64.3907 8.65592 62.5804 8.38272ZM23.3648 0.692627C22.5604 0.692627 21.9569 1.27558 21.9569 2.07722C21.9569 2.87886 22.5598 3.46181 23.3648 3.46181C24.1692 3.46181 24.7729 2.87886 24.7729 2.07722C24.7729 1.27558 24.1692 0.692627 23.3648 0.692627ZM55.5602 7.79977C55.5602 5.7591 54.3172 4.39245 51.6845 4.39245C49.1981 4.39245 47.8087 5.65011 47.5342 7.58177H49.71C49.8196 6.83463 50.4047 6.21512 51.648 6.21512C52.7635 6.21512 53.3119 6.707 53.3119 7.30859C53.3119 8.0923 52.306 8.29235 51.0629 8.41999C49.381 8.6021 47.2968 9.18505 47.2968 11.372C47.2968 13.067 48.5585 14.1598 50.5697 14.1598C52.1418 14.1598 53.129 13.5037 53.6231 12.4648C53.6963 13.394 54.391 13.9956 55.3602 13.9956H56.64V12.046H55.5609V7.79977H55.5602ZM53.4029 10.1688C53.4029 11.4265 52.306 12.3557 50.9711 12.3557C50.1482 12.3557 49.4535 12.0094 49.4535 11.2809C49.4535 10.3516 50.5689 10.0964 51.5928 9.9874C52.5801 9.89633 53.1284 9.67763 53.4029 9.25819V10.1688ZM41.7571 4.39177C40.5318 4.39177 39.5081 4.90228 38.7769 5.75843V0.601562H36.5831V13.9956H38.7402V12.7566C39.4714 13.6493 40.514 14.1777 41.7571 14.1777C44.3896 14.1777 46.3828 12.1005 46.3828 9.29406C46.3828 6.48764 44.3531 4.39177 41.7571 4.39177ZM41.4281 12.155C39.8558 12.155 38.7037 10.9339 38.7037 9.29406C38.7037 7.65421 39.8738 6.41519 41.4459 6.41519C43.0369 6.41519 44.1516 7.63628 44.1516 9.29406C44.1516 10.9339 43.0002 12.155 41.4281 12.155ZM31.3357 4.39177C29.9098 4.39177 28.977 4.97472 28.4287 5.79498V4.57391H26.2527V13.9949H28.4465V8.87462C28.4465 7.43483 29.3606 6.41449 30.7135 6.41449C31.9753 6.41449 32.761 7.30721 32.761 8.60142V13.9956H34.9548V8.43791C34.9557 6.06817 33.731 4.39177 31.3357 4.39177ZM76 8.98431C76 6.28756 74.0255 4.39245 71.3744 4.39245C68.559 4.39245 66.4929 6.50626 66.4929 9.29406C66.4929 12.2281 68.7051 14.1777 71.411 14.1777C73.6965 14.1777 75.4881 12.829 75.9449 10.916H73.6592C73.3302 11.7542 72.5258 12.2281 71.4469 12.2281C70.0388 12.2281 68.9784 11.3534 68.741 9.82251H75.9994V8.98431H76ZM68.8693 8.2551C69.2172 6.94295 70.2043 6.3055 71.3379 6.3055C72.5809 6.3055 73.5317 7.01607 73.751 8.2551H68.8693Z" fill="black"/>
</svg>
