<svg width="154" height="38" viewBox="0 0 154 38" fill="none" xmlns="http://www.w3.org/2000/svg">
<path d="M67.4689 4.81372C66.1725 3.53142 64.6333 2.51421 62.9393 1.82019C61.2453 1.12617 59.4296 0.768924 57.596 0.76886H37.2323V37.5886H51.1937V14.5767H55.6691C56.903 14.5767 58.0918 15.0596 58.9632 15.9231L63.786 20.6886C64.2193 21.1157 64.5632 21.6231 64.7981 22.1817C65.033 22.7403 65.1543 23.3392 65.1551 23.9441V37.5867H79.1166V22.0369C79.1141 18.3751 77.6415 14.8642 75.0224 12.2757L67.4689 4.81372V4.81372ZM139.618 0.76886V14.4133C139.618 15.6334 139.122 16.8034 138.247 17.667L133.422 22.4324C132.55 23.2955 131.366 23.7805 130.132 23.7807H123.425C124.878 21.5568 125.653 18.9663 125.656 16.3187V0.76886H111.695V14.4133C111.695 15.6334 111.197 16.8034 110.324 17.667L105.498 22.4324C104.625 23.2951 103.443 23.78 102.209 23.7807H97.7318V0.770717H83.7704V37.5867H104.138C107.842 37.5868 111.395 36.1318 114.014 33.5419L118.678 28.9324V37.5867H132.063C135.766 37.5863 139.318 36.1313 141.937 33.5419L149.487 26.0817C152.107 23.4929 153.579 19.9811 153.581 16.3187V0.76886H139.62H139.618ZM0 14.5767H9.30761V37.5867H23.269V14.5767H32.5766V0.76886H0V14.5767Z" fill="#FF4422"/>
</svg>
