<svg width="121" height="49" viewBox="0 0 121 49" fill="none" xmlns="http://www.w3.org/2000/svg">
<path d="M7.24291 40.9311C5.2336 40.9311 3.48003 39.3967 3.48003 36.6933C3.48003 33.9899 5.23361 32.5285 7.16985 32.5285C8.95996 32.5285 9.87328 33.5515 10.2751 34.6109H13.417C12.942 31.8344 10.7501 29.6059 7.13332 29.6059C3.26083 29.6059 0.265137 32.6016 0.265137 36.7298C0.265137 40.8215 3.26083 43.8903 7.20638 43.8903C10.7501 43.8903 12.9786 41.5887 13.5631 38.8853H10.4213C10.0559 39.8351 9.06956 40.9311 7.24291 40.9311ZM51.9957 25.4046H48.8173V39.6159C48.8173 42.1367 50.3517 43.6345 52.836 43.6345C54.005 43.6345 54.5895 43.4153 54.8087 43.3423V40.6754C54.6626 40.7119 54.1511 40.785 53.7127 40.785C52.5437 40.785 51.9957 40.2735 51.9957 39.1045V32.8573H54.8087V30.0078H51.9957V25.4046ZM45.3102 23.3223C44.1777 23.3223 43.2278 24.2721 43.2278 25.4046C43.2278 26.5737 44.1777 27.487 45.3102 27.487C46.4792 27.487 47.3925 26.5737 47.3925 25.4046C47.4291 24.2721 46.4792 23.3223 45.3102 23.3223ZM43.7393 43.4519H46.9176V30.0078H43.7393V43.4519ZM36.0308 29.7155C33.9484 29.7155 32.4141 30.6654 31.7565 31.8344V30.0078H28.6512V48.6761H31.8295V41.9175C32.5237 42.9404 33.985 43.7807 35.9212 43.7807C39.7937 43.7807 42.2414 40.7484 42.2414 36.7298C42.2414 32.7477 40.0129 29.7155 36.0308 29.7155ZM35.4098 40.9311C33.3274 40.9311 31.793 39.2871 31.793 36.6933C31.793 34.1725 33.3274 32.5285 35.4098 32.5285C37.5652 32.5285 39.0265 34.1725 39.0265 36.6933C39.0265 39.2871 37.5652 40.9311 35.4098 40.9311ZM69.8603 43.4519H73.0386V25.4046H69.8603V43.4519ZM62.2614 29.6059C58.9369 29.6059 56.5988 31.7248 56.5258 34.6109H59.5215C59.6676 33.2592 60.6175 32.1998 62.2614 32.1998C64.015 32.1998 64.8187 33.1131 64.8187 34.2456C64.8187 34.7205 64.5995 35.0859 63.8323 35.1954L60.3983 35.7069C58.0967 36.0357 56.3431 37.3509 56.3431 39.7621C56.3431 41.881 58.0967 43.8172 60.9097 43.8172C63.1017 43.8172 64.4169 42.7212 65.0379 41.6983V43.4153H67.9971V34.5744C67.9606 31.944 66.3896 29.6059 62.2614 29.6059ZM64.8187 37.8624C64.8187 40.4927 63.2844 41.333 61.4942 41.333C60.2156 41.333 59.5215 40.4927 59.5215 39.5794C59.5215 38.4834 60.3252 37.9354 61.3116 37.7528L64.8187 37.2413V37.8624ZM21.0523 29.6059C17.7278 29.6059 15.3897 31.7248 15.3167 34.6109H18.3124C18.4585 33.2592 19.4084 32.1998 21.0523 32.1998C22.8059 32.1998 23.6096 33.1131 23.6096 34.2456C23.6096 34.7205 23.3904 35.0859 22.6233 35.1954L19.1892 35.7069C16.8876 36.0357 15.134 37.3509 15.134 39.7621C15.134 41.881 16.8876 43.8172 19.7006 43.8172C21.8926 43.8172 23.2078 42.7212 23.8288 41.6983V43.4153H26.788V34.5744C26.7515 31.944 25.1806 29.6059 21.0523 29.6059ZM23.6096 37.8624C23.6096 40.4927 22.0753 41.333 20.2852 41.333C19.0065 41.333 18.3124 40.4927 18.3124 39.5794C18.3124 38.4834 19.1161 37.9354 20.1025 37.7528L23.6096 37.2413V37.8624ZM2.63977 20.3996H5.85467V9.8051H8.99649V7.0286H5.85467V5.20196C5.85467 3.55798 6.98719 3.15612 7.82744 3.15612C8.4485 3.15612 8.7773 3.22918 8.99649 3.30225V0.562283C8.7773 0.452684 8.11971 0.27002 7.31598 0.27002C4.53948 0.27002 2.63977 2.09666 2.63977 5.09236V6.99207H0.301666V9.76857H2.63977V20.3996ZM16.3031 20.838C20.3217 20.838 23.2808 17.8423 23.2808 13.6776C23.2808 9.54937 20.3217 6.55368 16.3031 6.55368C12.2845 6.55368 9.36182 9.54937 9.36182 13.6776C9.32529 17.8058 12.2845 20.838 16.3031 20.838ZM16.3031 9.43977C18.2758 9.43977 20.066 10.8646 20.066 13.6776C20.066 16.4906 18.3124 17.9519 16.3031 17.9519C14.3303 17.9519 12.5402 16.4541 12.5402 13.6776C12.5402 10.9011 14.3303 9.43977 16.3031 9.43977ZM29.8568 20.8015C31.4277 20.8015 32.9986 20.1439 33.6562 18.9383V20.4362H36.6884V6.99207H33.4735V14.9562C33.4735 16.7098 32.5237 17.9519 30.6605 17.9519C28.7242 17.9519 27.9571 16.5272 27.9571 14.8832V6.99207H24.7422V15.4677C24.7787 18.4269 26.6419 20.8015 29.8568 20.8015ZM47.356 12.472V20.4362H50.5709V11.924C50.5709 8.96484 49 6.59021 45.712 6.59021C44.2142 6.59021 42.6067 7.21127 41.7299 8.78218V6.99207H38.6247V20.4362H41.8396V12.6912C41.8396 10.9376 42.7894 9.51284 44.6161 9.51284C46.5888 9.47631 47.356 10.7915 47.356 12.472ZM58.4986 20.7284C60.3983 20.7284 61.823 19.7786 62.4441 18.6461V20.3996H65.5129V2.38893H62.4076V8.56298C62.0057 7.72273 60.8001 6.62674 58.462 6.62674C54.6991 6.62674 52.0688 9.8051 52.0688 13.6776C52.0688 17.6962 54.6626 20.7284 58.4986 20.7284ZM58.9004 9.43977C60.9828 9.43977 62.4441 11.0472 62.4441 13.6045C62.4441 16.1618 60.9828 17.9154 58.9004 17.9154C56.7084 17.9154 55.2836 16.1984 55.2836 13.6411C55.2471 11.0838 56.7815 9.43977 58.9004 9.43977ZM83.7428 2.38893H80.5644V16.6002C80.5644 19.121 82.0988 20.6188 84.583 20.6188C85.7521 20.6188 86.3366 20.3996 86.5558 20.3266V17.6597C86.4097 17.6962 85.8982 17.7693 85.4598 17.7693C84.2908 17.7693 83.7428 17.2578 83.7428 16.0888V9.84163H86.5558V6.99207H83.7428V2.38893ZM90.0264 0.306552C88.8939 0.306552 87.944 1.25641 87.944 2.38893C87.944 3.55798 88.8939 4.4713 90.0264 4.4713C91.1955 4.4713 92.1088 3.55798 92.1088 2.38893C92.1453 1.21987 91.1955 0.306552 90.0264 0.306552ZM88.4555 20.3996H91.6339V6.95554H88.4555V20.3996ZM100.109 6.55368C96.0909 6.55368 93.1683 9.54937 93.1683 13.6776C93.1683 17.8058 96.1274 20.838 100.109 20.838C104.128 20.838 107.087 17.8423 107.087 13.6776C107.087 9.54937 104.128 6.55368 100.109 6.55368ZM100.109 17.9519C98.1367 17.9519 96.3466 16.4541 96.3466 13.6776C96.3466 10.9011 98.1367 9.43977 100.109 9.43977C102.082 9.43977 103.872 10.8646 103.872 13.6776C103.836 16.4906 102.082 17.9519 100.109 17.9519ZM115.673 6.59021C114.175 6.59021 112.567 7.21127 111.69 8.78218V6.99207H108.585V20.4362H111.8V12.6912C111.8 10.9376 112.75 9.51284 114.577 9.51284C116.586 9.51284 117.353 10.828 117.353 12.5085V20.4727H120.568V11.9605C120.531 8.96484 118.96 6.59021 115.673 6.59021ZM72.9656 6.55368C69.6411 6.55368 67.303 8.67258 67.2299 11.5587H70.2256C70.3717 10.207 71.3216 9.14751 72.9656 9.14751C74.7191 9.14751 75.5229 10.0608 75.5229 11.1934C75.5229 11.6683 75.3037 12.0336 74.5365 12.1432L71.1024 12.6547C68.8008 12.9835 67.0472 14.2986 67.0472 16.7098C67.0472 18.8287 68.8008 20.765 71.6139 20.765C73.8058 20.765 75.121 19.669 75.7421 18.6461V20.3631H78.7012V11.5221C78.6647 8.89178 77.0938 6.55368 72.9656 6.55368ZM75.5229 14.8466C75.5229 17.477 73.9885 18.3173 72.1984 18.3173C70.9197 18.3173 70.2256 17.477 70.2256 16.5637C70.2256 15.4677 71.0293 14.9197 72.0157 14.737L75.5229 14.2256V14.8466Z" fill="#141818"/>
</svg>
