<svg width="235" height="25" viewBox="0 0 235 25" fill="none" xmlns="http://www.w3.org/2000/svg">
<g clip-path="url(#clip0_1225_204)">
<path d="M113.496 23.5505V0.576339H121.612C128.642 0.576339 133.747 5.44608 133.747 12.1616C133.747 18.8641 128.773 23.5374 121.639 23.5374H113.496V23.5505ZM118.039 19.4139H121.298C124.924 19.4139 129.166 17.5157 129.166 12.1747C129.166 7.03006 125.212 4.72609 121.298 4.72609H118.039V19.4139ZM173.111 23.5505V19.4139H163.804V0.576339H159.261V23.5374H173.111V23.5505ZM189.344 23.5505V19.4139H180.036V0.576339H175.494V23.5374H189.344V23.5505ZM209.464 23.5505L208.011 19.5317H197.054L195.601 23.5505H190.836L199.698 0.58943H205.445L214.334 23.5505H209.464ZM202.029 6.04826C201.911 6.16607 201.911 6.16607 201.112 8.26059L200.536 9.7922L198.494 15.4998H206.558L204.529 9.84456C204.215 8.99367 203.927 8.2475 203.704 7.65841C203.141 6.16607 203.141 6.16607 203.023 6.04826L202.84 5.86499H202.212L202.029 6.04826ZM229.048 23.5505L224.518 15.5521H220.918V23.5505H216.376V0.576339H224.95C230.606 0.576339 233.97 3.40393 233.97 8.14277C233.97 11.1929 232.491 13.4314 229.807 14.4394L229.087 14.7143L234.441 23.5374H229.048V23.5505ZM220.918 12.1747H225.33C227.843 12.1747 229.283 10.8133 229.283 8.43077C229.283 5.9828 227.83 4.5821 225.291 4.5821H220.918V12.1747ZM154.064 3.62648C152.127 1.3356 149.43 0.118164 146.275 0.118164C143.12 0.118164 140.424 1.3356 138.486 3.62648C136.667 5.78644 135.659 8.78421 135.659 12.0569C135.659 15.3296 136.667 18.3273 138.499 20.4873C140.45 22.7782 143.107 23.9956 146.275 23.9956C149.43 23.9956 152.101 22.7782 154.051 20.4873C155.884 18.3273 156.892 15.3296 156.892 12.0569C156.892 8.78421 155.884 5.78644 154.064 3.62648ZM146.275 19.5055C142.61 19.5055 140.45 16.7172 140.45 12.0569C140.45 9.91002 140.882 8.18204 141.746 6.89915C142.754 5.40681 144.325 4.60828 146.275 4.60828C148.226 4.60828 149.797 5.39372 150.805 6.89915C151.669 8.16895 152.101 9.91002 152.101 12.0569C152.101 16.7303 149.941 19.5055 146.275 19.5055Z" fill="black"/>
<path d="M36.2482 23.5502L31.6795 15.7089C31.5748 15.7089 31.5093 15.7089 31.4177 15.7089H27.9356V23.5502H23.38V0.575991H31.4177C37.0598 0.575991 40.4372 3.62613 40.4372 8.24715C40.4372 11.402 38.8925 13.6929 36.1042 14.8449L41.3535 23.5371H36.2482V23.5502ZM27.9487 11.6376H32.0199C34.5464 11.6376 35.7245 10.0013 35.7245 8.26024C35.7245 6.45372 34.5071 4.84356 32.0199 4.84356H27.9487V11.6376V11.6376ZM43.4481 23.5502V0.575991H48.0036V23.5371H43.4481V23.5502ZM69.132 21.1546C67.8884 22.5684 65.1655 24.0084 62.1809 24.0084C55.5831 24.0084 50.2683 18.9946 50.2683 12.0696C50.2683 5.14465 55.5831 0.130907 62.1809 0.130907C66.7364 0.170179 70.5458 2.52651 72.6142 6.205L67.9539 7.42243C66.7102 5.72064 64.4456 4.63411 62.1809 4.63411C57.8871 4.63411 55.0333 7.72352 55.0333 12.0827C55.0333 16.6383 58.1882 19.5575 62.4427 19.5575C66.383 19.5575 68.4513 17.3976 69.1713 15.6172V14.6354H62.8092V10.9177H73.0723V23.5502H69.132C69.132 21.652 69.1713 21.1939 69.1713 21.1546H69.132ZM76.2796 23.5502V0.575991H80.8351V23.5371H76.2796V23.5502ZM104.359 0.575991V23.5371H100.065L93.5331 14.6747C91.4648 11.8471 88.9383 8.24715 88.9121 8.24715H88.8728C88.8466 8.24715 88.9121 11.5591 88.9121 16.1147V23.524H84.3565V0.575991H88.6503L95.3134 9.53004C96.8843 11.5984 99.7774 15.6958 99.8036 15.6958H99.8428C99.8821 15.6958 99.8036 11.9518 99.8036 8.09006V0.575991H104.359ZM20.1204 5.917L16.4027 9.63476C16.5467 10.3678 16.6252 11.1795 16.6252 12.0565C16.6252 16.7561 14.4129 19.5706 10.7082 19.5706C9.1635 19.5706 7.86751 19.0732 6.88571 18.1306L19.767 5.24937C19.4266 4.63411 19.0339 4.07121 18.5888 3.54758C18.4055 3.32504 18.2092 3.12868 18.0128 2.91923C17.9866 2.89305 17.9605 2.86687 17.9343 2.84068C17.8688 2.78832 17.8165 2.72287 17.751 2.6705C15.8659 0.91635 13.4703 0 10.7082 0C7.52716 0 4.80429 1.21744 2.85377 3.53449C1.00798 5.72064 0 8.74459 0 12.0565C0 14.2558 0.445084 16.3241 1.28289 18.1045L5.02683 14.3605C4.89592 13.6536 4.83047 12.8813 4.83047 12.0435C4.83047 9.88349 5.27556 8.12933 6.13954 6.83335C7.16062 5.32792 8.74459 4.52939 10.7082 4.52939C12.2398 4.52939 13.5227 5.01374 14.4914 5.917L1.63634 18.7721C1.98979 19.4135 2.3956 20.0157 2.85377 20.5524C2.94541 20.6571 3.03704 20.7619 3.14177 20.8666C3.2465 20.9844 3.36431 21.1022 3.48213 21.22C3.49522 21.2331 3.50831 21.2462 3.5214 21.2593C3.56067 21.2986 3.58685 21.3379 3.62613 21.364C5.4981 23.1444 7.91988 24.0869 10.7082 24.0869C13.9023 24.0869 16.6252 22.8695 18.5888 20.5524C20.4346 18.3663 21.4557 15.3554 21.4557 12.0435C21.4557 9.81803 20.9844 7.71043 20.1204 5.917Z" fill="#0074F0"/>
</g>
<defs>
<clipPath id="clip0_1225_204">
<rect width="234.455" height="24.1" fill="white"/>
</clipPath>
</defs>
</svg>
