<svg width="400" height="210" viewBox="0 0 400 210" fill="none" xmlns="http://www.w3.org/2000/svg">
<mask id="mask0_767_676" style="mask-type:alpha" maskUnits="userSpaceOnUse" x="0" y="0" width="400" height="210">
<path d="M0 12C0 5.37258 5.37258 0 12 0H388C394.627 0 400 5.37258 400 12V210H0V12Z" fill="#D9D9D9"/>
</mask>
<g mask="url(#mask0_767_676)">
<path d="M0 16C0 7.16344 7.16344 0 16 0H384C392.837 0 400 7.16344 400 16V210H0V16Z" fill="#0074F0"/>
<rect x="-10" width="420" height="210" fill="#F6F8FE"/>
<path d="M167.259 102.382C167.617 102.382 167.971 102.454 168.301 102.593C168.632 102.732 168.931 102.936 169.182 103.193C169.695 103.714 169.983 104.416 169.982 105.148V121.161H163.233V117.708C161.594 120.136 157.755 121.562 154.724 121.503C152.584 121.528 150.462 121.103 148.497 120.254C146.532 119.406 144.767 118.153 143.318 116.578C140.31 113.375 138.636 109.147 138.636 104.753C138.636 100.359 140.31 96.1307 143.318 92.9276C144.765 91.3535 146.527 90.1014 148.489 89.2526C150.451 88.4039 152.571 87.9774 154.709 88.0009C157.864 87.9662 160.946 88.9543 163.494 90.8174C164.108 91.2656 164.69 91.756 165.235 92.2849C166.076 93.1019 166.829 94.0047 167.482 94.9786C168.437 96.429 169.121 98.0412 169.5 99.7364H162.537L162.2 99.1353C161.548 97.9709 160.645 96.9661 159.556 96.1938C158.143 95.2064 156.454 94.6891 154.731 94.7153C153.477 94.6851 152.232 94.926 151.08 95.4217C149.926 95.9226 148.891 96.6636 148.045 97.5955C146.311 99.5909 145.355 102.144 145.351 104.787C145.347 107.43 146.295 109.987 148.023 111.987C148.868 112.92 149.904 113.661 151.061 114.159C152.212 114.655 153.457 114.897 154.711 114.867C156.782 114.874 158.784 114.115 160.331 112.737C161.695 111.509 162.599 110.544 162.987 108.57L153.542 108.611L153.471 102.382H167.259Z" fill="#0074F0"/>
<path d="M94.0912 100.481C94.3462 101.521 94.5069 102.583 94.571 103.652C94.792 107.047 94.0126 110.433 92.3294 113.39C89.7525 117.829 84.9997 120.974 79.8919 121.445C78.5925 121.561 77.2834 121.508 75.998 121.285C73.9541 120.934 72.0004 120.18 70.2504 119.067C69.3822 118.514 68.5744 117.871 67.84 117.15C67.588 116.902 67.336 116.652 67.0906 116.398C66.7635 116.064 66.4555 115.711 66.1681 115.342C66.0278 115.156 65.892 114.967 65.7605 114.775C65.6246 114.596 65.4995 114.409 65.3858 114.216L83.4242 95.9407L83.1919 95.7961C83.113 95.7479 83.0341 95.7041 82.953 95.6603C80.4243 94.3039 77.1857 94.3324 74.6482 95.6471C73.4038 96.3116 72.3181 97.2379 71.4659 98.3621C70.6136 99.4863 70.015 100.782 69.7113 102.159C69.3703 103.686 69.3183 105.263 69.5579 106.809C69.563 106.834 69.5675 106.86 69.572 106.884C69.5774 106.914 69.5827 106.943 69.5886 106.971L64.4041 112.257C64.3713 112.189 64.3384 112.121 64.3077 112.053C63.3228 109.919 62.7778 107.608 62.7051 105.259C62.6325 102.91 63.0337 100.57 63.8848 98.3796C64.0294 98.0158 64.1894 97.6565 64.3581 97.3015C66.1221 93.6531 69.2972 90.4736 73.1078 89.0317C76.3212 87.7993 79.8526 87.6671 83.1492 88.656C86.4457 89.6449 89.3213 91.699 91.3258 94.4967V94.5098C91.3617 94.5596 91.3975 94.6089 91.4334 94.6581C91.5442 94.8104 91.6548 94.9622 91.7641 95.1278L91.9043 95.3469L73.9602 113.635C76.0243 114.93 78.759 115.226 81.0817 114.555C81.4017 114.463 81.7163 114.352 82.0239 114.225L82.2058 114.148C85.3064 112.791 87.3859 109.785 87.8636 106.465C87.976 105.688 88.001 104.901 87.9381 104.118C87.9206 103.904 87.7738 102.646 87.7738 102.646L92.9999 97.319C93.1504 97.6404 93.2928 97.9654 93.4272 98.2941C93.4199 98.3014 93.6108 98.8608 93.7036 99.1326C93.722 99.1864 93.7366 99.2292 93.7449 99.2539C93.8749 99.6585 93.9904 100.068 94.0912 100.481Z" fill="#0074F0"/>
<path fill-rule="evenodd" clip-rule="evenodd" d="M123.909 99.3515C123.937 101.394 123.364 103.4 122.261 105.119C121.154 106.847 119.567 108.213 117.694 109.052L125.229 121.219H117.543L110.747 110.102H105.481V121.219H98.5599V89.8161C98.5596 89.6158 98.5988 89.4174 98.6751 89.2323C98.7515 89.0472 98.8636 88.8789 99.005 88.7371C99.1464 88.5953 99.3144 88.4827 99.4993 88.4058C99.6842 88.3289 99.8825 88.2891 100.083 88.2888H112.767C114.23 88.2521 115.686 88.5126 117.045 89.0547C119.098 89.8738 120.853 91.2969 122.079 93.1356C123.304 94.9743 123.943 97.1419 123.909 99.3515ZM115.85 102.498C116.293 102.076 116.642 101.565 116.876 101C117.105 100.435 117.212 99.8284 117.191 99.2194C117.209 98.6305 117.111 98.0436 116.902 97.4926C116.694 96.9416 116.378 96.4373 115.974 96.0087C115.563 95.585 115.067 95.2543 114.518 95.0386C113.969 94.823 113.38 94.7276 112.791 94.7587H105.494V103.77H112.483C113.104 103.794 113.722 103.694 114.303 103.475C114.884 103.255 115.417 102.923 115.87 102.498H115.85Z" fill="#0074F0"/>
<path d="M127.864 88.2854H134.684V121.219H127.864V88.2854Z" fill="#0074F0"/>
<path d="M174.373 88.2854H181.193V121.219H174.373V88.2854Z" fill="#0074F0"/>
<path d="M207.557 88.292H207.98L207.997 88.2942H214.413V117.479C214.417 118.46 214.045 119.405 213.372 120.119C213.049 120.463 212.66 120.738 212.228 120.927C211.795 121.116 211.329 121.216 210.857 121.219H207.434C206.76 121.216 206.101 121.015 205.54 120.641C204.964 120.261 204.507 119.728 204.22 119.101L192.423 97.3192V121.215H185.585V92.0257C185.58 91.0447 185.952 90.0995 186.625 89.3855C187.255 88.7136 188.125 88.3182 189.045 88.2854H192.717C193.39 88.2845 194.049 88.4828 194.609 88.8553C195.182 89.2347 195.635 89.7687 195.916 90.3954L207.557 111.737V88.292Z" fill="#0074F0"/>
<path d="M238.823 88.5131H225.792V121.318H238.736C247.845 121.318 254.731 115.266 254.731 104.916C254.731 94.5653 247.932 88.5131 238.823 88.5131ZM238.823 92.9865C245.186 92.9865 249.545 97.0652 249.545 104.916C249.545 112.766 245.099 116.845 238.779 116.845H230.934V92.9865H238.823Z" fill="black"/>
<path d="M268.945 98.4247C262.277 98.4247 257.265 102.942 257.265 110.091C257.265 117.196 262.277 121.757 268.945 121.757C275.57 121.757 280.582 117.196 280.582 110.091C280.582 102.942 275.57 98.4247 268.945 98.4247ZM268.945 102.635C272.78 102.635 275.657 105.398 275.657 110.091C275.657 114.74 272.78 117.503 268.945 117.503C265.066 117.503 262.233 114.74 262.233 110.091C262.233 105.398 265.066 102.635 268.945 102.635Z" fill="black"/>
<path d="M289.116 88.1895H284.235V121.318H289.116V88.1895Z" fill="black"/>
<path d="M298.718 88.1895H293.837V121.318H298.718V88.1895Z" fill="black"/>
<path d="M312.338 98.4247C306.759 98.4247 303.446 102.416 303.446 106.363L308.371 106.538C308.371 104.521 309.592 102.723 312.381 102.723C315.127 102.723 316.347 104.521 316.347 107.415V108.073L311.03 108.38C306.454 108.643 302.836 110.354 302.836 115.178C302.836 119.388 305.844 121.757 310.289 121.757C312.773 121.757 314.778 120.792 316.347 119.301V121.318H321.272V107.328C321.272 101.582 318.091 98.4247 312.338 98.4247ZM316.391 111.889V112.678C316.391 116.099 314.212 117.634 311.117 117.634C309.156 117.634 307.761 116.976 307.761 115.09C307.761 113.073 309.417 112.327 311.727 112.196L316.391 111.889Z" fill="black"/>
<path d="M337.303 98.5563C333.729 98.5563 331.768 100.223 330.94 101.977V98.8195H326.189V121.318H331.07V109.082C331.07 105.793 333.467 103.337 337.303 103.337V98.5563Z" fill="black"/>
</g>
</svg>
