<svg width="70" height="24" viewBox="0 0 70 24" fill="none" xmlns="http://www.w3.org/2000/svg">
<path d="M9.06802 8.18536V10.6282L14.9065 10.6257C14.7274 11.973 14.2731 12.9595 13.5826 13.6501C12.731 14.5016 11.4019 15.4387 9.06802 15.4387C5.46989 15.4387 2.65576 12.5389 2.65576 8.94081C2.65576 5.34268 5.46989 2.44289 9.06802 2.44289C11.0099 2.44289 12.4273 3.20613 13.4735 4.18744L15.1973 2.46366C13.7383 1.06957 11.7965 0 9.07061 0C4.1433 0 0 4.0135 0 8.94081C0 13.8681 4.1433 17.8816 9.07061 17.8816C11.729 17.8816 13.7357 17.0093 15.3063 15.3738C16.9211 13.7591 17.4221 11.4927 17.4221 9.65992C17.4221 9.11475 17.3806 8.61111 17.3001 8.18536H9.06802Z" fill="black"/>
<path d="M58.3177 17.5311V0.656746H55.8515V17.5311H58.3177Z" fill="black"/>
<path fill-rule="evenodd" clip-rule="evenodd" d="M24.1796 17.8842C27.3624 17.8842 29.9558 15.4413 29.9558 12.1261C29.9558 8.78759 27.3624 6.36807 24.1796 6.36807C20.9969 6.36807 18.4034 8.78759 18.4034 12.1261C18.4034 15.4413 20.9969 17.8842 24.1796 17.8842ZM24.1796 8.63702C25.9242 8.63702 27.4273 10.0545 27.4273 12.1261C27.4273 14.1744 25.9242 15.6152 24.1796 15.6152C22.4351 15.6152 20.932 14.177 20.932 12.1261C20.932 10.0545 22.4351 8.63702 24.1796 8.63702Z" fill="black"/>
<path fill-rule="evenodd" clip-rule="evenodd" d="M36.6407 17.8842C39.8234 17.8842 42.4169 15.4413 42.4169 12.1261C42.4169 8.78759 39.8234 6.36807 36.6407 6.36807C33.4579 6.36807 30.8645 8.79018 30.8645 12.1261C30.8645 15.4413 33.4579 17.8842 36.6407 17.8842ZM36.6407 8.63702C38.3852 8.63702 39.8883 10.0545 39.8883 12.1261C39.8883 14.1744 38.3852 15.6152 36.6407 15.6152C34.8961 15.6152 33.393 14.177 33.393 12.1261C33.393 10.0545 34.8961 8.63702 36.6407 8.63702Z" fill="black"/>
<path fill-rule="evenodd" clip-rule="evenodd" d="M54.3587 6.71853V17.0534C54.3587 21.3058 51.851 23.0425 48.8863 23.0425C46.0955 23.0425 44.4159 21.176 43.7824 19.6495L45.9839 18.7331C46.3759 19.6702 47.3364 20.7762 48.8837 20.7762C50.7814 20.7762 51.9574 19.6053 51.9574 17.4013V16.5732H51.8691C51.3032 17.2715 50.2128 17.8816 48.8369 17.8816C45.9579 17.8816 43.3203 15.3738 43.3203 12.1469C43.3203 8.89662 45.9579 6.36807 48.8369 6.36807C50.2102 6.36807 51.3006 6.97814 51.8691 7.65571H51.9574V6.71853H54.3587ZM52.1365 12.1469C52.1365 10.1194 50.784 8.63702 49.0628 8.63702C47.3182 8.63702 45.8567 10.1194 45.8567 12.1469C45.8567 14.1536 47.3182 15.6152 49.0628 15.6152C50.784 15.6152 52.1365 14.1536 52.1365 12.1469Z" fill="black"/>
<path fill-rule="evenodd" clip-rule="evenodd" d="M67.9283 14.0213L69.891 15.3297C69.2575 16.2669 67.731 17.8816 65.0935 17.8816C61.8224 17.8816 59.3795 15.3531 59.3795 12.1236C59.3795 8.69938 61.8432 6.36553 64.8105 6.36553C67.7985 6.36553 69.2601 8.74352 69.7378 10.0286L70 10.6828L62.3027 13.8707C62.892 15.026 63.8084 15.6153 65.0935 15.6153C66.3811 15.6153 67.2741 14.9818 67.9283 14.0213ZM61.8873 11.9496L67.0327 9.81309C66.7497 9.09398 65.8982 8.59295 64.8962 8.59295C63.6111 8.59295 61.8224 9.72742 61.8873 11.9496Z" fill="black"/>
</svg>
