<svg width="13" height="12" viewBox="0 0 13 12" fill="none" xmlns="http://www.w3.org/2000/svg">
<path d="M13 2.14439C12.5217 2.35672 12.0077 2.49972 11.4682 2.56418C12.019 2.2343 12.4421 1.71159 12.6409 1.08868C12.1258 1.39418 11.5548 1.61626 10.9471 1.73597C10.4612 1.21759 9.76733 0.893677 9.00033 0.893677C7.27837 0.893677 6.01304 2.50026 6.40196 4.16805C4.186 4.05701 2.22083 2.99534 0.905125 1.38172C0.206375 2.58043 0.54275 4.14855 1.73008 4.94263C1.2935 4.92855 0.881833 4.80884 0.522708 4.60897C0.493458 5.84451 1.37908 7.00043 2.66175 7.25772C2.28638 7.35955 1.87525 7.38338 1.45708 7.30322C1.79617 8.36272 2.78092 9.13351 3.94875 9.15518C2.8275 10.0343 1.41483 10.427 0 10.2602C1.18029 11.0169 2.58267 11.4583 4.0885 11.4583C9.04042 11.4583 11.8381 7.27613 11.6691 3.52509C12.1902 3.14863 12.6425 2.67901 13 2.14439Z" fill="#475569"/>
</svg>
