<svg width="434" height="100" viewBox="0 0 434 100" fill="none" xmlns="http://www.w3.org/2000/svg">
<path d="M150.407 97.7186L131.45 65.182C131.016 65.182 130.744 65.182 130.364 65.182H115.915V97.7186H97.0125V2.39001H130.364C153.775 2.39001 167.789 15.0462 167.789 34.2205C167.789 47.3112 161.38 56.8169 149.81 61.597L171.591 97.6643H150.407V97.7186ZM115.97 48.289H132.863C143.346 48.289 148.235 41.4992 148.235 34.2748C148.235 26.7789 143.183 20.0978 132.863 20.0978H115.97V48.289V48.289ZM180.282 97.7186V2.39001H199.185V97.6643H180.282V97.7186ZM286.855 87.7784C281.695 93.6448 270.396 99.6198 258.012 99.6198C230.635 99.6198 208.582 78.8159 208.582 50.0815C208.582 21.3471 230.635 0.543183 258.012 0.543183C276.915 0.706138 292.721 10.4834 301.304 25.7469L281.966 30.7985C276.806 23.7371 267.409 19.2287 258.012 19.2287C240.195 19.2287 228.354 32.0478 228.354 50.1358C228.354 69.0386 241.445 81.1515 259.098 81.1515C275.448 81.1515 284.03 72.189 287.018 64.8017V60.7279H260.619V45.3015H303.205V97.7186H286.855C286.855 89.8425 287.018 87.9413 287.018 87.7784H286.855ZM316.513 97.7186V2.39001H335.415V97.6643H316.513V97.7186ZM433.025 2.39001V97.6643H415.209L388.104 60.8908C379.522 49.1581 369.038 34.2205 368.93 34.2205H368.767C368.658 34.2205 368.93 47.9631 368.93 66.8658V97.61H350.027V2.39001H367.843L395.491 39.5437C402.01 48.126 414.014 65.1276 414.123 65.1276H414.286C414.449 65.1276 414.123 49.5926 414.123 33.5687V2.39001H433.025ZM83.4872 24.5519L68.0608 39.9783C68.6583 43.0201 68.9842 46.3878 68.9842 50.0272C68.9842 69.5274 59.8044 81.2059 44.4324 81.2059C38.0228 81.2059 32.6453 79.1418 28.5714 75.2308L82.0206 21.7816C80.6083 19.2287 78.9788 16.893 77.132 14.7203C76.3715 13.7968 75.5567 12.9821 74.742 12.113C74.6333 12.0043 74.5247 11.8957 74.4161 11.7871C74.1445 11.5698 73.9272 11.2982 73.6556 11.0809C65.8338 3.80228 55.8935 0 44.4324 0C31.233 0 19.9348 5.0516 11.8414 14.6659C4.18251 23.7371 0 36.2846 0 50.0272C0 59.1526 1.84682 67.7349 5.32319 75.1222L20.8582 59.5872C20.315 56.654 20.0434 53.4492 20.0434 49.9728C20.0434 41.0103 21.8903 33.7317 25.4753 28.3542C29.7121 22.1075 36.2846 18.7941 44.4324 18.7941C50.7876 18.7941 56.1108 20.8039 60.1303 24.5519L6.78979 77.8924C8.25638 80.554 9.94025 83.0527 11.8414 85.2797C12.2216 85.7143 12.6018 86.1488 13.0364 86.5834C13.4709 87.0722 13.9598 87.5611 14.4487 88.05C14.503 88.1043 14.5573 88.1586 14.6116 88.2129C14.7746 88.3759 14.8832 88.5388 15.0462 88.6475C22.8137 96.0348 32.8626 99.9457 44.4324 99.9457C57.686 99.9457 68.9842 94.8941 77.132 85.2797C84.7908 76.2086 89.0277 63.7154 89.0277 49.9728C89.0277 40.7387 87.0722 31.9935 83.4872 24.5519Z" fill="#0074F0"/>
</svg>
