<svg width="596" height="76" viewBox="0 0 596 76" fill="none" xmlns="http://www.w3.org/2000/svg">
<path d="M380.827 1.71342H352.354V74.0332H380.636C400.539 74.0332 415.585 60.6908 415.585 37.8733C415.585 15.0558 400.73 1.71342 380.827 1.71342ZM380.827 11.5752C394.73 11.5752 404.253 20.5668 404.253 37.8733C404.253 55.1798 394.54 64.1714 380.732 64.1714H363.59V11.5752H380.827Z" fill="#02080D"/>
<path d="M446.642 23.564C432.072 23.564 421.121 33.5225 421.121 49.282C421.121 64.9449 432.072 75 446.642 75C461.117 75 472.068 64.9449 472.068 49.282C472.068 33.5225 461.117 23.564 446.642 23.564ZM446.642 32.8457C455.022 32.8457 461.307 38.9368 461.307 49.282C461.307 59.5305 455.022 65.6216 446.642 65.6216C438.166 65.6216 431.977 59.5305 431.977 49.282C431.977 38.9368 438.166 32.8457 446.642 32.8457Z" fill="#02080D"/>
<path d="M490.715 1H480.05V74.0332H490.715V1Z" fill="#02080D"/>
<path d="M511.695 1H501.029V74.0332H511.695V1Z" fill="#02080D"/>
<path d="M541.452 23.564C529.263 23.564 522.026 32.3623 522.026 41.0639L532.786 41.4506C532.786 37.0031 535.453 33.0391 541.547 33.0391C547.547 33.0391 550.213 37.0031 550.213 43.3843V44.8345L538.595 45.5113C528.596 46.0914 520.692 49.8621 520.692 60.4974C520.692 69.7791 527.263 75 536.976 75C542.404 75 546.785 72.873 550.213 69.5857V74.0332H560.974V43.1909C560.974 30.5253 554.022 23.564 541.452 23.564ZM550.308 53.2461V54.9864C550.308 62.5278 545.547 65.9117 538.786 65.9117C534.5 65.9117 531.453 64.4614 531.453 60.304C531.453 55.8565 535.072 54.2129 540.119 53.9229L550.308 53.2461Z" fill="#02080D"/>
<path d="M596 23.8541C588.191 23.8541 583.906 27.5281 582.097 31.3954V24.4342H571.717V74.0332H582.382V47.0583C582.382 39.807 587.62 34.3927 596 34.3927V23.8541Z" fill="#02080D"/>
<path d="M113.58 73.9278L99.2649 49.3126C98.9368 49.3126 98.7317 49.3126 98.4446 49.3126H87.5336V73.9278H73.2592V1.80813H98.4446C116.124 1.80813 126.706 11.383 126.706 25.8891C126.706 35.7927 121.866 42.9841 113.129 46.6004L129.578 73.8867H113.58V73.9278ZM87.5746 36.5324H100.331C108.248 36.5324 111.94 31.3957 111.94 25.9302C111.94 20.2592 108.125 15.2047 100.331 15.2047H87.5746V36.5324V36.5324ZM136.141 73.9278V1.80813H150.415V73.8867H136.141V73.9278ZM216.619 66.4076C212.722 70.8457 204.19 75.366 194.838 75.366C174.165 75.366 157.511 59.6271 157.511 37.8885C157.511 16.1499 174.165 0.410938 194.838 0.410938C209.113 0.53422 221.049 7.93111 227.53 19.4785L212.927 23.3002C209.031 17.958 201.934 14.5472 194.838 14.5472C181.384 14.5472 172.442 24.2453 172.442 37.9296C172.442 52.2302 182.328 61.3941 195.659 61.3941C208.005 61.3941 214.486 54.6137 216.742 49.0249V45.9429H196.807V34.2722H228.966V73.9278H216.619C216.619 67.9692 216.742 66.5309 216.742 66.4076H216.619ZM239.015 73.9278V1.80813H253.29V73.8867H239.015V73.9278ZM327 1.80813V73.8867H313.546L293.078 46.0662C286.597 37.1899 278.68 25.8891 278.598 25.8891H278.475C278.393 25.8891 278.598 36.2858 278.598 50.5865V73.8456H264.324V1.80813H277.778L298.656 29.9163C303.578 36.4091 312.644 49.2715 312.726 49.2715H312.849C312.972 49.2715 312.726 37.5186 312.726 25.396V1.80813H327ZM63.0455 18.5744L51.3963 30.245C51.8475 32.5463 52.0936 35.0941 52.0936 37.8474C52.0936 52.6001 45.1614 61.4352 33.5532 61.4352C28.713 61.4352 24.6522 59.8737 21.5758 56.9149L61.938 16.4786C60.8715 14.5472 59.641 12.7802 58.2464 11.1364C57.6721 10.4378 57.0568 9.82142 56.4415 9.16392C56.3595 9.08173 56.2775 8.99954 56.1954 8.91736C55.9903 8.75298 55.8263 8.54751 55.6212 8.38314C49.7145 2.87657 42.2081 0 33.5532 0C23.5857 0 15.0538 3.82172 8.94205 11.0953C3.15843 17.958 0 27.4507 0 37.8474C0 44.7512 1.39463 51.244 4.01982 56.8327L15.7511 45.0799C15.3409 42.8608 15.1359 40.4363 15.1359 37.8063C15.1359 31.0258 16.5305 25.5193 19.2377 21.451C22.4372 16.7252 27.4004 14.2185 33.5532 14.2185C38.3524 14.2185 42.3722 15.7389 45.4075 18.5744L5.12732 58.9285C6.23482 60.9421 7.5064 62.8324 8.94205 64.5173C9.22918 64.846 9.51631 65.1748 9.84446 65.5035C10.1726 65.8734 10.5418 66.2432 10.9109 66.6131C10.952 66.6542 10.993 66.6952 11.034 66.7363C11.157 66.8596 11.2391 66.9829 11.3621 67.0651C17.2278 72.6539 24.8162 75.6126 33.5532 75.6126C43.5617 75.6126 52.0936 71.7909 58.2464 64.5173C64.03 57.6546 67.2294 48.203 67.2294 37.8063C67.2294 30.8204 65.7528 24.2043 63.0455 18.5744Z" fill="#0074F0"/>
</svg>
