<svg width="207" height="47" viewBox="0 0 207 47" fill="none" xmlns="http://www.w3.org/2000/svg">
<path d="M43.4927 21.7984C43.4052 20.3396 43.186 18.8917 42.838 17.4724C42.7005 16.9083 42.543 16.3503 42.3656 15.7982C42.2969 15.5949 41.9202 14.5007 41.9321 14.4887C41.7488 14.0403 41.5544 13.5968 41.3492 13.1583L34.2189 20.4262C34.2189 20.4262 34.4192 22.1422 34.4431 22.4352C34.5288 23.5029 34.4947 24.5769 34.3414 25.6371C33.6897 30.1664 30.8525 34.2682 26.6222 36.1188L26.374 36.2234C25.9543 36.3979 25.5251 36.5486 25.0885 36.6749C21.9195 37.5897 18.1884 37.1861 15.3721 35.4192L39.8543 10.4676L39.663 10.1687C39.4657 9.86972 39.2654 9.60364 39.0651 9.3256V9.30766C36.3302 5.49059 32.4069 2.68811 27.9092 1.33891C23.4115 -0.0102792 18.5934 0.169989 14.2092 1.85149C9.01018 3.81868 4.67819 8.15665 2.27152 13.1344C2.04132 13.6187 1.82308 14.109 1.62576 14.6053C0.464536 17.5943 -0.0828346 20.7866 0.0162981 23.9917C0.115431 27.1968 0.859034 30.3492 2.20276 33.2607C2.24461 33.3534 2.28946 33.446 2.3343 33.5387L9.4078 26.3277C9.39285 26.256 9.3809 26.1812 9.36595 26.1065C9.03898 23.9973 9.10996 21.8455 9.57522 19.7624C9.9896 17.8828 10.8063 16.1153 11.969 14.5815C13.1318 13.0476 14.6131 11.7839 16.3109 10.8772C19.7729 9.08344 24.1916 9.04457 27.6416 10.8952C27.7523 10.955 27.8599 11.0147 27.9675 11.0805L28.2844 11.2778L3.67367 36.2115C3.8288 36.4755 3.99951 36.7301 4.18489 36.9738C4.36427 37.2369 4.54963 37.494 4.74097 37.7481C5.13307 38.2518 5.55328 38.7329 5.99961 39.1891C6.33445 39.5359 6.67825 39.8768 7.02206 40.2146C8.02401 41.1989 9.12622 42.0757 10.3107 42.8305C12.6983 44.3487 15.3639 45.3771 18.1525 45.8561C19.9063 46.1602 21.6923 46.2335 23.4651 46.0743C30.434 45.4315 36.9185 41.1414 40.4343 35.0844C42.7308 31.05 43.7941 26.4308 43.4927 21.7984Z" fill="#0074F0"/>
<path d="M81.2711 23.8007C82.7762 21.4549 83.5582 18.7182 83.5199 15.9313C83.5656 12.9167 82.6947 9.95928 81.0224 7.45062C79.3501 4.94195 76.9554 3.00032 74.1552 1.88276C72.3003 1.14323 70.3147 0.787778 68.3184 0.837903H51.0123C50.739 0.838297 50.4686 0.892507 50.2163 0.997436C49.964 1.10237 49.7348 1.25596 49.5419 1.44945C49.3489 1.64294 49.196 1.87253 49.0918 2.12513C48.9876 2.37772 48.9342 2.64837 48.9346 2.92161V45.7667H58.3773V30.5983H65.5622L74.8338 45.7667H85.3214L75.041 29.1661C77.5955 28.022 79.7607 26.1573 81.2711 23.8007ZM73.9241 18.1801C73.6054 18.9518 73.1288 19.6483 72.5249 20.2248H72.5519C71.9332 20.8045 71.207 21.2574 70.4142 21.5579C69.6214 21.8556 68.7773 21.9924 67.9311 21.9602H58.3953V9.66514H68.3515C69.155 9.62262 69.9583 9.75284 70.7072 10.047C71.4561 10.3412 72.1333 10.7925 72.693 11.3705C73.2448 11.9553 73.6755 12.6433 73.9604 13.3951C74.2454 14.1469 74.3789 14.9476 74.3534 15.7511C74.3832 16.582 74.2369 17.4098 73.9241 18.1801Z" fill="#0074F0"/>
<rect x="88.916" y="0.833252" width="9.30486" height="44.9334" fill="#0074F0"/>
<rect x="88.916" y="0.833252" width="9.30486" height="44.9334" fill="#0074F0"/>
<path d="M142.672 20.0657H123.854L123.95 28.5652L136.837 28.5083C136.307 31.2018 135.074 32.5186 133.212 34.1946C131.102 36.0746 128.371 37.1094 125.545 37.1006C123.835 37.1411 122.136 36.8114 120.565 36.1339C118.987 35.4543 117.574 34.4439 116.42 33.1711C114.063 30.4414 112.769 26.954 112.774 23.3477C112.78 19.7415 114.085 16.2579 116.45 13.5355C117.604 12.2641 119.016 11.253 120.592 10.5697C122.163 9.89343 123.862 9.5647 125.572 9.60598C127.924 9.57017 130.227 10.2759 132.156 11.6231C133.641 12.6767 134.873 14.0477 135.762 15.6364L136.223 16.4564H145.722C145.206 14.1436 144.273 11.9441 142.969 9.96512C142.078 8.63644 141.051 7.40468 139.904 6.28999C139.159 5.56831 138.365 4.89931 137.528 4.28783C134.053 1.7459 129.847 0.397741 125.542 0.445107C122.625 0.413008 119.734 0.994873 117.056 2.15291C114.379 3.31095 111.975 5.01925 110 7.16688C105.897 11.5371 103.613 17.3064 103.613 23.3009C103.613 29.2954 105.897 35.0648 110 39.4349C111.978 41.5838 114.386 43.2925 117.067 44.45C119.748 45.6076 122.643 46.188 125.563 46.1537C129.699 46.2345 134.936 44.2892 137.172 40.9762V45.6869H146.381V23.8396C146.381 22.8417 145.989 21.8837 145.288 21.1731C144.946 20.8223 144.538 20.5436 144.086 20.3535C143.635 20.1633 143.15 20.0654 142.661 20.0657H142.672Z" fill="#0074F0"/>
<rect x="152.372" y="0.833252" width="9.30486" height="44.9334" fill="#0074F0"/>
<rect x="152.372" y="0.833252" width="9.30486" height="44.9334" fill="#0074F0"/>
<path d="M198.223 0.842262H197.646V32.8291L181.764 3.71195C181.38 2.85696 180.762 2.12834 179.981 1.61071C179.216 1.10246 178.318 0.831954 177.399 0.833257H172.389C171.134 0.877936 169.947 1.41748 169.087 2.33414C168.17 3.30827 167.661 4.59788 167.668 5.93626V45.7607H176.997V13.1585L193.093 42.876C193.484 43.7314 194.108 44.4596 194.894 44.9772C195.659 45.4882 196.558 45.7627 197.478 45.7667H202.149C202.793 45.762 203.429 45.6265 204.018 45.3685C204.608 45.1105 205.139 44.7354 205.58 44.2658C206.498 43.2917 207.006 42.0021 207 40.6637V0.845262H198.247L198.223 0.842262Z" fill="#0074F0"/>
</svg>
