<svg width="804" height="100" viewBox="0 0 804 100" fill="none" xmlns="http://www.w3.org/2000/svg">
<path d="M505.104 86.5253C503.118 90.3551 499.998 93.4757 495.742 95.887C491.487 98.2984 486.239 99.4331 479.998 99.4331C473.898 99.4331 468.508 98.2984 463.686 96.0289C458.863 93.7594 455.175 90.6388 452.338 86.809C449.501 82.8374 447.799 78.5821 447.373 73.6175H457.303C457.728 76.4544 458.721 79.1495 460.423 81.9863C462.125 84.8232 464.537 87.0927 467.799 88.9367C471.061 90.7807 474.891 91.6317 479.572 91.6317C485.53 91.6317 490.21 90.0714 493.331 86.809C496.452 83.5466 498.154 79.4331 498.154 74.6104C498.154 70.3551 497.161 66.9509 495.033 64.2558C492.905 61.5608 490.352 59.575 487.232 58.1565C484.111 56.7381 479.856 55.1778 474.466 53.4757C468.508 51.6317 463.686 49.7878 460.139 48.0856C456.452 46.3835 453.473 43.6885 450.92 40.2842C448.366 36.88 447.09 32.3409 447.09 26.6672C447.09 19.4331 449.643 13.6175 454.608 9.07853C459.572 4.53952 466.522 2.27002 475.317 2.27002C484.253 2.27002 491.487 4.53952 496.735 8.93669C501.983 13.3338 505.104 18.8658 506.097 25.3906H496.026C495.175 21.419 493.047 17.731 489.643 14.6104C486.239 11.4899 481.416 9.92959 475.459 9.92959C469.927 9.92959 465.388 11.348 462.125 14.1849C458.863 17.0218 457.161 20.9934 457.161 26.2416C457.161 30.3551 458.154 33.6175 460.281 36.0289C462.409 38.5821 464.82 40.426 467.941 41.8445C470.92 43.1211 475.033 44.6814 480.281 46.3835C486.239 48.2275 491.203 50.0714 494.891 51.9154C498.579 53.7594 501.842 56.4544 504.395 60.0005C506.948 63.5466 508.366 68.3693 508.366 74.3268C508.083 78.5821 507.09 82.6955 505.104 86.5253ZM571.487 3.40477V11.0643H544.395V98.4402H534.891V11.0643H507.941V3.40477H571.487ZM635.601 8.51115C642.551 12.6246 648.083 18.4402 652.054 25.8161C656.026 33.192 658.012 41.5608 658.012 50.9225C658.012 60.2842 656.026 68.653 652.054 76.0289C648.083 83.4048 642.551 89.2204 635.601 93.3339C628.65 97.4473 620.707 99.575 611.913 99.575C603.118 99.575 595.175 97.4473 588.225 93.3339C581.274 89.2204 575.742 83.4048 571.771 76.0289C567.799 68.653 565.813 60.2842 565.813 50.9225C565.813 41.5608 567.799 33.192 571.771 25.8161C575.742 18.4402 581.274 12.7665 588.225 8.51115C595.175 4.39768 603.118 2.27002 611.913 2.27002C620.565 2.27002 628.508 4.39768 635.601 8.51115ZM593.189 15.887C587.657 19.1495 583.26 23.6885 580.139 29.7878C577.019 35.7452 575.317 42.8374 575.317 50.7807C575.317 58.7239 576.877 65.8161 580.139 71.7736C583.26 77.731 587.657 82.4119 593.189 85.6743C598.721 88.9367 604.962 90.497 611.913 90.497C618.863 90.497 625.104 88.9367 630.636 85.6743C636.168 82.4119 640.565 77.8729 643.686 71.7736C646.806 65.8161 648.508 58.7239 648.508 50.7807C648.508 42.8374 646.948 35.7452 643.686 29.7878C640.565 23.8303 636.168 19.1495 630.636 15.887C625.104 12.6246 618.863 11.0643 611.913 11.0643C604.962 11.0643 598.721 12.6246 593.189 15.887ZM719.43 98.4402L693.473 58.8658H678.012V98.4402H668.508V3.40477H697.586C708.225 3.40477 716.31 5.95796 721.558 10.9225C726.806 15.887 729.501 22.6956 729.501 31.2062C729.501 39.1495 727.232 45.3906 722.835 50.0714C718.437 54.7523 711.913 57.5892 703.544 58.4402L730.352 98.2984H719.43V98.4402ZM678.012 51.6317H696.877C712.196 51.6317 719.856 44.9651 719.856 31.7736C719.856 18.2984 712.196 11.6317 696.877 11.6317H678.012V51.6317ZM803.402 3.40477L772.764 61.419V98.4402H763.26V61.2771L732.48 3.40477H743.402L767.941 51.2062L792.48 3.40477H803.402Z" fill="black"/>
<path d="M150.638 97.8723L131.631 65.2482C131.206 65.2482 130.922 65.2482 130.496 65.2482H116.17V97.8723H97.1631V2.41135H130.638C154.184 2.41135 168.085 15.0355 168.085 34.3262C168.085 47.5177 161.702 56.8794 150.071 61.7021L171.915 97.8723H150.638ZM116.17 48.3688H133.05C143.546 48.3688 148.511 41.5603 148.511 34.3262C148.511 26.8085 143.546 20.1418 133.05 20.1418H116.17V48.3688ZM180.567 97.8723V2.41135H199.575V97.8723H180.567ZM287.376 87.9433C282.128 93.7589 270.922 99.8582 258.44 99.8582C231.064 99.8582 208.936 79.0071 208.936 50.2128C208.936 21.4184 231.064 0.567376 258.44 0.567376C277.447 0.70922 293.192 10.4965 301.844 25.8156L282.411 30.7801C277.163 23.6879 267.801 19.1489 258.44 19.1489C240.567 19.1489 228.653 32.0567 228.653 50.2128C228.653 69.2199 241.844 81.2766 259.574 81.2766C275.887 81.2766 284.539 72.3404 287.518 64.9645V60.8511H260.993V45.3901H303.688V97.8723H287.376C287.376 89.9291 287.518 88.0851 287.518 87.9433H287.376ZM317.163 97.8723V2.41135H336.17V97.8723H317.163ZM433.901 2.41135V97.8723H416.028L388.936 60.9929C380.284 49.2199 369.787 34.3262 369.787 34.3262H369.645C369.504 34.3262 369.787 48.0851 369.787 67.0922V98.0142H350.78V2.41135H368.653L396.312 39.7163C402.837 48.3688 414.894 65.3901 415.036 65.3901H415.177C415.319 65.3901 415.036 49.7872 415.036 33.7589V2.41135H433.901ZM83.5461 24.539L68.0851 40C68.6525 43.1206 69.078 46.383 69.078 50.0709C69.078 69.6454 59.8582 81.2766 44.539 81.2766C38.156 81.2766 32.766 79.2908 28.6525 75.3191L82.2695 21.7021C80.8511 19.1489 79.1489 16.8794 77.4468 14.6099C76.5958 13.617 75.8865 12.9078 75.0355 11.9149C74.8936 11.773 74.7518 11.6312 74.6099 11.6312C74.3263 11.6312 74.0426 11.3475 73.7589 11.0638C65.9575 3.82979 55.8865 0 44.539 0C31.2057 0 19.8582 5.10638 11.7731 14.7518C4.11348 23.8298 0 36.3121 0 50.0709C0 59.1489 1.84397 67.8014 5.39007 75.1773L20.9929 59.5745C20.4255 56.5957 20.1418 53.4752 20.1418 49.9291C20.1418 40.9929 21.9858 33.617 25.6738 28.2269C29.9291 21.9858 36.4539 18.5816 44.6809 18.5816C51.0638 18.5816 56.3121 20.5674 60.4255 24.3972L6.66667 78.0142C8.08511 80.7092 9.78724 83.2624 11.7731 85.3901C12.1986 85.8156 12.6241 86.2411 12.9078 86.6667C13.3333 87.234 13.9007 87.6596 14.3262 88.0851C14.4681 88.2269 14.4681 88.227 14.4681 88.227C14.6099 88.3688 14.7518 88.5106 14.8936 88.6525C22.695 96.0284 32.766 100 44.3972 100C57.7305 100 68.9362 94.8936 77.1631 85.2482C84.8227 76.1702 89.078 63.5461 89.078 49.9291C89.2199 40.8511 87.2341 32.0567 83.5461 24.539Z" fill="#0074F0"/>
</svg>
