<svg width="276" height="34" viewBox="0 0 276 34" fill="none" xmlns="http://www.w3.org/2000/svg">
<path d="M105.259 14.3818C105.617 14.382 105.971 14.4537 106.301 14.5927C106.632 14.7321 106.931 14.9363 107.182 15.1934C107.695 15.7143 107.983 16.4164 107.982 17.1478V33.1607H101.233V29.708C99.5941 32.1363 95.7554 33.5621 92.7239 33.5029C90.5836 33.528 88.4619 33.1026 86.4968 32.2542C84.5317 31.4057 82.767 30.1534 81.3175 28.5784C78.3101 25.3753 76.6361 21.1467 76.6361 16.753C76.6361 12.3593 78.3101 8.13072 81.3175 4.92762C82.7646 3.35353 84.5265 2.10143 86.489 1.25265C88.4515 0.403872 90.5705 -0.022604 92.7086 0.000923022C95.8643 -0.0337934 98.9464 0.954331 101.494 2.81743C102.108 3.26561 102.69 3.75596 103.235 4.28491C104.076 5.10192 104.829 6.00473 105.482 6.97858C106.437 8.42903 107.121 10.0412 107.5 11.7364H100.537L100.2 11.1353C99.5476 9.97086 98.6447 8.96606 97.5563 8.1938C96.1429 7.20638 94.4545 6.6891 92.7305 6.71535C91.4771 6.6851 90.232 6.92603 89.0805 7.42167C87.9257 7.92256 86.8908 8.66359 86.0446 9.59547C84.3112 11.5909 83.3548 14.1441 83.3508 16.7873C83.3467 19.4305 84.2953 21.9866 86.0227 23.9873C86.8683 24.9202 87.9043 25.6608 89.0607 26.1589C90.2121 26.6554 91.4572 26.8971 92.7108 26.8674C94.7825 26.8739 96.7836 26.1154 98.3306 24.7375C99.695 23.5091 100.599 22.5439 100.987 20.5698L91.5416 20.6114L91.4714 14.3818H105.259Z" fill="#0074F0"/>
<path d="M32.0912 12.481C32.3462 13.5213 32.5069 14.5825 32.571 15.6517C32.792 19.0471 32.0126 22.4326 30.3294 25.3896C27.7525 29.8291 22.9997 32.9735 17.8919 33.4447C16.5925 33.5614 15.2834 33.5076 13.998 33.2847C11.9541 32.9336 10.0004 32.1799 8.25037 31.0672C7.38223 30.5139 6.57437 29.8713 5.83999 29.1498C5.588 28.9022 5.33601 28.6524 5.09059 28.3982C4.76346 28.0638 4.45546 27.7112 4.16808 27.342C4.02784 27.1558 3.89198 26.9673 3.7605 26.7745C3.62463 26.5958 3.49951 26.4093 3.3858 26.2157L21.4242 7.94073L21.1919 7.79611C21.113 7.7479 21.0341 7.70408 20.953 7.66025C18.4243 6.30387 15.1857 6.33236 12.6482 7.6471C11.4038 8.31164 10.3181 9.23788 9.46586 10.3621C8.61361 11.4863 8.01504 12.7818 7.71132 14.1595C7.37031 15.6863 7.31829 17.2634 7.55794 18.8093C7.56296 18.8344 7.56752 18.8595 7.57204 18.8844C7.57738 18.9138 7.58268 18.943 7.58861 18.9715L2.40412 24.2568C2.37127 24.1889 2.33836 24.1209 2.3077 24.053C1.32282 21.919 0.777803 19.6085 0.705144 17.2593C0.632485 14.9101 1.03368 12.5704 1.88479 10.3796C2.02941 10.0158 2.18938 9.65648 2.3581 9.30149C4.12206 5.65307 7.29718 2.47357 11.1078 1.03173C14.3212 -0.200724 17.8526 -0.332851 21.1492 0.656035C24.4457 1.64492 27.3213 3.69899 29.3258 6.4967V6.50985C29.3617 6.55963 29.3975 6.6089 29.4334 6.65811C29.5442 6.81036 29.6548 6.96219 29.764 7.12778L29.9043 7.34691L11.9602 25.6351C14.0243 26.9301 16.759 27.2259 19.0817 26.5554C19.4017 26.4628 19.7163 26.3524 20.0239 26.2245L20.2058 26.1478C23.3064 24.7914 25.3859 21.785 25.8636 18.4653C25.976 17.6883 26.001 16.9011 25.9381 16.1185C25.9206 15.9037 25.7738 14.646 25.7738 14.646L30.9999 9.31903C31.1504 9.64041 31.2928 9.96544 31.4272 10.2941C31.4199 10.3014 31.6108 10.8608 31.7036 11.1326C31.722 11.1864 31.7366 11.2292 31.7449 11.2539C31.8749 11.6585 31.9904 12.0676 32.0912 12.481Z" fill="#0074F0"/>
<path fill-rule="evenodd" clip-rule="evenodd" d="M61.9091 11.3515C61.9372 13.3941 61.364 15.4 60.2608 17.1193C59.1538 18.8466 57.5668 20.2133 55.6945 21.0519L63.2295 33.2192H55.5426L48.747 22.1016H43.4809V33.2192H36.5599V1.81609C36.5596 1.61582 36.5988 1.41745 36.6751 1.23231C36.7515 1.04717 36.8636 0.878895 37.005 0.737077C37.1464 0.595259 37.3144 0.482683 37.4993 0.405775C37.6842 0.328868 37.8825 0.289135 38.0827 0.288846H50.7672C52.2304 0.252107 53.6857 0.512637 55.0453 1.05467C57.0976 1.87378 58.8529 3.29689 60.0785 5.13561C61.3042 6.97433 61.9426 9.14193 61.9091 11.3515ZM53.8503 14.4984C54.293 14.0758 54.6423 13.5654 54.8758 12.9997C55.1051 12.4351 55.2124 11.8284 55.1905 11.2194C55.2092 10.6305 55.1113 10.0436 54.9025 9.4926C54.6937 8.94159 54.378 8.43729 53.9736 8.00869C53.5633 7.58504 53.067 7.25426 52.5181 7.03863C51.9691 6.82301 51.3804 6.72757 50.7914 6.75873H43.4941V15.7704H50.4834C51.1036 15.7939 51.7223 15.6937 52.3033 15.4755C52.8844 15.2552 53.4167 14.9233 53.8701 14.4984H53.8503Z" fill="#0074F0"/>
<path d="M65.8641 0.285437H72.6841V33.2192H65.8641V0.285437Z" fill="#0074F0"/>
<path d="M112.373 0.285437H119.193V33.2192H112.373V0.285437Z" fill="#0074F0"/>
<path d="M145.557 0.292041H145.98L145.997 0.294239H152.413V29.479C152.417 30.46 152.045 31.4052 151.372 32.1192C151.049 32.4633 150.66 32.7383 150.228 32.9274C149.795 33.1165 149.329 33.2158 148.857 33.2192H145.434C144.76 33.2163 144.101 33.0151 143.54 32.6406C142.964 32.2612 142.507 31.7275 142.22 31.1005L130.423 9.31919V33.2148H123.585V4.02567C123.58 3.04471 123.952 2.09949 124.625 1.38551C125.255 0.713646 126.125 0.318188 127.045 0.28544H130.717C131.39 0.284486 132.049 0.482755 132.609 0.855274C133.182 1.23467 133.635 1.76871 133.916 2.39537L145.557 23.7367V0.292041Z" fill="#0074F0"/>
<path d="M176.823 0.513069H163.792V33.3181H176.736C185.845 33.3181 192.731 27.2658 192.731 16.9156C192.731 6.56533 185.932 0.513069 176.823 0.513069ZM176.823 4.98648C183.186 4.98648 187.545 9.06517 187.545 16.9156C187.545 24.766 183.099 28.8447 176.779 28.8447H168.934V4.98648H176.823Z" fill="black"/>
<path d="M206.945 10.4247C200.277 10.4247 195.265 14.942 195.265 22.0907C195.265 29.1955 200.277 33.7566 206.945 33.7566C213.57 33.7566 218.582 29.1955 218.582 22.0907C218.582 14.942 213.57 10.4247 206.945 10.4247ZM206.945 14.635C210.78 14.635 213.657 17.398 213.657 22.0907C213.657 26.7395 210.78 29.5025 206.945 29.5025C203.066 29.5025 200.233 26.7395 200.233 22.0907C200.233 17.398 203.066 14.635 206.945 14.635Z" fill="black"/>
<path d="M227.116 0.189453H222.235V33.3181H227.116V0.189453Z" fill="black"/>
<path d="M236.718 0.189453H231.837V33.3181H236.718V0.189453Z" fill="black"/>
<path d="M250.338 10.4247C244.759 10.4247 241.446 14.4157 241.446 18.3628L246.371 18.5383C246.371 16.5209 247.592 14.7227 250.381 14.7227C253.127 14.7227 254.347 16.5209 254.347 19.4154V20.0733L249.03 20.3803C244.454 20.6434 240.836 22.3538 240.836 27.1781C240.836 31.3884 243.844 33.7566 248.289 33.7566C250.773 33.7566 252.778 32.7918 254.347 31.3006V33.3181H259.272V19.3277C259.272 13.5824 256.091 10.4247 250.338 10.4247ZM254.391 23.8888V24.6782C254.391 28.0991 252.212 29.6341 249.117 29.6341C247.156 29.6341 245.761 28.9762 245.761 27.0904C245.761 25.073 247.417 24.3274 249.727 24.1958L254.391 23.8888Z" fill="black"/>
<path d="M275.303 10.5563C271.729 10.5563 269.768 12.2229 268.94 13.9771V10.8195H264.189V33.3181H269.07V21.082C269.07 17.7927 271.467 15.3367 275.303 15.3367V10.5563Z" fill="black"/>
</svg>
