<svg width="588" height="99" viewBox="0 0 588 99" fill="none" xmlns="http://www.w3.org/2000/svg">
<path d="M113.58 73.9278L99.2649 49.3126C98.9368 49.3126 98.7317 49.3126 98.4446 49.3126H87.5336V73.9278H73.2592V1.80813H98.4446C116.124 1.80813 126.706 11.383 126.706 25.8891C126.706 35.7927 121.866 42.9841 113.129 46.6004L129.578 73.8867H113.58V73.9278ZM87.5746 36.5324H100.331C108.248 36.5324 111.94 31.3957 111.94 25.9302C111.94 20.2592 108.125 15.2047 100.331 15.2047H87.5746V36.5324V36.5324ZM136.141 73.9278V1.80813H150.415V73.8867H136.141V73.9278ZM216.619 66.4076C212.722 70.8457 204.19 75.366 194.838 75.366C174.165 75.366 157.511 59.6271 157.511 37.8885C157.511 16.1499 174.165 0.410938 194.838 0.410938C209.113 0.53422 221.049 7.93111 227.53 19.4785L212.927 23.3002C209.031 17.958 201.934 14.5472 194.838 14.5472C181.384 14.5472 172.442 24.2453 172.442 37.9296C172.442 52.2302 182.328 61.3941 195.659 61.3941C208.005 61.3941 214.486 54.6137 216.742 49.0249V45.9429H196.807V34.2722H228.966V73.9278H216.619C216.619 67.9692 216.742 66.5309 216.742 66.4076H216.619ZM239.015 73.9278V1.80813H253.29V73.8867H239.015V73.9278ZM327 1.80813V73.8867H313.546L293.078 46.0662C286.597 37.1899 278.68 25.8891 278.598 25.8891H278.475C278.393 25.8891 278.598 36.2858 278.598 50.5865V73.8456H264.324V1.80813H277.778L298.656 29.9163C303.578 36.4091 312.644 49.2715 312.726 49.2715H312.849C312.972 49.2715 312.726 37.5186 312.726 25.396V1.80813H327ZM63.0455 18.5744L51.3963 30.245C51.8475 32.5463 52.0936 35.0941 52.0936 37.8474C52.0936 52.6001 45.1614 61.4352 33.5532 61.4352C28.713 61.4352 24.6522 59.8737 21.5758 56.9149L61.938 16.4786C60.8715 14.5472 59.641 12.7802 58.2464 11.1364C57.6721 10.4378 57.0568 9.82142 56.4415 9.16392C56.3595 9.08173 56.2775 8.99954 56.1954 8.91736C55.9903 8.75298 55.8263 8.54751 55.6212 8.38314C49.7145 2.87657 42.2081 0 33.5532 0C23.5857 0 15.0538 3.82172 8.94205 11.0953C3.15843 17.958 0 27.4507 0 37.8474C0 44.7512 1.39463 51.244 4.01982 56.8327L15.7511 45.0799C15.3409 42.8608 15.1359 40.4363 15.1359 37.8063C15.1359 31.0258 16.5305 25.5193 19.2377 21.451C22.4372 16.7252 27.4004 14.2185 33.5532 14.2185C38.3524 14.2185 42.3722 15.7389 45.4075 18.5744L5.12732 58.9285C6.23482 60.9421 7.5064 62.8324 8.94205 64.5173C9.22918 64.846 9.51631 65.1748 9.84446 65.5035C10.1726 65.8734 10.5418 66.2432 10.9109 66.6131C10.952 66.6542 10.993 66.6952 11.034 66.7363C11.157 66.8596 11.2391 66.9829 11.3621 67.0651C17.2278 72.6539 24.8162 75.6126 33.5532 75.6126C43.5617 75.6126 52.0936 71.7909 58.2464 64.5173C64.03 57.6546 67.2294 48.203 67.2294 37.8063C67.2294 30.8204 65.7528 24.2043 63.0455 18.5744Z" fill="#0074F0"/>
<path d="M378.751 1C361.886 1 353.648 10.771 353.648 22.1866C353.648 36.0207 364.309 39.6969 377.297 42.8894C388.347 45.5015 394.647 47.4363 394.647 54.692C394.647 62.2379 388.54 65.3337 380.205 65.3337C371.094 65.3337 364.212 60.3998 363.728 52.6604L352 53.3376C352.485 67.462 364.309 75.2981 380.205 75.2981C394.55 75.2981 406.374 68.8164 406.374 53.9181C406.374 41.1481 396.779 36.7947 381.562 33.1185C371.094 30.6999 365.472 29.0553 365.472 21.7996C365.472 15.6081 370.125 10.9645 378.945 10.9645C387.087 10.9645 392.417 15.4146 392.805 22.6703L404.533 21.9931C404.048 8.73938 393.58 1 378.751 1Z" fill="#02080D"/>
<path d="M437.809 65.3337C433.35 65.3337 429.57 63.3021 429.57 56.8203L429.667 34.0859H442.364V24.7019H429.764L429.861 7.8687H418.909L418.812 24.7019H409.604V34.0859H418.812L418.715 59.0454C418.618 70.2675 425.403 75.1046 435.192 75.1046C438.681 75.1046 440.62 74.8144 442.461 74.5242V64.85C441.298 65.0434 439.844 65.3337 437.809 65.3337Z" fill="#02080D"/>
<path d="M473.29 23.8312C458.461 23.8312 447.314 33.7957 447.314 49.5647C447.314 65.2369 458.461 75.2981 473.29 75.2981C488.022 75.2981 499.169 65.2369 499.169 49.5647C499.169 33.7957 488.022 23.8312 473.29 23.8312ZM473.29 33.1185C481.819 33.1185 488.216 39.2132 488.216 49.5647C488.216 59.8193 481.819 65.9141 473.29 65.9141C464.664 65.9141 458.364 59.8193 458.364 49.5647C458.364 39.2132 464.664 33.1185 473.29 33.1185Z" fill="#02080D"/>
<path d="M531.447 24.1214C523.5 24.1214 519.983 27.7976 518.141 31.6673V24.7019H507.577V74.3307H518.432V47.3396C518.432 40.0839 526.297 34.6663 534.827 34.6663L531.447 24.1214Z" fill="#02080D"/>
<path d="M587.707 24.7019H575.591L562.216 58.6584L548.84 24.7019H536.725L556.4 70.848L544.188 99H556.11L587.707 24.7019Z" fill="#02080D"/>
</svg>
