<svg width="973" height="100" viewBox="0 0 973 100" fill="none" xmlns="http://www.w3.org/2000/svg">
<g clip-path="url(#clip0_20_34)">
<path d="M470.939 97.719V2.3904H504.617C533.786 2.3904 554.97 22.5968 554.97 50.4621C554.97 78.2731 534.329 97.6647 504.725 97.6647H470.939V97.719ZM489.788 80.5544H503.313C518.359 80.5544 535.958 72.6783 535.958 50.5164C535.958 29.1693 519.554 19.6093 503.313 19.6093H489.788V80.5544ZM718.305 97.719V80.5544H679.685V2.3904H660.836V97.6647H718.305V97.719ZM785.66 97.719V80.5544H747.039V2.3904H728.191V97.6647H785.66V97.719ZM869.147 97.719L863.117 81.0433H817.653L811.624 97.719H791.852L828.625 2.44472H852.471L889.353 97.719H869.147ZM838.294 25.0954C837.805 25.5843 837.805 25.5843 834.492 34.2752L832.102 40.6305L823.628 64.3133H857.088L848.669 40.8478C847.365 37.3171 846.17 34.2209 845.247 31.7766C842.911 25.5843 842.911 25.5843 842.422 25.0954L841.662 24.335H839.054L838.294 25.0954ZM950.407 97.719L931.613 64.5305H916.675V97.719H897.827V2.3904H933.405C956.871 2.3904 970.831 14.1232 970.831 33.7864C970.831 46.4425 964.693 55.731 953.557 59.9135L950.57 61.0542L972.786 97.6647H950.407V97.719ZM916.675 50.5164H934.981C945.41 50.5164 951.385 44.8673 951.385 34.9814C951.385 24.8239 945.355 19.0118 934.818 19.0118H916.675V50.5164ZM639.272 15.0466C631.233 5.54086 620.043 0.489258 606.952 0.489258C593.862 0.489258 582.672 5.54086 574.633 15.0466C567.083 24.0091 562.9 36.448 562.9 50.0275C562.9 63.6071 567.083 76.046 574.687 85.0085C582.781 94.5142 593.807 99.5658 606.952 99.5658C620.043 99.5658 631.124 94.5142 639.218 85.0085C646.822 76.046 651.005 63.6071 651.005 50.0275C651.005 36.448 646.822 24.0091 639.272 15.0466ZM606.952 80.9347C591.743 80.9347 582.781 69.3649 582.781 50.0275C582.781 41.1193 584.573 33.9493 588.158 28.6261C592.341 22.4339 598.859 19.1204 606.952 19.1204C615.046 19.1204 621.564 22.3795 625.747 28.6261C629.332 33.895 631.124 41.1193 631.124 50.0275C631.124 69.4192 622.162 80.9347 606.952 80.9347Z" fill="black"/>
<path d="M150.407 97.7186L131.45 65.182C131.016 65.182 130.744 65.182 130.364 65.182H115.915V97.7186H97.0125V2.39001H130.364C153.775 2.39001 167.789 15.0462 167.789 34.2205C167.789 47.3112 161.38 56.8169 149.81 61.597L171.591 97.6643H150.407V97.7186ZM115.97 48.289H132.863C143.346 48.289 148.235 41.4992 148.235 34.2748C148.235 26.7789 143.183 20.0978 132.863 20.0978H115.97V48.289ZM180.282 97.7186V2.39001H199.185V97.6643H180.282V97.7186ZM286.855 87.7784C281.695 93.6448 270.396 99.6198 258.012 99.6198C230.635 99.6198 208.582 78.8159 208.582 50.0815C208.582 21.3471 230.635 0.543183 258.012 0.543183C276.915 0.706138 292.721 10.4834 301.304 25.7469L281.966 30.7985C276.806 23.7371 267.409 19.2287 258.012 19.2287C240.195 19.2287 228.354 32.0478 228.354 50.1358C228.354 69.0386 241.445 81.1515 259.098 81.1515C275.448 81.1515 284.03 72.189 287.018 64.8017V60.7279H260.619V45.3015H303.205V97.7186H286.855C286.855 89.8425 287.018 87.9413 287.018 87.7784H286.855ZM316.513 97.7186V2.39001H335.415V97.6643H316.513V97.7186ZM433.025 2.39001V97.6643H415.209L388.104 60.8908C379.522 49.1581 369.038 34.2205 368.93 34.2205H368.767C368.658 34.2205 368.93 47.9631 368.93 66.8658V97.61H350.027V2.39001H367.843L395.491 39.5437C402.01 48.126 414.014 65.1276 414.123 65.1276H414.286C414.449 65.1276 414.123 49.5926 414.123 33.5687V2.39001H433.025ZM83.4872 24.5519L68.0608 39.9783C68.6583 43.0201 68.9842 46.3878 68.9842 50.0272C68.9842 69.5274 59.8044 81.2059 44.4324 81.2059C38.0228 81.2059 32.6453 79.1418 28.5714 75.2309L82.0206 21.7816C80.6083 19.2287 78.9788 16.893 77.132 14.7203C76.3715 13.7968 75.5567 12.9821 74.742 12.113C74.6333 12.0043 74.5247 11.8957 74.4161 11.7871C74.1445 11.5698 73.9272 11.2982 73.6556 11.0809C65.8338 3.80228 55.8935 0 44.4324 0C31.233 0 19.9348 5.0516 11.8414 14.6659C4.18251 23.7371 0 36.2846 0 50.0272C0 59.1526 1.84682 67.7349 5.32319 75.1222L20.8582 59.5872C20.315 56.654 20.0434 53.4492 20.0434 49.9728C20.0434 41.0103 21.8903 33.7317 25.4753 28.3542C29.7121 22.1075 36.2846 18.7941 44.4324 18.7941C50.7876 18.7941 56.1108 20.8039 60.1303 24.5519L6.78979 77.8924C8.25638 80.554 9.94025 83.0527 11.8414 85.2797C12.2216 85.7143 12.6018 86.1488 13.0364 86.5834C13.4709 87.0722 13.9598 87.5611 14.4487 88.05C14.503 88.1043 14.5573 88.1586 14.6116 88.2129C14.7746 88.3759 14.8832 88.5388 15.0462 88.6475C22.8137 96.0348 32.8626 99.9457 44.4324 99.9457C57.686 99.9457 68.9842 94.8941 77.132 85.2797C84.7908 76.2086 89.0277 63.7154 89.0277 49.9728C89.0277 40.7387 87.0722 31.9935 83.4872 24.5519Z" fill="#0074F0"/>
</g>
<defs>
<clipPath id="clip0_20_34">
<rect width="972.841" height="100" fill="white"/>
</clipPath>
</defs>
</svg>
