<svg width="500" height="500" viewBox="0 0 500 500" fill="none" xmlns="http://www.w3.org/2000/svg">
<path d="M250.835 499.165C388.445 498.704 499.626 386.775 499.165 249.165C498.704 111.555 386.775 0.373839 249.165 0.83497C111.555 1.2961 0.373821 113.225 0.834952 250.835C1.29608 388.445 113.225 499.626 250.835 499.165Z" fill="#0074F0"/>
<path opacity="0.2" d="M405.743 404.747C491.175 318.744 490.747 179.685 404.745 94.2532C318.742 8.82109 179.683 9.24897 94.2513 95.2516L405.743 404.747Z" fill="white"/>
<path d="M239.826 151.592C243.171 151.25 246.565 151.075 250 151.075C304.615 151.075 348.889 195.349 348.889 249.964C348.889 292.552 321.966 328.853 284.212 342.774L250.659 389.962C327.676 389.607 390 327.064 390 249.964C390 177.566 335.046 118.003 264.575 110.713L239.826 151.592Z" fill="white"/>
<path d="M246.823 109.999C170.971 111.688 110 173.705 110 249.964C110 321.306 163.364 380.185 232.354 388.862L261.253 348.219C257.56 348.638 253.805 348.852 250 348.852C195.385 348.852 151.111 304.578 151.111 249.964C151.111 206.198 179.542 169.073 218.942 156.05L246.823 109.999Z" fill="white"/>
<path d="M284.213 342.775C321.967 328.853 348.89 292.553 348.89 249.964H390.001C390.001 327.064 327.677 389.608 250.66 389.963L284.213 342.775Z" fill="url(#paint0_linear_14_1784)"/>
<path d="M246.823 109.999C170.971 111.688 110 173.705 110 249.964C110 249.964 151.111 250.554 151.111 249.964C151.111 206.198 179.542 169.073 218.942 156.05L246.823 109.999Z" fill="url(#paint1_linear_14_1784)"/>
<path d="M249.748 364.41L320.043 265.419L249.748 306.903L179.491 265.419L249.748 364.41Z" fill="white"/>
<path opacity="0.1" d="M249.748 364.41L320.043 265.419L249.748 306.903V364.41Z" fill="#0074F0"/>
<path d="M249.534 293.766L320.179 252.205L249.534 135.522L178.89 252.205L249.534 293.766Z" fill="url(#paint2_linear_14_1784)"/>
<path d="M249.534 293.766L320.179 252.205L249.534 135.522L178.89 252.205L249.534 293.766Z" fill="white"/>
<path opacity="0.1" d="M249.533 293.762L178.889 252.205L249.533 135.522L249.533 293.762Z" fill="#0074F0"/>
<path opacity="0.1" d="M249.533 293.766V219.086L178.889 252.205L249.533 293.766Z" fill="#0074F0"/>
<path opacity="0.1" d="M249.535 293.766V219.086L320.179 252.205L249.535 293.766Z" fill="#0074F0"/>
<defs>
<linearGradient id="paint0_linear_14_1784" x1="157.826" y1="425.38" x2="312.01" y2="324.381" gradientUnits="userSpaceOnUse">
<stop stop-color="#1A82FF" stop-opacity="0.5"/>
<stop offset="1" stop-color="white"/>
</linearGradient>
<linearGradient id="paint1_linear_14_1784" x1="325.556" y1="45.5566" x2="178.031" y2="152.148" gradientUnits="userSpaceOnUse">
<stop stop-color="#1A82FF" stop-opacity="0.5"/>
<stop offset="1" stop-color="white"/>
</linearGradient>
<linearGradient id="paint2_linear_14_1784" x1="99.2397" y1="177.776" x2="223.003" y2="253.303" gradientUnits="userSpaceOnUse">
<stop stop-color="#1C313F"/>
<stop offset="1" stop-color="white"/>
</linearGradient>
</defs>
</svg>
