<svg width="273" height="273" viewBox="0 0 273 273" fill="none" xmlns="http://www.w3.org/2000/svg">
<circle cx="136.5" cy="136.5" r="136.5" fill="#0074F0"/>
<path d="M241 136.368C241 136.185 241 136.002 241 135.819V135.659C241 134.752 241 133.852 241 132.952C241 131.709 240.932 130.474 240.863 129.231C240.863 128.713 240.802 128.187 240.764 127.668C240.772 127.521 240.772 127.373 240.764 127.226C240.764 126.784 240.703 126.349 240.665 125.907C240.665 125.731 240.665 125.564 240.62 125.388C240.574 124.824 240.521 124.267 240.46 123.703V123.65L240.255 121.82C240.11 120.615 239.95 119.41 239.753 118.213C239.756 118.14 239.756 118.066 239.753 117.992C239.291 114.988 238.695 112.009 237.965 109.056L237.646 107.767C237.493 107.195 237.341 106.616 237.182 106.044C236.991 105.327 236.786 104.618 236.573 103.916V103.825V103.741C236.497 103.459 236.413 103.184 236.33 102.91C236.246 102.635 236.208 102.483 236.14 102.269C236.071 102.056 236.018 101.842 235.949 101.629L235.021 98.8305L233.432 93.9048L233.219 94.126C232.352 91.9706 231.419 89.8432 230.42 87.7438L196.145 122.643C196.409 124.107 196.622 125.579 196.784 127.058C196.738 127.962 196.83 128.867 197.058 129.742C197.248 132.182 197.37 134.47 197.37 136.681C197.37 138.008 197.37 139.167 197.317 140.295C197.317 140.547 197.317 140.806 197.317 141.058C197.279 141.546 197.233 142.041 197.172 142.545L197.256 142.628C197.256 142.933 197.256 143.238 197.256 143.551C197.096 144.477 196.992 145.411 196.944 146.349V147.493C196.868 148.317 196.739 149.134 196.556 149.941C196.038 152.924 195.34 155.872 194.465 158.77L193.498 161.569C193.369 161.935 193.232 162.331 193.088 162.682C193.019 162.857 192.958 163.033 192.89 163.201L192.685 163.719L192.639 163.841C192.456 164.291 192.266 164.741 192.068 165.198C191.095 167.326 190.205 169.178 189.277 170.833L188.897 171.542C188.767 171.779 188.63 172.007 188.494 172.244L188.174 172.77L187.847 173.288L187.611 173.654C186.971 174.727 186.276 175.766 185.527 176.765L184.766 177.818C184.006 178.862 183.169 179.884 182.34 180.868C181.868 181.455 181.374 182.034 180.819 182.598L180.659 182.781L180.553 182.896C179.99 183.521 179.419 184.146 178.841 184.756C178.446 185.176 178.035 185.587 177.632 185.999C177.236 186.403 176.825 186.807 176.415 187.189C176.194 187.41 175.966 187.623 175.738 187.837C175.51 188.05 175.281 188.271 175.053 188.47L175 188.523L174.072 189.362L173.996 189.43C173.791 189.621 173.585 189.804 173.372 189.972C173.159 190.14 172.908 190.376 172.665 190.574L171.699 191.382L170.611 192.206L169.622 192.915L169.166 193.228L169.09 193.281L168.938 193.388C168.39 193.754 167.842 194.112 167.287 194.463C166.732 194.814 166.169 195.149 165.599 195.477L164.404 196.148L163.978 196.377L163.56 196.598L163.111 196.827L161.803 197.475L160.472 198.085L160.168 198.214L159.08 198.679L158.548 198.893L157.574 199.267L156.813 199.549L156.425 199.686L155.756 199.915L155.611 199.961L154.623 200.281L153.626 200.578L152.622 200.86C151.55 201.142 150.462 201.394 149.374 201.623L148.979 201.699C148.013 201.882 147.047 202.042 146.073 202.179L142.977 202.538C140.832 202.793 138.672 202.897 136.512 202.85C133.052 202.86 129.596 202.605 126.175 202.088C124.235 201.73 121.992 201.325 120.371 200.86L119.771 200.7L119.58 200.647L118.759 200.41L117.922 200.151L117.283 199.945L116.294 199.602L115.777 199.419L115.245 199.229H114.849C113.278 198.625 111.74 197.94 110.24 197.177L108.932 196.522L108.886 196.567L108.125 196.171L107.981 196.095L107.22 195.645C106.665 195.332 106.11 194.997 105.562 194.654L191.513 107.104L207.076 91.2513L223.049 75.0025L223.232 74.8195L222.311 73.4317C221.376 72.0592 220.41 70.7174 219.413 69.3906L219.352 69.3067C219.132 68.9559 218.888 68.6203 218.637 68.2772C218.447 68.0027 218.249 67.7283 218.044 67.4615L217.831 67.164L217.572 66.8285L217.39 66.5845L217.055 66.1653L216.781 65.8144L216.561 65.54L216.492 65.4484L216.249 65.1587C216.021 64.8766 215.785 64.602 215.542 64.3199C215.513 64.28 215.483 64.2418 215.45 64.2056C215.1 63.7938 214.751 63.3744 214.393 62.9626C213.678 62.1391 212.945 61.3156 212.195 60.4921C211.814 60.0728 211.434 59.6611 211.039 59.2417C209.175 57.3202 207.357 55.5359 205.532 53.8432C204.771 53.1722 204.071 52.5089 203.333 51.8608L202.215 50.8848L199.584 48.7574L198.458 47.8577L197.979 47.4841C197.667 47.2325 197.347 46.9885 197.028 46.7216C196.708 46.4547 196.442 46.2716 196.145 46.0581C195.849 45.8446 195.385 45.4787 194.974 45.1966L194.708 45.0136C194.29 44.7239 193.879 44.4264 193.453 44.1366L192.844 43.7172L192.517 43.5037C192.198 43.2826 191.871 43.0616 191.536 42.8481L191.247 42.6574L191.087 42.5582C190.783 42.3523 190.471 42.1543 190.159 41.9636L189.581 41.5975L189.498 41.5519L188.273 40.7894L187.923 40.5835L187.505 40.3318L187.185 40.1488L185.915 39.3863L185.626 39.2262C185.177 38.9746 184.728 38.723 184.272 38.4637L183.61 38.113L183.329 37.968L182.949 37.7699L182.698 37.6401L182.454 37.5182L182.104 37.3429L181.747 37.1599C181.611 37.0836 181.471 37.0149 181.328 36.954C181.024 36.7938 180.712 36.6489 180.4 36.4964L180.157 36.2523H179.868L179.107 35.9016C178.948 35.8178 178.796 35.7491 178.628 35.6805L178.217 35.4975L177.457 35.1697L177.343 35.1162H177.267L176.4 34.7503L176.004 34.5825C175.692 34.4453 175.38 34.3156 175.061 34.1936C174.992 34.1936 174.916 34.1327 174.848 34.1022L174.582 33.9954L173.144 33.4388C171.785 32.9304 170.408 32.4451 169.014 31.9825C167.972 31.6394 166.922 31.3191 165.872 31.0141L164.29 30.5718L162.708 30.16L161.111 29.7788H161.004L159.734 29.4967L159.506 29.4433L157.893 29.1155C157.819 29.0929 157.742 29.0776 157.665 29.0697L156.273 28.8106L155.855 28.5818H155.185C152.202 28.024 149.191 27.6294 146.164 27.3999C145.814 27.3541 145.457 27.3084 145.099 27.2779H145.054C144.689 27.2779 144.293 27.2092 143.943 27.1863L143.228 27.1406H143.122C141.197 27.0262 139.167 27.0186 136.946 27.0186H136.078C133 26.9475 129.92 27.08 126.86 27.4151C123.833 27.6447 120.822 28.0392 117.838 28.597H117.177L116.751 28.8333C110.992 29.8408 105.343 31.3983 99.88 33.4846C97.5829 34.3538 95.3263 35.312 93.1103 36.3592H92.8289L92.5779 36.6109C87.5513 39.0197 82.7414 41.8591 78.202 45.0974L77.9358 45.2804C76.3613 46.4165 74.8247 47.568 73.3187 48.8185L70.6869 50.9457C67.7053 53.5077 64.8453 56.2298 61.8636 59.3331C60.3119 60.9903 58.8413 62.6449 57.4519 64.297C56.0435 65.9255 54.7328 67.6365 53.527 69.421C53.4995 69.4476 53.4764 69.4786 53.4586 69.5125C53.1011 69.9853 52.7512 70.4656 52.4089 70.9459C52.3177 71.0527 52.2416 71.1672 52.158 71.2816C52.0743 71.396 52.0134 71.4798 51.9526 71.5789C51.8723 71.6781 51.7986 71.7827 51.732 71.8916L51.6331 72.0288L51.5494 72.1431L51.3821 72.3872C51.0626 72.8447 50.7432 73.3022 50.4313 73.7673C50.4086 73.7934 50.3881 73.8214 50.3704 73.8511C50.0357 74.3391 49.7087 74.8347 49.3893 75.3303C49.1839 75.6353 48.9785 75.9405 48.7883 76.2531C48.6666 76.4361 48.5526 76.6114 48.4461 76.7944C48.3396 76.9774 48.0961 77.3358 47.9288 77.6103L47.5029 78.2965L47.1758 78.8379C46.902 79.2954 46.6282 79.7529 46.3696 80.2104C46.3087 80.3171 46.2478 80.4162 46.1945 80.5229C46.1413 80.6297 46.0501 80.7669 45.9893 80.8889C45.4568 81.7963 44.9548 82.7114 44.468 83.634C44.4371 83.6858 44.4091 83.7392 44.3842 83.7941C44.2245 84.0838 44.0648 84.3811 43.9126 84.6785C43.7605 84.9759 43.7225 85.037 43.6388 85.2201C43.5552 85.403 43.4639 85.5402 43.3879 85.7003C43.1445 86.1655 42.9162 86.6383 42.688 87.111C42.5359 87.4084 42.3914 87.7133 42.2545 88.0107C41.9807 88.575 41.7145 89.1468 41.4939 89.7187C41.3874 89.9398 41.2809 90.1685 41.182 90.3972C40.9842 90.8242 40.7941 91.2514 40.6191 91.686C40.4898 91.9758 40.3681 92.2654 40.2388 92.5628C40.0106 93.1118 39.7824 93.6607 39.5619 94.2174L39.3565 94.004L37.7668 98.9297L36.8388 101.728C36.7095 102.155 36.5802 102.582 36.4585 103.009L36.3672 103.322C36.2912 103.55 36.2227 103.787 36.1542 104.023C36.1565 104.056 36.1565 104.089 36.1542 104.122C36.0858 104.32 36.0326 104.511 35.9793 104.709L35.9109 104.938C35.7207 105.594 35.5381 106.242 35.3632 106.898L35.2947 107.18C35.2339 107.401 35.1807 107.622 35.1274 107.843C35.0742 108.064 34.9752 108.423 34.8992 108.72C34.8992 108.789 34.8612 108.857 34.846 108.918C34.7319 109.399 34.6101 109.887 34.5036 110.375C34.4124 110.756 34.3211 111.137 34.245 111.519C34.245 111.564 34.245 111.618 34.245 111.663C34.1918 111.885 34.1462 112.113 34.093 112.342L34.0473 112.578L34.0017 112.807C33.9853 112.867 33.9726 112.928 33.9636 112.99C33.9636 113.127 33.9028 113.257 33.88 113.394C33.8115 113.715 33.743 114.035 33.6822 114.363C33.659 114.458 33.6437 114.555 33.6365 114.652C33.6329 114.703 33.6329 114.754 33.6365 114.805C33.5072 115.476 33.3931 116.139 33.279 116.803C33.279 116.925 33.2334 117.047 33.2182 117.169C33.1117 117.801 33.0128 118.434 32.9216 119.06C32.9216 119.227 32.8683 119.387 32.8455 119.555C32.8418 119.591 32.8418 119.626 32.8455 119.662C32.8455 119.784 32.8455 119.914 32.7922 120.036C32.739 120.158 32.739 120.417 32.7162 120.607V120.783C32.7204 120.818 32.7204 120.854 32.7162 120.889C32.7162 121.21 32.6325 121.538 32.6021 121.858C32.5716 122.178 32.5488 122.285 32.526 122.498L32.4804 122.849C32.4804 123.116 32.4196 123.375 32.3968 123.612C32.3739 123.848 32.3358 124.153 32.313 124.428C32.313 124.542 32.313 124.664 32.313 124.778C32.313 124.893 32.313 125.091 32.313 125.243C32.313 125.396 32.313 125.724 32.2522 125.968C32.2485 125.985 32.2485 126.004 32.2522 126.021C32.2522 126.303 32.2066 126.593 32.1914 126.875C32.1508 127.312 32.1204 127.747 32.1001 128.179C32.1001 128.423 32.1001 128.667 32.0544 128.941C32.0088 129.216 32.0544 129.208 32.0544 129.346C32.0507 129.376 32.0507 129.407 32.0544 129.437C32.0544 129.78 32.0545 130.116 32.0088 130.451C32.0054 130.484 32.0054 130.517 32.0088 130.55C32.0088 130.627 32.0088 130.711 32.0088 130.787C32.005 130.853 32.005 130.919 32.0088 130.985C32.0051 131.038 32.0051 131.092 32.0088 131.145C32.0088 131.488 32.0088 131.824 32.0088 132.167C32.0088 132.274 32.0088 132.373 32.0088 132.48C32.0088 132.586 32.0088 132.792 32.0088 132.945V133.029C32.0088 133.143 32.0088 133.257 32.0088 133.372C32.0088 133.944 32.0088 134.508 32.0088 135.072C32.0088 135.636 32.0088 135.972 32.0088 136.422V136.94C31.9784 139.304 32.0265 141.66 32.1533 144.008C32.1913 144.687 32.237 145.366 32.2827 146.037C32.2827 146.517 32.3511 147.005 32.3968 147.485C32.5185 148.934 32.6706 150.38 32.8531 151.824C32.9368 152.465 33.0204 153.097 33.1117 153.738C33.1117 153.951 33.165 154.173 33.203 154.386C33.3855 155.621 33.591 156.849 33.8191 158.076C34.791 163.344 36.1485 168.533 37.8809 173.601C38.1319 174.363 38.3981 175.126 38.6415 175.843L39.7977 179.396L39.9498 179.236C40.8321 181.416 41.7829 183.564 42.8022 185.679L73.3263 154.6L76.81 151.054C76.7415 150.703 76.673 150.345 76.6122 149.986C76.4299 149.18 76.3004 148.362 76.2244 147.539V146.395C76.1768 145.457 76.0726 144.522 75.9125 143.597C75.9125 143.284 75.9125 142.979 75.9125 142.674L76.0037 142.583C75.8018 140.633 75.723 138.671 75.7679 136.711C75.7679 134.5 75.8896 132.213 76.0798 129.773C76.2111 129.341 76.2903 128.896 76.3156 128.446C76.3156 127.996 76.3156 127.546 76.3156 127.096C76.5799 124.618 76.994 122.159 77.5555 119.731C77.851 118.253 78.2243 116.792 78.6736 115.354L78.8257 114.835C79.0082 114.256 79.1984 113.669 79.4037 113.059C79.5711 112.586 79.746 112.106 79.9438 111.595C80.0122 111.396 80.0883 111.198 80.172 110.992L80.2937 110.687C80.5234 109.99 80.7952 109.308 81.1076 108.644C81.3075 108.018 81.562 107.41 81.8682 106.829C82.0221 106.405 82.2156 105.997 82.4463 105.609C82.9468 104.516 83.5029 103.45 84.1121 102.414C84.6147 101.404 85.1839 100.428 85.8159 99.494C90.1099 92.7803 95.4694 86.8151 101.683 81.8344L102.77 81.0111C103.744 80.2943 104.735 79.6105 105.744 78.9598C105.874 78.8759 106.003 78.7922 106.14 78.7159C106.277 78.6397 106.353 78.5863 106.459 78.51H106.505C106.6 78.4436 106.7 78.3825 106.802 78.327L106.984 78.2126C107.076 78.1516 107.174 78.0982 107.273 78.0448L107.471 77.9305C107.981 77.6255 108.49 77.3357 108.992 77.0612L109.084 77.0079C109.176 76.9472 109.272 76.8937 109.373 76.8479L109.913 76.558C110.095 76.4589 110.27 76.3673 110.453 76.2834L110.742 76.1386L110.879 76.0701L111.122 75.9556L111.411 75.8108L112.423 75.3379C112.489 75.2956 112.561 75.2624 112.636 75.2389C112.734 75.1869 112.836 75.1411 112.94 75.1017C113.049 75.047 113.16 74.9985 113.275 74.9567C113.556 74.8271 113.845 74.7051 114.127 74.5907L114.256 74.5375L115.017 74.2476L115.884 73.9122L116.165 73.8053L116.454 73.6986H116.538C117.169 73.4699 117.808 73.2487 118.455 73.0504H118.561L119.885 72.6616C121.102 72.3337 122.326 72.0288 123.558 71.7695L124.798 71.5255C125.346 71.4263 125.901 71.3273 126.456 71.2434C128.031 70.9918 129.621 70.8088 131.21 70.6716L131.971 70.6105C132.587 70.5571 133.196 70.5267 133.804 70.4962H134.42C135.181 70.4962 135.942 70.4428 136.763 70.4428H136.877C140.344 70.4498 143.805 70.7252 147.229 71.2663C147.686 71.3349 148.142 71.4189 148.598 71.5027C148.801 71.5332 149.007 71.5713 149.215 71.617C150.736 71.9144 152.257 72.2651 153.778 72.6845L155.17 73.0962C155.198 73.0895 155.226 73.0895 155.254 73.0962L155.414 73.1497L156.075 73.3632H156.129C156.413 73.4547 156.694 73.5537 156.973 73.6605H157.072C157.285 73.7291 157.498 73.813 157.718 73.8969L158.585 74.2324H158.684L159.681 74.6441L160.594 75.0559L161.552 75.4982C162.183 75.7956 162.815 76.1006 163.431 76.4284L164.191 76.8629L164.237 76.8173L164.45 76.9316C164.975 77.2137 165.5 77.5034 166.017 77.8161C166.534 78.1287 167.044 78.4413 167.538 78.7615L81.4423 166.449L63.7652 184.451L49.4196 198.374L49.336 198.466L49.6783 198.985C49.9445 199.381 50.2107 199.747 50.4845 200.166V200.204L50.6367 200.464L51.9906 202.553C53.4872 204.778 55.1022 206.921 56.8283 208.973C58.2582 210.673 59.7262 212.29 61.2399 213.907C64.1455 216.903 67.0055 219.618 70.1012 222.294L72.695 224.383C73.3111 224.887 73.9348 225.375 74.5661 225.863C75.0606 226.244 75.5626 226.625 76.0874 226.999L77.6087 228.112C77.7532 228.203 77.8977 228.31 78.0422 228.409C78.6355 228.831 79.2364 229.243 79.8449 229.644L80.5447 230.11L82.2181 231.192L82.4539 231.337C83.1232 231.757 83.8002 232.168 84.4772 232.573C85.1542 232.977 85.9528 233.426 86.6982 233.846C87.2382 234.151 87.7783 234.448 88.3259 234.738C90.1007 235.683 91.9009 236.573 93.7264 237.407C95.5595 238.238 97.4155 239.023 99.2943 239.74L100.937 240.342C101.493 240.541 102.04 240.739 102.603 240.922L103.721 241.288L103.972 241.372L104.953 241.669L105.372 241.799L106.475 242.104L106.627 242.149L106.786 242.195L108.201 242.569C109.631 242.965 111.031 243.331 112.461 243.636C113.412 243.842 114.37 244.04 115.328 244.223L116.515 244.444H116.614L117.123 244.536L117.367 244.582H117.443H117.542H117.603L119.063 244.818C119.261 244.818 119.451 244.887 119.649 244.91L121.094 245.123L122.007 245.238C122.189 245.238 122.364 245.291 122.547 245.306C123.11 245.382 123.665 245.451 124.228 245.512L125.962 245.687H126.365C127.392 245.779 128.426 245.855 129.461 245.909H129.826L131.013 245.962C131.477 245.962 131.941 246 132.405 246H133.12H134.215H137.143H138.589H138.817C139.425 246 140.034 246 140.642 245.947H141.023H141.395H141.502C142.042 245.947 142.582 245.901 143.114 245.863H143.609L144.095 245.825H144.529H144.704L145.662 245.741H145.967L147.404 245.603C148.013 245.542 148.614 245.474 149.222 245.398L150.432 245.238L151.002 245.154H151.101L151.496 245.093L152.957 244.872H153.101L153.801 244.75L154.037 244.711L154.372 244.65L155.672 244.429L156.973 244.185C157.832 244.018 158.684 243.85 159.536 243.659C160.966 243.339 162.366 242.988 163.796 242.592C166.828 241.822 169.812 240.875 172.733 239.755C174.14 239.214 175.54 238.642 176.917 238.032C180.143 236.628 183.286 235.042 186.333 233.282L188.281 232.13C189.574 231.347 190.841 230.537 192.084 229.698C192.707 229.281 193.331 228.854 193.955 228.417L194.396 228.112C196.064 226.922 197.697 225.68 199.294 224.383L201.888 222.294C204.984 219.61 207.844 216.896 210.75 213.907C212.271 212.29 213.731 210.673 215.161 208.973C216.887 206.921 218.502 204.778 219.999 202.553L221.353 200.464L221.497 200.22L221.695 199.938L222.342 198.977L222.41 198.87L222.768 198.336L223.125 197.803L223.171 197.726C223.445 197.307 223.718 196.888 223.985 196.461L224.745 195.187C225.998 193.154 227.182 191.075 228.297 188.95C228.693 188.187 229.058 187.425 229.461 186.662C229.651 186.274 229.841 185.9 230.024 185.504C230.207 185.107 230.382 184.741 230.549 184.398C230.716 184.055 230.846 183.765 230.982 183.445C231.119 183.124 231.264 182.82 231.408 182.499V182.438C231.408 182.393 231.408 182.347 231.462 182.309C231.69 181.79 231.918 181.272 232.139 180.784L232.344 180.296C232.481 179.96 232.633 179.632 232.77 179.297L232.816 179.183L232.96 179.335L234.116 175.782C234.443 174.89 234.755 173.998 235.059 173.098C235.063 173.055 235.063 173.011 235.059 172.968C235.219 172.511 235.371 172.046 235.516 171.588C235.584 171.382 235.653 171.176 235.714 170.97C235.717 170.932 235.717 170.894 235.714 170.856L235.828 170.49C235.949 170.109 236.071 169.727 236.178 169.339C236.216 169.239 236.238 169.148 236.269 169.049C236.299 168.961 236.324 168.872 236.345 168.782C236.429 168.5 236.512 168.21 236.588 167.92C236.664 167.631 236.756 167.356 236.832 167.066L237.037 166.304C237.041 166.253 237.041 166.202 237.037 166.151C237.184 165.643 237.321 165.109 237.448 164.55C237.547 164.192 237.63 163.833 237.706 163.475C237.706 163.406 237.706 163.338 237.76 163.261C237.821 163.025 237.874 162.789 237.927 162.552L237.973 162.347L238.018 162.133C238.023 162.085 238.023 162.036 238.018 161.988C238.072 161.759 238.117 161.531 238.17 161.302C238.246 160.943 238.323 160.593 238.391 160.242C238.429 160.067 238.467 159.884 238.497 159.708C238.563 159.398 238.624 159.086 238.68 158.77L238.771 158.282C238.832 157.977 238.893 157.665 238.946 157.36C239.045 156.803 239.144 156.239 239.235 155.682C239.235 155.454 239.304 155.225 239.342 154.996C239.341 154.983 239.341 154.971 239.342 154.958C239.463 154.195 239.578 153.433 239.676 152.617C239.676 152.541 239.676 152.472 239.676 152.396C239.775 151.633 239.867 150.871 239.95 150.108C240.034 149.346 240.11 148.583 240.178 147.821C240.247 147.058 240.315 146.22 240.361 145.419C240.361 144.916 240.429 144.405 240.452 143.894C240.452 143.795 240.452 143.688 240.452 143.589C240.456 143.564 240.456 143.538 240.452 143.513C240.521 142.072 240.566 140.631 240.574 139.182C240.574 138.869 240.574 138.541 240.574 138.221V138.069C240.574 137.581 240.574 137.1 240.574 136.612L241 136.368Z" fill="white"/>
</svg>
