<svg width="48" height="48" viewBox="0 0 48 48" fill="none" xmlns="http://www.w3.org/2000/svg">
<path d="M24 48C37.2548 48 48 37.2548 48 24C48 10.7452 37.2548 0 24 0C10.7452 0 0 10.7452 0 24C0 37.2548 10.7452 48 24 48Z" fill="#1A82FF"/>
<path d="M33.5647 17.8734L29.7703 21.6677C29.9201 22.4166 29.9986 23.244 29.9986 24.1355C29.9986 28.9355 27.7448 31.8027 23.9647 31.8027C22.3885 31.8027 21.0619 31.2963 20.0562 30.3406L33.2009 17.1958C32.8514 16.5753 32.4449 15.9905 31.9956 15.4556C31.803 15.2345 31.6033 15.0205 31.4036 14.8208C31.3751 14.7923 31.3465 14.7709 31.318 14.7423C31.261 14.6853 31.1968 14.6211 31.1397 14.564C29.2283 12.781 26.7748 11.8466 23.9647 11.8466C20.7124 11.8466 17.9379 13.0948 15.948 15.4556C14.0723 17.6737 13.0381 20.7619 13.0381 24.1426C13.0381 26.3893 13.4945 28.5004 14.3504 30.3192L18.1662 26.5034C18.0307 25.7831 17.9665 24.9914 17.9665 24.1426C17.9665 21.9316 18.4158 20.1486 19.3002 18.8362C20.3415 17.2957 21.9534 16.4826 23.9575 16.4826C25.5195 16.4826 26.8247 16.9747 27.8161 17.8948L14.6999 31.0039C15.0636 31.66 15.4773 32.2663 15.948 32.8226C16.0408 32.9367 16.1406 33.0365 16.2333 33.1435C16.3474 33.2648 16.4616 33.386 16.5757 33.5001C16.5899 33.5144 16.6042 33.5287 16.6185 33.5429C16.6541 33.5786 16.6898 33.6214 16.7326 33.657L16.7397 33.6499C18.6512 35.4686 21.1189 36.4244 23.9647 36.4244C27.217 36.4244 29.9986 35.1762 31.9956 32.8154C33.8856 30.5902 34.9198 27.5091 34.9198 24.1284C34.9269 21.8603 34.4491 19.7135 33.5647 17.8734Z" fill="#FAFBFC"/>
</svg>
