<svg width="400" height="210" viewBox="0 0 400 210" fill="none" xmlns="http://www.w3.org/2000/svg">
<mask id="mask0_767_610" style="mask-type:alpha" maskUnits="userSpaceOnUse" x="0" y="0" width="400" height="210">
<path d="M0 12C0 5.37258 5.37258 0 12 0H388C394.627 0 400 5.37258 400 12V210H0V12Z" fill="#D9D9D9"/>
</mask>
<g mask="url(#mask0_767_610)">
<path d="M0 16C0 7.16344 7.16344 0 16 0H384C392.837 0 400 7.16344 400 16V210H0V16Z" fill="#0074F0"/>
<rect x="-10" width="420" height="210" fill="#F6F8FE"/>
<mask id="mask1_767_610" style="mask-type:alpha" maskUnits="userSpaceOnUse" x="-10" y="0" width="420" height="210">
<rect x="-10" width="420" height="210" fill="#F1F1F1"/>
</mask>
<g mask="url(#mask1_767_610)">
<circle cx="199.5" cy="105.5" r="62.5" fill="#0074F0"/>
<path d="M229.999 105.461C229.999 105.407 229.999 105.353 229.999 105.298V105.251C229.999 104.981 229.999 104.714 229.999 104.447C229.999 104.078 229.979 103.712 229.959 103.343C229.959 103.189 229.941 103.033 229.93 102.879C229.932 102.835 229.932 102.791 229.93 102.748C229.93 102.616 229.912 102.487 229.901 102.356C229.901 102.304 229.901 102.254 229.888 102.202C229.875 102.035 229.859 101.87 229.841 101.702V101.686L229.781 101.143C229.739 100.786 229.693 100.428 229.635 100.073C229.636 100.051 229.636 100.029 229.635 100.007C229.5 99.1154 229.326 98.2313 229.113 97.3547L229.02 96.9722C228.976 96.8024 228.931 96.6304 228.885 96.4607C228.829 96.248 228.769 96.0375 228.707 95.8293V95.8022V95.7772C228.685 95.6935 228.66 95.6121 228.636 95.5306C228.612 95.4491 228.6 95.4038 228.58 95.3405C228.56 95.2771 228.545 95.2138 228.525 95.1504L228.254 94.3198L227.79 92.8578L227.728 92.9235C227.475 92.2838 227.203 91.6523 226.911 91.0292L216.908 101.388C216.984 101.822 217.047 102.259 217.094 102.698C217.08 102.966 217.107 103.235 217.174 103.494C217.229 104.219 217.265 104.898 217.265 105.554C217.265 105.948 217.265 106.292 217.249 106.627C217.249 106.701 217.249 106.778 217.249 106.853C217.238 106.998 217.225 107.145 217.207 107.294L217.232 107.319C217.232 107.41 217.232 107.5 217.232 107.593C217.185 107.868 217.155 108.145 217.141 108.424V108.763C217.118 109.007 217.081 109.25 217.027 109.489C216.876 110.375 216.672 111.25 216.417 112.11L216.135 112.941C216.097 113.049 216.057 113.167 216.015 113.271C215.995 113.323 215.977 113.375 215.957 113.425L215.897 113.579L215.884 113.615C215.831 113.749 215.775 113.882 215.718 114.018C215.433 114.649 215.174 115.199 214.903 115.69L214.792 115.901C214.754 115.971 214.714 116.039 214.674 116.109L214.581 116.265L214.485 116.419L214.417 116.528C214.23 116.846 214.027 117.154 213.808 117.451L213.586 117.763C213.364 118.074 213.12 118.377 212.878 118.669C212.741 118.843 212.596 119.015 212.434 119.182L212.388 119.237L212.356 119.271C212.192 119.456 212.026 119.642 211.857 119.823C211.742 119.947 211.622 120.07 211.504 120.192C211.389 120.312 211.269 120.432 211.149 120.545C211.084 120.61 211.018 120.674 210.951 120.737C210.885 120.801 210.818 120.866 210.751 120.925L210.736 120.941L210.465 121.19L210.443 121.21C210.383 121.267 210.323 121.321 210.261 121.371C210.199 121.421 210.125 121.491 210.054 121.55L209.772 121.79L209.455 122.034L209.166 122.244L209.033 122.337L209.011 122.353L208.966 122.385C208.807 122.493 208.647 122.6 208.485 122.704C208.323 122.808 208.158 122.908 207.992 123.005L207.643 123.204L207.519 123.272L207.397 123.337L207.266 123.405L206.884 123.598L206.496 123.779L206.407 123.817L206.089 123.955L205.934 124.019L205.65 124.13L205.428 124.213L205.315 124.254L205.119 124.322L205.077 124.336L204.788 124.431L204.498 124.519L204.205 124.603C203.892 124.686 203.574 124.761 203.257 124.829L203.141 124.852C202.859 124.906 202.577 124.953 202.293 124.994L201.39 125.1C200.763 125.176 200.133 125.207 199.503 125.193C198.493 125.196 197.484 125.12 196.486 124.967C195.919 124.861 195.264 124.741 194.792 124.603L194.616 124.555L194.561 124.539L194.321 124.469L194.077 124.392L193.89 124.331L193.602 124.229L193.451 124.175L193.295 124.118H193.18C192.721 123.939 192.272 123.736 191.835 123.509L191.453 123.315L191.439 123.328L191.217 123.211L191.175 123.188L190.953 123.055C190.791 122.962 190.629 122.862 190.469 122.76L215.556 96.7753L220.098 92.0703L224.76 87.2476L224.813 87.1932L224.544 86.7813C224.271 86.374 223.989 85.9757 223.699 85.5819L223.681 85.557C223.616 85.4529 223.545 85.3533 223.472 85.2515C223.417 85.17 223.359 85.0886 223.299 85.0094L223.237 84.9211L223.161 84.8215L223.108 84.7491L223.01 84.6246L222.93 84.5205L222.866 84.439L222.846 84.4119L222.775 84.3259C222.708 84.2422 222.64 84.1607 222.569 84.0769C222.56 84.0651 222.551 84.0538 222.542 84.043C222.44 83.9208 222.338 83.7963 222.233 83.6741C222.025 83.4297 221.811 83.1853 221.592 82.9408C221.481 82.8164 221.37 82.6942 221.254 82.5697C220.71 81.9994 220.18 81.4698 219.647 80.9674C219.425 80.7682 219.221 80.5714 219.005 80.379L218.679 80.0893L217.911 79.4579L217.582 79.1909L217.443 79.08C217.352 79.0053 217.258 78.9329 217.165 78.8537C217.072 78.7745 216.994 78.7201 216.908 78.6568C216.821 78.5934 216.686 78.4848 216.566 78.4011L216.488 78.3468C216.366 78.2608 216.246 78.1725 216.122 78.0865L215.944 77.962L215.849 77.8986C215.755 77.833 215.66 77.7674 215.562 77.704L215.478 77.6474L215.431 77.618C215.342 77.5569 215.251 77.4981 215.16 77.4415L214.992 77.3328L214.967 77.3193L214.61 77.093L214.508 77.0319L214.386 76.9572L214.292 76.9029L213.922 76.6765L213.837 76.629C213.706 76.5543 213.575 76.4797 213.442 76.4027L213.249 76.2986L213.167 76.2556L213.056 76.1968L212.983 76.1583L212.911 76.1221L212.809 76.07L212.705 76.0157C212.665 75.9931 212.625 75.9727 212.583 75.9546C212.494 75.9071 212.403 75.8641 212.312 75.8188L212.241 75.7464H212.157L211.935 75.6423C211.888 75.6174 211.844 75.597 211.795 75.5766L211.675 75.5223L211.453 75.425L211.42 75.4092H211.397L211.144 75.3005L211.029 75.2508C210.938 75.21 210.847 75.1716 210.754 75.1353C210.734 75.1353 210.711 75.1173 210.691 75.1082L210.614 75.0765L210.194 74.9113C209.798 74.7604 209.396 74.6164 208.989 74.4791C208.685 74.3772 208.378 74.2822 208.072 74.1916L207.61 74.0604L207.148 73.9381L206.682 73.825H206.651L206.28 73.7413L206.214 73.7254L205.743 73.6281C205.721 73.6214 205.699 73.6169 205.676 73.6145L205.27 73.5376L205.148 73.4697H204.953C204.082 73.3042 203.203 73.1871 202.32 73.1189C202.218 73.1053 202.113 73.0918 202.009 73.0827H201.996C201.889 73.0827 201.774 73.0623 201.671 73.0556L201.463 73.042H201.432C200.87 73.008 200.277 73.0058 199.629 73.0058H199.376C198.478 72.9847 197.579 73.024 196.685 73.1235C195.802 73.1916 194.923 73.3087 194.052 73.4743H193.859L193.735 73.5444C192.054 73.8434 190.405 74.3057 188.811 74.9249C188.14 75.1829 187.482 75.4673 186.835 75.7781H186.753L186.68 75.8528C185.213 76.5677 183.809 77.4105 182.484 78.3716L182.406 78.4259C181.947 78.7631 181.498 79.1049 181.059 79.476L180.29 80.1074C179.42 80.8678 178.585 81.6757 177.715 82.5968C177.262 83.0887 176.833 83.5798 176.428 84.0701C176.016 84.5535 175.634 85.0613 175.282 85.5909C175.274 85.5988 175.267 85.608 175.262 85.6181C175.158 85.7584 175.056 85.901 174.956 86.0436C174.929 86.0752 174.907 86.1092 174.882 86.1432C174.858 86.1771 174.84 86.202 174.823 86.2314C174.799 86.2609 174.778 86.2919 174.758 86.3242L174.729 86.365L174.705 86.3989L174.656 86.4713C174.563 86.6071 174.47 86.7429 174.378 86.881C174.372 86.8887 174.366 86.897 174.361 86.9058C174.263 87.0507 174.168 87.1978 174.074 87.3449C174.014 87.4354 173.954 87.526 173.899 87.6187C173.863 87.6731 173.83 87.7251 173.799 87.7794C173.768 87.8337 173.697 87.9401 173.648 88.0216L173.524 88.2252L173.428 88.3859C173.348 88.5217 173.268 88.6575 173.193 88.7933C173.175 88.825 173.157 88.8544 173.142 88.8861C173.126 88.9177 173.1 88.9585 173.082 88.9947C172.927 89.264 172.78 89.5356 172.638 89.8094C172.629 89.8248 172.621 89.8406 172.614 89.8569C172.567 89.9429 172.52 90.0312 172.476 90.1194C172.432 90.2077 172.42 90.2259 172.396 90.2802C172.372 90.3345 172.345 90.3752 172.323 90.4227C172.252 90.5608 172.185 90.7011 172.118 90.8414C172.074 90.9297 172.032 91.0202 171.992 91.1084C171.912 91.2759 171.834 91.4457 171.77 91.6154C171.739 91.681 171.708 91.7489 171.679 91.8168C171.621 91.9435 171.566 92.0703 171.515 92.1993C171.477 92.2853 171.441 92.3713 171.404 92.4595C171.337 92.6225 171.27 92.7854 171.206 92.9506L171.146 92.8873L170.682 94.3492L170.411 95.1798C170.374 95.3065 170.336 95.4332 170.3 95.56L170.274 95.6528C170.251 95.7207 170.231 95.7908 170.212 95.861C170.212 95.8708 170.212 95.8806 170.212 95.8904C170.192 95.9492 170.176 96.0058 170.16 96.0647L170.14 96.1326C170.085 96.3272 170.032 96.5196 169.981 96.7142L169.961 96.7979C169.943 96.8635 169.927 96.9292 169.912 96.9948C169.896 97.0605 169.867 97.1668 169.845 97.2551C169.845 97.2754 169.834 97.2958 169.83 97.3139C169.796 97.4565 169.761 97.6014 169.73 97.7462C169.703 97.8593 169.676 97.9725 169.654 98.0857C169.654 98.0992 169.654 98.1151 169.654 98.1286C169.639 98.1943 169.625 98.2621 169.61 98.33L169.597 98.4002L169.583 98.4681C169.578 98.486 169.575 98.5041 169.572 98.5224C169.572 98.5632 169.554 98.6016 169.548 98.6424C169.528 98.7374 169.508 98.8325 169.49 98.9298C169.483 98.958 169.479 98.9868 169.477 99.0158C169.476 99.0308 169.476 99.046 169.477 99.061C169.439 99.2602 169.406 99.4571 169.372 99.654C169.372 99.6902 169.359 99.7264 169.355 99.7626C169.323 99.9504 169.295 100.138 169.268 100.324C169.268 100.374 169.252 100.421 169.246 100.471C169.245 100.481 169.245 100.492 169.246 100.503C169.246 100.539 169.246 100.577 169.23 100.614C169.215 100.65 169.215 100.727 169.208 100.783V100.835C169.209 100.846 169.209 100.856 169.208 100.867C169.208 100.962 169.184 101.059 169.175 101.154C169.166 101.249 169.159 101.281 169.153 101.345L169.139 101.449C169.139 101.528 169.121 101.605 169.115 101.675C169.108 101.745 169.097 101.836 169.09 101.917C169.09 101.951 169.09 101.987 169.09 102.021C169.09 102.055 169.09 102.114 169.09 102.159C169.09 102.205 169.09 102.302 169.073 102.374C169.072 102.379 169.072 102.385 169.073 102.39C169.073 102.474 169.059 102.56 169.055 102.644C169.043 102.773 169.034 102.902 169.028 103.031C169.028 103.103 169.028 103.175 169.015 103.257C169.002 103.338 169.015 103.336 169.015 103.377C169.014 103.386 169.014 103.395 169.015 103.404C169.015 103.506 169.015 103.605 169.002 103.705C169.001 103.715 169.001 103.725 169.002 103.734C169.002 103.757 169.002 103.782 169.002 103.805C169 103.824 169 103.844 169.002 103.863C169 103.879 169 103.895 169.002 103.911C169.002 104.013 169.002 104.112 169.002 104.214C169.002 104.246 169.002 104.275 169.002 104.307C169.002 104.339 169.002 104.4 169.002 104.445V104.47C169.002 104.504 169.002 104.538 169.002 104.572C169.002 104.741 169.002 104.909 169.002 105.076C169.002 105.244 169.002 105.343 169.002 105.477V105.631C168.993 106.332 169.007 107.032 169.044 107.729C169.055 107.93 169.068 108.132 169.082 108.331C169.082 108.473 169.102 108.618 169.115 108.761C169.15 109.191 169.195 109.62 169.248 110.048C169.272 110.239 169.297 110.426 169.323 110.617C169.323 110.68 169.339 110.746 169.35 110.809C169.403 111.176 169.463 111.54 169.53 111.904C169.814 113.468 170.21 115.008 170.715 116.512C170.789 116.738 170.866 116.965 170.937 117.177L171.275 118.232L171.319 118.184C171.577 118.832 171.854 119.469 172.152 120.097L181.061 110.872L182.078 109.82C182.058 109.716 182.038 109.609 182.02 109.503C181.967 109.264 181.929 109.021 181.907 108.777V108.437C181.893 108.159 181.862 107.881 181.816 107.607C181.816 107.514 181.816 107.423 181.816 107.333L181.842 107.306C181.783 106.727 181.76 106.145 181.773 105.563C181.773 104.907 181.809 104.228 181.864 103.504C181.903 103.376 181.926 103.243 181.933 103.11C181.933 102.976 181.933 102.843 181.933 102.709C182.01 101.974 182.131 101.244 182.295 100.523C182.381 100.084 182.49 99.6509 182.621 99.224L182.666 99.0701C182.719 98.8981 182.775 98.7239 182.835 98.5428C182.883 98.4025 182.934 98.2599 182.992 98.1083C183.012 98.0494 183.034 97.9906 183.059 97.9295L183.094 97.839C183.161 97.6321 183.241 97.4295 183.332 97.2325C183.39 97.0466 183.465 96.8664 183.554 96.6938C183.599 96.568 183.655 96.4467 183.723 96.3317C183.869 96.0074 184.031 95.6909 184.209 95.3835C184.355 95.0836 184.522 94.7941 184.706 94.5167C185.959 92.5241 187.524 90.7536 189.337 89.2753L189.654 89.0309C189.939 88.8182 190.228 88.6152 190.523 88.4221C190.56 88.3972 190.598 88.3724 190.638 88.3497C190.678 88.3271 190.7 88.3112 190.731 88.2886H190.745C190.772 88.2689 190.801 88.2508 190.831 88.2343L190.884 88.2003C190.911 88.1822 190.94 88.1664 190.969 88.1505L191.026 88.1166C191.175 88.0261 191.324 87.9401 191.47 87.8586L191.497 87.8428C191.524 87.8248 191.552 87.8089 191.581 87.7953L191.739 87.7092C191.792 87.6798 191.843 87.6526 191.897 87.6277L191.981 87.5848L192.021 87.5644L192.092 87.5304L192.176 87.4875L192.472 87.3471C192.491 87.3346 192.512 87.3247 192.534 87.3177C192.563 87.3023 192.592 87.2887 192.623 87.277C192.654 87.2608 192.687 87.2464 192.72 87.234C192.802 87.1955 192.887 87.1593 192.969 87.1253L193.007 87.1095L193.229 87.0235L193.482 86.9239L193.564 86.8922L193.648 86.8606H193.673C193.857 86.7927 194.043 86.727 194.232 86.6682H194.263L194.65 86.5528C195.005 86.4554 195.362 86.3649 195.722 86.288L196.084 86.2156C196.244 86.1861 196.406 86.1567 196.568 86.1319C197.027 86.0572 197.491 86.0029 197.955 85.9621L198.177 85.944C198.357 85.9282 198.535 85.9191 198.712 85.9101H198.892C199.114 85.9101 199.336 85.8942 199.576 85.8942H199.609C200.621 85.8963 201.631 85.9781 202.631 86.1387C202.764 86.159 202.897 86.1839 203.03 86.2088C203.089 86.2179 203.149 86.2292 203.21 86.2427C203.654 86.331 204.098 86.4351 204.542 86.5596L204.948 86.6818C204.956 86.6798 204.965 86.6798 204.973 86.6818L205.019 86.6976L205.212 86.761H205.228C205.311 86.7882 205.393 86.8176 205.474 86.8492H205.503C205.565 86.8696 205.628 86.8945 205.692 86.9194L205.945 87.019H205.974L206.265 87.1412L206.531 87.2634L206.811 87.3947C206.995 87.483 207.179 87.5735 207.359 87.6708L207.581 87.7997L207.595 87.7862L207.657 87.8201C207.81 87.9039 207.963 87.9898 208.114 88.0826C208.265 88.1754 208.414 88.2682 208.558 88.3633L183.43 114.389L178.27 119.732L174.083 123.865L174.059 123.892L174.159 124.046C174.236 124.164 174.314 124.272 174.394 124.397V124.408L174.438 124.485L174.834 125.105C175.27 125.766 175.742 126.402 176.246 127.011C176.663 127.515 177.091 127.995 177.533 128.475C178.381 129.364 179.216 130.17 180.119 130.964L180.877 131.584C181.056 131.734 181.238 131.879 181.423 132.023C181.567 132.137 181.713 132.25 181.867 132.361L182.311 132.691C182.353 132.718 182.395 132.75 182.437 132.779C182.61 132.904 182.786 133.027 182.963 133.146L183.168 133.284L183.656 133.605L183.725 133.648C183.92 133.773 184.118 133.895 184.315 134.015C184.513 134.135 184.746 134.268 184.964 134.393C185.121 134.483 185.279 134.572 185.439 134.658C185.957 134.938 186.482 135.202 187.015 135.45C187.55 135.696 188.092 135.93 188.64 136.142L189.119 136.321C189.282 136.38 189.441 136.439 189.606 136.493L189.932 136.602L190.005 136.627L190.292 136.715L190.414 136.753L190.736 136.844L190.78 136.857L190.827 136.871L191.24 136.982C191.657 137.1 192.065 137.208 192.483 137.299C192.76 137.36 193.04 137.419 193.32 137.473L193.666 137.539H193.695L193.844 137.566L193.915 137.579H193.937H193.966H193.984L194.41 137.649C194.468 137.649 194.523 137.67 194.581 137.677L195.003 137.74L195.269 137.774C195.322 137.774 195.373 137.79 195.427 137.794C195.591 137.817 195.753 137.837 195.917 137.855L196.423 137.907H196.541C196.841 137.935 197.143 137.957 197.445 137.973H197.551L197.897 137.989C198.033 137.989 198.168 138 198.304 138H198.512H198.832H199.687H200.109H200.175C200.353 138 200.53 138 200.708 137.984H200.819H200.928H200.959C201.116 137.984 201.274 137.971 201.43 137.96H201.574L201.716 137.948H201.842H201.893L202.173 137.923H202.262L202.682 137.883C202.859 137.864 203.035 137.844 203.212 137.821L203.565 137.774L203.732 137.749H203.761L203.876 137.731L204.302 137.665H204.344L204.549 137.629L204.617 137.618L204.715 137.6L205.095 137.534L205.474 137.462C205.725 137.412 205.974 137.362 206.223 137.305C206.64 137.21 207.048 137.106 207.466 136.989C208.351 136.76 209.222 136.479 210.074 136.147C210.485 135.986 210.893 135.816 211.295 135.635C212.237 135.219 213.154 134.748 214.044 134.225L214.612 133.884C214.989 133.651 215.359 133.411 215.722 133.162C215.904 133.038 216.086 132.911 216.268 132.781L216.397 132.691C216.884 132.338 217.36 131.969 217.827 131.584L218.584 130.964C219.487 130.168 220.322 129.362 221.17 128.475C221.614 127.995 222.04 127.515 222.458 127.011C222.961 126.402 223.433 125.766 223.87 125.105L224.265 124.485L224.307 124.412L224.365 124.329L224.553 124.044L224.573 124.012L224.678 123.853L224.782 123.695L224.795 123.672C224.875 123.548 224.955 123.424 225.033 123.297L225.255 122.919C225.62 122.315 225.966 121.698 226.292 121.068C226.407 120.841 226.514 120.615 226.631 120.389C226.687 120.273 226.742 120.162 226.796 120.045C226.849 119.927 226.9 119.818 226.949 119.717C226.998 119.615 227.035 119.529 227.075 119.434C227.115 119.339 227.157 119.248 227.2 119.153V119.135C227.2 119.121 227.2 119.108 227.215 119.096C227.282 118.943 227.348 118.789 227.413 118.644L227.473 118.499C227.513 118.399 227.557 118.302 227.597 118.202L227.61 118.169L227.652 118.214L227.99 117.159C228.085 116.894 228.176 116.63 228.265 116.363C228.266 116.35 228.266 116.337 228.265 116.324C228.312 116.188 228.356 116.05 228.398 115.915C228.418 115.853 228.438 115.792 228.456 115.731C228.457 115.72 228.457 115.708 228.456 115.697L228.489 115.589C228.525 115.475 228.56 115.362 228.592 115.247C228.603 115.217 228.609 115.19 228.618 115.161C228.627 115.135 228.634 115.108 228.64 115.082C228.665 114.998 228.689 114.912 228.711 114.826C228.734 114.74 228.76 114.658 228.782 114.572L228.842 114.346C228.843 114.331 228.843 114.316 228.842 114.301C228.885 114.15 228.925 113.992 228.962 113.826C228.991 113.719 229.016 113.613 229.038 113.507C229.038 113.486 229.038 113.466 229.053 113.443C229.071 113.373 229.087 113.303 229.102 113.233L229.115 113.172L229.129 113.108C229.13 113.094 229.13 113.08 229.129 113.065C229.144 112.997 229.158 112.929 229.173 112.862C229.195 112.755 229.218 112.651 229.238 112.547C229.249 112.495 229.26 112.441 229.269 112.389C229.288 112.297 229.306 112.204 229.322 112.11L229.349 111.965C229.366 111.875 229.384 111.782 229.4 111.691C229.428 111.526 229.457 111.359 229.484 111.194C229.484 111.126 229.504 111.058 229.515 110.99C229.515 110.986 229.515 110.982 229.515 110.979C229.551 110.752 229.584 110.526 229.613 110.284C229.613 110.261 229.613 110.241 229.613 110.218C229.642 109.992 229.668 109.766 229.693 109.539C229.717 109.313 229.739 109.087 229.759 108.86C229.779 108.634 229.799 108.385 229.813 108.147C229.813 107.998 229.832 107.846 229.839 107.695C229.839 107.665 229.839 107.634 229.839 107.604C229.84 107.597 229.84 107.589 229.839 107.582C229.859 107.154 229.872 106.726 229.875 106.296C229.875 106.203 229.875 106.106 229.875 106.011V105.966C229.875 105.821 229.875 105.678 229.875 105.534L229.999 105.461Z" fill="white"/>
</g>
</g>
</svg>
