<svg width="49" height="49" viewBox="0 0 49 49" fill="none" xmlns="http://www.w3.org/2000/svg">
<path d="M49 24.5C49 38.031 38.031 49 24.5 49C10.969 49 0 38.031 0 24.5C0 10.969 10.969 0 24.5 0C38.031 0 49 10.969 49 24.5Z" fill="#0074F0"/>
<path d="M43.256 24.4761C43.256 24.4433 43.256 24.4104 43.256 24.3776V24.3489C43.256 24.186 43.256 24.0245 43.256 23.863C43.256 23.6399 43.2437 23.4182 43.2314 23.1952C43.2314 23.1021 43.2205 23.0077 43.2137 22.9146C43.215 22.8882 43.215 22.8616 43.2137 22.8352C43.2137 22.7558 43.2027 22.6778 43.1959 22.5984C43.1959 22.567 43.1959 22.5369 43.1877 22.5054C43.1795 22.4041 43.17 22.3042 43.159 22.2029V22.1933L43.1222 21.8649C43.0962 21.6487 43.0676 21.4324 43.0321 21.2176C43.0327 21.2043 43.0327 21.1911 43.0321 21.1779C42.9493 20.6386 42.8423 20.104 42.7112 19.5739L42.6539 19.3426C42.6266 19.2399 42.5993 19.1359 42.5706 19.0333C42.5365 18.9046 42.4996 18.7774 42.4614 18.6515V18.62C42.4478 18.5693 42.4327 18.5201 42.4177 18.4708C42.4027 18.4215 42.3959 18.3942 42.3836 18.3558C42.3713 18.3175 42.3618 18.2792 42.3495 18.2409L42.1829 17.7386L41.8976 16.8545L41.8593 16.8942C41.7037 16.5073 41.5362 16.1255 41.3569 15.7487L35.2052 22.0127C35.2525 22.2755 35.2907 22.5396 35.3199 22.8051C35.3115 22.9673 35.3281 23.1297 35.369 23.2868C35.4031 23.7248 35.425 24.1354 35.425 24.5323C35.425 24.7704 35.425 24.9784 35.4154 25.181C35.4154 25.2261 35.4154 25.2727 35.4154 25.3178C35.4086 25.4054 35.4004 25.4944 35.3895 25.5847L35.4045 25.5997C35.4045 25.6545 35.4045 25.7093 35.4045 25.7654C35.3758 25.9315 35.3571 26.0992 35.3485 26.2676V26.4729C35.3349 26.6207 35.3116 26.7675 35.2789 26.9122C35.1859 27.4476 35.0606 27.9769 34.9035 28.4971L34.7301 28.9993C34.7069 29.065 34.6823 29.1362 34.6563 29.1991C34.6441 29.2306 34.6332 29.2621 34.6209 29.2922L34.584 29.3853L34.5758 29.4072C34.543 29.4879 34.5089 29.5686 34.4734 29.6508C34.2987 30.0326 34.1389 30.3651 33.9724 30.6621L33.9041 30.7894C33.8809 30.8319 33.8563 30.8729 33.8318 30.9153L33.7744 31.0098L33.7157 31.1028L33.6734 31.1685C33.5585 31.3611 33.4337 31.5475 33.2993 31.7269L33.1628 31.9158C33.0263 32.1033 32.8761 32.2867 32.7273 32.4632C32.6426 32.5686 32.5539 32.6726 32.4542 32.7739L32.4256 32.8067L32.4064 32.8272C32.3054 32.9395 32.203 33.0517 32.0993 33.1612C32.0283 33.2364 31.9545 33.3104 31.8822 33.3843C31.8112 33.4568 31.7375 33.5293 31.6638 33.5978C31.6242 33.6375 31.5832 33.6758 31.5422 33.7141C31.5013 33.7524 31.4603 33.7921 31.4194 33.8277L31.4098 33.8373L31.2296 34.0001C31.1927 34.0343 31.1559 34.0672 31.1177 34.0973C31.0794 34.1274 31.0344 34.1698 30.9907 34.2054L30.8173 34.3505L30.6221 34.4983L30.4446 34.6256L30.3627 34.6817L30.349 34.6913L30.3217 34.7104C30.2234 34.7761 30.1251 34.8404 30.0255 34.9034C29.9258 34.9664 29.8248 35.0266 29.7224 35.0854L29.508 35.2059L29.4316 35.2469L29.3565 35.2866L29.276 35.3276L29.0411 35.444L28.8022 35.5535L28.7476 35.5767L28.5524 35.6602L28.4568 35.6985L28.2821 35.7656L28.1455 35.8162L28.0759 35.8409L27.9558 35.8819L27.9298 35.8901L27.7524 35.9476L27.5735 36.001L27.3933 36.0516C27.2008 36.1023 27.0056 36.1474 26.8103 36.1885L26.7393 36.2022C26.566 36.235 26.3926 36.2638 26.2178 36.2884L25.6622 36.3527C25.2771 36.3985 24.8894 36.4173 24.5017 36.4088C23.8807 36.4105 23.2605 36.3647 22.6464 36.272C22.2982 36.2077 21.8955 36.1351 21.6047 36.0516L21.4968 36.0229L21.4627 36.0133L21.3153 35.9709L21.1651 35.9244L21.0504 35.8874L20.8729 35.8258L20.7801 35.793L20.6845 35.7588H20.6135C20.3316 35.6504 20.0555 35.5275 19.7862 35.3906L19.5514 35.2729L19.5432 35.2811L19.4067 35.21L19.3807 35.1963L19.2442 35.1155C19.1445 35.0594 19.0449 34.9992 18.9466 34.9376L40.034 13.4618L40.0668 13.4289L39.9016 13.1798C39.7337 12.9335 39.5603 12.6927 39.3814 12.4545L39.3705 12.4394C39.3309 12.3765 39.2872 12.3163 39.2422 12.2547C39.2081 12.2054 39.1726 12.1562 39.1357 12.1083L39.0975 12.0549L39.051 11.9947L39.0183 11.9509L38.9582 11.8756L38.9091 11.8126L38.8695 11.7634L38.8572 11.7469L38.8135 11.6949C38.7725 11.6443 38.7302 11.595 38.6865 11.5444C38.6815 11.5372 38.676 11.5304 38.6701 11.5239C38.6073 11.45 38.5445 11.3747 38.4804 11.3008C38.352 11.153 38.2205 11.0052 38.0858 10.8574C38.0176 10.7821 37.9493 10.7082 37.8783 10.6329C37.5438 10.288 37.2175 9.96778 36.8899 9.66396C36.7534 9.54352 36.6278 9.42448 36.4953 9.30815L36.2946 9.13296L35.8223 8.75112L35.6202 8.58964L35.5342 8.52258C35.4782 8.47742 35.4209 8.43362 35.3635 8.38572C35.3062 8.33782 35.2584 8.30496 35.2052 8.26664C35.1519 8.22832 35.0687 8.16264 34.9949 8.11201L34.9471 8.07916C34.8721 8.02715 34.7983 7.97376 34.7219 7.92175L34.6127 7.84647L34.554 7.80815C34.4966 7.76846 34.4379 7.72879 34.3778 7.69047L34.326 7.65626L34.2973 7.63845C34.2427 7.6015 34.1867 7.56594 34.1307 7.53173L34.027 7.466L34.012 7.45782L33.7922 7.32096L33.7294 7.28401L33.6543 7.23883L33.5969 7.20599L33.3689 7.06913L33.3171 7.04039C33.2365 6.99523 33.156 6.95007 33.074 6.90353L32.9553 6.84059L32.9048 6.81456L32.8365 6.77901L32.7914 6.75572L32.685 6.70236L32.6208 6.66951C32.5965 6.65583 32.5714 6.64349 32.5457 6.63256C32.4911 6.60382 32.4351 6.5778 32.3791 6.55043L32.3354 6.50663H32.2836L32.147 6.44368C32.1184 6.42862 32.0911 6.4163 32.061 6.40398L31.9873 6.37114L31.8508 6.3123L31.8303 6.30271H31.8167L31.661 6.23702L31.59 6.20691C31.5341 6.18228 31.4781 6.15901 31.4207 6.13711C31.4085 6.13711 31.3948 6.12618 31.3825 6.12071L31.3347 6.10153L31.0767 6.00163C30.8328 5.91039 30.5857 5.82327 30.3354 5.74024C30.1483 5.67865 29.9599 5.62117 29.7715 5.56643L29.4876 5.48704L29.2036 5.41313L28.9169 5.3447H28.8978L28.6698 5.29408L28.6288 5.28449L28.3394 5.22565C28.3261 5.2216 28.3123 5.21884 28.2984 5.21743L28.0486 5.17092L27.9735 5.12986H27.8534C27.3179 5.02974 26.7774 4.95892 26.2342 4.91772C26.1714 4.90951 26.1072 4.90131 26.0431 4.89583H26.0349C25.9694 4.89583 25.8984 4.8835 25.8356 4.87939L25.7072 4.87117H25.6881C25.3427 4.85065 24.9782 4.84929 24.5795 4.84929H24.4239C23.8714 4.83653 23.3186 4.86031 22.7692 4.92046C22.2261 4.96166 21.6856 5.03248 21.1501 5.1326H21.0313L20.9548 5.175C19.9212 5.35583 18.9072 5.63539 17.9268 6.00985C17.5145 6.16586 17.1094 6.33785 16.7117 6.5258H16.6612L16.6161 6.57098C15.7139 7.00334 14.8506 7.51296 14.0358 8.0942L13.988 8.12704C13.7054 8.33096 13.4297 8.53763 13.1593 8.76208L12.687 9.14389C12.1518 9.60373 11.6385 10.0923 11.1033 10.6493C10.8248 10.9468 10.5608 11.2438 10.3115 11.5403C10.0587 11.8326 9.82342 12.1397 9.60699 12.46C9.60205 12.4647 9.5979 12.4703 9.59471 12.4764C9.53054 12.5613 9.46774 12.6475 9.40631 12.7337C9.38992 12.7528 9.37628 12.7734 9.36126 12.7939C9.34624 12.8145 9.33532 12.8295 9.3244 12.8473C9.30998 12.8651 9.29675 12.8839 9.2848 12.9034L9.26705 12.928L9.25204 12.9486L9.222 12.9924C9.16466 13.0745 9.10732 13.1566 9.05135 13.2401C9.04727 13.2448 9.0436 13.2498 9.04042 13.2551C8.98035 13.3427 8.92165 13.4317 8.86431 13.5206C8.82745 13.5754 8.79058 13.6301 8.75645 13.6862C8.73461 13.7191 8.71414 13.7506 8.69502 13.7834C8.67591 13.8163 8.63222 13.8806 8.60218 13.9299L8.52574 14.053L8.46702 14.1502C8.41788 14.2323 8.36874 14.3144 8.32232 14.3965C8.3114 14.4157 8.30046 14.4335 8.2909 14.4526C8.28135 14.4718 8.26498 14.4964 8.25406 14.5183C8.15849 14.6812 8.06838 14.8454 7.98101 15.011C7.97547 15.0203 7.97044 15.0299 7.96598 15.0398C7.93731 15.0918 7.90864 15.1451 7.88133 15.1985C7.85403 15.2519 7.8472 15.2629 7.83219 15.2957C7.81717 15.3285 7.80079 15.3532 7.78714 15.3819C7.74345 15.4654 7.70249 15.5503 7.66153 15.6351C7.63423 15.6885 7.60829 15.7432 7.58372 15.7966C7.53457 15.8979 7.48679 16.0005 7.4472 16.1032C7.42808 16.1428 7.40896 16.1839 7.39122 16.2249C7.35572 16.3016 7.32159 16.3782 7.29019 16.4563C7.26698 16.5083 7.24514 16.5603 7.22193 16.6136C7.18097 16.7122 7.14001 16.8107 7.10042 16.9106L7.06356 16.8723L6.77823 17.7564L6.61167 18.2587C6.58846 18.3353 6.56525 18.4119 6.54341 18.4886L6.52703 18.5447C6.51338 18.5858 6.50108 18.6282 6.4888 18.6706C6.48921 18.6765 6.48921 18.6825 6.4888 18.6884C6.47651 18.724 6.46696 18.7582 6.4574 18.7938L6.44512 18.8348C6.41099 18.9525 6.37821 19.0689 6.34681 19.1866L6.33453 19.2372C6.3236 19.2769 6.31405 19.3166 6.30449 19.3563C6.29494 19.396 6.27718 19.4603 6.26353 19.5137C6.26353 19.526 6.25671 19.5383 6.25398 19.5492C6.2335 19.6355 6.21165 19.7231 6.19253 19.8107C6.17615 19.8791 6.15977 19.9475 6.14612 20.0159C6.14612 20.0242 6.14612 20.0337 6.14612 20.0419C6.13657 20.0816 6.12838 20.1227 6.11882 20.1637L6.11062 20.2062L6.10244 20.2472C6.0995 20.258 6.09721 20.269 6.09561 20.2801C6.09561 20.3047 6.08469 20.328 6.08059 20.3526C6.06831 20.4101 6.05602 20.4676 6.0451 20.5264C6.04093 20.5435 6.03819 20.5609 6.0369 20.5784C6.03625 20.5875 6.03625 20.5967 6.0369 20.6058C6.01369 20.7262 5.99321 20.8453 5.97273 20.9644C5.97273 20.9863 5.96455 21.0082 5.96182 21.0301C5.9427 21.1436 5.92496 21.2572 5.90857 21.3695C5.90857 21.3996 5.89902 21.4283 5.89492 21.4584C5.89427 21.4648 5.89427 21.4712 5.89492 21.4776C5.89492 21.4995 5.89491 21.5227 5.88536 21.5446C5.8758 21.5665 5.8758 21.6131 5.87171 21.6473V21.6788C5.87247 21.6851 5.87247 21.6915 5.87171 21.6979C5.87171 21.7554 5.85669 21.8142 5.85123 21.8717C5.84576 21.9292 5.84167 21.9484 5.83758 21.9867L5.82939 22.0496C5.82939 22.0975 5.81847 22.1441 5.81438 22.1865C5.81028 22.2289 5.80344 22.2837 5.79935 22.3329C5.79935 22.3535 5.79935 22.3754 5.79935 22.3959C5.79935 22.4164 5.79935 22.452 5.79935 22.4794C5.79935 22.5068 5.79935 22.5656 5.78843 22.6094C5.78777 22.6126 5.78777 22.6158 5.78843 22.619C5.78843 22.6696 5.78024 22.7216 5.77751 22.7723C5.77023 22.8507 5.76477 22.9287 5.76113 23.0063C5.76113 23.0501 5.76112 23.0939 5.75293 23.1431C5.74474 23.1924 5.75293 23.191 5.75293 23.2157C5.75226 23.2211 5.75226 23.2267 5.75293 23.2321C5.75293 23.2937 5.75294 23.3539 5.74475 23.4141C5.74413 23.42 5.74413 23.426 5.74475 23.4319C5.74475 23.4456 5.74475 23.4607 5.74475 23.4744C5.74407 23.4862 5.74407 23.4981 5.74475 23.5099C5.74407 23.5195 5.74407 23.5291 5.74475 23.5387C5.74475 23.6003 5.74475 23.6605 5.74475 23.722C5.74475 23.7412 5.74475 23.759 5.74475 23.7782C5.74475 23.7973 5.74475 23.8343 5.74475 23.8616V23.8767C5.74475 23.8972 5.74475 23.9178 5.74475 23.9383C5.74475 24.0409 5.74475 24.1422 5.74475 24.2435C5.74475 24.3448 5.74475 24.405 5.74475 24.4857V24.5788C5.73929 25.003 5.74793 25.4259 5.77068 25.8475C5.77751 25.9693 5.78571 26.0911 5.7939 26.2115C5.7939 26.2977 5.80619 26.3853 5.81438 26.4715C5.83622 26.7316 5.86352 26.9911 5.89629 27.2503C5.91131 27.3652 5.92632 27.4788 5.9427 27.5938C5.9427 27.6321 5.95226 27.6718 5.95908 27.7101C5.99185 27.9318 6.02872 28.1522 6.06968 28.3725C6.24411 29.318 6.48777 30.2493 6.79871 31.1589C6.84376 31.2958 6.89154 31.4327 6.93523 31.5613L7.14275 32.1991L7.17005 32.1703C7.32842 32.5617 7.49907 32.9472 7.68201 33.3268L13.786 27.112C13.7737 27.0491 13.7614 26.9848 13.7505 26.9204C13.7178 26.7757 13.6945 26.6289 13.6809 26.4811V26.2758C13.6723 26.1074 13.6536 25.9397 13.6249 25.7736C13.6249 25.7174 13.6249 25.6627 13.6249 25.608L13.6413 25.5916C13.605 25.2415 13.5909 24.8895 13.5989 24.5377C13.5989 24.1408 13.6208 23.7303 13.6549 23.2923C13.6785 23.2149 13.6927 23.135 13.6973 23.0542C13.6973 22.9734 13.6973 22.8927 13.6973 22.812C13.7447 22.3672 13.819 21.9257 13.9198 21.4899C13.9728 21.2247 14.0398 20.9625 14.1205 20.7043L14.1478 20.6113C14.1805 20.5072 14.2147 20.4019 14.2515 20.2924C14.2816 20.2075 14.313 20.1213 14.3485 20.0296C14.3607 19.994 14.3744 19.9584 14.3894 19.9215L14.4113 19.8668C14.4525 19.7416 14.5013 19.6192 14.5573 19.5C14.5932 19.3876 14.6389 19.2786 14.6939 19.1742C14.7215 19.0981 14.7562 19.0248 14.7976 18.9553C14.8875 18.7592 14.9873 18.5677 15.0966 18.3818C15.1868 18.2005 15.289 18.0254 15.4024 17.8577C16.1731 16.6527 17.1351 15.582 18.2503 14.688L18.4455 14.5402C18.6203 14.4116 18.7982 14.2889 18.9793 14.1721C19.0026 14.157 19.0258 14.142 19.0503 14.1283C19.0749 14.1146 19.0886 14.105 19.1077 14.0913H19.1159C19.133 14.0794 19.1508 14.0684 19.1691 14.0585L19.2019 14.0379C19.2183 14.027 19.236 14.0174 19.2538 14.0078L19.2893 13.9873C19.3807 13.9326 19.4722 13.8806 19.5623 13.8313L19.5787 13.8217C19.5952 13.8108 19.6126 13.8012 19.6306 13.793L19.7275 13.741C19.7603 13.7232 19.7917 13.7067 19.8244 13.6917L19.9009 13.6534L19.9446 13.6329L19.9964 13.6069L20.178 13.522C20.1899 13.5144 20.2028 13.5084 20.2163 13.5042C20.2339 13.4949 20.2522 13.4867 20.2709 13.4796C20.2904 13.4698 20.3104 13.4611 20.3309 13.4536C20.3814 13.4303 20.4333 13.4084 20.4838 13.3879L20.5071 13.3783L20.6436 13.3263L20.7992 13.2661L20.8497 13.2469L20.9016 13.2278H20.9166C21.0299 13.1867 21.1446 13.147 21.2606 13.1114H21.2798L21.5173 13.0416C21.7358 12.9828 21.9556 12.928 22.1767 12.8815L22.3993 12.8377C22.4976 12.8199 22.5972 12.8021 22.6969 12.7871C22.9795 12.7419 23.2648 12.7091 23.5502 12.6844L23.6867 12.6735C23.7973 12.6639 23.9065 12.6584 24.0157 12.653H24.1263C24.2628 12.653 24.3993 12.6434 24.5468 12.6434H24.5673C25.1895 12.6446 25.8107 12.6941 26.4253 12.7912C26.5073 12.8035 26.5892 12.8186 26.6711 12.8336C26.7075 12.8391 26.7444 12.8459 26.7817 12.8541C27.0547 12.9075 27.3278 12.9705 27.6008 13.0457L27.8506 13.1196C27.8556 13.1184 27.8607 13.1184 27.8657 13.1196L27.8943 13.1292L28.0131 13.1675H28.0227C28.0736 13.184 28.1241 13.2017 28.1742 13.2209H28.192C28.2302 13.2332 28.2684 13.2483 28.308 13.2633L28.4636 13.3236H28.4814L28.6602 13.3975L28.8241 13.4714L28.9961 13.5508C29.1094 13.6041 29.2227 13.6589 29.3333 13.7177L29.4698 13.7957L29.478 13.7875L29.5162 13.808C29.6104 13.8587 29.7046 13.9107 29.7975 13.9668C29.8903 14.0229 29.9818 14.079 30.0705 14.1365L11.4446 33.1064L8.86976 35.6055L8.85475 35.6219L8.91619 35.715C8.96398 35.7861 9.01175 35.8518 9.0609 35.9271V35.9339L9.08821 35.9805L9.33121 36.3555C9.59984 36.7549 9.88971 37.1395 10.1995 37.5078C10.4562 37.813 10.7197 38.1032 10.9913 38.3933C11.5129 38.9311 12.0262 39.4184 12.5818 39.8987L13.0474 40.2737C13.158 40.3641 13.2699 40.4516 13.3832 40.5392C13.472 40.6077 13.5621 40.6761 13.6563 40.7431L13.9293 40.9429C13.9553 40.9594 13.9812 40.9785 14.0071 40.9963C14.1136 41.072 14.2215 41.146 14.3307 41.218L14.4563 41.3015L14.7567 41.4959L14.799 41.5219C14.9191 41.5971 15.0406 41.671 15.1621 41.7436C15.2837 41.8161 15.427 41.8969 15.5608 41.9721C15.6577 42.0269 15.7547 42.0802 15.8529 42.1322C16.1715 42.3019 16.4946 42.4616 16.8223 42.6112C17.1513 42.7604 17.4844 42.9014 17.8216 43.03L18.1165 43.1382C18.2162 43.1737 18.3145 43.2093 18.4155 43.2422L18.6162 43.3079L18.6612 43.3229L18.8374 43.3763L18.9124 43.3996L19.1104 43.4543L19.1377 43.4625L19.1664 43.4707L19.4203 43.5378C19.677 43.6089 19.9282 43.6747 20.1848 43.7294C20.3555 43.7664 20.5275 43.8019 20.6995 43.8348L20.9125 43.8744H20.9303L21.0217 43.8909L21.0654 43.8991H21.1077L21.3699 43.9415C21.4054 43.9415 21.4395 43.9538 21.475 43.9579L21.7344 43.9963L21.8982 44.0168C21.931 44.0168 21.9624 44.0264 21.9951 44.0291C22.0962 44.0428 22.1958 44.0551 22.2969 44.0661L22.6081 44.0975H22.6805C22.8648 44.114 23.0505 44.1277 23.2362 44.1372H23.3017L23.5147 44.1468C23.5979 44.1468 23.6812 44.1536 23.7645 44.1536H24.9154C25.0246 44.1536 25.1338 44.1536 25.243 44.1441H25.3973C25.4943 44.1441 25.5912 44.1359 25.6867 44.129H25.7755L25.8629 44.1222H25.9721L26.1441 44.1071H26.1987L26.4567 44.0825C26.566 44.0715 26.6738 44.0592 26.783 44.0455L27.0001 44.0168L27.1025 44.0017H27.1202L27.1912 43.9908L27.4534 43.9511H27.4793L27.6049 43.9292L27.6472 43.9224L27.7073 43.9114L27.9408 43.8717L28.1742 43.8279C28.3285 43.7978 28.4814 43.7677 28.6343 43.7335C28.891 43.676 29.1422 43.6131 29.3988 43.5419C29.943 43.4037 30.4786 43.2337 31.003 43.0328C31.2556 42.9356 31.5068 42.833 31.7539 42.7235C32.3329 42.4715 32.8971 42.1868 33.444 41.8709L33.7935 41.6642C34.0256 41.5237 34.2532 41.3782 34.4761 41.2276C34.5881 41.1528 34.7 41.0761 34.812 40.9977L34.8912 40.9429C35.1906 40.7295 35.4837 40.5064 35.7704 40.2737L36.2359 39.8987C36.7916 39.417 37.3049 38.9298 37.8264 38.3933C38.0995 38.1032 38.3616 37.813 38.6183 37.5078C38.9281 37.1395 39.2179 36.7549 39.4866 36.3555L39.7296 35.9805L39.7555 35.9367L39.791 35.886L39.9071 35.7136L39.9193 35.6944L40.0477 35.5028L40.0559 35.4891C40.105 35.4139 40.1542 35.3386 40.2019 35.262L40.3385 35.0334C40.5633 34.6685 40.7758 34.2953 40.976 33.9139C41.047 33.777 41.1126 33.6402 41.1849 33.5033C41.219 33.4335 41.2532 33.3665 41.2859 33.2953C41.3187 33.2242 41.3501 33.1584 41.3801 33.0968C41.4102 33.0353 41.4334 32.9833 41.458 32.9258C41.4825 32.8683 41.5085 32.8136 41.5344 32.7561V32.7451C41.5344 32.7369 41.5344 32.7287 41.544 32.7219C41.5849 32.6288 41.6259 32.5357 41.6655 32.4481L41.7023 32.3606C41.7269 32.3003 41.7542 32.2415 41.7788 32.1813L41.787 32.1608L41.8129 32.1881L42.0204 31.5504C42.0791 31.3902 42.1351 31.2301 42.1897 31.0686C42.1903 31.0609 42.1903 31.0531 42.1897 31.0453C42.2184 30.9632 42.2457 30.8798 42.2716 30.7977C42.2839 30.7607 42.2962 30.7237 42.3071 30.6868C42.3078 30.68 42.3078 30.6731 42.3071 30.6662L42.3276 30.6006C42.3495 30.5321 42.3713 30.4637 42.3904 30.3939C42.3972 30.3761 42.4013 30.3597 42.4068 30.3419C42.4122 30.3262 42.4167 30.3102 42.4204 30.294C42.4355 30.2434 42.4505 30.1914 42.4641 30.1394C42.4778 30.0873 42.4942 30.0381 42.5078 29.9861L42.5447 29.8492C42.5453 29.8401 42.5453 29.8309 42.5447 29.8218C42.5711 29.7306 42.5957 29.6348 42.6184 29.5344C42.6362 29.4701 42.6512 29.4058 42.6648 29.3415C42.6648 29.3291 42.6648 29.3168 42.6744 29.3031C42.6853 29.2607 42.6949 29.2183 42.7044 29.1759L42.7126 29.1389L42.7208 29.1006C42.7216 29.0919 42.7216 29.0832 42.7208 29.0746C42.7304 29.0335 42.7385 28.9925 42.7481 28.9514C42.7618 28.8871 42.7754 28.8241 42.7877 28.7612C42.7945 28.7297 42.8014 28.6969 42.8068 28.6654C42.8186 28.6097 42.8296 28.5536 42.8396 28.4971L42.856 28.4094C42.8669 28.3547 42.8778 28.2986 42.8874 28.2439C42.9051 28.1439 42.9229 28.0427 42.9392 27.9428C42.9392 27.9017 42.9515 27.8607 42.9584 27.8196C42.9582 27.8173 42.9582 27.815 42.9584 27.8128C42.9802 27.6759 43.0007 27.539 43.0184 27.3926C43.0184 27.3789 43.0184 27.3666 43.0184 27.3529C43.0362 27.216 43.0526 27.0792 43.0676 26.9423C43.0826 26.8055 43.0962 26.6686 43.1085 26.5318C43.1208 26.3949 43.1331 26.2444 43.1413 26.1007C43.1413 26.0103 43.1536 25.9186 43.1577 25.8269C43.1577 25.8092 43.1577 25.79 43.1577 25.7722C43.1583 25.7676 43.1583 25.7631 43.1577 25.7585C43.17 25.4999 43.1782 25.2412 43.1795 24.9812C43.1795 24.9251 43.1795 24.8662 43.1795 24.8087V24.7813C43.1795 24.6937 43.1795 24.6075 43.1795 24.5199L43.256 24.4761Z" fill="white"/>
</svg>
