<svg width="400" height="210" viewBox="0 0 400 210" fill="none" xmlns="http://www.w3.org/2000/svg">
<mask id="mask0_767_654" style="mask-type:alpha" maskUnits="userSpaceOnUse" x="0" y="0" width="400" height="210">
<path d="M0 12C0 5.37258 5.37258 0 12 0H388C394.627 0 400 5.37258 400 12V210H0V12Z" fill="#D9D9D9"/>
</mask>
<g mask="url(#mask0_767_654)">
<path d="M0 16C0 7.16344 7.16344 0 16 0H384C392.837 0 400 7.16344 400 16V210H0V16Z" fill="#0074F0"/>
<rect x="-10" width="420" height="210" fill="#F6F8FE"/>
<mask id="mask1_767_654" style="mask-type:alpha" maskUnits="userSpaceOnUse" x="-10" y="0" width="420" height="210">
<rect x="-10" width="420" height="210" fill="#F1F1F1"/>
</mask>
<g mask="url(#mask1_767_654)">
</g>
<g clip-path="url(#clip0_767_654)">
<path d="M200.501 167.002C235.019 167.002 263.002 139.019 263.002 104.501C263.002 69.9825 235.019 42 200.501 42C165.983 42 138 69.9825 138 104.501C138 139.019 165.983 167.002 200.501 167.002Z" fill="#030C17"/>
<path d="M223.257 82.5878L220.115 85.7726L200.762 105.397L188.52 92.9833C185.984 95.6202 184.307 99.0859 183.946 102.931L200.762 119.983L219.786 100.691C220.029 101.924 220.158 103.196 220.158 104.499C220.158 115.338 211.34 124.158 200.499 124.158C189.659 124.158 180.841 115.34 180.841 104.499C180.841 93.6587 189.659 84.8409 200.499 84.8409C204.952 84.8409 209.061 86.3313 212.361 88.8346L220.792 80.2855C215.297 75.6732 208.218 72.8921 200.501 72.8921C183.073 72.8921 168.894 87.0711 168.894 104.499C168.894 121.928 183.073 136.107 200.501 136.107C217.929 136.107 232.108 121.928 232.108 104.499C232.108 95.9993 228.734 88.2729 223.257 82.5862V82.5878Z" fill="white"/>
<path d="M207.824 98.3368L227.175 78.7122L234.285 85.8876L215.26 105.179L207.824 98.3368Z" fill="white"/>
<path d="M200.762 119.983L183.946 102.931C184.308 99.0857 185.984 95.6185 188.52 92.9832L200.762 105.397V119.983V119.983Z" fill="white"/>
</g>
</g>
<defs>
<clipPath id="clip0_767_654">
<rect width="125" height="125" fill="white" transform="translate(138 42)"/>
</clipPath>
</defs>
</svg>
