<svg width="48" height="48" viewBox="0 0 48 48" fill="none" xmlns="http://www.w3.org/2000/svg">
<mask id="mask0_775_3" style="mask-type:alpha" maskUnits="userSpaceOnUse" x="0" y="0" width="48" height="48">
<path fill-rule="evenodd" clip-rule="evenodd" d="M0 0H48V48H0V0Z" fill="white"/>
</mask>
<g mask="url(#mask0_775_3)">
<path fill-rule="evenodd" clip-rule="evenodd" d="M23.9196 0.000137447C37.1743 -0.0442434 47.9555 10.6648 47.9999 23.9195C48.0442 37.1743 37.3352 47.9554 24.0805 47.9999C10.8257 48.0442 0.0445773 37.3352 0.000137447 24.0804C-0.0442434 10.8257 10.6648 0.0445183 23.9196 0.000137447Z" fill="#1E313F"/>
</g>
<path opacity="0.1" fill-rule="evenodd" clip-rule="evenodd" d="M38.9998 38.8996C47.2277 30.6128 47.1864 17.2278 38.8996 8.99994C30.6128 0.772089 17.2279 0.813345 9 9.10013L38.9998 38.8996Z" fill="white"/>
<path fill-rule="evenodd" clip-rule="evenodd" d="M36.9731 16.8505L34.2443 14.0981L32.759 15.6069C32.7531 15.601 32.7472 15.5952 32.7413 15.5893L31.5331 16.8093L24.101 24.3417L19.3976 19.5735C18.4251 20.5873 17.7827 21.9193 17.6412 23.3927L24.101 29.9408L31.4094 22.5322C31.5036 23.0038 31.5508 23.4929 31.5508 23.9939C31.5508 28.155 28.1618 31.544 24.0007 31.544C19.8396 31.544 16.4507 28.155 16.4507 23.9939C16.4507 19.8328 19.8396 16.4439 24.0007 16.4439C25.7099 16.4439 27.2895 17.0156 28.5567 17.9763L31.7925 14.6934C29.6824 12.9252 26.9653 11.8525 24.0007 11.8525C17.3112 11.8525 11.8652 17.2985 11.8652 23.988C11.8652 30.6835 17.3112 36.1235 24.0007 36.1235C30.6903 36.1235 36.1362 30.6776 36.1362 23.988C36.1362 22.1491 35.7236 20.4104 34.9928 18.8486L36.9731 16.8505Z" fill="white"/>
</svg>
