<svg width="400" height="210" viewBox="0 0 400 210" fill="none" xmlns="http://www.w3.org/2000/svg">
<mask id="mask0_767_586" style="mask-type:alpha" maskUnits="userSpaceOnUse" x="0" y="0" width="400" height="210">
<path d="M0 12C0 5.37258 5.37258 0 12 0H388C394.627 0 400 5.37258 400 12V210H0V12Z" fill="#D9D9D9"/>
</mask>
<g mask="url(#mask0_767_586)">
<path d="M0 16C0 7.16344 7.16344 0 16 0H384C392.837 0 400 7.16344 400 16V210H0V16Z" fill="#0074F0"/>
<rect x="-10" width="420" height="210" fill="#F6F8FE"/>
<mask id="mask1_767_586" style="mask-type:alpha" maskUnits="userSpaceOnUse" x="-10" y="0" width="420" height="210">
<rect x="-10" width="420" height="210" fill="#F1F1F1"/>
</mask>
<g mask="url(#mask1_767_586)">
<path d="M139.493 103.798C139.405 102.34 139.186 100.892 138.838 99.4724C138.7 98.9083 138.543 98.3503 138.366 97.7982C138.297 97.5949 137.92 96.5007 137.932 96.4887C137.749 96.0403 137.554 95.5968 137.349 95.1583L130.219 102.426C130.219 102.426 130.419 104.142 130.443 104.435C130.529 105.503 130.495 106.577 130.341 107.637C129.69 112.166 126.853 116.268 122.622 118.119L122.374 118.223C121.954 118.398 121.525 118.549 121.088 118.675C117.919 119.59 114.188 119.186 111.372 117.419L135.854 92.4676L135.663 92.1687C135.466 91.8697 135.265 91.6036 135.065 91.3256V91.3077C132.33 87.4906 128.407 84.6881 123.909 83.3389C119.412 81.9897 114.593 82.17 110.209 83.8515C105.01 85.8187 100.678 90.1566 98.2715 95.1344C98.0413 95.6187 97.8231 96.109 97.6258 96.6053C96.4645 99.5943 95.9172 102.787 96.0163 105.992C96.1154 109.197 96.859 112.349 98.2028 115.261C98.2446 115.353 98.2895 115.446 98.3343 115.539L105.408 108.328C105.393 108.256 105.381 108.181 105.366 108.106C105.039 105.997 105.11 103.846 105.575 101.762C105.99 99.8828 106.806 98.1153 107.969 96.5815C109.132 95.0476 110.613 93.7839 112.311 92.8772C115.773 91.0834 120.192 91.0446 123.642 92.8952C123.752 92.955 123.86 93.0147 123.968 93.0805L124.284 93.2778L99.6737 118.211C99.8288 118.476 99.9995 118.73 100.185 118.974C100.364 119.237 100.55 119.494 100.741 119.748C101.133 120.252 101.553 120.733 102 121.189C102.334 121.536 102.678 121.877 103.022 122.215C104.024 123.199 105.126 124.076 106.311 124.831C108.698 126.349 111.364 127.377 114.153 127.856C115.906 128.16 117.692 128.234 119.465 128.074C126.434 127.432 132.919 123.141 136.434 117.084C138.731 113.05 139.794 108.431 139.493 103.798V103.798Z" fill="#0074F0"/>
<path d="M177.271 105.801C178.776 103.455 179.558 100.718 179.52 97.9313C179.566 94.9167 178.695 91.9593 177.022 89.4506C175.35 86.942 172.955 85.0003 170.155 83.8828C168.3 83.1432 166.315 82.7878 164.318 82.8379H147.012C146.739 82.8383 146.469 82.8925 146.216 82.9974C145.964 83.1024 145.735 83.256 145.542 83.4494C145.349 83.6429 145.196 83.8725 145.092 84.1251C144.988 84.3777 144.934 84.6484 144.935 84.9216V127.767H154.377V112.598H161.562L170.834 127.767H181.321L171.041 111.166C173.596 110.022 175.761 108.157 177.271 105.801V105.801ZM169.924 100.18C169.605 100.952 169.129 101.648 168.525 102.225H168.552C167.933 102.804 167.207 103.257 166.414 103.558C165.621 103.856 164.777 103.992 163.931 103.96H154.395V91.6651H164.351C165.155 91.6226 165.958 91.7528 166.707 92.047C167.456 92.3412 168.133 92.7925 168.693 93.3705C169.245 93.9553 169.675 94.6433 169.96 95.3951C170.245 96.1469 170.379 96.9476 170.353 97.7511C170.383 98.582 170.237 99.4098 169.924 100.18V100.18Z" fill="#0074F0"/>
<rect x="184.916" y="82.8333" width="9.30486" height="44.9334" fill="#0074F0"/>
<rect x="184.916" y="82.8333" width="9.30486" height="44.9334" fill="#0074F0"/>
<path d="M238.672 102.066H219.854L219.95 110.565L232.837 110.508C232.307 113.202 231.074 114.519 229.212 116.195C227.102 118.075 224.371 119.109 221.545 119.101C219.835 119.141 218.136 118.811 216.565 118.134C214.987 117.454 213.574 116.444 212.42 115.171C210.063 112.441 208.769 108.954 208.774 105.348C208.78 101.741 210.085 98.2579 212.45 95.5355C213.604 94.2641 215.016 93.253 216.592 92.5697C218.163 91.8934 219.862 91.5647 221.572 91.606C223.924 91.5702 226.227 92.2759 228.156 93.6231C229.641 94.6767 230.873 96.0477 231.762 97.6364L232.223 98.4564H241.722C241.206 96.1436 240.273 93.9441 238.969 91.9651C238.078 90.6364 237.051 89.4047 235.904 88.29C235.159 87.5683 234.365 86.8993 233.528 86.2878C230.053 83.7459 225.847 82.3977 221.542 82.4451C218.625 82.413 215.734 82.9949 213.056 84.1529C210.379 85.3109 207.975 87.0193 206 89.1669C201.897 93.5371 199.613 99.3064 199.613 105.301C199.613 111.295 201.897 117.065 206 121.435C207.978 123.584 210.386 125.292 213.067 126.45C215.748 127.608 218.643 128.188 221.563 128.154C225.699 128.235 230.936 126.289 233.172 122.976V127.687H242.381V105.84C242.381 104.842 241.989 103.884 241.288 103.173C240.946 102.822 240.538 102.544 240.086 102.353C239.635 102.163 239.15 102.065 238.661 102.066H238.672Z" fill="#0074F0"/>
<rect x="248.372" y="82.8333" width="9.30486" height="44.9334" fill="#0074F0"/>
<rect x="248.372" y="82.8333" width="9.30486" height="44.9334" fill="#0074F0"/>
<path d="M294.223 82.8423H293.646V114.829L277.764 85.7119C277.38 84.857 276.762 84.1283 275.981 83.6107C275.216 83.1025 274.318 82.832 273.399 82.8333H268.389C267.134 82.8779 265.947 83.4175 265.087 84.3341C264.17 85.3083 263.661 86.5979 263.668 87.9363V127.761H272.997V95.1585L289.093 124.876C289.484 125.731 290.108 126.46 290.894 126.977C291.659 127.488 292.558 127.763 293.478 127.767H298.149C298.793 127.762 299.429 127.627 300.018 127.369C300.608 127.111 301.139 126.735 301.58 126.266C302.498 125.292 303.006 124.002 303 122.664V82.8453H294.247L294.223 82.8423Z" fill="#0074F0"/>
</g>
</g>
</svg>
