<svg width="198" height="25" viewBox="0 0 198 25" fill="none" xmlns="http://www.w3.org/2000/svg">
<path d="M124.079 21.2551C123.592 22.1959 122.825 22.9624 121.78 23.5548C120.734 24.1471 119.445 24.4259 117.912 24.4259C116.414 24.4259 115.09 24.1471 113.905 23.5896C112.72 23.0321 111.814 22.2655 111.117 21.3248C110.42 20.3491 110.002 19.3038 109.898 18.0842H112.337C112.441 18.7811 112.685 19.4432 113.103 20.1401C113.522 20.8369 114.114 21.3944 114.915 21.8474C115.717 22.3004 116.658 22.5095 117.807 22.5095C119.271 22.5095 120.421 22.1262 121.187 21.3248C121.954 20.5233 122.372 19.5129 122.372 18.3282C122.372 17.2828 122.128 16.4466 121.605 15.7845C121.083 15.1225 120.456 14.6347 119.689 14.2862C118.922 13.9378 117.877 13.5545 116.553 13.1364C115.09 12.6834 113.905 12.2304 113.034 11.8123C112.128 11.3942 111.396 10.7321 110.769 9.89586C110.142 9.0596 109.828 7.94458 109.828 6.55082C109.828 4.77376 110.455 3.34515 111.675 2.23014C112.894 1.11512 114.602 0.557617 116.762 0.557617C118.957 0.557617 120.734 1.11512 122.024 2.19529C123.313 3.27546 124.079 4.63439 124.323 6.23722H121.849C121.64 5.26158 121.118 4.35563 120.281 3.58906C119.445 2.82249 118.26 2.4392 116.797 2.4392C115.438 2.4392 114.323 2.78765 113.522 3.48453C112.72 4.18141 112.302 5.15705 112.302 6.44629C112.302 7.45677 112.546 8.25818 113.069 8.85053C113.591 9.47773 114.184 9.9307 114.95 10.2791C115.682 10.5927 116.692 10.976 117.982 11.3942C119.445 11.8471 120.665 12.3001 121.571 12.7531C122.477 13.2061 123.278 13.8681 123.905 14.7392C124.532 15.6103 124.881 16.795 124.881 18.2585C124.811 19.3038 124.567 20.3143 124.079 21.2551ZM140.386 0.836371V2.71796H133.731V24.182H131.397V2.71796H124.776V0.836371H140.386ZM156.136 2.09076C157.843 3.10124 159.202 4.52986 160.178 6.34175C161.154 8.15365 161.641 10.2095 161.641 12.5092C161.641 14.8089 161.154 16.8647 160.178 18.6766C159.202 20.4885 157.843 21.9171 156.136 22.9276C154.429 23.9381 152.477 24.4607 150.317 24.4607C148.157 24.4607 146.205 23.9381 144.498 22.9276C142.791 21.9171 141.432 20.4885 140.456 18.6766C139.481 16.8647 138.993 14.8089 138.993 12.5092C138.993 10.2095 139.481 8.15365 140.456 6.34175C141.432 4.52986 142.791 3.13609 144.498 2.09076C146.205 1.08028 148.157 0.557617 150.317 0.557617C152.443 0.557617 154.394 1.08028 156.136 2.09076ZM145.718 3.90266C144.359 4.70408 143.279 5.81909 142.512 7.31739C141.745 8.78085 141.327 10.5231 141.327 12.4743C141.327 14.4256 141.711 16.1678 142.512 17.6313C143.279 19.0947 144.359 20.2446 145.718 21.046C147.077 21.8474 148.61 22.2307 150.317 22.2307C152.024 22.2307 153.558 21.8474 154.917 21.046C156.275 20.2446 157.356 19.1296 158.122 17.6313C158.889 16.1678 159.307 14.4256 159.307 12.4743C159.307 10.5231 158.924 8.78085 158.122 7.31739C157.356 5.85393 156.275 4.70408 154.917 3.90266C153.558 3.10124 152.024 2.71796 150.317 2.71796C148.61 2.71796 147.077 3.10124 145.718 3.90266ZM176.729 24.182L170.352 14.4604H166.554V24.182H164.22V0.836371H171.363C173.976 0.836371 175.962 1.46357 177.252 2.68311C178.541 3.90266 179.203 5.57518 179.203 7.66583C179.203 9.61711 178.645 11.1503 177.565 12.3001C176.485 13.45 174.882 14.1469 172.826 14.3559L179.412 24.1471H176.729V24.182ZM166.554 12.6834H171.189C174.952 12.6834 176.834 11.0457 176.834 7.80521C176.834 4.49501 174.952 2.85733 171.189 2.85733H166.554V12.6834ZM197.357 0.836371L189.83 15.0876V24.182H187.496V15.0528L179.935 0.836371H182.618L188.646 12.5789L194.674 0.836371H197.357Z" fill="black"/>
<path d="M37.0045 24.0425L32.3354 16.0283C32.2309 16.0283 32.1612 16.0283 32.0567 16.0283H28.5374V24.0425H23.8683V0.592351H32.0915C37.8756 0.592351 41.2904 3.69348 41.2904 8.43229C41.2904 11.6728 39.7224 13.9725 36.8652 15.1572L42.2312 24.0425H37.0045ZM28.5374 11.8819H32.6839C35.2623 11.8819 36.4819 10.2093 36.4819 8.43229C36.4819 6.58555 35.2623 4.94788 32.6839 4.94788H28.5374V11.8819ZM44.3567 24.0425V0.592351H49.0258V24.0425H44.3567ZM70.5943 21.6034C69.3051 23.032 66.5524 24.5303 63.4861 24.5303C56.7612 24.5303 51.3255 19.4082 51.3255 12.3348C51.3255 5.26147 56.7612 0.139377 63.4861 0.139377C68.1552 0.174221 72.023 2.57847 74.1485 6.34164L69.3748 7.56119C68.0856 5.81898 65.7858 4.70397 63.4861 4.70397C59.0958 4.70397 56.1688 7.87479 56.1688 12.3348C56.1688 17.004 59.4094 19.9657 63.7649 19.9657C67.772 19.9657 69.8975 17.7705 70.6292 15.9586V14.9482H64.1133V11.1501H74.6014V24.0425H70.5943C70.5943 22.0912 70.6292 21.6382 70.6292 21.6034H70.5943ZM77.9116 24.0425V0.592351H82.5807V24.0425H77.9116ZM106.588 0.592351V24.0425H102.198L95.5428 14.983C93.4173 12.0909 90.8388 8.43229 90.8388 8.43229H90.804C90.7691 8.43229 90.8388 11.8122 90.8388 16.4813V24.0773H86.1697V0.592351H90.5601L97.3547 9.75637C98.9575 11.8819 101.919 16.0632 101.954 16.0632H101.989C102.024 16.0632 101.954 12.2303 101.954 8.29292V0.592351H106.588ZM20.5232 6.02804L16.7252 9.82606C16.8646 10.5926 16.9691 11.3941 16.9691 12.3C16.9691 17.1085 14.7043 19.9657 10.9411 19.9657C9.37309 19.9657 8.04901 19.4779 7.03853 18.5023L20.2096 5.33116C19.8612 4.70397 19.4431 4.14646 19.0249 3.58895C18.8159 3.34504 18.6416 3.17082 18.4326 2.92691C18.3977 2.89207 18.3629 2.85722 18.328 2.85722C18.2584 2.85722 18.1887 2.78754 18.119 2.71785C16.2026 0.940793 13.7286 0 10.9411 0C7.66572 0 4.87819 1.25439 2.89207 3.6238C1.01048 5.85382 0 8.92011 0 12.3C0 14.53 0.452974 16.6555 1.32408 18.4674L5.15694 14.6346C5.01756 13.9028 4.94788 13.1363 4.94788 12.2652C4.94788 10.07 5.40085 8.25807 6.3068 6.93399C7.35213 5.40085 8.95496 4.56459 10.9759 4.56459C12.5439 4.56459 13.8331 5.05241 14.8436 5.9932L1.63768 19.1643C1.98612 19.8263 2.40425 20.4535 2.89207 20.9762C2.9966 21.0807 3.10113 21.1853 3.17082 21.2898C3.27535 21.4292 3.41473 21.5337 3.51926 21.6382C3.55411 21.6731 3.55411 21.6731 3.55411 21.6731C3.58895 21.7079 3.6238 21.7428 3.65864 21.7776C5.57507 23.5895 8.04901 24.5652 10.9062 24.5652C14.1816 24.5652 16.9343 23.3108 18.9552 20.9414C20.8368 18.7113 21.8822 15.6102 21.8822 12.2652C21.917 10.0351 21.4292 7.87479 20.5232 6.02804Z" fill="#0074F0"/>
</svg>
