<svg width="196" height="24" viewBox="0 0 196 24" fill="none" xmlns="http://www.w3.org/2000/svg">
<g clip-path="url(#clip0_627_194)">
<path d="M74.3403 10.225C74.5947 10.2251 74.8466 10.2761 75.0811 10.3749C75.3163 10.474 75.5292 10.6193 75.7073 10.802C76.0724 11.1723 76.2769 11.6716 76.2766 12.1916V23.5762H71.4779V21.1215C70.3129 22.8479 67.5837 23.8616 65.4284 23.8195C63.9067 23.8374 62.3983 23.5349 61.0011 22.9317C59.604 22.3285 58.3493 21.4381 57.3188 20.3183C55.1806 18.041 53.9905 15.0346 53.9905 11.9108C53.9905 8.78709 55.1806 5.78069 57.3188 3.50338C58.3476 2.38425 59.6003 1.49405 60.9956 0.890594C62.3908 0.28714 63.8974 -0.0160707 65.4175 0.000656239C67.6611 -0.0240261 69.8524 0.678499 71.6634 2.0031C72.0999 2.32175 72.5136 2.67037 72.9017 3.04643C73.4994 3.6273 74.0347 4.26917 74.4987 4.96155C75.1781 5.99277 75.6642 7.13897 75.9334 8.34419H70.9835L70.7433 7.91687C70.2798 7.08896 69.6379 6.37458 68.8641 5.82553C67.8592 5.12351 66.6587 4.75574 65.4331 4.7744C64.542 4.75289 63.6567 4.92419 62.838 5.27657C62.017 5.63269 61.2812 6.15954 60.6796 6.82207C59.4472 8.24075 58.7672 10.056 58.7644 11.9352C58.7615 13.8145 59.4359 15.6318 60.664 17.0542C61.2652 17.7175 62.0018 18.244 62.824 18.5982C63.6426 18.9512 64.5278 19.123 65.419 19.1019C66.8919 19.1065 68.3147 18.5672 69.4146 17.5876C70.3846 16.7142 71.0271 16.028 71.3032 14.6244L64.5878 14.6541L64.5379 10.225H74.3403Z" fill="#0074F0"/>
<path d="M22.3204 8.87359C22.5018 9.61322 22.616 10.3677 22.6616 11.1279C22.8187 13.5419 22.2646 15.9489 21.0679 18.0512C19.2357 21.2076 15.8566 23.4431 12.2252 23.7781C11.3013 23.8611 10.3707 23.8229 9.45676 23.6644C8.00362 23.4148 6.61458 22.8789 5.37036 22.0878C4.75314 21.6944 4.17878 21.2375 3.65666 20.7246C3.4775 20.5486 3.29835 20.371 3.12386 20.1902C2.89128 19.9525 2.67231 19.7018 2.46798 19.4393C2.36828 19.3069 2.27168 19.1729 2.17821 19.0358C2.08161 18.9088 1.99265 18.7762 1.91181 18.6386L14.7365 5.64561L14.5714 5.54279C14.5153 5.50851 14.4592 5.47736 14.4016 5.4462C12.6037 4.48185 10.3011 4.5021 8.49709 5.43685C7.61234 5.90931 6.84046 6.56784 6.23454 7.36713C5.62862 8.16641 5.20305 9.08748 4.98712 10.067C4.74467 11.1524 4.70768 12.2737 4.87807 13.3728C4.88164 13.3907 4.88488 13.4085 4.88809 13.4262C4.89189 13.4471 4.89566 13.4679 4.89988 13.4881L1.21386 17.2458C1.19051 17.1975 1.16711 17.1492 1.14532 17.1009C0.4451 15.5837 0.0576068 13.941 0.00594852 12.2708C-0.0457097 10.6006 0.239526 8.93714 0.844641 7.37956C0.947463 7.12095 1.06119 6.86545 1.18115 6.61307C2.43527 4.01915 4.69267 1.75863 7.40188 0.733525C9.68653 -0.142708 12.1973 -0.236646 14.541 0.46642C16.8847 1.16949 18.9292 2.62987 20.3543 4.61895V4.62829C20.3798 4.66369 20.4053 4.69872 20.4308 4.73371C20.5096 4.84195 20.5882 4.9499 20.6659 5.06763L20.7656 5.22342L8.00791 18.2257C9.47546 19.1464 11.4197 19.3568 13.0711 18.88C13.2986 18.8142 13.5223 18.7357 13.741 18.6448L13.8703 18.5903C16.0748 17.6259 17.5532 15.4885 17.8928 13.1282C17.9727 12.5758 17.9905 12.0161 17.9458 11.4597C17.9333 11.307 17.829 10.4128 17.829 10.4128L21.5446 6.62553C21.6515 6.85403 21.7528 7.08511 21.8484 7.3188C21.8432 7.324 21.9789 7.72169 22.0449 7.9149C22.0579 7.9532 22.0683 7.98363 22.0743 8.00117C22.1667 8.28886 22.2487 8.57967 22.3204 8.87359Z" fill="#0074F0"/>
<path fill-rule="evenodd" clip-rule="evenodd" d="M43.52 8.07054C43.54 9.52281 43.1325 10.9489 42.3481 12.1713C41.5611 13.3994 40.4328 14.371 39.1016 14.9672L44.4588 23.6178H38.9937L34.1622 15.7135H30.4182V23.6178H25.4975V1.29118C25.4973 1.1488 25.5252 1.00776 25.5795 0.876135C25.6338 0.744508 25.7135 0.624866 25.814 0.524038C25.9145 0.42321 26.034 0.343172 26.1654 0.288493C26.2969 0.233815 26.4379 0.205566 26.5802 0.20536H35.5985C36.6388 0.17924 37.6735 0.364469 38.6401 0.749836C40.0992 1.3322 41.3471 2.34399 42.2186 3.65126C43.09 4.95852 43.5438 6.49963 43.52 8.07054ZM37.7905 10.3079C38.1052 10.0075 38.3536 9.64454 38.5196 9.24241C38.6826 8.841 38.7589 8.40963 38.7433 7.97666C38.7566 7.55792 38.687 7.14069 38.5386 6.74894C38.3901 6.35719 38.1656 5.99865 37.8781 5.69393C37.5864 5.39272 37.2336 5.15755 36.8433 5.00425C36.453 4.85095 36.0344 4.78309 35.6157 4.80525H30.4276V11.2122H35.3967C35.8376 11.229 36.2775 11.1577 36.6906 11.0026C37.1037 10.846 37.4822 10.61 37.8046 10.3079H37.7905Z" fill="#0074F0"/>
<path d="M46.3319 0.202937H51.1807V23.6178H46.3319V0.202937Z" fill="#0074F0"/>
<path d="M79.3986 0.202937H84.2474V23.6178H79.3986V0.202937Z" fill="#0074F0"/>
<path d="M102.991 0.207632H103.292L103.304 0.209195H107.865V20.9586C107.869 21.6561 107.604 22.3281 107.125 22.8357C106.896 23.0804 106.619 23.2759 106.312 23.4103C106.004 23.5448 105.673 23.6154 105.338 23.6178H102.904C102.424 23.6158 101.956 23.4727 101.557 23.2064C101.147 22.9367 100.822 22.5573 100.618 22.1115L92.2309 6.62565V23.6147H87.3693V2.86212C87.366 2.16469 87.6309 1.49267 88.1092 0.985052C88.557 0.507379 89.1755 0.226221 89.8298 0.202939H92.4405C92.9191 0.20226 93.3871 0.343224 93.7858 0.608073C94.1928 0.877811 94.515 1.2575 94.7149 1.70303L102.991 16.876V0.207632Z" fill="#0074F0"/>
<path d="M125.22 0.364877H115.955V23.6882H125.158C131.634 23.6882 136.53 19.3852 136.53 12.0265C136.53 4.66784 131.696 0.364877 125.22 0.364877ZM125.22 3.54533C129.744 3.54533 132.843 6.44515 132.843 12.0265C132.843 17.6079 129.682 20.5077 125.189 20.5077H119.612V3.54533H125.22Z" fill="white"/>
<path d="M146.636 7.41176C141.895 7.41176 138.331 10.6234 138.331 15.7059C138.331 20.7572 141.895 24 146.636 24C151.346 24 154.909 20.7572 154.909 15.7059C154.909 10.6234 151.346 7.41176 146.636 7.41176ZM146.636 10.4051C149.363 10.4051 151.408 12.3695 151.408 15.7059C151.408 19.0111 149.363 20.9755 146.636 20.9755C143.878 20.9755 141.864 19.0111 141.864 15.7059C141.864 12.3695 143.878 10.4051 146.636 10.4051Z" fill="white"/>
<path d="M160.977 0.134796H157.507V23.6882H160.977V0.134796Z" fill="white"/>
<path d="M167.804 0.134796H164.333V23.6882H167.804V0.134796Z" fill="white"/>
<path d="M177.487 7.41176C173.52 7.41176 171.165 10.2492 171.165 13.0555L174.667 13.1802C174.667 11.7459 175.534 10.4675 177.518 10.4675C179.47 10.4675 180.337 11.7459 180.337 13.8038V14.2716L176.557 14.4898C173.303 14.6769 170.732 15.893 170.732 19.3229C170.732 22.3162 172.87 24 176.03 24C177.796 24 179.222 23.314 180.337 22.2539V23.6882H183.839V13.7415C183.839 9.65678 181.577 7.41176 177.487 7.41176ZM180.368 16.9843V17.5456C180.368 19.9777 178.819 21.069 176.619 21.069C175.225 21.069 174.233 20.6013 174.233 19.2605C174.233 17.8262 175.41 17.2961 177.053 17.2026L180.368 16.9843Z" fill="white"/>
<path d="M195.236 7.5053C192.695 7.5053 191.301 8.69018 190.712 9.93741V7.69239H187.335V23.6882H190.805V14.9887C190.805 12.6502 192.509 10.904 195.236 10.904V7.5053Z" fill="white"/>
</g>
<defs>
<clipPath id="clip0_627_194">
<rect width="195.236" height="24" fill="white"/>
</clipPath>
</defs>
</svg>
