<svg width="182" height="24" viewBox="0 0 182 24" fill="none" xmlns="http://www.w3.org/2000/svg">
<path d="M35.4017 23.3541L30.9397 15.6818C30.8374 15.6818 30.7735 15.6818 30.684 15.6818H27.2832V23.3541H22.834V0.875218H30.684C36.1944 0.875218 39.4929 3.85959 39.4929 8.38098C39.4929 11.4678 37.9843 13.7093 35.261 14.8364L40.3878 23.3413H35.4017V23.3541ZM27.296 11.6984H31.2721C33.7396 11.6984 34.8903 10.0973 34.8903 8.39378C34.8903 6.62622 33.7013 5.05078 31.2721 5.05078H27.296V11.6984ZM42.4334 23.3541V0.875218H46.8826V23.3413H42.4334V23.3541ZM67.5176 21.0101C66.303 22.3934 63.6438 23.8024 60.7288 23.8024C54.2851 23.8024 49.0944 18.8967 49.0944 12.121C49.0944 5.34537 54.2851 0.43973 60.7288 0.43973C65.178 0.478156 68.8984 2.78368 70.9184 6.38286L66.367 7.57404C65.1524 5.90894 62.9406 4.84584 60.7288 4.84584C56.5353 4.84584 53.7482 7.86864 53.7482 12.1339C53.7482 16.5912 56.8294 19.4475 60.9845 19.4475C64.8328 19.4475 66.8528 17.3341 67.556 15.5921V14.6315H61.3425V10.9939H71.3659V23.3541H67.5176C67.5176 21.4968 67.556 21.0485 67.556 21.0101H67.5176ZM74.4982 23.3541V0.875218H78.9474V23.3413H74.4982V23.3541ZM101.922 0.875218V23.3413H97.7286L91.3489 14.6699C89.3288 11.9033 86.8613 8.38098 86.8358 8.38098H86.7974C86.7718 8.38098 86.8358 11.6215 86.8358 16.0789V23.3285H82.3866V0.875218H86.5801L93.0876 9.63621C94.6218 11.6599 97.4473 15.669 97.4729 15.669H97.5113C97.5496 15.669 97.4729 12.0058 97.4729 8.22727V0.875218H101.922ZM19.6506 6.10107L16.0196 9.73867C16.1602 10.4559 16.237 11.2501 16.237 12.1082C16.237 16.7065 14.0763 19.4603 10.4581 19.4603C8.9495 19.4603 7.68379 18.9736 6.72491 18.0514L19.3054 5.44784C18.9729 4.84584 18.5894 4.29508 18.1547 3.78274C17.9757 3.56499 17.7839 3.37287 17.5922 3.16793C17.5666 3.14232 17.541 3.1167 17.5155 3.09108C17.4515 3.03985 17.4004 2.97581 17.3365 2.92457C15.4954 1.20824 13.1558 0.311646 10.4581 0.311646C7.35138 0.311646 4.6921 1.50283 2.78713 3.76993C0.984445 5.90894 0 8.8677 0 12.1082C0 14.2601 0.43469 16.2838 1.25293 18.0257L4.90944 14.3625C4.78159 13.6709 4.71767 12.9152 4.71767 12.0954C4.71767 9.98203 5.15236 8.2657 5.99617 6.99766C6.9934 5.52469 8.54039 4.74337 10.4581 4.74337C11.954 4.74337 13.2069 5.21729 14.153 6.10107L1.59813 18.679C1.94332 19.3066 2.33966 19.8958 2.78713 20.4209C2.87663 20.5234 2.96612 20.6259 3.0684 20.7283C3.17068 20.8436 3.28575 20.9589 3.40081 21.0742C3.4136 21.087 3.42638 21.0998 3.43917 21.1126C3.47752 21.151 3.50309 21.1894 3.54145 21.2151C5.3697 22.957 7.73493 23.8792 10.4581 23.8792C13.5777 23.8792 16.237 22.688 18.1547 20.4209C19.9574 18.2819 20.9546 15.336 20.9546 12.0954C20.9546 9.91799 20.4944 7.85583 19.6506 6.10107Z" fill="#0074F0"/>
<path d="M124.688 0.903156H110.567V23.3766H124.688V20.1918H114.143V13.3417H123.366V10.2471H114.143V4.05785H124.688V0.903156Z" fill="white"/>
<path d="M134.898 20.5824C133.516 20.5824 132.344 19.9515 132.344 17.9385L132.374 10.878H136.31V7.96366H132.404L132.435 2.73588H129.039L129.009 7.96366H126.155V10.878H129.009L128.979 18.6295C128.949 22.1147 131.052 23.6169 134.087 23.6169C135.169 23.6169 135.769 23.5268 136.34 23.4367V20.4322C135.98 20.4923 135.529 20.5824 134.898 20.5824Z" fill="white"/>
<path d="M142.772 0.0318604H139.407V23.3766H142.772V14.5735C142.772 12.4403 144.214 10.8179 146.347 10.8179C148.39 10.8179 149.712 12.23 149.712 14.5434V23.3766H153.107V14.0928C153.107 10.0968 150.614 7.69325 147.098 7.69325C144.935 7.69325 143.493 8.62464 142.772 9.70625V0.0318604Z" fill="white"/>
<path d="M170.827 15.2946C170.827 10.6076 168.033 7.69325 163.617 7.69325C159.14 7.69325 155.925 10.6677 155.925 15.6851C155.925 20.6726 159.17 23.677 163.707 23.677C167.282 23.677 170.076 21.4838 170.677 18.7497L167.282 18.5694C166.862 19.9515 165.57 20.7627 163.617 20.7627C161.273 20.7627 159.681 19.2905 159.501 16.947H170.827V15.2946ZM163.587 10.5775C166.08 10.5775 167.342 12.0798 167.432 14.3031H159.531C159.681 11.8995 161.333 10.5775 163.587 10.5775Z" fill="white"/>
<path d="M181.276 7.78339C178.812 7.78339 177.46 8.92509 176.889 10.1269V7.96366H173.615V23.3766H176.98V14.9941C176.98 12.7408 178.632 11.0583 181.276 11.0583V7.78339Z" fill="white"/>
</svg>
