<svg width="400" height="210" viewBox="0 0 400 210" fill="none" xmlns="http://www.w3.org/2000/svg">
<mask id="mask0_767_631" style="mask-type:alpha" maskUnits="userSpaceOnUse" x="0" y="0" width="400" height="210">
<path d="M0 12C0 5.37258 5.37258 0 12 0H388C394.627 0 400 5.37258 400 12V210H0V12Z" fill="#D9D9D9"/>
</mask>
<g mask="url(#mask0_767_631)">
<path d="M0 16C0 7.16344 7.16344 0 16 0H384C392.837 0 400 7.16344 400 16V210H0V16Z" fill="#0074F0"/>
<rect x="-10" width="420" height="210" fill="#F6F8FE"/>
<mask id="mask1_767_631" style="mask-type:alpha" maskUnits="userSpaceOnUse" x="-10" y="0" width="420" height="210">
<rect x="-10" width="420" height="210" fill="#F1F1F1"/>
</mask>
<g mask="url(#mask1_767_631)">
</g>
<g clip-path="url(#clip0_767_631)">
<path d="M199.502 170.003C235.125 170.003 264.003 141.125 264.003 105.502C264.003 69.8784 235.125 41 199.502 41C163.878 41 135 69.8784 135 105.502C135 141.125 163.878 170.003 199.502 170.003Z" fill="#030C17"/>
<path d="M204.95 100.303C204.389 100.188 203.842 100.079 203.304 99.97C196.155 98.5351 190.988 97.4974 190.988 92.5391C190.988 89.4515 194.021 86.9916 199.492 86.9916C204.341 86.9916 208.233 88.9582 210.744 92.6801L211.119 92.7954L218.876 84.8392L218.848 84.5317C215.741 80.8515 211.852 78.2955 207.378 76.9406C206.769 76.7581 206.151 76.5947 205.523 76.457L205.472 76.4442C205.251 76.3961 205.027 76.3545 204.803 76.3096V69.2471H194.194V76.3064C193.855 76.3705 193.519 76.441 193.185 76.5178C193.166 76.521 193.147 76.5242 193.128 76.5274C188.093 77.7125 183.733 80.3518 180.306 84.3331C178.878 86.7417 178.154 89.618 178.154 92.9459C178.154 104.329 186.741 107.942 195.139 109.976C196.686 110.354 198.22 110.63 199.7 110.899C204.95 111.847 209.485 112.663 209.485 117.407C209.485 120.341 206.257 124.005 199.492 124.005C195.495 124.005 192.221 122.676 189.803 120.206C189.659 120.059 189.476 119.925 189.339 119.768L180.188 126.148L180.175 126.465C181.485 128.009 182.926 129.354 184.486 130.498C185.008 130.879 185.543 131.238 186.088 131.574L186.113 131.59C186.655 131.92 187.209 132.23 187.772 132.516C187.788 132.525 187.808 132.535 187.824 132.541C188.381 132.823 188.951 133.082 189.534 133.316C189.56 133.329 189.588 133.339 189.617 133.348C190.194 133.579 190.78 133.79 191.376 133.979C191.411 133.992 191.449 134.002 191.485 134.011C191.757 134.095 192.032 134.175 192.308 134.252C192.337 134.258 192.365 134.268 192.394 134.274C192.692 134.354 192.993 134.428 193.294 134.498C193.336 134.508 193.381 134.517 193.422 134.527C193.679 134.585 193.935 134.636 194.194 134.687V141.743H204.803V134.681C204.992 134.646 205.181 134.61 205.366 134.572C205.402 134.565 205.437 134.556 205.469 134.549C206.199 134.389 206.92 134.197 207.621 133.976H207.628C207.983 133.861 208.332 133.742 208.678 133.614C212.586 132.179 216 129.777 218.809 126.465C219.853 125.232 220.785 123.887 221.609 122.455C222.025 120.889 222.236 119.182 222.236 117.327C222.236 105.213 212.999 101.866 204.944 100.303H204.95Z" fill="white"/>
<path d="M176.712 92.9492C176.712 91.6519 176.818 90.4092 177.026 89.2273C177.013 89.2529 176.997 89.2785 176.984 89.3074C176.863 89.5348 176.744 89.759 176.629 89.9896C176.552 90.1433 176.475 90.3003 176.398 90.4572C176.289 90.6814 176.184 90.9121 176.081 91.1395C176.011 91.2932 175.94 91.4502 175.873 91.6071C175.761 91.8698 175.652 92.1356 175.546 92.4047C175.498 92.5296 175.444 92.6513 175.396 92.7762C175.248 93.1605 175.107 93.5513 174.976 93.9421C174.931 94.0702 174.893 94.2015 174.851 94.3328C174.762 94.6147 174.672 94.8934 174.589 95.1784C174.541 95.3386 174.496 95.4987 174.454 95.6589C174.38 95.9247 174.31 96.1906 174.243 96.4596C174.201 96.6198 174.163 96.7799 174.124 96.9433C174.054 97.2379 173.99 97.5358 173.926 97.8337C173.897 97.9682 173.868 98.0995 173.842 98.2341C173.759 98.6633 173.679 99.0957 173.608 99.5345C173.596 99.6178 173.586 99.7042 173.573 99.7875C173.519 100.146 173.468 100.508 173.423 100.873C173.403 101.024 173.387 101.178 173.371 101.331C173.339 101.636 173.307 101.943 173.282 102.251C173.269 102.414 173.256 102.574 173.243 102.737C173.221 103.058 173.202 103.378 173.189 103.698C173.182 103.842 173.173 103.983 173.17 104.128C173.154 104.589 173.144 105.056 173.144 105.524C173.144 105.992 173.154 106.485 173.173 106.959C173.179 107.116 173.189 107.273 173.198 107.427C173.215 107.744 173.231 108.061 173.253 108.375C173.266 108.564 173.285 108.753 173.301 108.945C173.327 109.22 173.352 109.496 173.381 109.771C173.403 109.976 173.429 110.178 173.455 110.383C173.487 110.636 173.522 110.892 173.56 111.142C173.592 111.357 173.628 111.568 173.663 111.779C173.701 112.016 173.746 112.25 173.791 112.487C173.833 112.708 173.874 112.929 173.919 113.147C173.964 113.365 174.015 113.583 174.063 113.797C174.115 114.025 174.166 114.255 174.223 114.483C174.271 114.675 174.323 114.861 174.374 115.05C174.441 115.296 174.505 115.543 174.576 115.79C174.592 115.85 174.614 115.908 174.63 115.966C174.835 116.651 175.063 117.324 175.309 117.984C175.332 118.045 175.354 118.109 175.377 118.166C175.489 118.458 175.607 118.746 175.726 119.031C175.77 119.14 175.812 119.249 175.86 119.355C175.979 119.63 176.104 119.905 176.229 120.174C176.28 120.287 176.331 120.399 176.382 120.508C176.51 120.777 176.645 121.042 176.783 121.308C176.837 121.414 176.892 121.517 176.946 121.622C177.087 121.888 177.234 122.154 177.385 122.417C177.436 122.509 177.49 122.599 177.545 122.689C177.705 122.958 177.865 123.227 178.032 123.49C178.073 123.557 178.118 123.624 178.163 123.688C178.346 123.97 178.531 124.252 178.724 124.524C179.188 125.187 179.675 125.825 180.191 126.436L189.79 120.187C187.071 117.404 185.443 113.173 185.094 107.766C180.344 105.008 176.712 100.575 176.712 92.9459V92.9492Z" fill="white"/>
<path d="M225.83 103.977C225.823 103.82 225.811 103.666 225.804 103.509C225.788 103.179 225.772 102.853 225.747 102.526C225.734 102.337 225.711 102.148 225.695 101.959C225.67 101.671 225.644 101.383 225.612 101.094C225.59 100.889 225.561 100.691 225.535 100.489C225.5 100.22 225.465 99.9508 225.423 99.6849C225.391 99.4768 225.356 99.2686 225.317 99.0604C225.273 98.8041 225.231 98.5511 225.183 98.2981C225.141 98.0867 225.096 97.8753 225.052 97.6639C225 97.4204 224.946 97.177 224.891 96.9368C224.84 96.7254 224.789 96.514 224.734 96.3026C224.674 96.0688 224.613 95.835 224.549 95.6011C224.491 95.3898 224.43 95.1784 224.366 94.967C224.299 94.7395 224.228 94.5153 224.158 94.2943C224.091 94.0829 224.02 93.8747 223.95 93.6665C223.876 93.4487 223.796 93.2341 223.716 93.0195C223.639 92.8114 223.562 92.6032 223.482 92.3982C223.399 92.19 223.312 91.9818 223.226 91.7768C223.139 91.5718 223.053 91.3668 222.963 91.165C222.874 90.9632 222.781 90.7678 222.688 90.5693C222.592 90.3675 222.499 90.1657 222.4 89.9671C222.303 89.7749 222.201 89.586 222.102 89.397C221.999 89.1984 221.897 88.9998 221.788 88.8076C221.685 88.6219 221.576 88.4425 221.471 88.2631C221.359 88.0709 221.246 87.8756 221.131 87.6866C221.022 87.5104 220.907 87.3439 220.798 87.1709C220.449 86.6328 220.087 86.1075 219.703 85.6014C219.427 85.2395 219.145 84.884 218.854 84.5413L210.747 92.6896C212.326 95.0278 213.338 97.9778 213.755 101.507C219.126 104.035 223.681 108.583 223.681 117.337C223.681 117.542 223.677 117.747 223.671 117.952C223.684 117.913 223.703 117.878 223.716 117.839C223.764 117.711 223.809 117.58 223.857 117.452C223.979 117.116 224.091 116.773 224.2 116.43C224.251 116.267 224.302 116.107 224.353 115.94C224.414 115.735 224.475 115.53 224.533 115.322C224.61 115.05 224.683 114.777 224.75 114.502C224.805 114.294 224.853 114.082 224.904 113.871C224.959 113.637 225.01 113.4 225.061 113.163C225.093 113.006 225.128 112.849 225.16 112.689C225.231 112.33 225.295 111.972 225.356 111.606C225.378 111.462 225.404 111.318 225.423 111.174C225.481 110.786 225.538 110.399 225.583 110.008C225.593 109.925 225.602 109.842 225.609 109.758C225.651 109.393 225.686 109.025 225.718 108.653C225.727 108.557 225.734 108.461 225.743 108.362C225.775 107.939 225.801 107.51 225.817 107.084C225.82 106.991 225.823 106.901 225.827 106.808C225.843 106.36 225.852 105.905 225.852 105.454C225.852 104.96 225.843 104.47 225.823 103.983L225.83 103.977Z" fill="white"/>
</g>
</g>
<defs>
<clipPath id="clip0_767_631">
<rect width="129" height="129" fill="white" transform="translate(135 41)"/>
</clipPath>
</defs>
</svg>
