<svg width="500" height="500" viewBox="0 0 500 500" fill="none" xmlns="http://www.w3.org/2000/svg">
<path d="M499.165 249.165C499.626 386.775 388.445 498.704 250.835 499.165C113.225 499.626 1.29608 388.445 0.834952 250.835C0.373821 113.225 111.555 1.2961 249.165 0.83497C386.775 0.373839 498.704 111.555 499.165 249.165Z" fill="#030C17"/>
<path opacity="0.2" d="M405.826 404.791C491.295 318.7 490.881 179.838 404.791 94.3689C318.701 8.89953 179.839 9.31343 94.3693 95.4037L405.826 404.791Z" fill="white"/>
<path d="M273.379 227.643C270.896 227.229 268.619 226.608 266.343 226.194C235.715 219.986 213.571 215.64 213.571 194.324C213.571 181.08 226.609 170.525 249.994 170.525C270.896 170.525 287.452 179.01 298.213 194.945L299.868 195.359L333.187 161.213L332.98 159.971C319.735 144.243 302.973 133.275 283.727 127.48C281.036 126.653 278.553 126.032 275.863 125.411H275.656C274.621 125.204 273.793 124.997 272.758 124.79V94.5757H227.23V124.79C225.781 124.997 224.333 125.411 222.884 125.618H222.677C201.154 130.792 182.322 141.967 167.629 159.143C161.42 169.491 158.316 181.908 158.316 196.187C158.316 245.027 195.153 260.548 231.162 269.24C237.784 270.895 244.407 272.137 250.822 273.172C273.379 277.31 292.832 280.829 292.832 301.109C292.832 313.733 278.967 329.461 249.994 329.461C232.817 329.461 218.745 323.667 208.398 313.112C207.777 312.492 206.949 311.871 206.328 311.25L167.008 338.567V340.016C172.596 346.638 178.804 352.432 185.426 357.399C187.703 359.055 189.979 360.503 192.256 361.952C192.256 361.952 192.256 361.952 192.463 361.952C194.739 363.401 197.222 364.642 199.499 365.884C199.499 365.884 199.706 365.884 199.706 366.091C202.189 367.333 204.466 368.367 206.949 369.402C207.156 369.402 207.156 369.402 207.363 369.609C209.846 370.644 212.33 371.472 214.813 372.299C215.02 372.299 215.227 372.299 215.227 372.506C216.469 372.92 217.503 373.127 218.745 373.541C218.952 373.541 218.952 373.541 219.159 373.541C220.401 373.955 221.642 374.162 223.091 374.576C223.298 374.576 223.505 374.576 223.712 374.783C224.746 374.99 225.988 375.197 227.023 375.404V405.618H272.551V375.404C273.379 375.197 274.207 375.197 275.035 374.99C275.242 374.99 275.242 374.99 275.449 374.99C278.553 374.369 281.657 373.541 284.761 372.506C286.21 372.092 287.866 371.472 289.314 371.058C306.077 364.849 320.77 354.502 332.773 340.43C337.326 335.049 341.258 329.461 344.776 323.253C346.639 316.631 347.466 309.18 347.466 301.316C347.673 248.752 307.939 234.472 273.379 227.643Z" fill="#FAFBFC"/>
<path d="M167.216 339.809C164.939 337.119 162.87 334.428 161.007 331.531C160.179 330.289 159.352 329.048 158.524 328.013C158.317 327.806 158.11 327.392 157.903 327.185C157.282 326.15 156.454 324.909 155.834 323.667C155.627 323.253 155.42 322.839 155.213 322.425C154.592 321.391 153.971 320.149 153.35 319.114C153.143 318.7 152.936 318.286 152.729 317.872C152.108 316.838 151.488 315.596 151.074 314.354C150.867 313.94 150.66 313.32 150.453 312.906C149.832 311.664 149.418 310.629 148.797 309.388C148.59 308.974 148.383 308.56 148.176 307.939C147.763 306.697 147.142 305.456 146.728 304.214C146.728 304.007 146.521 303.593 146.521 303.386C145.486 300.489 144.451 297.592 143.624 294.694C143.624 294.487 143.417 294.28 143.417 293.866C143.21 292.832 142.796 291.797 142.589 290.762C142.382 289.934 142.175 289.107 141.968 288.279C141.761 287.244 141.554 286.416 141.347 285.382C141.14 284.554 140.933 283.519 140.726 282.691C140.519 281.657 140.312 280.829 140.105 279.794C139.899 278.759 139.692 277.725 139.485 276.69C139.278 275.862 139.278 274.827 139.071 273.999C138.864 272.965 138.657 271.93 138.657 270.688C138.45 269.861 138.45 269.033 138.243 267.998C138.036 266.756 138.036 265.722 137.829 264.48C137.829 263.652 137.622 262.824 137.622 261.997C137.622 260.548 137.415 259.306 137.415 257.858C137.415 257.237 137.415 256.616 137.208 255.788C137.208 253.719 137.001 251.649 137.001 249.58C137.001 247.51 137.001 245.648 137.208 243.578C137.208 242.957 137.208 242.337 137.208 241.716C137.208 240.267 137.415 239.025 137.415 237.577C137.415 236.956 137.622 236.128 137.622 235.507C137.829 234.266 137.829 232.817 138.036 231.575C138.036 230.954 138.243 230.334 138.243 229.713C138.45 228.057 138.657 226.608 138.864 225.16C138.864 224.746 138.864 224.332 139.071 224.125C139.278 222.263 139.692 220.4 140.105 218.538C140.312 217.917 140.312 217.296 140.519 216.882C140.726 215.64 141.14 214.399 141.347 213.157C141.554 212.536 141.761 211.708 141.761 211.087C141.968 209.846 142.382 208.811 142.589 207.569C142.796 206.948 143.003 206.121 143.21 205.5C143.624 204.258 144.038 203.016 144.244 201.775C144.451 201.154 144.658 200.74 144.865 200.119C145.486 198.464 146.107 196.808 146.728 195.152C146.935 194.532 147.142 194.118 147.349 193.497C147.763 192.255 148.176 191.22 148.797 189.979C149.004 189.358 149.418 188.737 149.625 187.909C150.039 186.875 150.453 186.047 151.074 185.012C151.488 184.391 151.695 183.563 152.108 182.942C152.522 181.908 153.143 181.08 153.557 180.045C153.971 179.424 154.178 178.804 154.592 178.183C155.42 176.734 156.247 175.285 157.075 173.837C155.213 180.666 154.385 188.116 154.385 195.98C154.385 222.883 165.767 243.371 188.324 257.237C189.566 281.45 196.602 300.489 208.605 312.699L167.216 339.809Z" fill="url(#paint0_linear_14_1783)"/>
<path d="M298.421 194.945C305.457 205.5 310.01 218.744 311.665 234.679C317.46 237.37 322.427 240.474 326.979 243.992C343.742 257.03 352.227 276.069 352.227 300.282C352.227 303.179 352.02 306.076 351.813 308.974V308.767C352.641 306.904 353.469 304.835 354.09 302.765C354.297 302.144 354.503 301.73 354.71 301.11C355.124 299.661 355.745 298.212 356.159 296.764C356.366 296.143 356.573 295.315 356.78 294.694C356.987 293.866 357.401 292.832 357.608 292.004C358.022 290.762 358.229 289.727 358.642 288.486C358.849 287.658 359.056 286.623 359.263 285.795C359.47 284.761 359.677 283.726 359.884 282.691C360.091 282.07 360.091 281.243 360.298 280.622C360.505 279.173 360.919 277.517 361.126 276.069C361.126 275.448 361.333 274.827 361.333 274.206C361.54 272.551 361.747 270.895 361.954 269.24C361.954 268.826 361.954 268.619 362.161 268.205C362.367 266.549 362.574 265.101 362.574 263.445C362.574 263.031 362.574 262.617 362.781 262.203C362.988 260.341 362.988 258.478 363.195 256.616C363.195 256.202 363.195 255.788 363.195 255.374C363.195 253.512 363.402 251.442 363.402 249.58C363.402 247.51 363.402 245.441 363.195 243.164C363.195 242.543 363.195 241.922 362.988 241.095C362.988 239.646 362.781 238.197 362.781 236.956C362.781 236.128 362.574 235.3 362.574 234.472C362.367 233.231 362.367 231.989 362.161 230.747C362.161 229.92 361.954 229.092 361.747 228.057C361.54 226.815 361.54 225.781 361.333 224.539C361.126 223.711 361.126 222.676 360.919 221.849C360.712 220.814 360.505 219.572 360.298 218.537C360.091 217.71 359.884 216.675 359.677 215.847C359.47 214.812 359.263 213.778 359.056 212.743C358.849 211.915 358.642 210.88 358.435 210.053C358.229 209.018 357.815 207.983 357.608 206.948C357.401 206.121 357.194 205.086 356.78 204.258C356.573 203.223 356.159 202.395 355.952 201.361C355.745 200.533 355.331 199.498 355.124 198.67C354.71 197.636 354.503 196.808 354.09 195.98C353.676 195.152 353.469 194.118 353.055 193.29C352.641 192.462 352.434 191.427 352.02 190.599C351.606 189.772 351.192 188.737 350.985 187.909C350.571 187.081 350.158 186.254 349.744 185.426C349.33 184.598 348.916 183.77 348.502 182.735C348.088 181.908 347.674 181.08 347.26 180.252C346.846 179.424 346.433 178.596 345.812 177.769C345.398 176.941 344.984 176.113 344.363 175.492C343.949 174.664 343.328 173.837 342.914 173.009C342.501 172.181 341.88 171.56 341.466 170.732C340.017 168.456 338.362 166.18 336.706 163.903C335.464 162.248 334.223 160.799 332.981 159.35L298.421 194.945Z" fill="url(#paint1_linear_14_1783)"/>
<defs>
<linearGradient id="paint0_linear_14_1783" x1="208.994" y1="261.926" x2="111.89" y2="189.632" gradientUnits="userSpaceOnUse">
<stop offset="0.00058093" stop-color="white"/>
<stop offset="1" stop-color="#1E313F"/>
</linearGradient>
<linearGradient id="paint1_linear_14_1783" x1="293.695" y1="225.531" x2="383.37" y2="295.444" gradientUnits="userSpaceOnUse">
<stop offset="0.00058093" stop-color="white"/>
<stop offset="0.9967" stop-color="#4E5A64"/>
</linearGradient>
</defs>
</svg>
