<svg width="70" height="19" viewBox="0 0 70 19" fill="none" xmlns="http://www.w3.org/2000/svg">
<path fill-rule="evenodd" clip-rule="evenodd" d="M65.9798 15.1848L67.5697 5.06988C67.5941 4.91299 67.73 4.79744 67.888 4.79688H69.6779C69.8755 4.79688 70.0273 4.97416 69.9962 5.17014L68.4284 15.1026C68.3876 15.3649 68.1622 15.5575 67.8965 15.5575H66.2981C66.1004 15.5575 65.9486 15.3807 65.9798 15.1848ZM22.3008 4.79701H26.1745C27.471 4.79701 28.4475 5.13912 28.998 5.78595C29.4993 6.37501 29.6652 7.21613 29.4919 8.28663C29.1073 10.7335 27.6347 11.9683 25.083 11.9683H23.8568C23.5922 11.9683 23.3663 12.1608 23.3255 12.4231L22.9029 15.1022C22.8616 15.3644 22.6362 15.557 22.3711 15.557H20.5218C20.323 15.557 20.1712 15.3803 20.2023 15.1843L21.769 5.25127C21.8103 4.98959 22.0358 4.79701 22.3008 4.79701ZM24.3206 9.8148C25.3475 9.8148 26.4095 9.8148 26.6214 8.42484C26.699 7.9366 26.6367 7.58316 26.4333 7.34527C26.0924 6.94652 25.4325 6.94652 24.733 6.94652H24.4651C24.3065 6.94652 24.1705 7.06206 24.1462 7.21896L23.7361 9.8148H24.3206ZM35.8981 8.38064H37.7531C37.9513 8.38064 38.1026 8.55793 38.0709 8.75334L37.0683 15.1022C37.0264 15.3644 36.8021 15.557 36.5365 15.557H34.8656C34.6679 15.557 34.5161 15.3803 34.5472 15.1832L34.6299 14.6677C34.6299 14.6677 33.7141 15.7298 32.0624 15.7298C31.1001 15.7298 30.2913 15.4522 29.726 14.7861C29.1097 14.0617 28.8577 13.0229 29.035 11.9365C29.376 9.75871 31.1267 8.20619 33.1765 8.20619C34.0703 8.20619 34.9658 8.40103 35.3674 8.98386L35.4971 9.17191L35.5792 8.65308C35.6036 8.49619 35.7401 8.38064 35.8981 8.38064ZM33.0746 13.7621C34.1474 13.7621 34.9885 13.0507 35.1675 11.9909C35.2485 11.4777 35.1363 11.0122 34.8537 10.6785C34.5716 10.3483 34.1434 10.1733 33.6166 10.1733C32.5603 10.1733 31.705 10.9079 31.5379 11.9586C31.4507 12.4741 31.5549 12.9368 31.8291 13.2619C32.1055 13.5893 32.5359 13.7621 33.0746 13.7621ZM47.6328 8.38099H45.7688C45.5909 8.38099 45.4238 8.46935 45.323 8.61718L42.7521 12.4042L41.6623 8.76502C41.5938 8.53732 41.3837 8.38099 41.1458 8.38099H39.314C39.0914 8.38099 38.9368 8.59849 39.0076 8.80806L41.0608 14.8335L39.1305 17.5585C38.9787 17.7731 39.1316 18.0682 39.3939 18.0682H41.2556C41.4324 18.0682 41.5978 17.9821 41.698 17.8371L47.8979 8.88793C48.0463 8.67382 47.8939 8.38099 47.6328 8.38099ZM49.9302 4.79701H53.8044C55.1009 4.79701 56.0768 5.13912 56.6268 5.78595C57.128 6.37501 57.2951 7.21613 57.1212 8.28663C56.7361 10.7335 55.264 11.9683 52.7118 11.9683H51.4861C51.2216 11.9683 50.9956 12.1608 50.9548 12.4231L50.5102 15.2387C50.4813 15.4222 50.3232 15.557 50.1386 15.557H48.1505C47.9528 15.557 47.801 15.3803 47.8322 15.1843L49.3989 5.25127C49.4402 4.98959 49.6656 4.79701 49.9302 4.79701ZM51.9505 9.8148C52.978 9.8148 54.04 9.8148 54.2513 8.42484C54.3289 7.9366 54.2671 7.58316 54.0638 7.34527C53.7228 6.94652 53.0624 6.94652 52.3634 6.94652H52.0955C51.9364 6.94652 51.8016 7.06206 51.7772 7.21896L51.3666 9.8148H51.9505ZM65.3827 8.38055H63.5288C63.3697 8.38055 63.2343 8.49609 63.2105 8.65299L63.1284 9.17182L62.9981 8.98377C62.5965 8.40094 61.7016 8.2061 60.8078 8.2061C58.758 8.2061 57.0078 9.75861 56.6668 11.9364C56.4901 13.0228 56.741 14.0616 57.3573 14.786C57.9237 15.4521 58.7314 15.7297 59.6937 15.7297C61.3453 15.7297 62.2612 14.6677 62.2612 14.6677L62.1785 15.1831C62.1474 15.3802 62.2992 15.5569 62.498 15.5569H64.1683C64.4328 15.5569 64.6583 15.3643 64.6996 15.1021L65.7027 8.75324C65.7333 8.55783 65.5815 8.38055 65.3827 8.38055ZM62.7971 11.9908C62.6192 13.0506 61.777 13.762 60.7042 13.762C60.1667 13.762 59.7351 13.5892 59.4587 13.2618C59.1845 12.9367 59.0814 12.474 59.1675 11.9585C59.3357 10.9079 60.1899 10.1732 61.2462 10.1732C61.773 10.1732 62.2012 10.3482 62.4833 10.6785C62.767 11.0121 62.8792 11.4777 62.7971 11.9908Z" fill="black"/>
<path d="M13.0543 5.31714C13.0384 5.41853 13.0203 5.52218 12.9999 5.62866C12.2993 9.2259 9.90225 10.4686 6.84082 10.4686H5.28208C4.90768 10.4686 4.59219 10.7405 4.53385 11.1098L3.73579 16.1712L3.50979 17.6059C3.47184 17.8483 3.65876 18.0669 3.90344 18.0669H6.66807C6.99545 18.0669 7.27356 17.829 7.3251 17.5062L7.35229 17.3657L7.87281 14.0624L7.90623 13.8812C7.95721 13.5572 8.23588 13.3193 8.56326 13.3193H8.97674C11.6553 13.3193 13.7521 12.2318 14.365 9.08487C14.621 7.77024 14.4884 6.67255 13.811 5.90054C13.606 5.66774 13.3517 5.4746 13.0543 5.31714Z" fill="#727272"/>
<path d="M12.3217 5.02492C12.2146 4.99377 12.1042 4.96545 11.9909 4.93996C11.8771 4.91504 11.7604 4.89295 11.6403 4.87369C11.22 4.80572 10.7595 4.77344 10.2662 4.77344H6.10199C5.99947 4.77344 5.90205 4.79666 5.81482 4.83857C5.62281 4.9309 5.48008 5.11271 5.44553 5.33531L4.55967 10.9461L4.53418 11.1098C4.59252 10.7405 4.90801 10.4686 5.2824 10.4686H6.84115C9.90257 10.4686 12.2996 9.22539 13.0002 5.62871C13.0212 5.52223 13.0388 5.41857 13.0546 5.31719C12.8773 5.22316 12.6853 5.14273 12.4786 5.0742C12.4276 5.05721 12.3749 5.04078 12.3217 5.02492Z" fill="#535353"/>
<path d="M5.44542 5.33537C5.47997 5.11277 5.6227 4.93095 5.81472 4.8392C5.90251 4.79728 5.99936 4.77406 6.10188 4.77406H10.2661C10.7594 4.77406 11.2199 4.80634 11.6402 4.87431C11.7603 4.89357 11.877 4.91566 11.9908 4.94058C12.1041 4.96607 12.2145 4.99439 12.3216 5.02554C12.3748 5.0414 12.4275 5.05783 12.479 5.07425C12.6858 5.14279 12.8778 5.22378 13.0551 5.31724C13.2635 3.98789 13.0534 3.08277 12.3346 2.26318C11.5422 1.3609 10.112 0.974609 8.28198 0.974609H2.96909C2.59527 0.974609 2.27638 1.24648 2.21861 1.61635L0.00565773 15.6434C-0.0379555 15.9209 0.176146 16.1713 0.45595 16.1713H3.73601L4.55956 10.9462L5.44542 5.33537Z" fill="black"/>
</svg>
