<svg width="400" height="210" viewBox="0 0 400 210" fill="none" xmlns="http://www.w3.org/2000/svg">
<rect x="-10" width="420" height="210" fill="#F6F8FE"/>
<path d="M167.259 102.382C167.617 102.382 167.971 102.454 168.301 102.593C168.632 102.732 168.931 102.936 169.182 103.193C169.695 103.714 169.983 104.416 169.982 105.148V121.161H163.233V117.708C161.594 120.136 157.756 121.562 154.724 121.503C152.584 121.528 150.462 121.103 148.497 120.254C146.532 119.406 144.767 118.153 143.318 116.578C140.31 113.375 138.636 109.147 138.636 104.753C138.636 100.359 140.31 96.1307 143.318 92.9276C144.765 91.3535 146.527 90.1014 148.489 89.2526C150.452 88.4039 152.571 87.9774 154.709 88.0009C157.865 87.9662 160.947 88.9543 163.494 90.8174C164.108 91.2656 164.69 91.756 165.236 92.2849C166.076 93.1019 166.829 94.0047 167.482 94.9786C168.437 96.429 169.121 98.0412 169.5 99.7364H162.538L162.2 99.1353C161.548 97.9709 160.645 96.9661 159.557 96.1938C158.143 95.2064 156.455 94.6891 154.731 94.7153C153.477 94.6851 152.232 94.926 151.081 95.4217C149.926 95.9226 148.891 96.6636 148.045 97.5955C146.311 99.5909 145.355 102.144 145.351 104.787C145.347 107.43 146.296 109.987 148.023 111.987C148.869 112.92 149.905 113.661 151.061 114.159C152.212 114.655 153.457 114.897 154.711 114.867C156.783 114.874 158.784 114.115 160.331 112.737C161.695 111.509 162.599 110.544 162.987 108.57L153.542 108.611L153.472 102.382H167.259Z" fill="#0074F0"/>
<path d="M94.0914 100.481C94.3465 101.521 94.5071 102.583 94.5713 103.652C94.7922 107.047 94.0128 110.433 92.3296 113.39C89.7527 117.829 84.9999 120.974 79.8921 121.445C78.5927 121.561 77.2837 121.508 75.9983 121.285C73.9544 120.934 72.0006 120.18 70.2506 119.067C69.3825 118.514 68.5746 117.871 67.8402 117.15C67.5882 116.902 67.3363 116.652 67.0908 116.398C66.7637 116.064 66.4557 115.711 66.1683 115.342C66.0281 115.156 65.8922 114.967 65.7607 114.775C65.6249 114.596 65.4998 114.409 65.386 114.216L83.4244 95.9407L83.1921 95.7961C83.1132 95.7479 83.0344 95.7041 82.9533 95.6603C80.4246 94.3039 77.1859 94.3324 74.6484 95.6471C73.404 96.3116 72.3183 97.2379 71.4661 98.3621C70.6139 99.4863 70.0153 100.782 69.7116 102.159C69.3706 103.686 69.3185 105.263 69.5582 106.809C69.5632 106.834 69.5678 106.86 69.5723 106.884C69.5776 106.914 69.5829 106.943 69.5889 106.971L64.4044 112.257C64.3715 112.189 64.3386 112.121 64.3079 112.053C63.3231 109.919 62.778 107.608 62.7054 105.259C62.6327 102.91 63.0339 100.57 63.885 98.3796C64.0297 98.0158 64.1896 97.6565 64.3583 97.3015C66.1223 93.6531 69.2974 90.4736 73.108 89.0317C76.3214 87.7993 79.8528 87.6671 83.1494 88.656C86.4459 89.6449 89.3216 91.699 91.326 94.4967V94.5098C91.3619 94.5596 91.3978 94.6089 91.4336 94.6581C91.5445 94.8104 91.655 94.9622 91.7643 95.1278L91.9045 95.3469L73.9604 113.635C76.0246 114.93 78.7592 115.226 81.082 114.555C81.402 114.463 81.7166 114.352 82.0242 114.225L82.2061 114.148C85.3067 112.791 87.3862 109.785 87.8639 106.465C87.9762 105.688 88.0012 104.901 87.9384 104.118C87.9208 103.904 87.774 102.646 87.774 102.646L93.0002 97.319C93.1506 97.6404 93.2931 97.9654 93.4275 98.2941C93.4201 98.3014 93.6111 98.8608 93.7038 99.1326C93.7222 99.1864 93.7368 99.2292 93.7452 99.2539C93.8752 99.6585 93.9906 100.068 94.0914 100.481Z" fill="#0074F0"/>
<path fill-rule="evenodd" clip-rule="evenodd" d="M123.909 99.3515C123.937 101.394 123.364 103.4 122.261 105.119C121.154 106.847 119.567 108.213 117.695 109.052L125.23 121.219H117.543L110.747 110.102H105.481V121.219H98.5601V89.8161C98.5598 89.6158 98.599 89.4174 98.6754 89.2323C98.7518 89.0472 98.8638 88.8789 99.0053 88.7371C99.1467 88.5953 99.3146 88.4827 99.4995 88.4058C99.6845 88.3289 99.8827 88.2891 100.083 88.2888H112.767C114.231 88.2521 115.686 88.5126 117.046 89.0547C119.098 89.8738 120.853 91.2969 122.079 93.1356C123.304 94.9743 123.943 97.1419 123.909 99.3515ZM115.851 102.498C116.293 102.076 116.643 101.565 116.876 101C117.105 100.435 117.213 99.8284 117.191 99.2194C117.209 98.6305 117.112 98.0436 116.903 97.4926C116.694 96.9416 116.378 96.4373 115.974 96.0087C115.564 95.585 115.067 95.2543 114.518 95.0386C113.969 94.823 113.381 94.7276 112.792 94.7587H105.494V103.77H112.484C113.104 103.794 113.722 103.694 114.304 103.475C114.885 103.255 115.417 102.923 115.87 102.498H115.851Z" fill="#0074F0"/>
<path d="M127.864 88.2854H134.684V121.219H127.864V88.2854Z" fill="#0074F0"/>
<path d="M174.374 88.2854H181.194V121.219H174.374V88.2854Z" fill="#0074F0"/>
<path d="M207.557 88.292H207.98L207.998 88.2942H214.413V117.479C214.418 118.46 214.045 119.405 213.372 120.119C213.05 120.463 212.66 120.738 212.228 120.927C211.796 121.116 211.33 121.216 210.858 121.219H207.434C206.76 121.216 206.101 121.015 205.54 120.641C204.964 120.261 204.507 119.728 204.22 119.101L192.423 97.3192V121.215H185.585V92.0257C185.58 91.0447 185.953 90.0995 186.625 89.3855C187.255 88.7136 188.125 88.3182 189.046 88.2854H192.718C193.391 88.2845 194.049 88.4828 194.61 88.8553C195.182 89.2347 195.635 89.7687 195.917 90.3954L207.557 111.737V88.292Z" fill="#0074F0"/>
<path d="M238.823 88.5131H225.792V121.318H238.736C247.845 121.318 254.731 115.266 254.731 104.916C254.731 94.5653 247.932 88.5131 238.823 88.5131ZM238.823 92.9865C245.187 92.9865 249.545 97.0652 249.545 104.916C249.545 112.766 245.099 116.845 238.78 116.845H230.935V92.9865H238.823Z" fill="black"/>
<path d="M268.945 98.4247C262.277 98.4247 257.265 102.942 257.265 110.091C257.265 117.196 262.277 121.757 268.945 121.757C275.57 121.757 280.582 117.196 280.582 110.091C280.582 102.942 275.57 98.4247 268.945 98.4247ZM268.945 102.635C272.781 102.635 275.657 105.398 275.657 110.091C275.657 114.74 272.781 117.503 268.945 117.503C265.066 117.503 262.233 114.74 262.233 110.091C262.233 105.398 265.066 102.635 268.945 102.635Z" fill="black"/>
<path d="M289.117 88.1895H284.235V121.318H289.117V88.1895Z" fill="black"/>
<path d="M298.718 88.1895H293.837V121.318H298.718V88.1895Z" fill="black"/>
<path d="M312.338 98.4247C306.759 98.4247 303.447 102.416 303.447 106.363L308.372 106.538C308.372 104.521 309.592 102.723 312.381 102.723C315.127 102.723 316.348 104.521 316.348 107.415V108.073L311.03 108.38C306.454 108.643 302.837 110.354 302.837 115.178C302.837 119.388 305.844 121.757 310.289 121.757C312.774 121.757 314.779 120.792 316.348 119.301V121.318H321.273V107.328C321.273 101.582 318.091 98.4247 312.338 98.4247ZM316.391 111.889V112.678C316.391 116.099 314.212 117.634 311.117 117.634C309.156 117.634 307.762 116.976 307.762 115.09C307.762 113.073 309.418 112.327 311.728 112.196L316.391 111.889Z" fill="black"/>
<path d="M337.303 98.5563C333.729 98.5563 331.768 100.223 330.94 101.977V98.8195H326.189V121.318H331.071V109.082C331.071 105.793 333.468 103.337 337.303 103.337V98.5563Z" fill="black"/>
</svg>
