<svg width="400" height="210" viewBox="0 0 400 210" fill="none" xmlns="http://www.w3.org/2000/svg">
<rect width="400" height="210" fill="#F6F8FE"/>
<path d="M167.026 128.886L157.569 112.609C157.353 112.609 157.217 112.609 157.028 112.609H149.82V128.886H140.391V81.1957H157.028C168.705 81.1957 175.696 87.5272 175.696 97.1196C175.696 103.668 172.499 108.424 166.728 110.815L177.593 128.859H167.026V128.886ZM149.847 104.158H158.274C163.503 104.158 165.942 100.761 165.942 97.1467C165.942 93.3967 163.422 90.0543 158.274 90.0543H149.847V104.158ZM181.928 128.886V81.1957H191.357V128.859H181.928V128.886ZM235.088 123.913C232.514 126.848 226.878 129.837 220.7 129.837C207.045 129.837 196.044 119.429 196.044 105.054C196.044 90.6793 207.045 80.2717 220.7 80.2717C230.129 80.3533 238.014 85.2446 242.295 92.8804L232.649 95.4076C230.075 91.875 225.388 89.6196 220.7 89.6196C211.813 89.6196 205.907 96.0326 205.907 105.082C205.907 114.538 212.437 120.598 221.242 120.598C229.398 120.598 233.679 116.114 235.169 112.418V110.38H222.001V102.663H243.243V128.886H235.088C235.088 124.946 235.169 123.995 235.169 123.913H235.088ZM249.882 128.886V81.1957H259.311V128.859H249.882V128.886ZM308 81.1957V128.859H299.113L285.593 110.462C281.312 104.592 276.082 97.1196 276.028 97.1196H275.947C275.893 97.1196 276.028 103.995 276.028 113.451V128.832H266.599V81.1957H275.486L289.277 99.7826C292.529 104.076 298.517 112.582 298.571 112.582H298.652C298.734 112.582 298.571 104.81 298.571 96.7935V81.1957H308ZM133.645 92.2826L125.95 100C126.248 101.522 126.41 103.207 126.41 105.027C126.41 114.783 121.831 120.625 114.164 120.625C110.966 120.625 108.284 119.592 106.252 117.636L132.913 90.8967C132.209 89.6196 131.396 88.4511 130.475 87.3641C130.095 86.9022 129.689 86.4946 129.282 86.0598C129.228 86.0054 129.174 85.9511 129.12 85.8967C128.984 85.788 128.876 85.6522 128.741 85.5435C124.839 81.9022 119.881 80 114.164 80C107.58 80 101.944 82.5272 97.9067 87.337C94.0863 91.875 92 98.1522 92 105.027C92 109.592 92.9212 113.886 94.6553 117.582L102.404 109.81C102.133 108.342 101.998 106.739 101.998 105C101.998 100.516 102.919 96.875 104.707 94.1848C106.821 91.0598 110.099 89.4022 114.164 89.4022C117.334 89.4022 119.989 90.4076 121.994 92.2826L95.3869 118.967C96.1184 120.299 96.9584 121.549 97.9067 122.663C98.0963 122.88 98.286 123.098 98.5028 123.315C98.7195 123.56 98.9634 123.804 99.2072 124.049C99.2343 124.076 99.2614 124.103 99.2885 124.13C99.3698 124.212 99.424 124.293 99.5053 124.348C103.38 128.043 108.392 130 114.164 130C120.775 130 126.41 127.473 130.475 122.663C134.295 118.125 136.408 111.875 136.408 105C136.408 100.38 135.433 96.0054 133.645 92.2826Z" fill="#0074F0"/>
</svg>
