<svg width="400" height="210" viewBox="0 0 400 210" fill="none" xmlns="http://www.w3.org/2000/svg">
<rect width="400" height="210" fill="#F6F8FE"/>
<path d="M122.746 115.728L116.602 105.164C116.461 105.164 116.373 105.164 116.25 105.164H111.567V115.728H105.441V84.776H116.25C123.838 84.776 128.379 88.8853 128.379 95.111C128.379 99.3614 126.302 102.448 122.552 104L129.612 115.71H122.746V115.728ZM111.585 99.6788H117.06C120.457 99.6788 122.042 97.4743 122.042 95.1286C122.042 92.6948 120.405 90.5255 117.06 90.5255H111.585V99.6788ZM132.428 115.728V84.776H138.555V115.71H132.428V115.728ZM166.968 112.501C165.295 114.405 161.634 116.345 157.62 116.345C148.747 116.345 141.6 109.591 141.6 100.261C141.6 90.9311 148.747 84.1764 157.62 84.1764C163.746 84.2293 168.869 87.4038 171.651 92.3597L165.383 93.9999C163.711 91.7071 160.665 90.2433 157.62 90.2433C151.846 90.2433 148.008 94.4055 148.008 100.278C148.008 106.416 152.251 110.349 157.972 110.349C163.271 110.349 166.052 107.439 167.021 105.04V103.718H158.465V98.7088H172.267V115.728H166.968C166.968 113.171 167.021 112.553 167.021 112.501H166.968ZM176.58 115.728V84.776H182.706V115.71H176.58V115.728ZM214.341 84.776V115.71H208.567L199.782 103.771C197.001 99.961 193.603 95.111 193.568 95.111H193.515C193.48 95.111 193.568 99.573 193.568 105.711V115.693H187.441V84.776H193.216L202.176 96.8394C204.289 99.6259 208.179 105.146 208.214 105.146H208.267C208.32 105.146 208.214 100.102 208.214 94.8994V84.776H214.341ZM101.058 91.9717L96.0581 96.9805C96.2517 97.9681 96.3573 99.0616 96.3573 100.243C96.3573 106.575 93.3822 110.367 88.4002 110.367C86.3229 110.367 84.5801 109.696 83.2598 108.427L100.582 91.0722C100.125 90.2433 99.5965 89.485 98.998 88.7795C98.7515 88.4797 98.4874 88.2151 98.2234 87.9329C98.1882 87.8977 98.153 87.8624 98.1178 87.8271C98.0297 87.7566 97.9593 87.6684 97.8713 87.5978C95.3363 85.2346 92.1147 84 88.4002 84C84.1224 84 80.4607 85.6402 77.8377 88.7619C75.3555 91.7071 74 95.7812 74 100.243C74 103.206 74.5985 105.993 75.7252 108.391L80.76 103.347C80.584 102.395 80.496 101.354 80.496 100.226C80.496 97.3156 81.0945 94.9523 82.2564 93.2063C83.6295 91.1781 85.7596 90.1022 88.4002 90.1022C90.4599 90.1022 92.1851 90.7548 93.4879 91.9717L76.2005 109.291C76.6758 110.155 77.2216 110.966 77.8377 111.689C77.9609 111.83 78.0842 111.971 78.225 112.113C78.3658 112.271 78.5243 112.43 78.6827 112.589C78.7003 112.606 78.7179 112.624 78.7355 112.642C78.7883 112.695 78.8236 112.747 78.8764 112.783C81.3938 115.181 84.6505 116.451 88.4002 116.451C92.6957 116.451 96.3573 114.811 98.998 111.689C101.48 108.744 102.853 104.688 102.853 100.226C102.853 97.2274 102.22 94.3879 101.058 91.9717Z" fill="#0074F0"/>
<path d="M236.551 84.4292C229.313 84.4292 225.777 88.6227 225.777 93.522C225.777 99.4593 230.353 101.037 235.927 102.407C240.669 103.528 243.373 104.359 243.373 107.473C243.373 110.711 240.753 112.04 237.175 112.04C233.265 112.04 230.312 109.922 230.104 106.601L225.07 106.891C225.278 112.953 230.353 116.316 237.175 116.316C243.332 116.316 248.407 113.534 248.407 107.14C248.407 101.66 244.288 99.7914 237.758 98.2137C233.265 97.1757 230.852 96.4699 230.852 93.3559C230.852 90.6986 232.849 88.7057 236.634 88.7057C240.129 88.7057 242.416 90.6156 242.583 93.7296L247.616 93.4389C247.408 87.7508 242.916 84.4292 236.551 84.4292Z" fill="#02080D"/>
<path d="M261.897 112.04C259.984 112.04 258.362 111.168 258.362 108.386L258.403 98.6289H263.853V94.6015H258.445L258.486 87.3771H253.786L253.744 94.6015H249.793V98.6289H253.744L253.703 109.341C253.661 114.157 256.573 116.233 260.774 116.233C262.272 116.233 263.104 116.109 263.894 115.984V111.832C263.395 111.915 262.771 112.04 261.897 112.04Z" fill="#02080D"/>
<path d="M277.125 94.2278C270.761 94.2278 265.977 98.5043 265.977 105.272C265.977 111.998 270.761 116.316 277.125 116.316C283.448 116.316 288.232 111.998 288.232 105.272C288.232 98.5043 283.448 94.2278 277.125 94.2278ZM277.125 98.2137C280.786 98.2137 283.531 100.829 283.531 105.272C283.531 109.673 280.786 112.289 277.125 112.289C273.423 112.289 270.719 109.673 270.719 105.272C270.719 100.829 273.423 98.2137 277.125 98.2137Z" fill="#02080D"/>
<path d="M302.085 94.3524C298.674 94.3524 297.165 95.9301 296.374 97.5909V94.6015H291.84V115.901H296.499V104.317C296.499 101.203 299.875 98.878 303.535 98.878L302.085 94.3524Z" fill="#02080D"/>
<path d="M326.23 94.6015H321.03L315.29 109.175L309.55 94.6015H304.35L312.794 114.406L307.553 126.488H312.669L326.23 94.6015Z" fill="#02080D"/>
</svg>
