<svg width="41" height="32" viewBox="0 0 41 32" fill="none" xmlns="http://www.w3.org/2000/svg">
<path d="M4.69074 6.53353C4.69074 6.03095 4.52321 5.52837 4.18816 5.19332L0.502579 0.670105V0H12.2294L21.2758 19.7681L29.1496 0H40.2063V0.670105L37.0233 3.68558C36.6883 3.85311 36.6883 4.18816 36.6883 4.52321V27.1393C36.6883 27.4743 36.6883 27.8094 37.0233 27.9769L40.2063 30.9924V31.6625H24.4588V30.9924L27.6418 27.8094C27.9769 27.4743 27.9769 27.4743 27.9769 26.9717V8.87889L18.9305 31.83H17.7578L7.20363 8.87889V24.2913C7.0361 24.9614 7.37116 25.6315 7.70621 26.1341L11.8944 31.3274V31.83H0V31.1599L4.18816 25.9666C4.69074 25.464 4.85826 24.7939 4.69074 24.1238C4.69074 24.2913 4.69074 6.53353 4.69074 6.53353Z" fill="url(#paint0_linear_1148_406)"/>
<defs>
<linearGradient id="paint0_linear_1148_406" x1="40.2063" y1="-7.53868" x2="-4.18816" y2="41.0439" gradientUnits="userSpaceOnUse">
<stop stop-color="#CC70DF"/>
<stop offset="1" stop-color="#0E6AF3"/>
</linearGradient>
</defs>
</svg>
