<svg width="100%" height="100%" viewBox="0 0 10% 10%" fill="none" xmlns="http://www.w3.org/2000/svg">
<path d="M46 18.5801C46 15.808 43.7153 13.5546 40.9074 13.5546C39.537 13.5546 38.295 14.098 37.3807 14.972C33.9116 12.7091 29.2177 11.2689 24.0197 11.0846L26.8621 2.2135L34.5594 4.0014L34.5479 4.1116C34.5479 6.3783 36.4167 8.2213 38.7147 8.2213C41.0109 8.2213 42.8778 6.3783 42.8778 4.1116C42.8778 1.8449 41.009 0 38.7147 0C36.9514 0 35.4487 1.0906 34.8412 2.6201L26.5439 0.6916C26.1817 0.6042 25.8137 0.8113 25.7006 1.1647L22.5304 11.058C17.0909 11.1226 12.1632 12.5742 8.53875 14.9055C7.63025 14.0733 6.42467 13.5527 5.09067 13.5527C2.28275 13.5527 0 15.808 0 18.5801C0 20.4231 1.02158 22.021 2.52425 22.895C2.42458 23.4308 2.35942 23.9723 2.35942 24.5233C2.35942 31.9542 11.5747 38 22.9042 38C34.2336 38 43.4508 31.9542 43.4508 24.5233C43.4508 24.0027 43.3952 23.4897 43.3071 22.9843C44.9017 22.135 46 20.4915 46 18.5801ZM12.9873 22.0305C12.9873 20.3813 14.3482 19.038 16.0195 19.038C17.6908 19.038 19.0497 20.3813 19.0497 22.0305C19.0497 23.6797 17.6908 25.0211 16.0195 25.0211C14.3482 25.0211 12.9873 23.6797 12.9873 22.0305ZM30.3542 30.9016C28.8267 32.4083 26.4289 33.1417 23.0249 33.1417L23 33.136L22.9751 33.1417C19.5692 33.1417 17.1714 32.4083 15.6458 30.9016C15.3678 30.628 15.3678 30.1815 15.6458 29.9079C15.9237 29.6324 16.376 29.6324 16.6539 29.9079C17.8997 31.1372 19.9678 31.7338 22.9751 31.7338L23 31.7395L23.0249 31.7338C26.0322 31.7338 28.1002 31.1353 29.3461 29.906C29.624 29.6305 30.0763 29.6324 30.3542 29.906C30.6322 30.1815 30.6322 30.6261 30.3542 30.9016ZM29.992 25.0211C28.3207 25.0211 26.9618 23.6797 26.9618 22.0305C26.9618 20.3813 28.3207 19.038 29.992 19.038C31.6633 19.038 33.0223 20.3813 33.0223 22.0305C33.0223 23.6797 31.6633 25.0211 29.992 25.0211Z" fill="url(#paint0_linear_2_2949)"/>
<defs>
<linearGradient id="paint0_linear_2_2949" x1="46" y1="-6.6087" x2="-0.302768" y2="47.6547" gradientUnits="userSpaceOnUse">
<stop stop-color="#CC70DF"/>
<stop offset="1" stop-color="#0E6AF3"/>
</linearGradient>
</defs>
</svg>
