<svg width="100%" height="100%" viewBox="0 0 10% 10%" fill="none" xmlns="http://www.w3.org/2000/svg">
<path fill-rule="evenodd" clip-rule="evenodd" d="M33.704 35.6025C34.2943 36.0129 35.0551 36.1155 35.7334 35.8635C36.4117 35.6097 36.9104 35.0409 37.0607 34.3515C38.6539 27.0003 42.5184 8.39368 43.9686 1.70667C44.0786 1.20267 43.8952 0.678868 43.4919 0.342267C43.0886 0.00566692 42.5294 -0.0915334 42.0308 0.0902668C34.3438 2.88387 10.6705 11.6049 0.994373 15.1203C0.380221 15.3435 -0.0194368 15.9231 0.000729382 16.5585C0.0227289 17.1957 0.459052 17.7483 1.08787 17.9337C5.42727 19.2081 11.1233 20.9811 11.1233 20.9811C11.1233 20.9811 13.7852 28.8741 15.1731 32.8881C15.3472 33.3921 15.7487 33.7881 16.2785 33.9249C16.8065 34.0599 17.3712 33.9177 17.7653 33.5523C19.9946 31.4859 23.4412 28.2909 23.4412 28.2909C23.4412 28.2909 29.9897 33.0051 33.704 35.6025ZM13.5194 19.9839L16.5975 29.9523L17.2813 23.6397C17.2813 23.6397 29.1739 13.1079 35.9534 7.10488C36.1514 6.92847 36.1789 6.63328 36.0139 6.42627C35.8507 6.21927 35.5501 6.17067 35.3246 6.31107C27.4671 11.2377 13.5194 19.9839 13.5194 19.9839Z" fill="url(#paint0_linear_2_2928)"/>
<defs>
<linearGradient id="paint0_linear_2_2928" x1="44" y1="-6.26087" x2="0.202502" y2="45.5624" gradientUnits="userSpaceOnUse">
<stop stop-color="#CC70DF"/>
<stop offset="1" stop-color="#0E6AF3"/>
</linearGradient>
</defs>
</svg>
