<svg width="100%" height="100%" viewBox="0 0 10% 10%" fill="none" xmlns="http://www.w3.org/2000/svg">
<path d="M19.5 3.51488C24.7065 3.51488 25.324 3.53437 27.3813 3.62863C32.6658 3.86913 35.1341 6.3765 35.3746 11.622C35.4689 13.6776 35.4867 14.2951 35.4867 19.5016C35.4867 24.7098 35.4672 25.3256 35.3746 27.3813C35.1325 32.6219 32.6706 35.1341 27.3813 35.3746C25.324 35.4689 24.7097 35.4884 19.5 35.4884C14.2935 35.4884 13.676 35.4689 11.6204 35.3746C6.32288 35.1325 3.8675 32.6138 3.627 27.3796C3.53275 25.324 3.51325 24.7081 3.51325 19.5C3.51325 14.2935 3.53438 13.6776 3.627 11.6204C3.86913 6.3765 6.331 3.8675 11.6204 3.627C13.6776 3.53438 14.2935 3.51488 19.5 3.51488ZM19.5 0C14.2041 0 13.5411 0.02275 11.4611 0.117C4.37938 0.442 0.443625 4.37125 0.118625 11.4595C0.02275 13.5411 0 14.2041 0 19.5C0 24.7959 0.02275 25.4605 0.117 27.5405C0.442 34.6222 4.37125 38.558 11.4595 38.883C13.5411 38.9772 14.2041 39 19.5 39C24.7959 39 25.4605 38.9772 27.5405 38.883C34.6157 38.558 38.5612 34.6287 38.8814 27.5405C38.9772 25.4605 39 24.7959 39 19.5C39 14.2041 38.9772 13.5411 38.883 11.4611C38.5645 4.38587 34.6304 0.443625 27.5421 0.118625C25.4605 0.02275 24.7959 0 19.5 0V0ZM19.5 9.48675C13.9701 9.48675 9.48675 13.9701 9.48675 19.5C9.48675 25.0299 13.9701 29.5149 19.5 29.5149C25.0299 29.5149 29.5133 25.0315 29.5133 19.5C29.5133 13.9701 25.0299 9.48675 19.5 9.48675ZM19.5 26C15.9104 26 13 23.0912 13 19.5C13 15.9104 15.9104 13 19.5 13C23.0896 13 26 15.9104 26 19.5C26 23.0912 23.0896 26 19.5 26ZM29.9097 6.75188C28.6163 6.75188 27.5681 7.8 27.5681 9.09188C27.5681 10.3837 28.6163 11.4319 29.9097 11.4319C31.2016 11.4319 32.2481 10.3837 32.2481 9.09188C32.2481 7.8 31.2016 6.75188 29.9097 6.75188Z" fill="url(#paint0_linear_2_2939)"/>
<defs>
<linearGradient id="paint0_linear_2_2939" x1="39" y1="-6.78261" x2="-9.0953" y2="39.779" gradientUnits="userSpaceOnUse">
<stop stop-color="#CC70DF"/>
<stop offset="1" stop-color="#0E6AF3"/>
</linearGradient>
</defs>
</svg>
