<svg width="100%" height="100%" viewBox="0 0 10% 10%" fill="none" xmlns="http://www.w3.org/2000/svg">
<path fill-rule="evenodd" clip-rule="evenodd" d="M35.535 0C38.134 0 40.25 2.116 40.25 4.738V46L35.305 41.63L32.522 39.054L29.578 36.317L30.797 40.572H4.715C2.116 40.572 0 38.456 0 35.834V4.738C0 2.116 2.116 0 4.715 0H35.535V0ZM26.657 30.038C31.74 29.877 33.695 26.542 33.695 26.542C33.695 19.136 30.383 13.133 30.383 13.133C27.071 10.649 23.92 10.718 23.92 10.718L23.598 11.086C27.508 12.282 29.325 14.007 29.325 14.007C26.933 12.696 24.587 12.052 22.402 11.799C20.746 11.615 19.159 11.661 17.756 11.845L17.365 11.891C16.56 11.96 14.605 12.259 12.144 13.34C11.293 13.731 10.787 14.007 10.787 14.007C10.787 14.007 12.696 12.19 16.836 10.994L16.606 10.718C16.606 10.718 13.455 10.649 10.143 13.133C10.143 13.133 6.831 19.136 6.831 26.542C6.831 26.542 8.763 29.877 13.846 30.038C13.846 30.038 14.697 29.003 15.387 28.129C12.466 27.255 11.362 25.415 11.362 25.415L12.006 25.806L12.098 25.875L12.1881 25.9268L12.2149 25.9382L12.305 25.99C12.88 26.312 13.455 26.565 13.984 26.772C14.927 27.14 16.054 27.508 17.365 27.761C19.09 28.083 21.114 28.198 23.322 27.784C24.403 27.6 25.507 27.278 26.657 26.795C27.462 26.496 28.359 26.059 29.302 25.438C29.302 25.438 28.152 27.324 25.139 28.175C25.829 29.049 26.657 30.038 26.657 30.038ZM15.962 19.297C14.651 19.297 13.616 20.447 13.616 21.85C13.616 23.253 14.674 24.403 15.962 24.403C17.273 24.403 18.308 23.253 18.308 21.85C18.331 20.447 17.273 19.297 15.962 19.297ZM24.357 19.297C23.046 19.297 22.011 20.447 22.011 21.85C22.011 23.253 23.069 24.403 24.357 24.403C25.668 24.403 26.703 23.253 26.703 21.85C26.703 20.447 25.668 19.297 24.357 19.297Z" fill="url(#paint0_linear_2_2923)"/>
<defs>
<linearGradient id="paint0_linear_2_2923" x1="40.25" y1="-8" x2="-15.735" y2="39.4248" gradientUnits="userSpaceOnUse">
<stop stop-color="#CC70DF"/>
<stop offset="1" stop-color="#0E6AF3"/>
</linearGradient>
</defs>
</svg>
