<svg width="49" height="39" viewBox="0 0 49 39" fill="none" xmlns="http://www.w3.org/2000/svg">
<path d="M20.5836 36.1473C12.4732 36.9309 5.46776 33.3303 4.94131 28.096C4.41487 22.8669 10.5654 17.9859 18.6759 17.1972C26.7863 16.4085 33.7917 20.009 34.3181 25.2433C34.8446 30.4776 28.694 35.3585 20.5836 36.1473ZM36.8097 18.7747C36.1216 18.5698 35.6473 18.4315 36.007 17.5455C36.7888 15.6095 36.8722 13.9398 36.0226 12.7516C34.4328 10.5186 30.0805 10.6415 25.0923 12.6902C25.0923 12.6851 23.5286 13.3662 23.9247 12.1422C24.6909 9.71963 24.5763 7.68634 23.3826 6.51348C20.6774 3.85023 13.4792 6.61592 7.30772 12.6748C2.68436 17.2228 0 22.0372 0 26.1959C0 34.1601 10.3934 39 20.5575 39C33.8855 39 42.7465 31.3944 42.7465 25.3508C42.7465 21.7042 39.6191 19.63 36.8097 18.7747ZM45.6602 4.20363C42.439 0.700431 37.6958 -0.636315 33.3122 0.280457C32.301 0.495565 31.6546 1.4738 31.8683 2.46739C32.0821 3.46099 33.0828 4.09607 34.094 3.88609C37.211 3.23564 40.5834 4.18826 42.8716 6.67737C45.0817 9.07942 45.8166 12.4597 44.8002 15.5429C44.4822 16.5109 45.0191 17.5506 46.0042 17.863H46.0095C46.9946 18.1754 48.0527 17.6479 48.3707 16.6799V16.6748C49.7467 12.4802 48.8763 7.70682 45.6602 4.20363ZM40.7189 8.58774C39.1552 6.88224 36.8409 6.23179 34.7039 6.67737C33.8282 6.83615 33.2444 7.66073 33.406 8.52116C33.5676 9.3816 34.4068 9.95522 35.2824 9.79645C35.3137 9.79133 35.345 9.78621 35.3763 9.77596C36.4552 9.55061 37.5759 9.904 38.316 10.7081C39.0562 11.5122 39.3012 12.6492 38.9571 13.6786C38.6809 14.5135 39.15 15.4046 39.9944 15.6761C40.844 15.9475 41.7562 15.4866 42.0272 14.6518C42.7048 12.6185 42.2878 10.2932 40.7189 8.58774ZM21.0319 26.6671C20.7452 27.1434 20.1197 27.3739 19.6297 27.1741C19.145 26.9795 18.9938 26.4469 19.2701 25.9757C19.5515 25.5096 20.1562 25.2843 20.6357 25.4686C21.1257 25.6479 21.3029 26.1908 21.0319 26.6671ZM18.4465 29.9296C17.6595 31.1588 15.9811 31.6966 14.7145 31.1332C13.4687 30.5749 13.0986 29.146 13.8857 27.9475C14.6624 26.7542 16.2834 26.2215 17.5396 26.7388C18.8114 27.2663 19.218 28.685 18.4465 29.9296ZM21.3967 21.2228C17.5344 20.2343 13.1716 22.1242 11.4985 25.4686C9.7888 28.8797 11.4411 32.6594 15.34 33.8989C19.3795 35.1793 24.1436 33.2177 25.7959 29.5352C27.4274 25.9398 25.3894 22.2369 21.3967 21.2228Z" fill="url(#paint0_linear_1148_404)"/>
<defs>
<linearGradient id="paint0_linear_1148_404" x1="41.4931" y1="-4.68138" x2="1.32528" y2="36.0178" gradientUnits="userSpaceOnUse">
<stop stop-color="#CC70DF"/>
<stop offset="1" stop-color="#0E6AF3"/>
</linearGradient>
</defs>
</svg>
