<svg width="100%" height="100%" viewBox="0 0 10% 10%" fill="none" xmlns="http://www.w3.org/2000/svg">
<path d="M47 4.61705C45.2708 5.40089 43.4123 5.92878 41.4618 6.16673C43.4535 4.94898 44.9829 3.01938 45.7016 0.719853C43.8393 1.84762 41.7752 2.66745 39.5779 3.10936C37.8213 1.19575 35.3127 0 32.5397 0C26.3141 0 21.7395 5.93078 23.1455 12.0875C15.134 11.6776 8.02917 7.75841 3.27238 1.80163C0.746125 6.22672 1.96225 12.0155 6.25492 14.9469C4.6765 14.8949 3.18817 14.453 1.88979 13.7152C1.78404 18.2763 4.98592 22.5434 9.62325 23.4932C8.26612 23.8691 6.77975 23.9571 5.26792 23.6611C6.49383 27.5723 10.0541 30.4178 14.2762 30.4977C10.2225 33.7431 5.11517 35.1928 0 34.5769C4.26721 37.3703 9.33733 39 14.7815 39C32.6846 39 42.7994 23.5612 42.1884 9.71401C44.0723 8.32429 45.7075 6.59065 47 4.61705Z" fill="url(#paint0_linear_2_2918)"/>
<defs>
<linearGradient id="paint0_linear_2_2918" x1="47" y1="-6.78261" x2="-0.554225" y2="48.6989" gradientUnits="userSpaceOnUse">
<stop stop-color="#CC70DF"/>
<stop offset="1" stop-color="#0E6AF3"/>
</linearGradient>
</defs>
</svg>
