<svg width="400" height="210" viewBox="0 0 400 210" fill="none" xmlns="http://www.w3.org/2000/svg">
<mask id="mask0_767_694" style="mask-type:alpha" maskUnits="userSpaceOnUse" x="0" y="0" width="400" height="210">
<path d="M0 12C0 5.37258 5.37258 0 12 0H388C394.627 0 400 5.37258 400 12V210H0V12Z" fill="#D9D9D9"/>
</mask>
<g mask="url(#mask0_767_694)">
<path d="M0 16C0 7.16344 7.16344 0 16 0H384C392.837 0 400 7.16344 400 16V210H0V16Z" fill="#0074F0"/>
<rect x="-10" width="420" height="210" fill="#F6F8FE"/>
<path d="M168.63 97.0907C169.005 97.0909 169.377 97.1661 169.723 97.312C170.07 97.4582 170.384 97.6726 170.647 97.9423C171.186 98.4889 171.488 99.2256 171.487 99.9931V116.795H164.405V113.172C162.686 115.72 158.658 117.216 155.477 117.154C153.231 117.181 151.005 116.734 148.943 115.844C146.881 114.954 145.029 113.64 143.508 111.987C140.353 108.626 138.596 104.189 138.596 99.5788C138.596 94.9686 140.353 90.5315 143.508 87.1705C145.027 85.5188 146.876 84.205 148.935 83.3144C150.994 82.4238 153.217 81.9763 155.461 82.001C158.772 81.9645 162.006 83.0014 164.679 84.9563C165.323 85.4266 165.934 85.9411 166.507 86.4961C167.389 87.3534 168.179 88.3007 168.863 89.3226C169.866 90.8445 170.584 92.5362 170.981 94.3149H163.676L163.321 93.6842C162.637 92.4623 161.69 91.408 160.548 90.5977C159.064 89.5616 157.293 89.0188 155.484 89.0464C154.169 89.0146 152.862 89.2674 151.654 89.7875C150.442 90.3131 149.356 91.0906 148.468 92.0685C146.65 94.1622 145.646 96.8413 145.642 99.6148C145.638 102.388 146.633 105.07 148.445 107.17C149.333 108.149 150.42 108.926 151.633 109.448C152.841 109.969 154.148 110.223 155.463 110.192C157.637 110.199 159.737 109.403 161.36 107.957C162.792 106.668 163.74 105.655 164.147 103.584L154.236 103.627L154.163 97.0907H168.63Z" fill="#0074F0"/>
<path d="M91.8555 95.0962C92.1231 96.1878 92.2916 97.3013 92.359 98.4233C92.5908 101.986 91.773 105.538 90.0069 108.641C87.3029 113.299 82.3158 116.599 76.9562 117.093C75.5928 117.216 74.2192 117.159 72.8705 116.925C70.7258 116.557 68.6758 115.766 66.8395 114.599C65.9286 114.018 65.0809 113.344 64.3103 112.587C64.0459 112.327 63.7815 112.065 63.524 111.798C63.1807 111.447 62.8575 111.077 62.556 110.69C62.4088 110.494 62.2663 110.297 62.1283 110.094C61.9857 109.907 61.8545 109.711 61.7351 109.508L80.6627 90.3322L80.4189 90.1804C80.3362 90.1298 80.2534 90.0838 80.1683 90.0378C77.515 88.6146 74.1167 88.6445 71.4541 90.0241C70.1484 90.7213 69.0092 91.6932 68.1149 92.8729C67.2207 94.0525 66.5926 95.4119 66.2739 96.8575C65.9161 98.4595 65.8615 100.114 66.1129 101.736C66.1182 101.763 66.123 101.789 66.1277 101.815C66.1333 101.846 66.1389 101.877 66.1451 101.907L60.7051 107.452C60.6706 107.381 60.6361 107.31 60.6039 107.239C59.5705 104.999 58.9986 102.575 58.9224 100.11C58.8461 97.6451 59.2671 95.19 60.1601 92.8912C60.3119 92.5096 60.4797 92.1325 60.6568 91.76C62.5077 87.9317 65.8393 84.5955 69.8377 83.0826C73.2096 81.7894 76.9151 81.6507 80.3741 82.6884C83.8331 83.726 86.8505 85.8813 88.9538 88.8169V88.8307C88.9914 88.883 89.0291 88.9347 89.0667 88.9863C89.183 89.1461 89.299 89.3054 89.4136 89.4791L89.5608 89.7091L70.7322 108.899C72.8981 110.258 75.7675 110.568 78.2048 109.864C78.5406 109.767 78.8706 109.651 79.1934 109.517L79.3843 109.437C82.6377 108.013 84.8197 104.859 85.321 101.375C85.4388 100.56 85.4651 99.7342 85.3991 98.913C85.3807 98.6877 85.2267 97.3679 85.2267 97.3679L90.7104 91.7784C90.8683 92.1156 91.0178 92.4567 91.1588 92.8016C91.1511 92.8092 91.3515 93.3962 91.4488 93.6813C91.4681 93.7378 91.4834 93.7828 91.4922 93.8086C91.6286 94.2332 91.7497 94.6624 91.8555 95.0962Z" fill="#0074F0"/>
<path fill-rule="evenodd" clip-rule="evenodd" d="M123.143 93.911C123.173 96.0544 122.571 98.1591 121.414 99.9632C120.252 101.776 118.587 103.21 116.622 104.09L124.529 116.857H116.463L109.332 105.191H103.807V116.857H96.5445V83.9056C96.5442 83.6955 96.5853 83.4873 96.6654 83.2931C96.7455 83.0988 96.8632 82.9222 97.0115 82.7734C97.1599 82.6246 97.3362 82.5065 97.5302 82.4258C97.7242 82.3451 97.9322 82.3034 98.1424 82.3031H111.452C112.987 82.2645 114.515 82.5379 115.941 83.1067C118.095 83.9661 119.936 85.4594 121.222 87.3888C122.509 89.3181 123.178 91.5926 123.143 93.911ZM114.687 97.213C115.152 96.7697 115.518 96.234 115.763 95.6405C116.004 95.0481 116.116 94.4115 116.093 93.7725C116.113 93.1545 116.01 92.5387 115.791 91.9605C115.572 91.3823 115.241 90.8532 114.817 90.4035C114.386 89.9589 113.865 89.6118 113.289 89.3856C112.713 89.1593 112.095 89.0592 111.478 89.0919H103.82V98.5477H111.154C111.805 98.5724 112.454 98.4673 113.064 98.2383C113.674 98.0072 114.232 97.6589 114.708 97.213H114.687Z" fill="#0074F0"/>
<path d="M127.293 82.2995H134.449V116.857H127.293V82.2995Z" fill="#0074F0"/>
<path d="M176.095 82.2995H183.251V116.857H176.095V82.2995Z" fill="#0074F0"/>
<path d="M210.915 82.3064H211.358L211.376 82.3087H218.108V112.932C218.113 113.961 217.722 114.953 217.016 115.702C216.677 116.064 216.269 116.352 215.815 116.55C215.362 116.749 214.873 116.853 214.377 116.857H210.785C210.078 116.854 209.386 116.642 208.798 116.25C208.193 115.851 207.714 115.291 207.412 114.634L195.034 91.7786V116.852H187.859V86.2241C187.854 85.1948 188.245 84.203 188.951 83.4538C189.612 82.7488 190.524 82.3339 191.49 82.2995H195.343C196.049 82.2985 196.74 82.5066 197.329 82.8974C197.929 83.2955 198.405 83.8559 198.7 84.5134L210.915 106.907V82.3064Z" fill="#0074F0"/>
<path d="M242.65 82C234.705 82 230.824 86.603 230.824 91.9807C230.824 98.4978 235.847 100.23 241.965 101.734C247.17 102.964 250.138 103.876 250.138 107.294C250.138 110.848 247.262 112.307 243.335 112.307C239.043 112.307 235.801 109.982 235.573 106.336L230.048 106.656C230.276 113.309 235.847 117.001 243.335 117.001C250.092 117.001 255.663 113.947 255.663 106.929C255.663 100.913 251.143 98.8624 243.974 97.1306C239.043 95.9912 236.395 95.2164 236.395 91.7984C236.395 88.8817 238.586 86.6941 242.741 86.6941C246.577 86.6941 249.088 88.7905 249.271 92.2086L254.795 91.8895C254.567 85.6459 249.636 82 242.65 82Z" fill="black"/>
<path d="M270.471 112.307C268.371 112.307 266.59 111.35 266.59 108.296L266.636 97.5863H272.617V93.1656H266.681L266.727 85.2358H261.568L261.522 93.1656H257.184V97.5863H261.522L261.476 109.344C261.431 114.631 264.627 116.91 269.238 116.91C270.882 116.91 271.795 116.773 272.663 116.636V112.079C272.115 112.17 271.43 112.307 270.471 112.307Z" fill="black"/>
<path d="M287.186 92.7555C280.2 92.7555 274.949 97.4496 274.949 104.878C274.949 112.261 280.2 117.001 287.186 117.001C294.126 117.001 299.377 112.261 299.377 104.878C299.377 97.4496 294.126 92.7555 287.186 92.7555ZM287.186 97.1306C291.204 97.1306 294.217 100.002 294.217 104.878C294.217 109.709 291.204 112.58 287.186 112.58C283.122 112.58 280.154 109.709 280.154 104.878C280.154 100.002 283.122 97.1306 287.186 97.1306Z" fill="black"/>
<path d="M314.583 92.8922C310.839 92.8922 309.182 94.624 308.315 96.4469V93.1656H303.338V116.545H308.452V103.83C308.452 100.412 312.157 97.8597 316.175 97.8597L314.583 92.8922Z" fill="black"/>
<path d="M341.086 93.1656H335.379L329.078 109.162L322.777 93.1656H317.069L326.338 114.904L320.585 128.166H326.201L341.086 93.1656Z" fill="black"/>
</g>
</svg>
