<svg width="76" height="31" viewBox="0 0 76 31" fill="none" xmlns="http://www.w3.org/2000/svg">
<path d="M9.37613 0C4.04135 0 1.43528 3.09082 1.43528 6.70187C1.43528 11.078 4.80784 12.2409 8.91624 13.2507C12.4114 14.077 14.4043 14.689 14.4043 16.9842C14.4043 19.3712 12.4728 20.3504 9.83603 20.3504C6.95402 20.3504 4.77718 18.7897 4.62388 16.3416L0.914062 16.5558C1.06736 21.0237 4.80784 23.5025 9.83603 23.5025C14.3737 23.5025 18.1141 21.4521 18.1141 16.7394C18.1141 12.6999 15.0788 11.3228 10.2653 10.1599C6.95402 9.39487 5.17576 8.87463 5.17576 6.57947C5.17576 4.62093 6.64742 3.15202 9.43745 3.15202C12.0129 3.15202 13.6991 4.55972 13.8218 6.85488L17.5316 6.64067C17.3783 2.44817 14.0671 0 9.37613 0Z" fill="black"/>
<path d="M28.0577 20.3504C26.6473 20.3504 25.4516 19.7078 25.4516 17.6574L25.4823 10.4659H29.4987V7.49753H25.5129L25.5436 2.17275H22.0791L22.0484 7.49753H19.1357V10.4659H22.0484L22.0177 18.3613C21.9871 21.9112 24.1333 23.4413 27.2299 23.4413C28.3336 23.4413 28.9468 23.3495 29.5294 23.2577V20.1974C29.1614 20.2586 28.7015 20.3504 28.0577 20.3504Z" fill="black"/>
<path d="M39.2813 7.22211C34.5904 7.22211 31.0645 10.3741 31.0645 15.3623C31.0645 20.3198 34.5904 23.5025 39.2813 23.5025C43.9416 23.5025 47.4674 20.3198 47.4674 15.3623C47.4674 10.3741 43.9416 7.22211 39.2813 7.22211ZM39.2813 10.1599C41.9793 10.1599 44.0029 12.0879 44.0029 15.3623C44.0029 18.6061 41.9793 20.5341 39.2813 20.5341C36.5526 20.5341 34.5597 18.6061 34.5597 15.3623C34.5597 12.0879 36.5526 10.1599 39.2813 10.1599Z" fill="black"/>
<path d="M57.6781 7.31392C55.164 7.31392 54.0515 8.4768 53.469 9.70089V7.49753H50.1271V23.1964H53.561V14.6584C53.561 12.3633 56.049 10.6496 58.747 10.6496L57.6781 7.31392Z" fill="black"/>
<path d="M75.4744 7.49753H71.642L67.4109 18.2389L63.1799 7.49753H59.3474L65.5713 22.0948L61.7082 31H65.4794L75.4744 7.49753Z" fill="black"/>
</svg>
