<svg width="129" height="129" viewBox="0 0 129 129" fill="none" xmlns="http://www.w3.org/2000/svg">
<g clip-path="url(#clip0_767_639)">
<path d="M64.5016 129.003C100.125 129.003 129.003 100.125 129.003 64.5016C129.003 28.8784 100.125 0 64.5016 0C28.8784 0 0 28.8784 0 64.5016C0 100.125 28.8784 129.003 64.5016 129.003Z" fill="#030C17"/>
<path d="M69.9499 59.3032C69.3894 59.1879 68.8417 59.079 68.3036 58.97C61.1546 57.5351 55.9881 56.4974 55.9881 51.5391C55.9881 48.4515 59.0214 45.9916 64.4921 45.9916C69.3414 45.9916 73.233 47.9582 75.7441 51.6801L76.1189 51.7954L83.8765 43.8392L83.8477 43.5317C80.7408 39.8515 76.8524 37.2955 72.3778 35.9406C71.7692 35.7581 71.1511 35.5947 70.5233 35.457L70.472 35.4442C70.251 35.3961 70.0268 35.3545 69.8026 35.3096V28.2471H59.1943V35.3064C58.8548 35.3705 58.5185 35.441 58.1854 35.5178C58.1662 35.521 58.147 35.5242 58.1277 35.5274C53.0927 36.7125 48.7334 39.3518 45.3062 43.3331C43.8777 45.7417 43.1538 48.618 43.1538 51.9459C43.1538 63.3293 51.741 66.9423 60.1392 68.9762C61.6862 69.3541 63.2205 69.6296 64.7003 69.8986C69.9499 70.8467 74.4854 71.6635 74.4854 76.4071C74.4854 79.341 71.2568 83.0052 64.4921 83.0052C60.4947 83.0052 57.2213 81.676 54.803 79.2065C54.6589 79.0591 54.4763 78.9246 54.3386 78.7677L45.1877 85.148L45.1749 85.4651C46.4849 87.0089 47.9262 88.3542 49.4861 89.4977C50.0082 89.8788 50.5431 90.2375 51.0876 90.5738L51.1132 90.5899C51.6545 90.9198 52.2086 91.2305 52.7724 91.5155C52.7884 91.5251 52.8076 91.5347 52.8236 91.5411C53.3809 91.823 53.9511 92.0825 54.534 92.3163C54.5596 92.3291 54.5884 92.3387 54.6173 92.3483C55.1938 92.5789 55.78 92.7903 56.3757 92.9793C56.4109 92.9921 56.4494 93.0017 56.4846 93.0113C56.7569 93.0946 57.0323 93.1747 57.3078 93.2515C57.3366 93.2579 57.3654 93.2676 57.3943 93.274C57.6921 93.354 57.9932 93.4277 58.2943 93.4982C58.3359 93.5078 58.3808 93.5174 58.4224 93.527C58.6786 93.5846 58.9349 93.6359 59.1943 93.6871V100.743H69.8026V93.6807C69.9916 93.6455 70.1806 93.6103 70.3663 93.5718C70.4016 93.5654 70.4368 93.5558 70.4688 93.5494C71.1991 93.3893 71.9198 93.1971 72.6212 92.9761H72.6276C72.9832 92.8608 73.3323 92.7423 73.6782 92.6141C77.5858 91.1792 81.0002 88.777 83.8092 85.4651C84.8534 84.2319 85.7855 82.8867 86.6086 81.455C87.025 79.8887 87.2364 78.1815 87.2364 76.327C87.2364 64.2133 77.999 60.8662 69.9435 59.3032H69.9499Z" fill="white"/>
<path d="M41.7122 51.9492C41.7122 50.6519 41.8179 49.4092 42.0261 48.2273C42.0132 48.2529 41.9972 48.2785 41.9844 48.3074C41.8627 48.5348 41.7442 48.759 41.6289 48.9896C41.552 49.1433 41.4751 49.3003 41.3983 49.4572C41.2894 49.6814 41.1837 49.9121 41.0812 50.1395C41.0107 50.2932 40.9402 50.4502 40.873 50.6071C40.7609 50.8698 40.652 51.1356 40.5463 51.4046C40.4982 51.5296 40.4438 51.6513 40.3957 51.7762C40.2484 52.1605 40.1075 52.5513 39.9761 52.9421C39.9313 53.0702 39.8929 53.2015 39.8512 53.3328C39.7615 53.6147 39.6719 53.8934 39.5886 54.1784C39.5405 54.3386 39.4957 54.4987 39.4541 54.6589C39.3804 54.9247 39.3099 55.1906 39.2427 55.4596C39.201 55.6198 39.1626 55.7799 39.1242 55.9433C39.0537 56.2379 38.9896 56.5358 38.9256 56.8337C38.8967 56.9682 38.8679 57.0995 38.8423 57.2341C38.759 57.6633 38.6789 58.0957 38.6085 58.5345C38.5957 58.6178 38.5861 58.7042 38.5732 58.7875C38.5188 59.1462 38.4675 59.5082 38.4227 59.8733C38.4035 60.0239 38.3875 60.1776 38.3715 60.3314C38.3394 60.6356 38.3074 60.9431 38.2818 61.2506C38.269 61.414 38.2561 61.5741 38.2433 61.7375C38.2209 62.0578 38.2017 62.3781 38.1889 62.6984C38.1825 62.8425 38.1729 62.9834 38.1697 63.1276C38.1537 63.5888 38.144 64.0564 38.144 64.5241C38.144 64.9917 38.1537 65.4849 38.1729 65.959C38.1793 66.1159 38.1889 66.2729 38.1985 66.4266C38.2145 66.7437 38.2305 67.0608 38.2529 67.3747C38.2658 67.5637 38.285 67.7527 38.301 67.9448C38.3266 68.2203 38.3522 68.4957 38.3811 68.7712C38.4035 68.9762 38.4291 69.178 38.4547 69.383C38.4868 69.636 38.522 69.8922 38.5604 70.1421C38.5925 70.3567 38.6277 70.5681 38.6629 70.7795C38.7014 71.0165 38.7462 71.2503 38.791 71.4873C38.8327 71.7083 38.8743 71.9293 38.9192 72.1471C38.964 72.3649 39.0153 72.5827 39.0633 72.7973C39.1145 73.0248 39.1658 73.2554 39.2234 73.4828C39.2715 73.675 39.3227 73.8607 39.374 74.0497C39.4413 74.2963 39.5053 74.543 39.5758 74.7896C39.5918 74.8505 39.6142 74.9081 39.6302 74.9658C39.8352 75.6512 40.0626 76.3238 40.3093 76.9836C40.3317 77.0445 40.3541 77.1086 40.3765 77.1662C40.4886 77.4577 40.6071 77.746 40.7256 78.031C40.7705 78.1399 40.8121 78.2488 40.8602 78.3545C40.9787 78.63 41.1036 78.9054 41.2285 79.1745C41.2798 79.2866 41.331 79.3987 41.3823 79.5076C41.5104 79.7766 41.6449 80.0425 41.7826 80.3083C41.8371 80.414 41.8915 80.5165 41.946 80.6222C42.0869 80.8881 42.2342 81.1539 42.3848 81.4166C42.436 81.5095 42.4905 81.5991 42.5449 81.6888C42.7051 81.9579 42.8652 82.2269 43.0318 82.4896C43.0734 82.5568 43.1183 82.6241 43.1631 82.6882C43.3457 82.97 43.5315 83.2519 43.7236 83.5241C44.1881 84.1871 44.6749 84.8245 45.1906 85.4363L54.7899 79.1873C52.0706 76.4039 50.4435 72.1728 50.0944 66.7661C45.3443 64.0084 41.7122 59.5754 41.7122 51.9459V51.9492Z" fill="white"/>
<path d="M90.8299 62.9769C90.8235 62.82 90.8107 62.6663 90.8043 62.5093C90.7883 62.1794 90.7722 61.8527 90.7466 61.526C90.7338 61.337 90.7114 61.148 90.6954 60.9591C90.6698 60.6708 90.6441 60.3825 90.6121 60.0943C90.5897 59.8893 90.5609 59.6907 90.5352 59.4889C90.5 59.2198 90.4648 58.9508 90.4231 58.6849C90.3911 58.4768 90.3559 58.2686 90.3174 58.0604C90.2726 57.8041 90.2309 57.5511 90.1829 57.2981C90.1413 57.0867 90.0964 56.8753 90.0516 56.6639C90.0003 56.4204 89.9459 56.177 89.8914 55.9368C89.8402 55.7254 89.7889 55.514 89.7345 55.3026C89.6736 55.0688 89.6128 54.835 89.5487 54.6011C89.491 54.3898 89.4302 54.1784 89.3661 53.967C89.2989 53.7395 89.2284 53.5153 89.1579 53.2943C89.0907 53.0829 89.0202 52.8747 88.9497 52.6665C88.8761 52.4487 88.796 52.2341 88.7159 52.0195C88.6391 51.8114 88.5622 51.6032 88.4821 51.3982C88.3988 51.19 88.3124 50.9818 88.2259 50.7768C88.1394 50.5718 88.0529 50.3668 87.9632 50.165C87.8736 49.9632 87.7807 49.7678 87.6878 49.5693C87.5917 49.3675 87.4988 49.1657 87.3995 48.9671C87.3034 48.7749 87.2009 48.586 87.1016 48.397C86.9991 48.1984 86.8966 47.9998 86.7877 47.8076C86.6852 47.6219 86.5763 47.4425 86.4706 47.2631C86.3585 47.0709 86.2464 46.8756 86.1311 46.6866C86.0222 46.5104 85.9069 46.3439 85.798 46.1709C85.4489 45.6328 85.087 45.1075 84.7026 44.6014C84.4271 44.2395 84.1453 43.884 83.8538 43.5413L75.7471 51.6896C77.3261 54.0278 78.3383 56.9778 78.7547 60.5074C84.1261 63.0346 88.6807 67.5828 88.6807 76.3366C88.6807 76.5416 88.6775 76.7465 88.6711 76.9515C88.6839 76.9131 88.7031 76.8779 88.7159 76.8394C88.764 76.7113 88.8088 76.58 88.8569 76.4519C88.9786 76.1156 89.0907 75.7728 89.1996 75.4301C89.2508 75.2668 89.3021 75.1066 89.3533 74.9401C89.4142 74.7351 89.475 74.5301 89.5327 74.3219C89.6096 74.0496 89.6832 73.7774 89.7505 73.5019C89.8049 73.2937 89.853 73.0823 89.9042 72.8709C89.9587 72.6371 90.0099 72.4001 90.0612 72.1631C90.0932 72.0061 90.1284 71.8492 90.1605 71.689C90.2309 71.3303 90.295 70.9716 90.3559 70.6064C90.3783 70.4623 90.4039 70.3182 90.4231 70.174C90.4808 69.7865 90.5384 69.3989 90.5833 69.0081C90.5929 68.9249 90.6025 68.8416 90.6089 68.7583C90.6505 68.3932 90.6858 68.0248 90.7178 67.6533C90.7274 67.5572 90.7338 67.4611 90.7434 67.3618C90.7754 66.939 90.8011 66.5098 90.8171 66.0838C90.8203 65.9909 90.8235 65.9013 90.8267 65.8084C90.8427 65.36 90.8523 64.9051 90.8523 64.4535C90.8523 63.9603 90.8427 63.4702 90.8235 62.9833L90.8299 62.9769Z" fill="white"/>
</g>
<defs>
<clipPath id="clip0_767_639">
<rect width="129" height="129" fill="white"/>
</clipPath>
</defs>
</svg>
