<svg width="400" height="400" viewBox="0 0 400 400" fill="none" xmlns="http://www.w3.org/2000/svg">
<g clip-path="url(#clip0_19_124)">
<path d="M199.822 399.703C310.082 399.703 399.465 310.319 399.465 200.059C399.465 89.7994 310.082 0.416016 199.822 0.416016C89.5616 0.416016 0.178223 89.7994 0.178223 200.059C0.178223 310.319 89.5616 399.703 199.822 399.703Z" fill="#1A82FF"/>
<path d="M279.703 148.945L248.083 180.565C249.331 186.805 249.985 193.7 249.985 201.129C249.985 241.129 231.204 265.022 199.703 265.022C186.568 265.022 175.513 260.802 167.132 252.838L276.672 143.299C273.759 138.128 270.372 133.254 266.627 128.796C265.022 126.954 263.358 125.171 261.694 123.507C261.456 123.269 261.219 123.091 260.981 122.853C260.505 122.377 259.97 121.842 259.495 121.367C243.566 106.508 223.12 98.722 199.703 98.722C172.6 98.722 149.48 109.123 132.898 128.796C117.266 147.281 108.648 173.016 108.648 201.189C108.648 219.911 112.452 237.504 119.584 252.66L151.382 220.862C150.253 214.859 149.718 208.261 149.718 201.189C149.718 182.764 153.462 167.905 160.832 156.969C169.51 144.131 182.942 137.355 199.643 137.355C212.66 137.355 223.537 141.456 231.798 149.123L122.496 258.365C125.528 263.833 128.975 268.885 132.898 273.521C133.67 274.472 134.502 275.305 135.275 276.196C136.226 277.206 137.177 278.217 138.128 279.168C138.247 279.287 138.366 279.406 138.484 279.524C138.782 279.822 139.079 280.178 139.435 280.475L139.495 280.416C155.424 295.572 175.988 303.536 199.703 303.536C226.805 303.536 249.985 293.135 266.627 273.462C282.378 254.918 290.996 229.242 290.996 201.07C291.055 182.169 287.073 164.279 279.703 148.945Z" fill="#FAFBFC"/>
</g>
<defs>
<clipPath id="clip0_19_124">
<rect width="400" height="400" fill="white"/>
</clipPath>
</defs>
</svg>
