<svg width="77" height="77" viewBox="0 0 77 77" fill="none" xmlns="http://www.w3.org/2000/svg">
<g filter="url(#filter0_d_2_1000)">
<circle cx="38.5" cy="34.5" r="24.5" fill="#0074F0"/>
<path d="M57.255 34.4761C57.255 34.4433 57.255 34.4104 57.255 34.3776V34.3489C57.255 34.186 57.255 34.0245 57.255 33.863C57.255 33.6399 57.2427 33.4182 57.2304 33.1952C57.2304 33.1021 57.2195 33.0077 57.2127 32.9146C57.214 32.8882 57.214 32.8616 57.2127 32.8352C57.2127 32.7558 57.2018 32.6778 57.1949 32.5984C57.1949 32.567 57.1949 32.5369 57.1867 32.5054C57.1786 32.4041 57.169 32.3042 57.1581 32.2029V32.1933L57.1212 31.8649C57.0953 31.6487 57.0666 31.4324 57.0311 31.2176C57.0318 31.2043 57.0318 31.1911 57.0311 31.1779C56.9483 30.6386 56.8413 30.104 56.7103 29.5739L56.6529 29.3426C56.6256 29.2399 56.5983 29.1359 56.5697 29.0333C56.5355 28.9046 56.4987 28.7774 56.4604 28.6515V28.635V28.62C56.4468 28.5693 56.4318 28.5201 56.4168 28.4708C56.4017 28.4215 56.3949 28.3942 56.3826 28.3558C56.3703 28.3175 56.3608 28.2792 56.3485 28.2409L56.1819 27.7386L55.8966 26.8545L55.8584 26.8942C55.7027 26.5073 55.5353 26.1255 55.356 25.7487L49.2042 32.0127C49.2515 32.2755 49.2898 32.5396 49.3189 32.8051C49.3105 32.9673 49.3271 33.1297 49.368 33.2868C49.4022 33.7248 49.424 34.1354 49.424 34.5323C49.424 34.7704 49.424 34.9784 49.4144 35.181C49.4144 35.2261 49.4144 35.2727 49.4144 35.3178C49.4076 35.4054 49.3994 35.4944 49.3885 35.5847L49.4035 35.5997C49.4035 35.6545 49.4035 35.7093 49.4035 35.7654C49.3748 35.9315 49.3561 36.0992 49.3476 36.2676V36.4729C49.3339 36.6207 49.3106 36.7675 49.2779 36.9122C49.185 37.4476 49.0596 37.9769 48.9025 38.4971L48.7291 38.9993C48.7059 39.065 48.6813 39.1362 48.6554 39.1991C48.6431 39.2306 48.6322 39.2621 48.6199 39.2922L48.583 39.3853L48.5748 39.4072C48.5421 39.4879 48.5079 39.5686 48.4724 39.6508C48.2977 40.0326 48.138 40.3651 47.9714 40.6621L47.9031 40.7894C47.8799 40.8319 47.8554 40.8729 47.8308 40.9153L47.7734 41.0098L47.7147 41.1028L47.6724 41.1685C47.5575 41.3611 47.4327 41.5475 47.2983 41.7269L47.1618 41.9158C47.0253 42.1033 46.8751 42.2867 46.7263 42.4632C46.6416 42.5686 46.5529 42.6726 46.4532 42.7739L46.4246 42.8067L46.4055 42.8272C46.3044 42.9395 46.202 43.0517 46.0983 43.1612C46.0273 43.2364 45.9536 43.3104 45.8812 43.3843C45.8102 43.4568 45.7365 43.5293 45.6628 43.5978C45.6232 43.6375 45.5822 43.6758 45.5413 43.7141C45.5003 43.7524 45.4594 43.7921 45.4184 43.8277L45.4088 43.8373L45.2423 43.9878L45.2286 44.0001C45.1918 44.0343 45.1549 44.0672 45.1167 44.0973C45.0785 44.1274 45.0334 44.1698 44.9897 44.2054L44.8163 44.3505L44.6211 44.4983L44.4436 44.6256L44.3617 44.6817L44.3481 44.6913L44.3207 44.7104C44.2224 44.7761 44.1242 44.8404 44.0245 44.9034C43.9248 44.9664 43.8238 45.0266 43.7214 45.0854L43.5071 45.2059L43.4306 45.2469L43.3555 45.2866L43.275 45.3276L43.0402 45.444L42.8012 45.5535L42.7466 45.5767L42.5514 45.6602L42.4558 45.6985L42.2811 45.7656L42.1446 45.8162L42.0749 45.8409L41.9548 45.8819L41.9289 45.8901L41.7514 45.9476L41.5725 46.001L41.3923 46.0516C41.1998 46.1023 41.0046 46.1474 40.8094 46.1885L40.7384 46.2022C40.565 46.235 40.3916 46.2638 40.2169 46.2884L39.6612 46.3527C39.2762 46.3985 38.8884 46.4173 38.5007 46.4088C37.8797 46.4105 37.2595 46.3647 36.6454 46.272C36.2973 46.2077 35.8945 46.1351 35.6037 46.0516L35.4959 46.0229L35.4617 46.0133L35.3143 45.9709L35.1641 45.9244L35.0494 45.8874L34.8719 45.8258L34.7791 45.793L34.6835 45.7588H34.6126C34.3306 45.6504 34.0545 45.5275 33.7852 45.3906L33.5504 45.2729L33.5422 45.2811L33.4057 45.21L33.3798 45.1963L33.2432 45.1155C33.1436 45.0594 33.0439 44.9992 32.9456 44.9376L48.3728 29.2235L51.166 26.3782L54.033 23.4618L54.0658 23.4289L53.9006 23.1798C53.7327 22.9335 53.5593 22.6927 53.3805 22.4545L53.3695 22.4394C53.3299 22.3765 53.2863 22.3163 53.2412 22.2547C53.2071 22.2054 53.1716 22.1562 53.1347 22.1083L53.0965 22.0549L53.0501 21.9947L53.0173 21.9509L52.9572 21.8756L52.9081 21.8126L52.8685 21.7634L52.8562 21.7469L52.8125 21.6949C52.7716 21.6443 52.7292 21.595 52.6856 21.5444C52.6805 21.5372 52.675 21.5304 52.6692 21.5239C52.6064 21.45 52.5436 21.3747 52.4794 21.3008C52.3511 21.153 52.2195 21.0052 52.0848 20.8574C52.0166 20.7821 51.9483 20.7082 51.8773 20.6329C51.5429 20.288 51.2166 19.9678 50.8889 19.664C50.7524 19.5435 50.6268 19.4245 50.4944 19.3081L50.2937 19.133L49.8213 18.7511L49.6192 18.5896L49.5332 18.5226C49.4772 18.4774 49.4199 18.4336 49.3626 18.3857C49.3052 18.3378 49.2574 18.305 49.2042 18.2666C49.151 18.2283 49.0677 18.1626 48.994 18.112L48.9462 18.0792C48.8711 18.0272 48.7974 17.9738 48.7209 17.9218L48.6117 17.8465L48.553 17.8082C48.4956 17.7685 48.4369 17.7288 48.3769 17.6905L48.325 17.6563L48.2963 17.6384C48.2417 17.6015 48.1857 17.5659 48.1298 17.5317L48.026 17.466L48.011 17.4578L47.7912 17.321L47.7284 17.284L47.6533 17.2388L47.596 17.206L47.368 17.0691L47.3161 17.0404C47.2355 16.9952 47.155 16.9501 47.0731 16.9035L46.9543 16.8406L46.9038 16.8146L46.8355 16.779L46.7905 16.7557L46.7468 16.7338L46.684 16.7024L46.6198 16.6695C46.5955 16.6558 46.5704 16.6435 46.5447 16.6326C46.4901 16.6038 46.4341 16.5778 46.3782 16.5504L46.3345 16.5066H46.2826L46.1461 16.4437C46.1174 16.4286 46.0901 16.4163 46.0601 16.404L45.9863 16.3711L45.8498 16.3123L45.8293 16.3027H45.8157L45.66 16.237L45.5891 16.2069C45.5331 16.1823 45.4771 16.159 45.4198 16.1371C45.4075 16.1371 45.3938 16.1262 45.3815 16.1207L45.3338 16.1015L45.0757 16.0016C44.8318 15.9104 44.5847 15.8233 44.3344 15.7402C44.1474 15.6787 43.959 15.6212 43.7706 15.5664L43.4866 15.487L43.2026 15.4131L42.9159 15.3447H42.8968L42.6688 15.2941L42.6279 15.2845L42.3384 15.2256C42.3251 15.2216 42.3114 15.2188 42.2975 15.2174L42.0476 15.1709L41.9725 15.1299H41.8524C41.3169 15.0297 40.7764 14.9589 40.2332 14.9177C40.1704 14.9095 40.1063 14.9013 40.0421 14.8958H40.0339C39.9684 14.8958 39.8974 14.8835 39.8346 14.8794L39.7063 14.8712H39.6871C39.3417 14.8506 38.9772 14.8493 38.5786 14.8493H38.4229C37.8704 14.8365 37.3177 14.8603 36.7683 14.9205C36.2251 14.9617 35.6846 15.0325 35.1491 15.1326H35.0303L34.9539 15.175C33.9202 15.3558 32.9063 15.6354 31.9258 16.0098C31.5135 16.1659 31.1084 16.3379 30.7107 16.5258H30.6602L30.6152 16.571C29.7129 17.0033 28.8496 17.513 28.0349 18.0942L27.9871 18.127C27.7045 18.331 27.4287 18.5376 27.1584 18.7621L26.686 19.1439C26.1508 19.6037 25.6375 20.0923 25.1023 20.6493C24.8238 20.9468 24.5599 21.2438 24.3105 21.5403C24.0577 21.8326 23.8224 22.1397 23.606 22.46C23.6011 22.4647 23.5969 22.4703 23.5937 22.4764C23.5296 22.5613 23.4668 22.6475 23.4053 22.7337C23.3889 22.7528 23.3753 22.7734 23.3603 22.7939C23.3453 22.8145 23.3343 22.8295 23.3234 22.8473C23.309 22.8651 23.2958 22.8839 23.2838 22.9034L23.2661 22.928L23.2511 22.9486L23.221 22.9924C23.1637 23.0745 23.1063 23.1566 23.0504 23.2401C23.0463 23.2448 23.0426 23.2498 23.0394 23.2551C22.9794 23.3427 22.9207 23.4317 22.8633 23.5206C22.8265 23.5754 22.7896 23.6301 22.7555 23.6862C22.7336 23.7191 22.7132 23.7506 22.694 23.7834C22.6749 23.8163 22.6312 23.8806 22.6012 23.9299L22.5248 24.053L22.466 24.1502C22.4169 24.2323 22.3678 24.3144 22.3213 24.3965C22.3104 24.4157 22.2995 24.4335 22.2899 24.4526C22.2804 24.4718 22.264 24.4964 22.2531 24.5183C22.1575 24.6812 22.0674 24.8454 21.98 25.011C21.9745 25.0203 21.9695 25.0299 21.965 25.0398C21.9363 25.0918 21.9077 25.1451 21.8804 25.1985C21.8531 25.2519 21.8462 25.2629 21.8312 25.2957C21.8162 25.3285 21.7998 25.3532 21.7862 25.3819C21.7425 25.4654 21.7015 25.5503 21.6606 25.6351C21.6332 25.6885 21.6073 25.7432 21.5827 25.7966C21.5336 25.8979 21.4858 26.0005 21.4462 26.1032C21.4271 26.1428 21.408 26.1839 21.3902 26.2249C21.3547 26.3016 21.3206 26.3782 21.2892 26.4563C21.266 26.5083 21.2442 26.5603 21.221 26.6136C21.18 26.7122 21.139 26.8107 21.0994 26.9106L21.0626 26.8723L20.7773 27.7564L20.6107 28.2587C20.5875 28.3353 20.5643 28.4119 20.5424 28.4886L20.5261 28.5447C20.5124 28.5858 20.5001 28.6282 20.4878 28.6706C20.4882 28.6765 20.4882 28.6825 20.4878 28.6884C20.4755 28.724 20.466 28.7582 20.4564 28.7938L20.4441 28.8348C20.41 28.9525 20.3772 29.0689 20.3458 29.1866L20.3335 29.2372C20.3226 29.2769 20.3131 29.3166 20.3035 29.3563C20.294 29.396 20.2762 29.4603 20.2626 29.5137C20.2626 29.526 20.2557 29.5383 20.253 29.5492C20.2325 29.6355 20.2107 29.7231 20.1916 29.8107C20.1752 29.8791 20.1588 29.9475 20.1451 30.0159C20.1451 30.0242 20.1451 30.0337 20.1451 30.0419C20.1356 30.0816 20.1274 30.1227 20.1178 30.1637L20.1096 30.2062L20.1015 30.2472C20.0985 30.258 20.0962 30.269 20.0946 30.2801C20.0946 30.3047 20.0837 30.328 20.0796 30.3526C20.0673 30.4101 20.055 30.4676 20.0441 30.5264C20.04 30.5435 20.0372 30.5609 20.0359 30.5784C20.0353 30.5875 20.0353 30.5967 20.0359 30.6058C20.0127 30.7262 19.9922 30.8453 19.9718 30.9644C19.9718 30.9863 19.9636 31.0082 19.9608 31.0301C19.9417 31.1436 19.924 31.2572 19.9076 31.3695C19.9076 31.3996 19.898 31.4283 19.8939 31.4584C19.8933 31.4648 19.8933 31.4712 19.8939 31.4776C19.8939 31.4995 19.8939 31.5227 19.8844 31.5446C19.8748 31.5665 19.8748 31.6131 19.8707 31.6473V31.6788C19.8715 31.6851 19.8715 31.6915 19.8707 31.6979C19.8707 31.7554 19.8557 31.8142 19.8502 31.8717C19.8448 31.9292 19.8407 31.9484 19.8366 31.9867L19.8284 32.0496C19.8284 32.0975 19.8175 32.1441 19.8134 32.1865C19.8093 32.2289 19.8025 32.2837 19.7984 32.3329C19.7984 32.3535 19.7984 32.3754 19.7984 32.3959C19.7984 32.4164 19.7984 32.452 19.7984 32.4794C19.7984 32.5068 19.7984 32.5656 19.7875 32.6094C19.7868 32.6126 19.7868 32.6158 19.7875 32.619C19.7875 32.6696 19.7793 32.7216 19.7765 32.7723C19.7693 32.8507 19.7638 32.9287 19.7602 33.0063C19.7602 33.0501 19.7601 33.0939 19.752 33.1431C19.7438 33.1924 19.752 33.191 19.752 33.2157C19.7513 33.2211 19.7513 33.2267 19.752 33.2321C19.752 33.2937 19.752 33.3539 19.7438 33.4141C19.7432 33.42 19.7432 33.426 19.7438 33.4319C19.7438 33.4456 19.7438 33.4607 19.7438 33.4744C19.7431 33.4862 19.7431 33.4981 19.7438 33.5099C19.7431 33.5195 19.7431 33.5291 19.7438 33.5387C19.7438 33.6003 19.7438 33.6605 19.7438 33.722C19.7438 33.7412 19.7438 33.759 19.7438 33.7782C19.7438 33.7973 19.7438 33.8343 19.7438 33.8616V33.8767C19.7438 33.8972 19.7438 33.9178 19.7438 33.9383C19.7438 34.0409 19.7438 34.1422 19.7438 34.2435C19.7438 34.3448 19.7438 34.405 19.7438 34.4857V34.5788C19.7383 35.003 19.747 35.4259 19.7697 35.8475C19.7765 35.9693 19.7847 36.0911 19.7929 36.2115C19.7929 36.2977 19.8052 36.3853 19.8134 36.4715C19.8352 36.7316 19.8625 36.9911 19.8953 37.2503C19.9103 37.3652 19.9253 37.4788 19.9417 37.5938C19.9417 37.6321 19.9513 37.6718 19.9581 37.7101C19.9909 37.9318 20.0277 38.1522 20.0687 38.3725C20.2431 39.318 20.4868 40.2493 20.7977 41.1589C20.8428 41.2958 20.8906 41.4327 20.9343 41.5613L21.1418 42.1991L21.1691 42.1703C21.3274 42.5617 21.4981 42.9472 21.681 43.3268L27.1597 37.7484L27.785 37.112C27.7727 37.0491 27.7604 36.9848 27.7495 36.9204C27.7168 36.7757 27.6935 36.6289 27.6799 36.4811V36.2758C27.6714 36.1074 27.6527 35.9397 27.6239 35.7736C27.6239 35.7174 27.6239 35.6627 27.6239 35.608L27.6403 35.5916C27.604 35.2415 27.5899 34.8895 27.598 34.5377C27.598 34.1408 27.6198 33.7303 27.6539 33.2923C27.6775 33.2149 27.6917 33.135 27.6963 33.0542C27.6963 32.9734 27.6963 32.8927 27.6963 32.812C27.7437 32.3672 27.818 31.9257 27.9188 31.4899C27.9719 31.2247 28.0388 30.9625 28.1195 30.7043L28.1468 30.6113C28.1796 30.5072 28.2137 30.4019 28.2506 30.2924C28.2806 30.2075 28.312 30.1213 28.3475 30.0296C28.3598 29.994 28.3734 29.9584 28.3884 29.9215L28.4103 29.8668C28.4515 29.7416 28.5003 29.6192 28.5564 29.5C28.5923 29.3876 28.6379 29.2786 28.6929 29.1742C28.7205 29.0981 28.7552 29.0248 28.7966 28.9553C28.8865 28.7592 28.9863 28.5677 29.0956 28.3818C29.1858 28.2005 29.288 28.0254 29.4015 27.8577C30.1722 26.6527 31.1341 25.582 32.2493 24.688L32.4446 24.5402C32.6193 24.4116 32.7972 24.2889 32.9784 24.1721C33.0016 24.157 33.0248 24.142 33.0494 24.1283C33.0739 24.1146 33.0876 24.105 33.1067 24.0913H33.1149C33.132 24.0794 33.1498 24.0684 33.1681 24.0585L33.2009 24.0379C33.2173 24.027 33.235 24.0174 33.2528 24.0078L33.2883 23.9873C33.3797 23.9326 33.4712 23.8806 33.5613 23.8313L33.5777 23.8217C33.5942 23.8108 33.6116 23.8012 33.6296 23.793L33.7265 23.741C33.7593 23.7232 33.7907 23.7067 33.8235 23.6917L33.8753 23.6657L33.8999 23.6534L33.9436 23.6329L33.9955 23.6069L34.177 23.522C34.189 23.5144 34.2018 23.5084 34.2153 23.5042C34.233 23.4949 34.2512 23.4867 34.2699 23.4796C34.2894 23.4698 34.3095 23.4611 34.33 23.4536C34.3805 23.4303 34.4323 23.4084 34.4829 23.3879L34.5061 23.3783L34.6426 23.3263L34.7982 23.2661L34.8487 23.2469L34.9006 23.2278H34.9156C35.029 23.1867 35.1436 23.147 35.2597 23.1114H35.2788L35.5163 23.0416C35.7348 22.9828 35.9546 22.928 36.1758 22.8815L36.3983 22.8377C36.4966 22.8199 36.5962 22.8021 36.6959 22.7871C36.9785 22.7419 37.2638 22.7091 37.5492 22.6844L37.6857 22.6735C37.7963 22.6639 37.9055 22.6584 38.0147 22.653H38.1253C38.2618 22.653 38.3984 22.6434 38.5458 22.6434H38.5663C39.1885 22.6446 39.8097 22.6941 40.4244 22.7912C40.5063 22.8035 40.5882 22.8186 40.6701 22.8336C40.7065 22.8391 40.7434 22.8459 40.7807 22.8541C41.0537 22.9075 41.3268 22.9705 41.5998 23.0457L41.8497 23.1196C41.8546 23.1184 41.8598 23.1184 41.8647 23.1196L41.8934 23.1292L42.0121 23.1675H42.0217C42.0727 23.184 42.1232 23.2017 42.1732 23.2209H42.191C42.2292 23.2332 42.2674 23.2483 42.307 23.2633L42.4627 23.3236H42.4804L42.6593 23.3975L42.8231 23.4714L42.9951 23.5508C43.1084 23.6041 43.2217 23.6589 43.3323 23.7177L43.4688 23.7957L43.477 23.7875L43.5153 23.808C43.6095 23.8587 43.7037 23.9107 43.7965 23.9668C43.8893 24.0229 43.9808 24.079 44.0695 24.1365L28.6164 39.8752L25.4436 43.1064L22.8688 45.6055L22.8538 45.6219L22.9152 45.715C22.963 45.7861 23.0108 45.8518 23.0599 45.9271V45.9339L23.0872 45.9805L23.3302 46.3555C23.5989 46.7549 23.8887 47.1395 24.1985 47.5078C24.4552 47.813 24.7187 48.1032 24.9904 48.3933C25.5119 48.9311 26.0252 49.4184 26.5809 49.8987L27.0464 50.2737C27.157 50.3641 27.2689 50.4516 27.3823 50.5392C27.471 50.6077 27.5611 50.6761 27.6553 50.7431L27.9284 50.9429C27.9543 50.9594 27.9802 50.9785 28.0062 50.9963C28.1127 51.072 28.2205 51.146 28.3297 51.218L28.4553 51.3015L28.7557 51.4959L28.798 51.5219C28.9182 51.5971 29.0397 51.671 29.1612 51.7436C29.2827 51.8161 29.426 51.8969 29.5598 51.9721C29.6567 52.0269 29.7537 52.0802 29.852 52.1322C30.1705 52.3019 30.4936 52.4616 30.8213 52.6112C31.1503 52.7604 31.4834 52.9014 31.8206 53.03L32.1155 53.1382C32.2152 53.1737 32.3135 53.2093 32.4145 53.2422L32.6152 53.3079L32.6603 53.3229L32.8364 53.3763L32.9115 53.3996L33.1094 53.4543L33.1367 53.4625L33.1654 53.4707L33.4193 53.5378C33.676 53.6089 33.9272 53.6747 34.1839 53.7294C34.3545 53.7664 34.5265 53.8019 34.6986 53.8348L34.9115 53.8744H34.9293L35.0208 53.8909L35.0645 53.8991H35.0781H35.0958H35.1068L35.3689 53.9415C35.4044 53.9415 35.4385 53.9538 35.474 53.9579L35.7334 53.9963L35.8972 54.0168C35.93 54.0168 35.9614 54.0264 35.9942 54.0291C36.0952 54.0428 36.1949 54.0551 36.2959 54.0661L36.6072 54.0975H36.6795C36.8638 54.114 37.0495 54.1277 37.2352 54.1372H37.3007L37.5137 54.1468C37.597 54.1468 37.6802 54.1536 37.7635 54.1536H37.8918H38.0885H38.6141H38.8735H38.9144C39.0236 54.1536 39.1329 54.1536 39.2421 54.1441H39.3103H39.3772H39.3963C39.4933 54.1441 39.5902 54.1359 39.6858 54.129H39.7745L39.8619 54.1222H39.9397H39.9711L40.1431 54.1071H40.1977L40.4558 54.0825C40.565 54.0715 40.6728 54.0592 40.7821 54.0455L40.9991 54.0168L41.1015 54.0017H41.1193L41.1903 53.9908L41.4524 53.9511H41.4783L41.6039 53.9292L41.6462 53.9224L41.7063 53.9114L41.9398 53.8717L42.1732 53.8279C42.3275 53.7978 42.4804 53.7677 42.6333 53.7335C42.89 53.676 43.1412 53.6131 43.3979 53.5419C43.942 53.4037 44.4777 53.2337 45.002 53.0328C45.2546 52.9356 45.5058 52.833 45.7529 52.7235C46.3319 52.4715 46.8962 52.1868 47.443 51.8709L47.7925 51.6642C48.0246 51.5237 48.2522 51.3782 48.4752 51.2276C48.5871 51.1528 48.6991 51.0761 48.811 50.9977L48.8902 50.9429C49.1896 50.7295 49.4827 50.5064 49.7694 50.2737L50.235 49.8987C50.7906 49.417 51.3039 48.9298 51.8255 48.3933C52.0985 48.1032 52.3606 47.813 52.6173 47.5078C52.9271 47.1395 53.2169 46.7549 53.4856 46.3555L53.7286 45.9805L53.7545 45.9367L53.79 45.886L53.9061 45.7136L53.9184 45.6944L53.9825 45.5986L54.0467 45.5028L54.0549 45.4891C54.104 45.4139 54.1532 45.3386 54.201 45.262L54.3375 45.0334C54.5623 44.6685 54.7748 44.2953 54.9751 43.9139C55.046 43.777 55.1116 43.6402 55.1839 43.5033C55.2181 43.4335 55.2522 43.3665 55.285 43.2953C55.3177 43.2242 55.3491 43.1584 55.3792 43.0968C55.4092 43.0353 55.4324 42.9833 55.457 42.9258C55.4816 42.8683 55.5075 42.8136 55.5334 42.7561V42.7451C55.5334 42.7369 55.5334 42.7287 55.543 42.7219C55.584 42.6288 55.6249 42.5357 55.6645 42.4481L55.7014 42.3606C55.7259 42.3003 55.7532 42.2415 55.7778 42.1813L55.786 42.1608L55.8119 42.1881L56.0195 41.5504C56.0782 41.3902 56.1341 41.2301 56.1888 41.0686C56.1894 41.0609 56.1894 41.0531 56.1888 41.0453C56.2174 40.9632 56.2447 40.8798 56.2707 40.7977C56.283 40.7607 56.2952 40.7237 56.3062 40.6868C56.3068 40.68 56.3068 40.6731 56.3062 40.6662L56.3266 40.6006C56.3485 40.5321 56.3703 40.4637 56.3894 40.3939C56.3963 40.3761 56.4004 40.3597 56.4058 40.3419C56.4112 40.3262 56.4157 40.3102 56.4195 40.294C56.4345 40.2434 56.4495 40.1914 56.4632 40.1394C56.4768 40.0873 56.4932 40.0381 56.5068 39.9861L56.5437 39.8492C56.5443 39.8401 56.5443 39.8309 56.5437 39.8218C56.5701 39.7306 56.5947 39.6348 56.6174 39.5344C56.6352 39.4701 56.6502 39.4058 56.6639 39.3415C56.6639 39.3291 56.6639 39.3168 56.6734 39.3031C56.6843 39.2607 56.6939 39.2183 56.7034 39.1759L56.7116 39.1389L56.7198 39.1006C56.7206 39.0919 56.7206 39.0832 56.7198 39.0746C56.7294 39.0335 56.7376 38.9925 56.7471 38.9514C56.7608 38.8871 56.7744 38.8241 56.7867 38.7612C56.7936 38.7297 56.8004 38.6969 56.8058 38.6654C56.8177 38.6097 56.8286 38.5536 56.8386 38.4971L56.855 38.4094C56.8659 38.3547 56.8768 38.2986 56.8864 38.2439C56.9041 38.1439 56.9219 38.0427 56.9383 37.9428C56.9383 37.9017 56.9506 37.8607 56.9574 37.8196C56.9572 37.8173 56.9572 37.815 56.9574 37.8128C56.9792 37.6759 56.9997 37.539 57.0174 37.3926C57.0174 37.3789 57.0174 37.3666 57.0174 37.3529C57.0352 37.216 57.0516 37.0792 57.0666 36.9423C57.0816 36.8055 57.0953 36.6686 57.1076 36.5318C57.1198 36.3949 57.1321 36.2444 57.1403 36.1007C57.1403 36.0103 57.1526 35.9186 57.1567 35.8269C57.1567 35.8092 57.1567 35.79 57.1567 35.7722C57.1574 35.7676 57.1574 35.7631 57.1567 35.7585C57.169 35.4999 57.1772 35.2412 57.1785 34.9812C57.1785 34.9251 57.1785 34.8662 57.1785 34.8087V34.7813C57.1785 34.6937 57.1785 34.6075 57.1785 34.5199L57.255 34.4761Z" fill="white"/>
</g>
<defs>
<filter id="filter0_d_2_1000" x="0" y="0" width="77" height="77" filterUnits="userSpaceOnUse" color-interpolation-filters="sRGB">
<feFlood flood-opacity="0" result="BackgroundImageFix"/>
<feColorMatrix in="SourceAlpha" type="matrix" values="0 0 0 0 0 0 0 0 0 0 0 0 0 0 0 0 0 0 127 0" result="hardAlpha"/>
<feOffset dy="4"/>
<feGaussianBlur stdDeviation="7"/>
<feComposite in2="hardAlpha" operator="out"/>
<feColorMatrix type="matrix" values="0 0 0 0 0 0 0 0 0 0 0 0 0 0 0 0 0 0 0.08 0"/>
<feBlend mode="normal" in2="BackgroundImageFix" result="effect1_dropShadow_2_1000"/>
<feBlend mode="normal" in="SourceGraphic" in2="effect1_dropShadow_2_1000" result="shape"/>
</filter>
</defs>
</svg>
