<svg width="300" height="300" viewBox="0 0 300 300" fill="none" xmlns="http://www.w3.org/2000/svg">
<path d="M299.499 149.499C299.776 232.065 233.067 299.222 150.501 299.499C67.9349 299.776 0.77765 233.067 0.500971 150.501C0.224292 67.935 66.933 0.777661 149.499 0.500982C232.065 0.224303 299.222 66.933 299.499 149.499Z" fill="#030C17"/>
<path opacity="0.2" d="M243.495 242.874C294.777 191.22 294.529 107.903 242.874 56.6213C191.22 5.33962 107.903 5.58796 56.6216 57.2421L243.495 242.874Z" fill="white"/>
<path d="M164.027 136.586C162.537 136.337 161.172 135.965 159.806 135.717C141.429 131.992 128.143 129.384 128.143 116.595C128.143 108.648 135.965 102.315 149.996 102.315C162.537 102.315 172.471 107.406 178.928 116.967L179.921 117.215L199.912 96.7277L199.788 95.9826C191.841 86.5458 181.784 79.9649 170.236 76.4882C168.622 75.9915 167.132 75.619 165.518 75.2465H165.393C164.773 75.1223 164.276 74.9981 163.655 74.874V56.7454H136.338V74.874C135.469 74.9981 134.6 75.2465 133.73 75.3707H133.606C120.693 78.4749 109.393 85.18 100.577 95.486C96.8523 101.694 94.9897 109.145 94.9897 117.712C94.9897 147.016 117.092 156.329 138.697 161.544C142.67 162.537 146.644 163.282 150.493 163.903C164.027 166.386 175.699 168.497 175.699 180.666C175.699 188.24 167.38 197.677 149.996 197.677C139.69 197.677 131.247 194.2 125.039 187.867C124.666 187.495 124.169 187.122 123.797 186.75L100.205 203.14V204.009C103.557 207.983 107.282 211.459 111.256 214.439C112.622 215.433 113.988 216.302 115.353 217.171C115.353 217.171 115.353 217.171 115.478 217.171C116.843 218.04 118.333 218.785 119.699 219.53C119.699 219.53 119.823 219.53 119.823 219.655C121.313 220.4 122.679 221.02 124.169 221.641C124.294 221.641 124.294 221.641 124.418 221.765C125.908 222.386 127.398 222.883 128.888 223.38C129.012 223.38 129.136 223.38 129.136 223.504C129.881 223.752 130.502 223.876 131.247 224.125C131.371 224.125 131.371 224.125 131.495 224.125C132.24 224.373 132.985 224.497 133.855 224.745C133.979 224.745 134.103 224.745 134.227 224.87C134.848 224.994 135.593 225.118 136.214 225.242V243.371H163.531V225.242C164.028 225.118 164.524 225.118 165.021 224.994C165.145 224.994 165.145 224.994 165.269 224.994C167.132 224.621 168.994 224.125 170.857 223.504C171.726 223.255 172.719 222.883 173.588 222.635C183.646 218.91 192.462 212.701 199.664 204.258C202.396 201.029 204.755 197.677 206.866 193.952C207.983 189.978 208.48 185.508 208.48 180.79C208.604 149.251 184.764 140.683 164.027 136.586Z" fill="#FAFBFC"/>
<path d="M100.329 203.885C98.9634 202.271 97.7218 200.657 96.6042 198.919C96.1076 198.174 95.6109 197.428 95.1142 196.808C94.99 196.683 94.8659 196.435 94.7417 196.311C94.3692 195.69 93.8725 194.945 93.5 194.2C93.3759 193.952 93.2517 193.703 93.1275 193.455C92.755 192.834 92.3825 192.089 92.01 191.468C91.8858 191.22 91.7617 190.972 91.6375 190.723C91.265 190.103 90.8925 189.358 90.6441 188.613C90.52 188.364 90.3958 187.992 90.2716 187.743C89.8991 186.998 89.6508 186.377 89.2783 185.632C89.1541 185.384 89.03 185.136 88.9058 184.763C88.6575 184.018 88.2849 183.273 88.0366 182.528C88.0366 182.404 87.9124 182.156 87.9124 182.032C87.2916 180.293 86.6708 178.555 86.1741 176.816C86.1741 176.692 86.0499 176.568 86.0499 176.32C85.9257 175.699 85.6774 175.078 85.5532 174.457C85.4291 173.961 85.3049 173.464 85.1807 172.967C85.0566 172.346 84.9324 171.85 84.8082 171.229C84.6841 170.732 84.5599 170.111 84.4357 169.615C84.3115 168.994 84.1874 168.497 84.0632 167.876C83.939 167.256 83.8149 166.635 83.6907 166.014C83.5665 165.517 83.5665 164.896 83.4424 164.4C83.3182 163.779 83.194 163.158 83.194 162.413C83.0699 161.916 83.0699 161.42 82.9457 160.799C82.8215 160.054 82.8215 159.433 82.6974 158.688C82.6974 158.191 82.5732 157.695 82.5732 157.198C82.5732 156.329 82.449 155.584 82.449 154.714C82.449 154.342 82.449 153.969 82.3249 153.473C82.3249 152.231 82.2007 150.989 82.2007 149.748C82.2007 148.506 82.2007 147.389 82.3249 146.147C82.3249 145.774 82.3249 145.402 82.3249 145.029C82.3249 144.16 82.449 143.415 82.449 142.546C82.449 142.173 82.5732 141.677 82.5732 141.304C82.6974 140.559 82.6974 139.69 82.8215 138.945C82.8215 138.573 82.9457 138.2 82.9457 137.828C83.0699 136.834 83.194 135.965 83.3182 135.096C83.3182 134.847 83.3182 134.599 83.4424 134.475C83.5665 133.357 83.8149 132.24 84.0632 131.122C84.1874 130.75 84.1874 130.377 84.3115 130.129C84.4357 129.384 84.6841 128.639 84.8082 127.894C84.9324 127.522 85.0566 127.025 85.0566 126.652C85.1807 125.907 85.4291 125.287 85.5532 124.541C85.6774 124.169 85.8016 123.672 85.9257 123.3C86.1741 122.555 86.4224 121.81 86.5466 121.065C86.6708 120.692 86.7949 120.444 86.9191 120.071C87.2916 119.078 87.6641 118.085 88.0366 117.091C88.1608 116.719 88.2849 116.471 88.4091 116.098C88.6575 115.353 88.9058 114.732 89.2783 113.987C89.4025 113.615 89.6508 113.242 89.775 112.745C90.0233 112.125 90.2716 111.628 90.6441 111.007C90.8925 110.635 91.0167 110.138 91.265 109.765C91.5133 109.145 91.8858 108.648 92.1342 108.027C92.3825 107.655 92.5067 107.282 92.755 106.91C93.2517 106.04 93.7484 105.171 94.245 104.302C93.1275 108.4 92.6308 112.87 92.6308 117.588C92.6308 133.73 99.4601 146.023 112.994 154.342C113.74 168.87 117.961 180.293 125.163 187.619L100.329 203.885Z" fill="url(#paint0_linear_74_602)"/>
<path d="M179.052 116.967C183.274 123.3 186.006 131.247 186.999 140.808C190.476 142.422 193.456 144.284 196.188 146.395C206.245 154.218 211.336 165.641 211.336 180.169C211.336 181.907 211.212 183.646 211.088 185.384V185.26C211.584 184.142 212.081 182.901 212.454 181.659C212.578 181.287 212.702 181.038 212.826 180.666C213.074 179.797 213.447 178.927 213.695 178.058C213.819 177.686 213.944 177.189 214.068 176.817C214.192 176.32 214.44 175.699 214.564 175.202C214.813 174.457 214.937 173.836 215.185 173.091C215.309 172.595 215.434 171.974 215.558 171.477C215.682 170.856 215.806 170.236 215.93 169.615C216.054 169.242 216.054 168.746 216.179 168.373C216.303 167.504 216.551 166.511 216.675 165.641C216.675 165.269 216.799 164.896 216.799 164.524C216.924 163.53 217.048 162.537 217.172 161.544C217.172 161.295 217.172 161.171 217.296 160.923C217.42 159.93 217.545 159.06 217.545 158.067C217.545 157.819 217.545 157.57 217.669 157.322C217.793 156.205 217.793 155.087 217.917 153.969C217.917 153.721 217.917 153.473 217.917 153.224C217.917 152.107 218.041 150.865 218.041 149.748C218.041 148.506 218.041 147.264 217.917 145.899C217.917 145.526 217.917 145.154 217.793 144.657C217.793 143.788 217.669 142.918 217.669 142.173C217.669 141.677 217.545 141.18 217.545 140.683C217.42 139.938 217.42 139.193 217.296 138.448C217.296 137.952 217.172 137.455 217.048 136.834C216.924 136.089 216.924 135.468 216.799 134.723C216.675 134.227 216.675 133.606 216.551 133.109C216.427 132.488 216.303 131.743 216.179 131.122C216.054 130.626 215.93 130.005 215.806 129.508C215.682 128.887 215.558 128.267 215.434 127.646C215.309 127.149 215.185 126.528 215.061 126.032C214.937 125.411 214.689 124.79 214.564 124.169C214.44 123.672 214.316 123.051 214.068 122.555C213.944 121.934 213.695 121.437 213.571 120.816C213.447 120.32 213.199 119.699 213.074 119.202C212.826 118.581 212.702 118.085 212.454 117.588C212.205 117.091 212.081 116.471 211.833 115.974C211.584 115.477 211.46 114.856 211.212 114.36C210.964 113.863 210.715 113.242 210.591 112.746C210.343 112.249 210.094 111.752 209.846 111.255C209.598 110.759 209.349 110.262 209.101 109.641C208.853 109.145 208.604 108.648 208.356 108.151C208.108 107.655 207.859 107.158 207.487 106.661C207.239 106.165 206.99 105.668 206.618 105.295C206.369 104.799 205.997 104.302 205.748 103.805C205.5 103.309 205.128 102.936 204.879 102.44C204.01 101.074 203.017 99.7078 202.023 98.3419C201.278 97.3486 200.533 96.4794 199.788 95.6102L179.052 116.967Z" fill="url(#paint1_linear_74_602)"/>
<defs>
<linearGradient id="paint0_linear_74_602" x1="125.396" y1="157.156" x2="67.134" y2="113.779" gradientUnits="userSpaceOnUse">
<stop offset="0.00058093" stop-color="white"/>
<stop offset="1" stop-color="#1E313F"/>
</linearGradient>
<linearGradient id="paint1_linear_74_602" x1="176.217" y1="135.319" x2="230.022" y2="177.266" gradientUnits="userSpaceOnUse">
<stop offset="0.00058093" stop-color="white"/>
<stop offset="0.9967" stop-color="#4E5A64"/>
</linearGradient>
</defs>
</svg>
