<svg width="400" height="400" viewBox="0 0 400 400" fill="none" xmlns="http://www.w3.org/2000/svg">
<mask id="mask0_24_41" style="mask-type:alpha" maskUnits="userSpaceOnUse" x="0" y="0" width="400" height="400">
<path fill-rule="evenodd" clip-rule="evenodd" d="M0 0H400V400H0V0Z" fill="white"/>
</mask>
<g mask="url(#mask0_24_41)">
<path fill-rule="evenodd" clip-rule="evenodd" d="M199.33 0.00114539C309.786 -0.368695 399.629 88.8734 399.999 199.33C400.369 309.786 311.127 399.629 200.67 399.999C90.2138 400.369 0.371477 311.127 0.00114539 200.67C-0.368695 90.2138 88.8734 0.370986 199.33 0.00114539" fill="#1E313F"/>
</g>
<path opacity="0.1" fill-rule="evenodd" clip-rule="evenodd" d="M324.998 324.163C393.564 255.106 393.219 143.565 324.163 74.9993C255.107 6.43387 143.565 6.77768 74.9995 75.8343L324.998 324.163Z" fill="white"/>
<path fill-rule="evenodd" clip-rule="evenodd" d="M308.102 140.421L285.361 117.484L272.984 130.058C272.935 130.009 272.886 129.96 272.837 129.911L262.768 140.077L200.834 202.847L161.639 163.113C153.535 171.561 148.181 182.661 147.002 194.94L200.834 249.507L261.737 187.769C262.522 191.698 262.915 195.775 262.915 199.949C262.915 234.625 234.674 262.867 199.998 262.867C165.323 262.867 137.081 234.625 137.081 199.949C137.081 165.274 165.323 137.032 199.998 137.032C214.242 137.032 227.405 141.796 237.965 149.802L264.93 122.445C247.346 107.71 224.703 98.7712 199.998 98.7712C144.252 98.7712 98.8691 144.154 98.8691 199.9C98.8691 255.696 144.252 301.029 199.998 301.029C255.745 301.029 301.127 255.647 301.127 199.9C301.127 184.576 297.689 170.087 291.599 157.071L308.102 140.421Z" fill="white"/>
<mask id="mask1_24_41" style="mask-type:alpha" maskUnits="userSpaceOnUse" x="147" y="163" width="54" height="87">
<path fill-rule="evenodd" clip-rule="evenodd" d="M147.052 194.94L200.834 249.507H200.883V202.847L161.688 163.112C153.585 171.56 148.231 182.611 147.052 194.94" fill="white"/>
</mask>
<g mask="url(#mask1_24_41)">
<path fill-rule="evenodd" clip-rule="evenodd" d="M147.052 194.94L200.834 249.507H200.883V202.847L161.688 163.112C153.585 171.56 148.231 182.611 147.052 194.94" fill="url(#paint0_linear_24_41)"/>
</g>
<defs>
<linearGradient id="paint0_linear_24_41" x1="120.103" y1="202.183" x2="176.48" y2="221.814" gradientUnits="userSpaceOnUse">
<stop stop-color="#1C313F"/>
<stop offset="1" stop-color="white"/>
</linearGradient>
</defs>
</svg>
