<svg width="125" height="125" viewBox="0 0 125 125" fill="none" xmlns="http://www.w3.org/2000/svg">
<circle cx="62.5" cy="62.5" r="62.5" fill="#0074F0"/>
<path d="M92.999 62.4611C92.999 62.4068 92.999 62.3525 92.999 62.2982V62.2507C92.999 61.9814 92.999 61.7143 92.999 61.4473C92.999 61.0784 92.979 60.7118 92.959 60.3429C92.959 60.189 92.9413 60.0328 92.9302 59.8789C92.9324 59.8352 92.9324 59.7914 92.9302 59.7477C92.9302 59.6164 92.9124 59.4874 92.9013 59.3561C92.9013 59.3041 92.9013 59.2543 92.888 59.2023C92.8747 59.0348 92.8591 58.8696 92.8414 58.7021V58.6863L92.7814 58.1431C92.7393 57.7856 92.6927 57.428 92.6349 57.0727C92.636 57.0508 92.636 57.0289 92.6349 57.007C92.5003 56.1154 92.3263 55.2313 92.1132 54.3547L92.02 53.9722C91.9756 53.8024 91.9312 53.6304 91.8846 53.4607C91.8291 53.248 91.7691 53.0375 91.707 52.8293V52.8022V52.7772C91.6848 52.6935 91.6603 52.6121 91.6359 52.5306C91.6115 52.4491 91.6004 52.4038 91.5804 52.3405C91.5604 52.2771 91.5449 52.2138 91.5249 52.1504L91.2541 51.3198L90.7901 49.8578L90.7279 49.9235C90.4748 49.2838 90.2025 48.6523 89.911 48.0292L79.9075 58.3875C79.9845 58.822 80.0467 59.2588 80.094 59.6979C80.0804 59.966 80.1073 60.2347 80.1739 60.4945C80.2294 61.2187 80.2649 61.8976 80.2649 62.5539C80.2649 62.9477 80.2649 63.2917 80.2494 63.6267C80.2494 63.7013 80.2494 63.7783 80.2494 63.853C80.2383 63.9978 80.225 64.1449 80.2072 64.2943L80.2317 64.3191C80.2317 64.4097 80.2317 64.5002 80.2317 64.593C80.1849 64.8678 80.1545 65.1451 80.1406 65.4236V65.763C80.1184 66.0074 80.0806 66.2501 80.0274 66.4895C79.8762 67.3749 79.6723 68.2501 79.4169 69.1102L79.1349 69.9407C79.0972 70.0494 79.0572 70.167 79.0151 70.2711C78.9951 70.3232 78.9773 70.3753 78.9574 70.4251L78.8974 70.579L78.8841 70.6151C78.8308 70.7487 78.7753 70.8822 78.7176 71.018C78.4334 71.6494 78.1737 72.1993 77.9028 72.6904L77.7918 72.9009C77.7541 72.9711 77.7141 73.039 77.6742 73.1091L77.5809 73.2652L77.4855 73.4192L77.4166 73.5278C77.2299 73.8462 77.0268 74.1544 76.8084 74.4511L76.5864 74.7635C76.3644 75.0735 76.1201 75.3768 75.8782 75.6687C75.7405 75.843 75.5962 76.015 75.4342 76.1824L75.3875 76.2368L75.3565 76.2707C75.1922 76.4563 75.0257 76.6418 74.857 76.8229C74.7415 76.9473 74.6216 77.0696 74.504 77.1918C74.3885 77.3117 74.2687 77.4317 74.1488 77.5448C74.0844 77.6105 74.0178 77.6738 73.9512 77.7372C73.8846 77.8005 73.818 77.8662 73.7514 77.925L73.7359 77.9409L73.465 78.1898L73.4428 78.2102C73.3829 78.2668 73.3229 78.3211 73.2608 78.3709C73.1986 78.4206 73.1253 78.4908 73.0543 78.5497L72.7723 78.7896L72.4549 79.0339L72.1663 79.2444L72.0331 79.3372L72.0109 79.3531L71.9665 79.3847C71.8066 79.4934 71.6468 79.5998 71.4847 79.7039C71.3227 79.808 71.1584 79.9075 70.9919 80.0048L70.6433 80.204L70.519 80.2719L70.3969 80.3375L70.266 80.4054L69.8841 80.5978L69.4956 80.7788L69.4068 80.8173L69.0893 80.9553L68.9339 81.0187L68.6498 81.1296L68.4278 81.2133L68.3145 81.2541L68.1192 81.322L68.077 81.3356L67.7884 81.4306L67.4976 81.5188L67.2045 81.6026C66.8915 81.6863 66.574 81.761 66.2566 81.8289L66.1411 81.8516C65.8592 81.9059 65.5773 81.9534 65.2931 81.9941L64.3895 82.1005C63.7634 82.1762 63.1329 82.2073 62.5025 82.1933C61.4927 82.196 60.4841 82.1204 59.4855 81.967C58.9194 81.8606 58.2645 81.7406 57.7916 81.6026L57.6163 81.5551L57.5608 81.5392L57.321 81.4691L57.0768 81.3921L56.8903 81.331L56.6017 81.2292L56.4507 81.1749L56.2953 81.1183H56.1799C55.7214 80.9392 55.2724 80.7359 54.8346 80.5095L54.4527 80.3149L54.4394 80.3284L54.2174 80.2108L54.1752 80.1881L53.9532 80.0546C53.7912 79.9618 53.6291 79.8623 53.4692 79.7604L78.5555 53.7753L83.0977 49.0703L87.7597 44.2476L87.813 44.1932L87.5444 43.7813C87.2713 43.374 86.9894 42.9757 86.6986 42.5819L86.6808 42.557C86.6164 42.4529 86.5454 42.3533 86.4721 42.2515C86.4166 42.17 86.3589 42.0886 86.299 42.0094L86.2368 41.9211L86.1613 41.8215L86.1081 41.7491L86.0104 41.6246L85.9304 41.5205L85.8661 41.439L85.8461 41.4119L85.775 41.3259C85.7084 41.2422 85.6396 41.1607 85.5686 41.0769C85.5604 41.0651 85.5515 41.0538 85.5419 41.043C85.4398 40.9208 85.3377 40.7963 85.2333 40.6741C85.0247 40.4297 84.8108 40.1853 84.5918 39.9408C84.4808 39.8164 84.3698 39.6942 84.2543 39.5697C83.7104 38.9994 83.1798 38.4698 82.647 37.9674C82.425 37.7682 82.2208 37.5714 82.0055 37.379L81.6791 37.0893L80.911 36.4579L80.5824 36.1909L80.4425 36.08C80.3515 36.0053 80.2583 35.9329 80.165 35.8537C80.0718 35.7745 79.9941 35.7201 79.9075 35.6568C79.8209 35.5934 79.6855 35.4848 79.5656 35.4011L79.4879 35.3468C79.3658 35.2608 79.246 35.1725 79.1216 35.0865L78.944 34.962L78.8486 34.8986C78.7553 34.833 78.6599 34.7674 78.5622 34.704L78.4778 34.6474L78.4312 34.618C78.3424 34.5569 78.2514 34.4981 78.1604 34.4415L77.9916 34.3328L77.9672 34.3193L77.6098 34.093L77.5077 34.0319L77.3856 33.9572L77.2923 33.9029L76.9216 33.6765L76.8372 33.629C76.7062 33.5543 76.5753 33.4797 76.4421 33.4027L76.2489 33.2986L76.1668 33.2556L76.0558 33.1968L75.9825 33.1583L75.9115 33.1221L75.8094 33.07L75.705 33.0157C75.6654 32.9931 75.6247 32.9727 75.5829 32.9546C75.4941 32.9071 75.4031 32.8641 75.3121 32.8188L75.241 32.7464H75.1567L74.9346 32.6423C74.888 32.6174 74.8437 32.597 74.7948 32.5766L74.6749 32.5223L74.4529 32.425L74.4196 32.4092H74.3974L74.1443 32.3005L74.0289 32.2508C73.9379 32.21 73.8469 32.1716 73.7536 32.1353C73.7336 32.1353 73.7114 32.1173 73.6914 32.1082L73.6137 32.0765L73.1942 31.9113C72.7975 31.7604 72.3957 31.6164 71.9887 31.4791C71.6846 31.3772 71.3782 31.2822 71.0718 31.1916L70.61 31.0604L70.1483 30.9381L69.6821 30.825H69.651L69.2803 30.7413L69.2137 30.7254L68.743 30.6281C68.7213 30.6214 68.699 30.6169 68.6764 30.6145L68.2702 30.5376L68.148 30.4697H67.9527C67.0819 30.3042 66.203 30.1871 65.3197 30.1189C65.2176 30.1053 65.1133 30.0918 65.0089 30.0827H64.9956C64.8891 30.0827 64.7736 30.0623 64.6715 30.0556L64.4628 30.042H64.4317C63.8701 30.008 63.2773 30.0058 62.6291 30.0058H62.376C61.4775 29.9847 60.5787 30.024 59.6853 30.1235C58.8021 30.1916 57.9231 30.3087 57.0524 30.4743H56.8592L56.7349 30.5444C55.0541 30.8434 53.4053 31.3057 51.8109 31.9249C51.1404 32.1829 50.4818 32.4673 49.8351 32.7781H49.7529L49.6797 32.8528C48.2125 33.5677 46.8087 34.4105 45.4838 35.3716L45.4061 35.4259C44.9466 35.7631 44.4981 36.1049 44.0585 36.476L43.2904 37.1074C42.4202 37.8678 41.5855 38.6757 40.7152 39.5968C40.2623 40.0887 39.8331 40.5798 39.4276 41.0701C39.0165 41.5535 38.634 42.0613 38.282 42.5909C38.274 42.5988 38.2673 42.608 38.2621 42.6181C38.1577 42.7584 38.0556 42.901 37.9557 43.0436C37.9291 43.0752 37.9069 43.1092 37.8824 43.1432C37.858 43.1771 37.8403 43.202 37.8225 43.2314C37.7991 43.2609 37.7775 43.2919 37.7581 43.3242L37.7293 43.365L37.7048 43.3989L37.656 43.4713C37.5628 43.6071 37.4695 43.7429 37.3785 43.881C37.3719 43.8887 37.3659 43.897 37.3607 43.9058C37.263 44.0507 37.1676 44.1978 37.0744 44.3449C37.0144 44.4354 36.9545 44.526 36.899 44.6187C36.8634 44.6731 36.8302 44.7251 36.7991 44.7794C36.768 44.8337 36.6969 44.9401 36.6481 45.0216L36.5238 45.2252L36.4283 45.3859C36.3484 45.5217 36.2685 45.6575 36.193 45.7933C36.1753 45.825 36.1575 45.8544 36.1419 45.8861C36.1264 45.9177 36.0998 45.9585 36.082 45.9947C35.9266 46.264 35.7801 46.5356 35.638 46.8094C35.629 46.8248 35.6208 46.8406 35.6136 46.8569C35.5669 46.9429 35.5203 47.0312 35.4759 47.1194C35.4315 47.2077 35.4204 47.2259 35.396 47.2802C35.3716 47.3345 35.345 47.3752 35.3228 47.4227C35.2517 47.5608 35.1851 47.7011 35.1185 47.8414C35.0741 47.9297 35.0319 48.0202 34.992 48.1084C34.912 48.2759 34.8343 48.4457 34.77 48.6154C34.7389 48.681 34.7078 48.7489 34.6789 48.8168C34.6212 48.9435 34.5657 49.0703 34.5147 49.1993C34.4769 49.2853 34.4414 49.3713 34.4037 49.4595C34.3371 49.6225 34.2705 49.7854 34.2061 49.9506L34.1461 49.8873L33.6822 51.3492L33.4113 52.1798C33.3736 52.3065 33.3358 52.4333 33.3003 52.56L33.2737 52.6528C33.2515 52.7207 33.2315 52.7908 33.2115 52.861C33.2122 52.8708 33.2122 52.8806 33.2115 52.8904C33.1915 52.9492 33.176 53.0058 33.1604 53.0647L33.1405 53.1326C33.085 53.3272 33.0317 53.5196 32.9806 53.7142L32.9606 53.7979C32.9429 53.8635 32.9273 53.9292 32.9118 53.9948C32.8963 54.0605 32.8674 54.1668 32.8452 54.2551C32.8452 54.2754 32.8341 54.2958 32.8297 54.3139C32.7964 54.4565 32.7608 54.6014 32.7298 54.7462C32.7031 54.8593 32.6765 54.9725 32.6543 55.0857C32.6543 55.0992 32.6543 55.1151 32.6543 55.1286C32.6387 55.1943 32.6254 55.2621 32.6099 55.33L32.5966 55.4002L32.5832 55.4681C32.5785 55.486 32.5747 55.5041 32.5721 55.5224C32.5721 55.5632 32.5544 55.6016 32.5477 55.6424C32.5277 55.7374 32.5078 55.8325 32.49 55.9298C32.4832 55.958 32.4788 55.9868 32.4767 56.0158C32.4756 56.0308 32.4756 56.046 32.4767 56.061C32.4389 56.2602 32.4056 56.4571 32.3723 56.654C32.3723 56.6902 32.359 56.7264 32.3546 56.7626C32.3235 56.9504 32.2946 57.1383 32.268 57.3239C32.268 57.3736 32.2525 57.4212 32.2458 57.4709C32.2447 57.4815 32.2447 57.4921 32.2458 57.5027C32.2458 57.5389 32.2458 57.5773 32.2302 57.6135C32.2147 57.6498 32.2147 57.7267 32.208 57.7833V57.8353C32.2093 57.8458 32.2093 57.8565 32.208 57.867C32.208 57.962 32.1836 58.0594 32.1747 58.1544C32.1659 58.2495 32.1592 58.2812 32.1525 58.3445L32.1392 58.4486C32.1392 58.5278 32.1215 58.6048 32.1148 58.6749C32.1082 58.7451 32.097 58.8356 32.0904 58.9171C32.0904 58.951 32.0904 58.9872 32.0904 59.0212C32.0904 59.0551 32.0904 59.114 32.0904 59.1593C32.0904 59.2045 32.0904 59.3018 32.0726 59.3743C32.0716 59.3795 32.0716 59.3849 32.0726 59.3901C32.0726 59.4738 32.0593 59.5598 32.0549 59.6436C32.043 59.7733 32.0342 59.9023 32.0282 60.0305C32.0282 60.103 32.0282 60.1754 32.0149 60.2569C32.0016 60.3383 32.0149 60.3361 32.0149 60.3768C32.0138 60.3858 32.0138 60.395 32.0149 60.404C32.0149 60.5058 32.0149 60.6054 32.0016 60.7049C32.0006 60.7147 32.0006 60.7246 32.0016 60.7344C32.0016 60.757 32.0016 60.7819 32.0016 60.8046C32.0005 60.8242 32.0005 60.8438 32.0016 60.8634C32.0005 60.8792 32.0005 60.8951 32.0016 60.9109C32.0016 61.0128 32.0016 61.1123 32.0016 61.2141C32.0016 61.2458 32.0016 61.2753 32.0016 61.307C32.0016 61.3386 32.0016 61.3997 32.0016 61.445V61.4699C32.0016 61.5039 32.0016 61.5378 32.0016 61.5717C32.0016 61.7415 32.0016 61.9089 32.0016 62.0764C32.0016 62.2439 32.0016 62.3435 32.0016 62.477V62.6309C31.9927 63.3324 32.0068 64.0317 32.0438 64.7288C32.0549 64.9302 32.0682 65.1316 32.0815 65.3308C32.0815 65.4734 32.1015 65.6182 32.1148 65.7608C32.1503 66.1908 32.1947 66.62 32.248 67.0485C32.2724 67.2386 32.2969 67.4264 32.3235 67.6165C32.3235 67.6799 32.339 67.7455 32.3501 67.8089C32.4034 68.1755 32.4634 68.5399 32.53 68.9042C32.8136 70.4677 33.2098 72.0078 33.7155 73.512C33.7887 73.7383 33.8664 73.9646 33.9375 74.1773L34.2749 75.2319L34.3193 75.1844C34.5768 75.8316 34.8543 76.4691 35.1518 77.0967L44.0608 67.8723L45.0775 66.8199C45.0576 66.7158 45.0376 66.6094 45.0198 66.5031C44.9666 66.2637 44.9288 66.021 44.9066 65.7766V65.4372C44.8927 65.1587 44.8623 64.8813 44.8156 64.6066C44.8156 64.5138 44.8156 64.4233 44.8156 64.3327L44.8422 64.3056C44.7833 63.7268 44.7603 63.1447 44.7734 62.563C44.7734 61.9067 44.8089 61.2277 44.8644 60.5036C44.9027 60.3756 44.9258 60.2434 44.9333 60.1098C44.9333 59.9762 44.9333 59.8427 44.9333 59.7092C45.0104 58.9737 45.1312 58.2436 45.2951 57.523C45.3814 57.0845 45.4903 56.6509 45.6215 56.224L45.6658 56.0701C45.7191 55.8981 45.7746 55.7239 45.8346 55.5428C45.8834 55.4025 45.9345 55.2599 45.9922 55.1083C46.0122 55.0494 46.0344 54.9906 46.0588 54.9295L46.0943 54.839C46.1614 54.6321 46.2407 54.4295 46.3319 54.2325C46.3902 54.0466 46.4645 53.8664 46.5539 53.6938C46.5988 53.568 46.6553 53.4467 46.7226 53.3317C46.8687 53.0074 47.031 52.6909 47.2088 52.3835C47.3555 52.0836 47.5216 51.7941 47.7061 51.5167C48.9593 49.5241 50.5236 47.7536 52.337 46.2753L52.6545 46.0309C52.9386 45.8182 53.228 45.6152 53.5225 45.4221C53.5603 45.3972 53.598 45.3724 53.638 45.3497C53.6779 45.3271 53.7001 45.3112 53.7312 45.2886H53.7445C53.7724 45.2689 53.8013 45.2508 53.8311 45.2343L53.8844 45.2003C53.911 45.1822 53.9399 45.1664 53.9687 45.1505L54.0265 45.1166C54.1752 45.0261 54.3239 44.9401 54.4705 44.8586L54.4971 44.8428C54.524 44.8248 54.5522 44.8089 54.5815 44.7953L54.7391 44.7092C54.7924 44.6798 54.8434 44.6526 54.8967 44.6277L54.9811 44.5848L55.021 44.5644L55.0921 44.5304L55.1764 44.4875L55.4717 44.3471C55.4911 44.3346 55.512 44.3247 55.5339 44.3177C55.5626 44.3023 55.5922 44.2887 55.6227 44.277C55.6544 44.2608 55.687 44.2464 55.7203 44.234C55.8025 44.1955 55.8868 44.1593 55.969 44.1253L56.0067 44.1095L56.2287 44.0235L56.4818 43.9239L56.5639 43.8922L56.6483 43.8606H56.6727C56.857 43.7927 57.0435 43.727 57.2322 43.6682H57.2633L57.6495 43.5528C58.0047 43.4555 58.3622 43.3649 58.7218 43.288L59.0837 43.2156C59.2435 43.1861 59.4056 43.1567 59.5676 43.1319C60.0272 43.0572 60.4912 43.0029 60.9552 42.9621L61.1772 42.944C61.357 42.9282 61.5346 42.9191 61.7122 42.9101H61.892C62.114 42.9101 62.336 42.8942 62.5758 42.8942H62.6091C63.6209 42.8963 64.6311 42.9781 65.6305 43.1387C65.7637 43.159 65.8969 43.1839 66.0301 43.2088C66.0893 43.2179 66.1493 43.2292 66.21 43.2427C66.654 43.331 67.098 43.4351 67.542 43.5596L67.9482 43.6818C67.9563 43.6798 67.9646 43.6798 67.9727 43.6818L68.0193 43.6976L68.2124 43.761H68.228C68.3108 43.7882 68.393 43.8176 68.4744 43.8492H68.5032C68.5654 43.8696 68.6276 43.8945 68.6919 43.9194L68.945 44.019H68.9739L69.2647 44.1412L69.5311 44.2634L69.8108 44.3947C69.9951 44.483 70.1794 44.5735 70.3592 44.6708L70.5812 44.7997L70.5945 44.7862L70.6567 44.8201C70.8099 44.9039 70.963 44.9898 71.114 45.0826C71.265 45.1754 71.4137 45.2682 71.558 45.3633L46.4295 71.3891L41.2702 76.7324L37.0832 80.8648L37.0588 80.892L37.1587 81.0459C37.2364 81.1636 37.3141 81.2722 37.394 81.3967V81.4079L37.4384 81.4849L37.8336 82.105C38.2704 82.7655 38.7418 83.4016 39.2455 84.0105C39.6629 84.5152 40.0914 84.995 40.5331 85.4748C41.3812 86.3642 42.2159 87.1699 43.1195 87.9642L43.8765 88.5843C44.0563 88.7337 44.2384 88.8785 44.4226 89.0234C44.5669 89.1365 44.7135 89.2497 44.8666 89.3606L45.3106 89.691C45.3528 89.7181 45.395 89.7498 45.4372 89.7792C45.6103 89.9044 45.7857 90.0267 45.9633 90.1459L46.1676 90.2839L46.656 90.6053L46.7248 90.6483C46.9202 90.7727 47.1178 90.895 47.3153 91.0149C47.5129 91.1349 47.746 91.2684 47.9636 91.3928C48.1212 91.4834 48.2788 91.5716 48.4387 91.6576C48.9567 91.9382 49.4821 92.2023 50.0149 92.4497C50.5499 92.6964 51.0916 92.9295 51.6399 93.1422L52.1195 93.321C52.2815 93.3799 52.4414 93.4387 52.6056 93.493L52.932 93.6017L53.0053 93.6265L53.2916 93.7148L53.4137 93.7533L53.7356 93.8438L53.78 93.8574L53.8267 93.8709L54.2396 93.9818C54.6569 94.0995 55.0654 94.2082 55.4828 94.2987C55.7603 94.3598 56.04 94.4186 56.3197 94.4729L56.6661 94.5386H56.6949L56.8437 94.5657L56.9147 94.5793H56.9369H56.9658H56.9835L57.4098 94.6494C57.4675 94.6494 57.523 94.6698 57.5807 94.6766L58.0025 94.74L58.2689 94.7739C58.3222 94.7739 58.3733 94.7898 58.4265 94.7943C58.5908 94.8169 58.7529 94.8373 58.9172 94.8554L59.4233 94.9075H59.541C59.8407 94.9346 60.1426 94.9573 60.4446 94.9731H60.5511L60.8974 94.9889C61.0329 94.9889 61.1683 95.0002 61.3037 95.0002H61.5124H61.8321H62.6868H63.1086H63.1752C63.3528 95.0002 63.5304 95.0002 63.708 94.9844H63.819H63.9278H63.9589C64.1165 94.9844 64.2741 94.9708 64.4295 94.9595H64.5738L64.7159 94.9482H64.8424H64.8935L65.1732 94.9233H65.262L65.6816 94.8826C65.8592 94.8645 66.0346 94.8441 66.2122 94.8214L66.5652 94.7739L66.7317 94.7491H66.7605L66.876 94.7309L67.3022 94.6653H67.3444L67.5486 94.6291L67.6175 94.6178L67.7151 94.5997L68.0948 94.534L68.4744 94.4616C68.7252 94.4119 68.9739 94.362 69.2225 94.3055C69.6399 94.2104 70.0484 94.1063 70.4658 93.9886C71.3506 93.7601 72.2216 93.479 73.0743 93.1468C73.485 92.9861 73.8935 92.8163 74.2953 92.6353C75.2368 92.2186 76.1544 91.7479 77.0437 91.2254L77.612 90.8836C77.9894 90.6513 78.3594 90.4107 78.722 90.1617C78.9041 90.038 79.0861 89.9112 79.2681 89.7815L79.3969 89.691C79.8839 89.3379 80.3604 88.9691 80.8266 88.5843L81.5836 87.9642C82.4872 87.1676 83.3219 86.362 84.17 85.4748C84.614 84.995 85.0402 84.5152 85.4576 84.0105C85.9614 83.4016 86.4327 82.7655 86.8695 82.105L87.2647 81.4849L87.3069 81.4125L87.3646 81.3288L87.5533 81.0436L87.5733 81.0119L87.6776 80.8535L87.782 80.6951L87.7953 80.6724C87.8752 80.548 87.9551 80.4235 88.0328 80.2968L88.2548 79.9188C88.6204 79.3154 88.966 78.6982 89.2916 78.0676C89.407 77.8413 89.5136 77.615 89.6312 77.3886C89.6867 77.2732 89.7422 77.1624 89.7955 77.0447C89.8488 76.927 89.8998 76.8183 89.9487 76.7165C89.9975 76.6147 90.0353 76.5287 90.0752 76.4336C90.1152 76.3386 90.1574 76.248 90.1995 76.153V76.1349C90.1995 76.1213 90.1996 76.1077 90.2151 76.0964C90.2817 75.9425 90.3483 75.7886 90.4127 75.6438L90.4726 75.499C90.5126 75.3994 90.557 75.3021 90.5969 75.2025L90.6103 75.1686L90.6524 75.2138L90.9899 74.1592C91.0854 73.8944 91.1764 73.6297 91.2652 73.3626C91.2662 73.3498 91.2662 73.3369 91.2652 73.3241C91.3118 73.1883 91.3562 73.0503 91.3984 72.9145C91.4183 72.8534 91.4383 72.7923 91.4561 72.7312C91.4571 72.7199 91.4571 72.7085 91.4561 72.6972L91.4894 72.5886C91.5249 72.4754 91.5604 72.3623 91.5915 72.2468C91.6026 72.2174 91.6093 72.1903 91.6181 72.1609C91.6269 72.1349 91.6343 72.1084 91.6403 72.0816C91.6648 71.9979 91.6892 71.9119 91.7114 71.8259C91.7336 71.7399 91.7602 71.6584 91.7824 71.5724L91.8424 71.3461C91.8434 71.3311 91.8434 71.3159 91.8424 71.3009C91.8853 71.15 91.9253 70.9916 91.9623 70.8256C91.9911 70.7192 92.0155 70.6129 92.0377 70.5065C92.0377 70.4862 92.0378 70.4658 92.0533 70.4431C92.0711 70.373 92.0866 70.3028 92.1021 70.2327L92.1154 70.1716L92.1288 70.1082C92.13 70.0939 92.13 70.0795 92.1288 70.0652C92.1443 69.9973 92.1576 69.9294 92.1732 69.8615C92.1954 69.7551 92.2176 69.6511 92.2375 69.547C92.2486 69.4949 92.2597 69.4406 92.2686 69.3886C92.2879 69.2965 92.3056 69.2037 92.3219 69.1102L92.3485 68.9653C92.3663 68.8748 92.3841 68.782 92.3996 68.6915C92.4285 68.5263 92.4573 68.3588 92.484 68.1936C92.484 68.1257 92.5039 68.0579 92.515 67.99C92.5148 67.9862 92.5148 67.9824 92.515 67.9786C92.5506 67.7523 92.5839 67.526 92.6127 67.2838C92.6127 67.2612 92.6127 67.2408 92.6127 67.2182C92.6416 66.9919 92.6682 66.7656 92.6927 66.5393C92.7171 66.313 92.7393 66.0866 92.7592 65.8603C92.7792 65.634 92.7992 65.3851 92.8125 65.1475C92.8125 64.9981 92.8325 64.8465 92.8392 64.6949C92.8392 64.6654 92.8392 64.6337 92.8392 64.6043C92.8403 64.5968 92.8403 64.5892 92.8392 64.5817C92.8591 64.154 92.8725 63.7262 92.8747 63.2963C92.8747 63.2035 92.8747 63.1062 92.8747 63.0111V62.9658C92.8747 62.821 92.8747 62.6784 92.8747 62.5336L92.999 62.4611Z" fill="white"/>
</svg>
