<svg width="125" height="125" viewBox="0 0 125 125" fill="none" xmlns="http://www.w3.org/2000/svg">
<g clip-path="url(#clip0_767_662)">
<path d="M62.5008 125.002C97.019 125.002 125.002 97.019 125.002 62.5008C125.002 27.9825 97.019 0 62.5008 0C27.9825 0 0 27.9825 0 62.5008C0 97.019 27.9825 125.002 62.5008 125.002Z" fill="#030C17"/>
<path d="M85.2565 40.5878L82.1147 43.7726L62.7617 63.3972L50.5197 50.9833C47.9841 53.6202 46.3066 57.0859 45.9459 60.9307L62.7617 77.9829L81.7862 58.6914C82.0287 59.9238 82.1577 61.1962 82.1577 62.4993C82.1577 73.3385 73.3399 82.1577 62.4993 82.1577C51.6586 82.1577 42.8409 73.34 42.8409 62.4993C42.8409 51.6587 51.6586 42.8409 62.4993 42.8409C66.9519 42.8409 71.0607 44.3313 74.3606 46.8346L82.7916 38.2855C77.2968 33.6732 70.218 30.8921 62.5008 30.8921C45.0725 30.8921 30.8936 45.0711 30.8936 62.4993C30.8936 79.9276 45.0725 94.1066 62.5008 94.1066C79.9291 94.1066 94.108 79.9276 94.108 62.4993C94.108 53.9993 90.7344 46.2729 85.2565 40.5862V40.5878Z" fill="white"/>
<path d="M69.8237 56.3368L89.1752 36.7122L96.2846 43.8876L77.2601 63.1792L69.8237 56.3368Z" fill="white"/>
<path d="M62.7617 77.9828L45.9458 60.9305C46.308 57.0857 47.9841 53.6185 50.5197 50.9832L62.7617 63.397V77.9828Z" fill="white"/>
</g>
<defs>
<clipPath id="clip0_767_662">
<rect width="125" height="125" fill="white"/>
</clipPath>
</defs>
</svg>
