<svg width="400" height="400" viewBox="0 0 400 400" fill="none" xmlns="http://www.w3.org/2000/svg">
<circle cx="200" cy="200" r="199.333" transform="rotate(-0.191997 200 200)" fill="#1E313F"/>
<path opacity="0.2" d="M324.66 323.832C393.035 254.96 392.704 143.871 323.832 75.4951C254.96 7.1196 143.87 7.45072 75.4946 76.3229L324.66 323.832Z" fill="white"/>
<path d="M218.703 182.115C216.716 181.784 214.895 181.288 213.074 180.956C188.572 175.99 170.857 172.513 170.857 155.46C170.857 144.865 181.287 136.421 199.995 136.421C216.716 136.421 229.961 143.209 238.57 155.957L239.895 156.288L266.549 128.971L266.384 127.978C255.788 115.395 242.378 106.621 226.981 101.985V101.985C224.829 101.323 222.842 100.826 220.69 100.33H220.524C219.697 100.164 219.034 99.9985 218.206 99.8329V75.6614H181.784V99.8329C180.625 99.9985 179.466 100.33 178.307 100.495H178.141C160.923 104.634 145.858 113.574 134.103 127.316C129.136 135.593 126.653 145.527 126.653 156.95C126.653 196.022 156.122 208.439 184.929 215.393C190.227 216.717 195.525 217.71 200.657 218.538C218.703 221.849 234.266 224.664 234.266 240.888C234.266 250.988 223.173 263.57 199.995 263.57C186.254 263.57 174.996 258.934 166.718 250.491C166.221 249.994 165.559 249.497 165.062 249.001L133.606 270.854V272.013C138.076 277.311 143.043 281.947 148.341 285.92C150.162 287.245 151.983 288.404 153.804 289.563C153.804 289.563 153.804 289.563 153.97 289.563C155.791 290.721 157.778 291.715 159.599 292.708C159.599 292.708 159.764 292.708 159.764 292.874C161.751 293.867 163.572 294.695 165.559 295.523C165.725 295.523 165.725 295.523 165.89 295.688C167.877 296.516 169.864 297.178 171.85 297.84C172.016 297.84 172.181 297.84 172.181 298.006C173.175 298.337 174.002 298.503 174.996 298.834C175.161 298.834 175.161 298.834 175.327 298.834C176.32 299.165 177.314 299.33 178.473 299.662C178.638 299.662 178.804 299.662 178.969 299.827C179.797 299.993 180.79 300.158 181.618 300.324V324.495H218.041V300.324C218.703 300.158 219.365 300.158 220.028 299.993C220.193 299.993 220.193 299.993 220.359 299.993C222.842 299.496 225.325 298.834 227.809 298.006V298.006C228.968 297.675 230.292 297.178 231.451 296.847C244.861 291.88 256.616 283.602 266.218 272.345C269.861 268.04 273.006 263.57 275.821 258.603C277.311 253.305 277.973 247.345 277.973 241.054C278.139 199.002 246.351 187.579 218.703 182.115Z" fill="#FAFBFC"/>
<path d="M133.772 271.847C131.951 269.695 130.295 267.543 128.805 265.225C128.143 264.231 127.481 263.238 126.819 262.41C126.653 262.245 126.488 261.914 126.322 261.748C125.825 260.92 125.163 259.927 124.666 258.934C124.501 258.603 124.335 258.271 124.17 257.94C123.673 257.112 123.176 256.119 122.68 255.291C122.514 254.96 122.349 254.629 122.183 254.298C121.686 253.47 121.19 252.477 120.859 251.484C120.693 251.152 120.527 250.656 120.362 250.325C119.865 249.331 119.534 248.503 119.037 247.51C118.872 247.179 118.706 246.848 118.541 246.351C118.21 245.358 117.713 244.365 117.382 243.371C117.382 243.206 117.216 242.874 117.216 242.709C116.388 240.391 115.561 238.073 114.898 235.755C114.898 235.59 114.733 235.424 114.733 235.093C114.567 234.265 114.236 233.438 114.071 232.61C113.905 231.948 113.74 231.285 113.574 230.623C113.408 229.795 113.243 229.133 113.077 228.305C112.912 227.643 112.746 226.815 112.581 226.153C112.415 225.325 112.25 224.663 112.084 223.835C111.918 223.008 111.753 222.18 111.587 221.352C111.422 220.69 111.422 219.862 111.256 219.2C111.091 218.372 110.925 217.544 110.925 216.551C110.759 215.888 110.759 215.226 110.594 214.398C110.428 213.405 110.428 212.577 110.263 211.584C110.263 210.922 110.097 210.26 110.097 209.597C110.097 208.438 109.932 207.445 109.932 206.286C109.932 205.789 109.932 205.293 109.766 204.631C109.766 202.975 109.601 201.319 109.601 199.664C109.601 198.008 109.601 196.518 109.766 194.863C109.766 194.366 109.766 193.869 109.766 193.373C109.766 192.214 109.932 191.22 109.932 190.061C109.932 189.565 110.097 188.903 110.097 188.406C110.263 187.412 110.263 186.254 110.428 185.26C110.428 184.764 110.594 184.267 110.594 183.77C110.759 182.446 110.925 181.287 111.091 180.128C111.091 179.797 111.091 179.466 111.256 179.3C111.422 177.81 111.753 176.32 112.084 174.83C112.25 174.333 112.25 173.837 112.415 173.506C112.581 172.512 112.912 171.519 113.077 170.526C113.243 170.029 113.408 169.367 113.408 168.87C113.574 167.877 113.905 167.049 114.071 166.055C114.236 165.559 114.402 164.897 114.567 164.4C114.898 163.407 115.23 162.413 115.395 161.42C115.561 160.923 115.726 160.592 115.892 160.095C116.388 158.771 116.885 157.446 117.382 156.122C117.547 155.625 117.713 155.294 117.878 154.798C118.21 153.804 118.541 152.976 119.037 151.983C119.203 151.486 119.534 150.99 119.7 150.327C120.031 149.5 120.362 148.837 120.859 148.01C121.19 147.513 121.355 146.851 121.686 146.354C122.017 145.526 122.514 144.864 122.845 144.036C123.176 143.54 123.342 143.043 123.673 142.546C124.335 141.387 124.997 140.228 125.66 139.07C124.17 144.533 123.507 150.493 123.507 156.784C123.507 178.307 132.613 194.697 150.659 205.789C151.652 225.16 157.281 240.391 166.884 250.159L133.772 271.847Z" fill="url(#paint0_linear_24_32)"/>
<path d="M238.736 155.958C244.365 164.401 248.008 174.997 249.332 187.745C253.968 189.897 257.941 192.38 261.583 195.195C274.994 205.625 281.781 220.856 281.781 240.227C281.781 242.545 281.616 244.862 281.45 247.18V247.015C282.113 245.525 282.775 243.869 283.271 242.213C283.437 241.717 283.603 241.386 283.768 240.889C284.099 239.73 284.596 238.571 284.927 237.412C285.093 236.916 285.258 236.253 285.424 235.757C285.589 235.094 285.92 234.267 286.086 233.604C286.417 232.611 286.583 231.783 286.914 230.79C287.079 230.128 287.245 229.3 287.41 228.638C287.576 227.81 287.742 226.982 287.907 226.154C288.073 225.658 288.073 224.995 288.238 224.499C288.404 223.34 288.735 222.015 288.9 220.856C288.9 220.36 289.066 219.863 289.066 219.366C289.232 218.042 289.397 216.717 289.563 215.393C289.563 215.062 289.563 214.896 289.728 214.565C289.894 213.241 290.059 212.082 290.059 210.757C290.059 210.426 290.059 210.095 290.225 209.764C290.39 208.274 290.39 206.784 290.556 205.294C290.556 204.963 290.556 204.632 290.556 204.301C290.556 202.811 290.722 201.155 290.722 199.665C290.722 198.009 290.722 196.354 290.556 194.533C290.556 194.036 290.556 193.539 290.39 192.877C290.39 191.718 290.225 190.559 290.225 189.566C290.225 188.904 290.059 188.241 290.059 187.579C289.894 186.586 289.894 185.592 289.728 184.599C289.728 183.937 289.563 183.275 289.397 182.447C289.232 181.454 289.232 180.626 289.066 179.632C288.9 178.97 288.9 178.142 288.735 177.48C288.569 176.652 288.404 175.659 288.238 174.831C288.073 174.169 287.907 173.341 287.742 172.679C287.576 171.851 287.41 171.023 287.245 170.196C287.079 169.533 286.914 168.706 286.748 168.043C286.583 167.216 286.252 166.388 286.086 165.56C285.92 164.898 285.755 164.07 285.424 163.408C285.258 162.58 284.927 161.918 284.762 161.09C284.596 160.428 284.265 159.6 284.099 158.938C283.768 158.11 283.603 157.448 283.271 156.785C282.94 156.123 282.775 155.295 282.444 154.633C282.113 153.971 281.947 153.143 281.616 152.481C281.285 151.819 280.954 150.991 280.788 150.329C280.457 149.666 280.126 149.004 279.795 148.342C279.464 147.68 279.133 147.017 278.801 146.19C278.47 145.527 278.139 144.865 277.808 144.203C277.477 143.541 277.146 142.878 276.649 142.216C276.318 141.554 275.987 140.892 275.49 140.395C275.159 139.733 274.662 139.071 274.331 138.408C274 137.746 273.504 137.25 273.172 136.587C272.014 134.766 270.689 132.945 269.365 131.124V131.124C268.371 129.799 267.378 128.64 266.385 127.482L238.736 155.958Z" fill="url(#paint1_linear_24_32)"/>
<defs>
<linearGradient id="paint0_linear_24_32" x1="167.195" y1="209.541" x2="89.5117" y2="151.706" gradientUnits="userSpaceOnUse">
<stop offset="0.00058093" stop-color="white"/>
<stop offset="1" stop-color="#1E313F"/>
</linearGradient>
<linearGradient id="paint1_linear_24_32" x1="234.956" y1="180.426" x2="306.696" y2="236.356" gradientUnits="userSpaceOnUse">
<stop offset="0.00058093" stop-color="white"/>
<stop offset="0.9967" stop-color="#4E5A64"/>
</linearGradient>
</defs>
</svg>
