<svg width="70" height="16" viewBox="0 0 70 16" fill="none" xmlns="http://www.w3.org/2000/svg">
<path fill-rule="evenodd" clip-rule="evenodd" d="M21.8566 2.44035C21.5993 1.47928 20.844 0.72402 19.8829 0.466754C18.1428 0 11.1616 0 11.1616 0C11.1616 0 4.18057 0 2.44035 0.466754C1.47928 0.72402 0.72402 1.47928 0.466754 2.44035C0 4.18057 0 7.81353 0 7.81353C0 7.81353 0 11.4465 0.466754 13.1867C0.72402 14.1478 1.47928 14.9031 2.44035 15.1603C4.18057 15.6271 11.1616 15.6271 11.1616 15.6271C11.1616 15.6271 18.1428 15.6271 19.8829 15.1603C20.844 14.9031 21.5993 14.1478 21.8566 13.1867C22.3233 11.4465 22.3233 7.81353 22.3233 7.81353C22.3233 7.81353 22.3215 4.18057 21.8566 2.44035ZM8.92719 11.1619L14.7267 7.81384L8.92719 4.46569V11.1619Z" fill="black"/>
<path d="M24.5302 1.10832L27.0367 10.1604H27.0349V14.5027H29.2069V10.1604L31.7447 1.10832H29.5579L28.6483 5.22641C28.3929 6.43004 28.2275 7.28637 28.154 7.79722H28.0897C27.9831 7.08423 27.8196 6.22239 27.5954 5.2117L26.717 1.10832H24.5302Z" fill="black"/>
<path fill-rule="evenodd" clip-rule="evenodd" d="M32.4024 14.2157C31.9615 13.918 31.6472 13.4549 31.4597 12.8265C31.2742 12.198 31.1805 11.3638 31.1805 10.32V8.89946C31.1805 7.8465 31.2871 6.9994 31.5002 6.36175C31.7134 5.7241 32.046 5.25734 32.498 4.96516C32.9501 4.67298 33.5436 4.52597 34.2787 4.52597C35.0027 4.52597 35.5815 4.67482 36.0189 4.97252C36.4544 5.2702 36.7741 5.73696 36.9763 6.3691C37.1784 7.00307 37.2795 7.8465 37.2795 8.89946V10.32C37.2795 11.3638 37.1803 12.2017 36.9837 12.8338C36.787 13.4678 36.4673 13.9309 36.0262 14.223C35.5852 14.5153 34.9861 14.6622 34.2309 14.6622C33.4517 14.664 32.8435 14.5134 32.4024 14.2157ZM34.8759 12.6832C34.9972 12.3634 35.0597 11.8434 35.0597 11.1194V8.07075C35.0597 7.36876 34.999 6.85423 34.8759 6.53081C34.7528 6.20555 34.5378 6.04384 34.229 6.04384C33.9314 6.04384 33.72 6.20555 33.5988 6.53081C33.4756 6.85607 33.415 7.36876 33.415 8.07075V11.1194C33.415 11.8434 33.4738 12.3652 33.5914 12.6832C33.709 13.0029 33.9203 13.1628 34.229 13.1628C34.5378 13.1628 34.7528 13.0029 34.8759 12.6832Z" fill="black"/>
<path d="M42.6692 14.5046H44.3929V4.71559H42.1914V12.4906C42.1051 12.6706 41.9765 12.8194 41.8001 12.9371C41.6236 13.0547 41.4399 13.1134 41.2487 13.1134C41.0246 13.1134 40.8647 13.0198 40.7691 12.8342C40.6736 12.6485 40.6258 12.338 40.6258 11.9006V4.71742H38.4225V12.0293C38.4225 12.9334 38.5769 13.5986 38.8856 14.025C39.1943 14.4494 39.6739 14.6626 40.3226 14.6626C41.2597 14.6626 41.9617 14.2105 42.4304 13.3064H42.4781L42.6692 14.5046Z" fill="black"/>
<path d="M50.3781 2.8813H48.1913V14.5042H46.0358V2.8813H43.8491V1.10984H50.3781V2.8813Z" fill="black"/>
<path d="M53.9687 14.5046H55.6924V4.71559H53.4909V12.4906C53.4046 12.6706 53.276 12.8194 53.0995 12.9371C52.9231 13.0547 52.7393 13.1134 52.5483 13.1134C52.324 13.1134 52.1642 13.0198 52.0686 12.8342C51.9731 12.6485 51.9253 12.338 51.9253 11.9006V4.71742H49.722V12.0293C49.722 12.9334 49.8764 13.5986 50.1851 14.025C50.4938 14.4494 50.9734 14.6626 51.6221 14.6626C52.5593 14.6626 53.2613 14.2105 53.7299 13.3064H53.7776L53.9687 14.5046Z" fill="black"/>
<path fill-rule="evenodd" clip-rule="evenodd" d="M62.9841 6.28106C62.8499 5.66363 62.6349 5.21709 62.3373 4.9396C62.0396 4.66213 61.6298 4.52431 61.1079 4.52431C60.7036 4.52431 60.3251 4.63824 59.9741 4.86794C59.6231 5.09764 59.3511 5.39717 59.16 5.77021H59.1435V0.613866H57.021V14.5025H58.8403L59.0644 13.5764H59.1122C59.2831 13.9071 59.5386 14.1662 59.8785 14.3592C60.2185 14.5504 60.597 14.6459 61.0123 14.6459C61.7566 14.6459 62.306 14.3023 62.657 13.6168C63.008 12.9295 63.1843 11.8582 63.1843 10.3992V8.85007C63.1843 7.75666 63.1164 6.8985 62.9841 6.28106ZM60.9645 10.2742C60.9645 10.9872 60.9351 11.5458 60.8763 11.9501C60.8175 12.3544 60.7201 12.6429 60.5805 12.8119C60.4427 12.9828 60.2552 13.0674 60.0218 13.0674C59.8399 13.0674 59.6727 13.0251 59.5183 12.9387C59.364 12.8542 59.2391 12.7256 59.1435 12.5565V7.00141C59.2169 6.73495 59.3456 6.51812 59.5275 6.34722C59.7076 6.17632 59.9061 6.09179 60.1174 6.09179C60.3416 6.09179 60.5143 6.18 60.6357 6.35457C60.7587 6.53098 60.8433 6.825 60.8911 7.2403C60.9388 7.6556 60.9627 8.24546 60.9627 9.01173V10.2742H60.9645Z" fill="black"/>
<path fill-rule="evenodd" clip-rule="evenodd" d="M66.3652 12.2515C66.3284 11.9372 66.3101 11.4668 66.3101 10.8383V10.3421H70V8.66622C70 7.63352 69.9173 6.82497 69.7519 6.23877C69.5865 5.65257 69.3017 5.22257 68.8974 4.94509C68.4932 4.66761 67.9125 4.52979 67.1572 4.52979C66.0602 4.52979 65.2866 4.86791 64.8345 5.54416C64.3825 6.22039 64.1564 7.29356 64.1564 8.76178V10.4708C64.1564 11.8968 64.3732 12.9498 64.8106 13.6315C65.2461 14.3132 66.0069 14.6532 67.0929 14.6532C67.997 14.6532 68.6972 14.429 69.1915 13.9825C69.6857 13.5359 69.9338 12.8597 69.9338 11.9556C69.9338 11.8067 69.9283 11.6891 69.9173 11.6046L68.0172 11.4925C68.0062 12.0879 67.94 12.5142 67.8169 12.7697C67.6956 13.0251 67.4678 13.1537 67.1388 13.1537C66.8944 13.1537 66.7143 13.082 66.5967 12.9387C66.4791 12.7936 66.4019 12.5656 66.3652 12.2515ZM66.3652 6.90398C66.4038 6.58976 66.4773 6.36373 66.5894 6.22591C66.6996 6.08809 66.8724 6.01826 67.1076 6.01642C67.341 6.01642 67.5137 6.08441 67.6258 6.21672C67.7379 6.35086 67.8151 6.57873 67.8574 6.90398C67.8996 7.22925 67.9217 7.70518 67.9217 8.33368V9.03565H66.3101V8.33368C66.3101 7.69416 66.3284 7.21822 66.3652 6.90398Z" fill="black"/>
</svg>
