<svg width="505" height="505" viewBox="0 0 505 505" fill="none" xmlns="http://www.w3.org/2000/svg">
<g filter="url(#filter0_b_7_1118)">
<circle cx="252.5" cy="252.5" r="252.5" fill="white" fill-opacity="0.3"/>
</g>
<circle cx="252.5" cy="252.5" r="222.28" stroke="#0074F0" stroke-width="1.59055"/>
<path d="M474.779 252.5C474.779 261.394 468.792 270.026 457.583 278.01C446.393 285.979 430.151 293.189 410.008 299.257C369.732 311.39 314.045 318.906 252.5 318.906C190.955 318.906 135.267 311.39 94.9913 299.257C74.8485 293.189 58.6058 285.979 47.4165 278.01C36.2071 270.026 30.2201 261.394 30.2201 252.5C30.2201 243.606 36.2071 234.974 47.4165 226.99C58.6058 219.021 74.8485 211.811 94.9913 205.743C135.267 193.61 190.955 186.094 252.5 186.094C314.045 186.094 369.732 193.61 410.008 205.743C430.151 211.811 446.393 219.021 457.583 226.99C468.792 234.974 474.779 243.606 474.779 252.5Z" stroke="#0074F0" stroke-width="1.59055"/>
<path d="M474.779 252.5C474.779 298.422 449.978 340.056 409.76 370.237C369.542 400.419 313.944 419.11 252.5 419.11C191.055 419.11 135.457 400.419 95.2393 370.237C55.0213 340.056 30.2201 298.422 30.2201 252.5C30.2201 206.578 55.0213 164.944 95.2393 134.763C135.457 104.581 191.055 85.8898 252.5 85.8898C313.944 85.8898 369.542 104.581 409.76 134.763C449.978 164.944 474.779 206.578 474.779 252.5Z" stroke="#0074F0" stroke-width="1.59055"/>
<path d="M412.748 252.5C412.748 313.952 394.765 369.553 365.73 409.772C336.695 449.992 296.651 474.779 252.5 474.779C208.349 474.779 168.306 449.992 139.27 409.772C110.235 369.553 92.2523 313.952 92.2523 252.5C92.2523 191.048 110.235 135.447 139.27 95.2278C168.306 55.0079 208.349 30.2204 252.5 30.2204C296.651 30.2204 336.695 55.0079 365.73 95.2278C394.765 135.447 412.748 191.048 412.748 252.5Z" stroke="#0074F0" stroke-width="1.59055"/>
<path d="M330.835 252.5C330.835 314.034 321.986 369.709 307.704 409.972C300.561 430.107 292.075 446.345 282.692 457.533C273.305 468.726 263.098 474.779 252.5 474.779C241.902 474.779 231.696 468.726 222.308 457.533C212.925 446.345 204.439 430.107 197.296 409.972C183.014 369.709 174.165 314.034 174.165 252.5C174.165 190.966 183.014 135.291 197.296 95.0281C204.439 74.8932 212.925 58.6554 222.308 47.4665C231.696 36.2736 241.902 30.2204 252.5 30.2204C263.098 30.2204 273.305 36.2736 282.692 47.4665C292.075 58.6554 300.561 74.8932 307.704 95.0281C321.986 135.291 330.835 190.966 330.835 252.5Z" stroke="#0074F0" stroke-width="1.59055"/>
<g filter="url(#filter1_ddd_7_1118)">
<circle cx="252.897" cy="252.897" r="89.8661" fill="white"/>
</g>
<path d="M294.676 226.103L278.266 242.55C278.868 245.87 279.32 249.34 279.32 253.263C279.32 274.085 269.534 286.458 253.274 286.458C246.499 286.458 240.778 284.346 236.412 280.121L293.321 223.086C291.816 220.37 290.009 217.955 288.203 215.541C287.299 214.485 286.546 213.731 285.643 212.674C285.493 212.524 285.342 212.373 285.191 212.373C284.89 212.373 284.589 212.071 284.288 211.769C276.008 204.074 265.318 200 253.274 200C239.122 200 227.078 205.432 218.496 215.692C210.366 225.349 206 238.627 206 253.263C206 262.92 207.957 272.124 211.721 279.97L228.282 263.372C227.68 260.204 227.379 256.884 227.379 253.112C227.379 243.606 229.336 235.76 233.25 230.026C237.767 223.387 244.692 219.766 253.425 219.766C260.199 219.766 265.77 221.879 270.136 225.952L213.076 282.988C214.582 285.854 216.388 288.57 218.496 290.834C218.948 291.286 219.399 291.739 219.7 292.192C220.152 292.795 220.754 293.248 221.206 293.701C221.357 293.851 221.357 293.851 221.357 293.851C221.507 294.002 221.658 294.153 221.808 294.304C230.089 302.15 240.778 306.375 253.123 306.375C267.276 306.375 279.169 300.943 287.901 290.683C296.031 281.026 300.548 267.597 300.548 253.112C300.699 243.455 298.591 234.1 294.676 226.103Z" fill="#0074F0"/>
<defs>
<filter id="filter0_b_7_1118" x="-186.094" y="-186.094" width="877.189" height="877.189" filterUnits="userSpaceOnUse" color-interpolation-filters="sRGB">
<feFlood flood-opacity="0" result="BackgroundImageFix"/>
<feGaussianBlur in="BackgroundImageFix" stdDeviation="93.0472"/>
<feComposite in2="SourceAlpha" operator="in" result="effect1_backgroundBlur_7_1118"/>
<feBlend mode="normal" in="SourceGraphic" in2="effect1_backgroundBlur_7_1118" result="shape"/>
</filter>
<filter id="filter1_ddd_7_1118" x="99.4092" y="120.882" width="306.977" height="306.976" filterUnits="userSpaceOnUse" color-interpolation-filters="sRGB">
<feFlood flood-opacity="0" result="BackgroundImageFix"/>
<feColorMatrix in="SourceAlpha" type="matrix" values="0 0 0 0 0 0 0 0 0 0 0 0 0 0 0 0 0 0 127 0" result="hardAlpha"/>
<feOffset dy="1.42794"/>
<feGaussianBlur stdDeviation="2.11547"/>
<feColorMatrix type="matrix" values="0 0 0 0 0 0 0 0 0 0 0 0 0 0 0 0 0 0 0.0282725 0"/>
<feBlend mode="normal" in2="BackgroundImageFix" result="effect1_dropShadow_7_1118"/>
<feColorMatrix in="SourceAlpha" type="matrix" values="0 0 0 0 0 0 0 0 0 0 0 0 0 0 0 0 0 0 127 0" result="hardAlpha"/>
<feOffset dy="4.79615"/>
<feGaussianBlur stdDeviation="7.10541"/>
<feColorMatrix type="matrix" values="0 0 0 0 0 0 0 0 0 0 0 0 0 0 0 0 0 0 0.0417275 0"/>
<feBlend mode="normal" in2="effect1_dropShadow_7_1118" result="effect2_dropShadow_7_1118"/>
<feColorMatrix in="SourceAlpha" type="matrix" values="0 0 0 0 0 0 0 0 0 0 0 0 0 0 0 0 0 0 127 0" result="hardAlpha"/>
<feOffset dy="21.4724"/>
<feGaussianBlur stdDeviation="31.811"/>
<feColorMatrix type="matrix" values="0 0 0 0 0 0 0 0 0 0 0 0 0 0 0 0 0 0 0.07 0"/>
<feBlend mode="normal" in2="effect2_dropShadow_7_1118" result="effect3_dropShadow_7_1118"/>
<feBlend mode="normal" in="SourceGraphic" in2="effect3_dropShadow_7_1118" result="shape"/>
</filter>
</defs>
</svg>
